M48
; DRILL file {KiCad 9.0.0} date 2025-06-22T14:00:32-0600
; FORMAT={-:-/ absolute / metric / decimal}
; #@! TF.CreationDate,2025-06-22T14:00:32-06:00
; #@! TF.GenerationSoftware,Kicad,Pcbnew,9.0.0
; #@! TF.FileFunction,Plated,1,4,PTH
FMAT,2
METRIC
; #@! TA.AperFunction,Plated,PTH,ViaDrill
T1C0.200
; #@! TA.AperFunction,Plated,PTH,ViaDrill
T2C0.300
; #@! TA.AperFunction,Plated,PTH,ViaDrill
T3C0.400
; #@! TA.AperFunction,Plated,PTH,ComponentDrill
T4C0.400
; #@! TA.AperFunction,Plated,PTH,ComponentDrill
T5C0.600
; #@! TA.AperFunction,Plated,PTH,ComponentDrill
T6C0.750
; #@! TA.AperFunction,Plated,PTH,ComponentDrill
T7C0.800
; #@! TA.AperFunction,Plated,PTH,ComponentDrill
T8C0.990
; #@! TA.AperFunction,Plated,PTH,ComponentDrill
T9C1.000
; #@! TA.AperFunction,Plated,PTH,ComponentDrill
T10C1.100
; #@! TA.AperFunction,Plated,PTH,ComponentDrill
T11C1.300
%
G90
G05
T1
X62.75Y-121.367
X65.2Y-117.8
X65.5Y-116.238
X66.0Y-66.75
X66.033Y-115.472
X66.198Y-76.95
X66.75Y-125.0
X66.848Y-99.0
X66.99Y-111.71
X67.2Y-118.2
X67.267Y-119.8
X67.5Y-110.25
X67.75Y-113.0
X68.146Y-112.054
X68.25Y-117.75
X69.497Y-114.248
X69.5Y-122.067
X70.75Y-122.0
X70.963Y-126.018
X71.0Y-132.25
X71.0Y-135.0
X71.25Y-127.75
X71.404Y-119.736
X71.5Y-122.5
X71.5Y-125.75
X71.578Y-123.981
X71.901Y-118.192
X72.0Y-113.25
X72.175Y-117.659
X72.699Y-134.093
X73.25Y-135.5
X73.5Y-117.75
X73.75Y-115.25
X73.75Y-118.5
X73.75Y-137.136
X73.835Y-138.048
X73.874Y-134.874
X73.9Y-112.7
X74.0Y-59.5
X74.0Y-122.95
X74.1Y-127.0
X74.1Y-130.3
X74.501Y-127.575
X74.501Y-129.5
X74.987Y-126.415
X75.0Y-129.0
X75.157Y-124.407
X75.234Y-121.6
X75.377Y-141.5
X75.755Y-101.548
X75.903Y-122.703
X76.04Y-126.85
X76.2Y-129.8
X76.941Y-101.0
X77.0Y-92.8
X77.291Y-123.002
X77.438Y-128.402
X77.68Y-125.0
X78.008Y-123.099
X78.047Y-101.56
X78.391Y-125.0
X78.426Y-94.426
X78.448Y-98.75
X78.5Y-111.9
X78.715Y-123.099
X79.0Y-124.982
X79.2Y-129.5
X79.3Y-104.8
X79.4Y-108.7
X79.4Y-142.2
X79.422Y-123.099
X79.425Y-127.72
X79.438Y-131.64
X79.449Y-100.375
X79.5Y-112.5
X79.55Y-128.853
X79.736Y-97.997
X79.745Y-128.285
X79.82Y-94.887
X80.18Y-126.9
X80.3Y-140.7
X80.333Y-117.349
X80.627Y-117.948
X80.778Y-126.946
X81.0Y-135.0
X81.18Y-126.5
X81.2Y-119.349
X81.203Y-118.349
X81.273Y-129.568
X81.4Y-120.1
X81.5Y-96.5
X81.7Y-132.3
X81.75Y-118.6
X81.805Y-104.055
X81.832Y-129.349
X82.0Y-100.9
X82.076Y-123.827
X82.084Y-123.209
X82.125Y-94.375
X82.25Y-118.15
X82.72Y-96.97
X82.795Y-129.898
X82.896Y-100.896
X83.0Y-127.5
X83.4Y-96.998
X83.75Y-94.75
X84.1Y-110.85
X84.25Y-61.087
X84.25Y-117.25
X84.3Y-94.148
X84.4Y-126.605
X84.5Y-133.0
X84.8Y-94.594
X85.2Y-126.605
X85.25Y-80.5
X85.25Y-145.5
X85.6Y-121.198
X85.75Y-116.25
X86.021Y-81.25
X86.928Y-80.572
X87.25Y-119.25
X87.75Y-119.25
X88.0Y-121.198
X89.204Y-83.546
X89.25Y-77.75
X89.437Y-105.806
X89.884Y-105.406
X90.0Y-98.5
X90.326Y-105.0
X90.5Y-100.193
X90.75Y-90.5
X91.0Y-123.375
X91.0Y-132.375
X91.5Y-109.25
X91.5Y-118.9
X91.733Y-104.5
X91.772Y-110.15
X92.2Y-100.2
X92.263Y-115.962
X92.954Y-115.27
X93.25Y-123.25
X93.379Y-114.846
X93.702Y-114.2
X93.705Y-55.044
X94.2Y-113.1
X94.7Y-113.525
X94.991Y-54.009
X95.201Y-112.905
X95.501Y-112.099
X96.209Y-111.8
X96.261Y-111.144
X96.5Y-55.25
X96.8Y-109.5
X97.188Y-111.0
X97.25Y-54.8
X97.75Y-53.75
X97.975Y-64.75
X98.231Y-60.826
X98.25Y-63.5
X98.75Y-63.0
X99.0Y-52.75
X99.25Y-89.75
X99.35Y-92.55
X99.377Y-65.374
X99.649Y-87.057
X99.778Y-65.826
X100.178Y-86.25
X100.25Y-66.25
X100.579Y-85.651
X100.75Y-53.0
X100.9Y-63.1
X101.934Y-52.912
X102.0Y-73.337
X102.3Y-59.25
X102.3Y-60.25
X102.864Y-53.136
X103.75Y-55.2
X103.75Y-55.8
X103.896Y-57.854
X104.0Y-56.5
X104.25Y-54.75
X104.75Y-122.0
X105.887Y-115.2
X105.999Y-112.8
X106.0Y-94.75
X106.0Y-95.25
X106.441Y-114.459
X106.75Y-67.85
X106.8Y-74.05
X106.886Y-108.411
X106.945Y-97.695
X107.0Y-109.0
X107.0Y-110.5
X107.0Y-112.8
X107.103Y-111.5
X107.5Y-99.75
X107.656Y-94.406
X107.75Y-72.025
X107.831Y-95.831
X108.25Y-116.875
X110.9Y-122.1
X111.25Y-91.0
X111.75Y-119.25
T2
X99.0Y-47.5
T3
X68.182Y-131.683
X69.5Y-125.0
X71.0Y-94.35
X71.2Y-96.7
X71.25Y-129.0
X71.395Y-109.312
X71.5Y-55.0
X71.75Y-142.75
X71.895Y-102.812
X72.145Y-107.312
X72.445Y-99.75
X73.8Y-96.7
X74.0Y-94.35
X74.5Y-99.75
X74.5Y-142.25
X74.75Y-104.312
X74.75Y-107.312
X74.895Y-106.062
X74.895Y-109.312
X75.0Y-96.5
X75.0Y-94.35
X75.25Y-133.75
X75.852Y-121.056
X76.3Y-97.2
X77.013Y-72.75
X78.65Y-65.5
X79.0Y-55.0
X79.25Y-63.0
X79.797Y-120.594
X80.0Y-57.75
X81.0Y-99.75
X82.0Y-100.0
X82.65Y-72.0
X82.75Y-115.25
X82.865Y-99.498
X83.9Y-72.0
X84.4Y-88.9
X85.2Y-98.2
X85.25Y-134.0
X85.4Y-72.75
X87.2Y-94.1
X87.2Y-96.7
X87.25Y-138.0
X87.9Y-71.75
X88.0Y-141.25
X88.0Y-143.25
X88.0Y-144.75
X88.013Y-77.5
X88.5Y-58.25
X89.263Y-80.5
X89.55Y-93.9
X90.25Y-141.25
X90.25Y-142.5
X91.15Y-73.0
X91.2Y-96.7
X91.351Y-94.0
X92.5Y-141.2
X92.5Y-142.6
X92.75Y-48.75
X93.766Y-96.8
X93.876Y-70.5
X93.876Y-72.5
X94.25Y-141.5
X94.25Y-143.0
X94.5Y-65.0
X94.5Y-139.9
X94.688Y-52.25
X94.707Y-60.251
X95.9Y-71.0
X96.0Y-145.0
X96.25Y-66.0
X96.25Y-72.5
X96.5Y-69.25
X96.837Y-138.225
X97.75Y-47.5
X98.0Y-143.25
X98.0Y-145.0
X98.5Y-138.25
X99.25Y-87.75
X99.25Y-122.5
X100.0Y-145.0
X100.25Y-96.75
X101.294Y-88.294
X101.75Y-115.25
X102.0Y-143.0
X102.0Y-145.0
X103.0Y-141.0
X103.25Y-50.5
X103.367Y-58.75
X103.57Y-52.317
X104.0Y-143.0
X104.0Y-145.0
X104.5Y-87.875
X104.5Y-91.0
X104.924Y-126.25
X106.362Y-50.25
X107.0Y-106.5
X108.5Y-77.087
X110.742Y-87.758
X111.0Y-92.5
X111.0Y-94.5
X111.0Y-102.5
X112.449Y-110.0
X112.5Y-98.25
T6
X105.55Y-55.5
X105.55Y-57.5
T7
X90.25Y-144.5
X92.79Y-144.5
T8
X62.212Y-62.725
X62.212Y-67.225
X62.212Y-74.225
X62.212Y-78.725
X62.212Y-93.725
X62.212Y-98.225
T9
X63.5Y-110.695
X63.5Y-113.235
X63.5Y-115.775
X84.5Y-51.0
X84.5Y-56.0
X87.0Y-51.0
X89.5Y-51.0
X89.5Y-56.0
T10
X64.5Y-51.0
X64.5Y-57.25
X67.0Y-51.0
X69.5Y-51.0
X69.5Y-57.25
T11
X64.703Y-61.475
X64.703Y-68.485
X64.703Y-72.975
X64.703Y-79.985
X64.703Y-92.475
X64.703Y-99.485
T4
G00X105.275Y-69.25
M15
G01X104.275Y-69.25
M16
G05
G00X104.275Y-79.25
M15
G01X105.275Y-79.25
M16
G05
G00X109.775Y-73.75
M15
G01X109.775Y-74.75
M16
G05
T5
G00X105.375Y-62.8
M15
G01X105.375Y-63.7
M16
G05
G00X108.125Y-61.5
M15
G01X107.225Y-61.5
M16
G05
G00X108.125Y-65.0
M15
G01X107.225Y-65.0
M16
G05
G00X109.2Y-105.43
M15
G01X108.1Y-105.43
M16
G05
G00X109.2Y-114.07
M15
G01X108.1Y-114.07
M16
G05
G00X112.175Y-62.8
M15
G01X112.175Y-63.7
M16
G05
G00X113.25Y-105.43
M15
G01X112.45Y-105.43
M16
G05
G00X113.25Y-114.07
M15
G01X112.45Y-114.07
M16
G05
T7
G00X105.125Y-71.75
M15
G01X104.425Y-71.75
M16
G05
G00X104.425Y-76.75
M15
G01X105.125Y-76.75
M16
G05
M30
