%TF.GenerationSoftware,KiCad,Pcbnew,9.0.0*%
%TF.CreationDate,2025-06-22T14:00:24-06:00*%
%TF.ProjectId,OSS Radio Hardware Design,4f535320-5261-4646-996f-204861726477,rev?*%
%TF.SameCoordinates,Original*%
%TF.FileFunction,Copper,L1,Top*%
%TF.FilePolarity,Positive*%
%FSLAX46Y46*%
G04 Gerber Fmt 4.6, Leading zero omitted, Abs format (unit mm)*
G04 Created by KiCad (PCBNEW 9.0.0) date 2025-06-22 14:00:24*
%MOMM*%
%LPD*%
G01*
G04 APERTURE LIST*
G04 Aperture macros list*
%AMRoundRect*
0 Rectangle with rounded corners*
0 $1 Rounding radius*
0 $2 $3 $4 $5 $6 $7 $8 $9 X,Y pos of 4 corners*
0 Add a 4 corners polygon primitive as box body*
4,1,4,$2,$3,$4,$5,$6,$7,$8,$9,$2,$3,0*
0 Add four circle primitives for the rounded corners*
1,1,$1+$1,$2,$3*
1,1,$1+$1,$4,$5*
1,1,$1+$1,$6,$7*
1,1,$1+$1,$8,$9*
0 Add four rect primitives between the rounded corners*
20,1,$1+$1,$2,$3,$4,$5,0*
20,1,$1+$1,$4,$5,$6,$7,0*
20,1,$1+$1,$6,$7,$8,$9,0*
20,1,$1+$1,$8,$9,$2,$3,0*%
G04 Aperture macros list end*
%TA.AperFunction,SMDPad,CuDef*%
%ADD10RoundRect,0.062500X0.062500X-0.117500X0.062500X0.117500X-0.062500X0.117500X-0.062500X-0.117500X0*%
%TD*%
%TA.AperFunction,SMDPad,CuDef*%
%ADD11RoundRect,0.237500X-0.237500X0.300000X-0.237500X-0.300000X0.237500X-0.300000X0.237500X0.300000X0*%
%TD*%
%TA.AperFunction,SMDPad,CuDef*%
%ADD12R,1.000000X0.750000*%
%TD*%
%TA.AperFunction,SMDPad,CuDef*%
%ADD13RoundRect,0.237500X0.237500X-0.250000X0.237500X0.250000X-0.237500X0.250000X-0.237500X-0.250000X0*%
%TD*%
%TA.AperFunction,SMDPad,CuDef*%
%ADD14C,1.000000*%
%TD*%
%TA.AperFunction,SMDPad,CuDef*%
%ADD15RoundRect,0.237500X-0.300000X-0.237500X0.300000X-0.237500X0.300000X0.237500X-0.300000X0.237500X0*%
%TD*%
%TA.AperFunction,SMDPad,CuDef*%
%ADD16RoundRect,0.062500X-0.117500X-0.062500X0.117500X-0.062500X0.117500X0.062500X-0.117500X0.062500X0*%
%TD*%
%TA.AperFunction,SMDPad,CuDef*%
%ADD17RoundRect,0.237500X0.300000X0.237500X-0.300000X0.237500X-0.300000X-0.237500X0.300000X-0.237500X0*%
%TD*%
%TA.AperFunction,SMDPad,CuDef*%
%ADD18RoundRect,0.250000X-0.450000X0.350000X-0.450000X-0.350000X0.450000X-0.350000X0.450000X0.350000X0*%
%TD*%
%TA.AperFunction,SMDPad,CuDef*%
%ADD19RoundRect,0.112500X0.112500X-0.187500X0.112500X0.187500X-0.112500X0.187500X-0.112500X-0.187500X0*%
%TD*%
%TA.AperFunction,SMDPad,CuDef*%
%ADD20RoundRect,0.237500X-0.237500X0.250000X-0.237500X-0.250000X0.237500X-0.250000X0.237500X0.250000X0*%
%TD*%
%TA.AperFunction,SMDPad,CuDef*%
%ADD21RoundRect,0.237500X0.237500X-0.300000X0.237500X0.300000X-0.237500X0.300000X-0.237500X-0.300000X0*%
%TD*%
%TA.AperFunction,SMDPad,CuDef*%
%ADD22RoundRect,0.155000X-0.212500X-0.155000X0.212500X-0.155000X0.212500X0.155000X-0.212500X0.155000X0*%
%TD*%
%TA.AperFunction,SMDPad,CuDef*%
%ADD23RoundRect,0.062500X-0.062500X0.117500X-0.062500X-0.117500X0.062500X-0.117500X0.062500X0.117500X0*%
%TD*%
%TA.AperFunction,SMDPad,CuDef*%
%ADD24RoundRect,0.250000X0.650000X-0.412500X0.650000X0.412500X-0.650000X0.412500X-0.650000X-0.412500X0*%
%TD*%
%TA.AperFunction,SMDPad,CuDef*%
%ADD25RoundRect,0.062500X0.117500X0.062500X-0.117500X0.062500X-0.117500X-0.062500X0.117500X-0.062500X0*%
%TD*%
%TA.AperFunction,SMDPad,CuDef*%
%ADD26RoundRect,0.250000X1.000000X0.650000X-1.000000X0.650000X-1.000000X-0.650000X1.000000X-0.650000X0*%
%TD*%
%TA.AperFunction,SMDPad,CuDef*%
%ADD27RoundRect,0.195000X0.035355X-0.678823X0.678823X-0.035355X-0.035355X0.678823X-0.678823X0.035355X0*%
%TD*%
%TA.AperFunction,SMDPad,CuDef*%
%ADD28RoundRect,0.237500X0.250000X0.237500X-0.250000X0.237500X-0.250000X-0.237500X0.250000X-0.237500X0*%
%TD*%
%TA.AperFunction,SMDPad,CuDef*%
%ADD29RoundRect,0.112500X0.187500X0.112500X-0.187500X0.112500X-0.187500X-0.112500X0.187500X-0.112500X0*%
%TD*%
%TA.AperFunction,SMDPad,CuDef*%
%ADD30RoundRect,0.062500X-0.337500X-0.062500X0.337500X-0.062500X0.337500X0.062500X-0.337500X0.062500X0*%
%TD*%
%TA.AperFunction,SMDPad,CuDef*%
%ADD31RoundRect,0.062500X-0.062500X-0.337500X0.062500X-0.337500X0.062500X0.337500X-0.062500X0.337500X0*%
%TD*%
%TA.AperFunction,HeatsinkPad*%
%ADD32R,3.500000X3.500000*%
%TD*%
%TA.AperFunction,SMDPad,CuDef*%
%ADD33RoundRect,0.112500X-0.187500X-0.112500X0.187500X-0.112500X0.187500X0.112500X-0.187500X0.112500X0*%
%TD*%
%TA.AperFunction,SMDPad,CuDef*%
%ADD34R,0.300000X1.300000*%
%TD*%
%TA.AperFunction,SMDPad,CuDef*%
%ADD35R,1.800000X2.200000*%
%TD*%
%TA.AperFunction,SMDPad,CuDef*%
%ADD36RoundRect,0.250000X0.412500X0.650000X-0.412500X0.650000X-0.412500X-0.650000X0.412500X-0.650000X0*%
%TD*%
%TA.AperFunction,SMDPad,CuDef*%
%ADD37RoundRect,0.237500X-0.287500X-0.237500X0.287500X-0.237500X0.287500X0.237500X-0.287500X0.237500X0*%
%TD*%
%TA.AperFunction,SMDPad,CuDef*%
%ADD38RoundRect,0.237500X-0.250000X-0.237500X0.250000X-0.237500X0.250000X0.237500X-0.250000X0.237500X0*%
%TD*%
%TA.AperFunction,SMDPad,CuDef*%
%ADD39RoundRect,0.155000X0.212500X0.155000X-0.212500X0.155000X-0.212500X-0.155000X0.212500X-0.155000X0*%
%TD*%
%TA.AperFunction,SMDPad,CuDef*%
%ADD40RoundRect,0.155000X-0.155000X0.212500X-0.155000X-0.212500X0.155000X-0.212500X0.155000X0.212500X0*%
%TD*%
%TA.AperFunction,SMDPad,CuDef*%
%ADD41RoundRect,0.150000X0.150000X-0.587500X0.150000X0.587500X-0.150000X0.587500X-0.150000X-0.587500X0*%
%TD*%
%TA.AperFunction,SMDPad,CuDef*%
%ADD42RoundRect,0.250000X-1.000000X-0.650000X1.000000X-0.650000X1.000000X0.650000X-1.000000X0.650000X0*%
%TD*%
%TA.AperFunction,ComponentPad*%
%ADD43O,2.200000X1.200000*%
%TD*%
%TA.AperFunction,ComponentPad*%
%ADD44O,2.300000X1.600000*%
%TD*%
%TA.AperFunction,ComponentPad*%
%ADD45O,1.200000X2.200000*%
%TD*%
%TA.AperFunction,ComponentPad*%
%ADD46O,2.500000X1.600000*%
%TD*%
%TA.AperFunction,ComponentPad*%
%ADD47C,2.100000*%
%TD*%
%TA.AperFunction,ComponentPad*%
%ADD48C,1.750000*%
%TD*%
%TA.AperFunction,ComponentPad*%
%ADD49C,2.000000*%
%TD*%
%TA.AperFunction,ComponentPad*%
%ADD50R,1.700000X1.700000*%
%TD*%
%TA.AperFunction,ComponentPad*%
%ADD51O,1.700000X1.700000*%
%TD*%
%TA.AperFunction,HeatsinkPad*%
%ADD52O,1.800000X1.000000*%
%TD*%
%TA.AperFunction,HeatsinkPad*%
%ADD53O,2.100000X1.000000*%
%TD*%
%TA.AperFunction,ComponentPad*%
%ADD54RoundRect,0.250000X-0.625000X0.350000X-0.625000X-0.350000X0.625000X-0.350000X0.625000X0.350000X0*%
%TD*%
%TA.AperFunction,ComponentPad*%
%ADD55O,1.750000X1.200000*%
%TD*%
%TA.AperFunction,ComponentPad*%
%ADD56O,1.108000X2.216000*%
%TD*%
%TA.AperFunction,ComponentPad*%
%ADD57O,2.216000X1.108000*%
%TD*%
%TA.AperFunction,ComponentPad*%
%ADD58C,1.400000*%
%TD*%
%TA.AperFunction,ViaPad*%
%ADD59C,1.000000*%
%TD*%
%TA.AperFunction,ViaPad*%
%ADD60C,0.400000*%
%TD*%
%TA.AperFunction,ViaPad*%
%ADD61C,0.800000*%
%TD*%
%TA.AperFunction,ViaPad*%
%ADD62C,0.600000*%
%TD*%
%TA.AperFunction,Conductor*%
%ADD63C,0.500000*%
%TD*%
%TA.AperFunction,Conductor*%
%ADD64C,0.200000*%
%TD*%
%TA.AperFunction,Conductor*%
%ADD65C,0.750000*%
%TD*%
%TA.AperFunction,Conductor*%
%ADD66C,2.000000*%
%TD*%
%TA.AperFunction,Conductor*%
%ADD67C,1.000000*%
%TD*%
G04 APERTURE END LIST*
D10*
%TO.P,D45,1,A1*%
%TO.N,BTN_MTX_D*%
X79400000Y-140780000D03*
%TO.P,D45,2,A2*%
%TO.N,GND*%
X79400000Y-141620000D03*
%TD*%
D11*
%TO.P,C34,1*%
%TO.N,GND*%
X87150000Y-73025000D03*
%TO.P,C34,2*%
%TO.N,3V3_MCU*%
X87150000Y-74750000D03*
%TD*%
D12*
%TO.P,SW_UP1,1,1*%
%TO.N,Net-(D25-A)*%
X84000000Y-95625000D03*
X90000000Y-95625000D03*
%TO.P,SW_UP1,2,2*%
%TO.N,BTN_MTX_B*%
X84000000Y-99375000D03*
X90000000Y-99375000D03*
%TD*%
D13*
%TO.P,R22,1*%
%TO.N,BTN_ENC_A*%
X81000000Y-59662500D03*
%TO.P,R22,2*%
%TO.N,3V3_MCU*%
X81000000Y-57837500D03*
%TD*%
D14*
%TO.P,TP31,1,1*%
%TO.N,GND*%
X86250000Y-144750000D03*
%TD*%
%TO.P,TP22,1,1*%
%TO.N,RF_SDI*%
X82000000Y-98750000D03*
%TD*%
D15*
%TO.P,C70,1*%
%TO.N,GND*%
X94687500Y-53250000D03*
%TO.P,C70,2*%
%TO.N,3V3_MCU*%
X96412500Y-53250000D03*
%TD*%
D11*
%TO.P,C30,1*%
%TO.N,GND*%
X97400000Y-74137500D03*
%TO.P,C30,2*%
%TO.N,Net-(J3-Pin_24)*%
X97400000Y-75862500D03*
%TD*%
D16*
%TO.P,D40,1,A1*%
%TO.N,BTN_MTX_1*%
X92920000Y-109500000D03*
%TO.P,D40,2,A2*%
%TO.N,GND*%
X92080000Y-109500000D03*
%TD*%
D17*
%TO.P,C75,1*%
%TO.N,GND*%
X106362500Y-51250000D03*
%TO.P,C75,2*%
%TO.N,3V3_MCU*%
X104637500Y-51250000D03*
%TD*%
D16*
%TO.P,D49,1,A1*%
%TO.N,DISPLAY_SDI*%
X106840000Y-95750000D03*
%TO.P,D49,2,A2*%
%TO.N,GND*%
X106000000Y-95750000D03*
%TD*%
D15*
%TO.P,C62,1*%
%TO.N,POT_VOLUME*%
X66355000Y-55000000D03*
%TO.P,C62,2*%
%TO.N,GND*%
X68080000Y-55000000D03*
%TD*%
D18*
%TO.P,R13,1*%
%TO.N,GND*%
X80650000Y-70500000D03*
%TO.P,R13,2*%
%TO.N,Net-(J3-Pin_3)*%
X80650000Y-72500000D03*
%TD*%
D15*
%TO.P,C73,1*%
%TO.N,GND*%
X102437500Y-61000000D03*
%TO.P,C73,2*%
%TO.N,3V3_MCU*%
X104162500Y-61000000D03*
%TD*%
D19*
%TO.P,D9,1,K*%
%TO.N,BTN_MTX_5*%
X106000000Y-137300000D03*
%TO.P,D9,2,A*%
%TO.N,Net-(D9-A)*%
X106000000Y-135200000D03*
%TD*%
D12*
%TO.P,SW_9,1,1*%
%TO.N,Net-(D10-A)*%
X98000000Y-127625000D03*
X104000000Y-127625000D03*
%TO.P,SW_9,2,2*%
%TO.N,BTN_MTX_C*%
X98000000Y-131375000D03*
X104000000Y-131375000D03*
%TD*%
%TO.P,SW_5,1,1*%
%TO.N,Net-(D18-A)*%
X84000000Y-119625000D03*
X90000000Y-119625000D03*
%TO.P,SW_5,2,2*%
%TO.N,BTN_MTX_B*%
X84000000Y-123375000D03*
X90000000Y-123375000D03*
%TD*%
D14*
%TO.P,TP10,1,1*%
%TO.N,AUDIOAMP_I2C_SCL*%
X101000000Y-66250000D03*
%TD*%
D20*
%TO.P,R40,1*%
%TO.N,Net-(D46-A1)*%
X85750000Y-57837500D03*
%TO.P,R40,2*%
%TO.N,BTN_ENC_B*%
X85750000Y-59662500D03*
%TD*%
D13*
%TO.P,R24,1*%
%TO.N,BTN_ENC_A*%
X82750000Y-59662500D03*
%TO.P,R24,2*%
%TO.N,Net-(D47-A1)*%
X82750000Y-57837500D03*
%TD*%
D19*
%TO.P,D25,1,K*%
%TO.N,BTN_MTX_0*%
X92800000Y-99800000D03*
%TO.P,D25,2,A*%
%TO.N,Net-(D25-A)*%
X92800000Y-97700000D03*
%TD*%
D21*
%TO.P,C36,1*%
%TO.N,GND*%
X77150000Y-71362500D03*
%TO.P,C36,2*%
%TO.N,3V3_MCU*%
X77150000Y-69637500D03*
%TD*%
D13*
%TO.P,R15,1*%
%TO.N,Net-(J3-Pin_11)*%
X83900000Y-76412500D03*
%TO.P,R15,2*%
%TO.N,GND*%
X83900000Y-74587500D03*
%TD*%
D20*
%TO.P,R46,1*%
%TO.N,Net-(U12-MICBIAS)*%
X101750000Y-69837500D03*
%TO.P,R46,2*%
%TO.N,Net-(D36-A1)*%
X101750000Y-71662500D03*
%TD*%
D12*
%TO.P,SW_0,1,1*%
%TO.N,Net-(D8-A)*%
X84000000Y-135625000D03*
X90000000Y-135625000D03*
%TO.P,SW_0,2,2*%
%TO.N,BTN_MTX_B*%
X84000000Y-139375000D03*
X90000000Y-139375000D03*
%TD*%
D20*
%TO.P,R20,1*%
%TO.N,3V3_MCU*%
X107500000Y-77087500D03*
%TO.P,R20,2*%
%TO.N,Net-(J8-PadT)*%
X107500000Y-78912500D03*
%TD*%
D14*
%TO.P,TP33,1,1*%
%TO.N,Net-(J2-D--PadA7)*%
X107750000Y-108750000D03*
%TD*%
%TO.P,TP35,1,1*%
%TO.N,V_BAT*%
X73000000Y-55000000D03*
%TD*%
D22*
%TO.P,C71,1*%
%TO.N,GND*%
X95482500Y-54500000D03*
%TO.P,C71,2*%
%TO.N,3V3_MCU*%
X96617500Y-54500000D03*
%TD*%
D23*
%TO.P,D33,1,A1*%
%TO.N,HEADSET_CONN*%
X106250000Y-74920000D03*
%TO.P,D33,2,A2*%
%TO.N,GND*%
X106250000Y-74080000D03*
%TD*%
D17*
%TO.P,C26,1*%
%TO.N,Net-(D56-K)*%
X83362500Y-64750000D03*
%TO.P,C26,2*%
%TO.N,Net-(D58-A)*%
X81637500Y-64750000D03*
%TD*%
D13*
%TO.P,R51,1*%
%TO.N,Net-(D32-K)*%
X75500000Y-58412500D03*
%TO.P,R51,2*%
%TO.N,LED_STATUS*%
X75500000Y-56587500D03*
%TD*%
D24*
%TO.P,C79,1*%
%TO.N,Net-(U12-HPL)*%
X100800000Y-51812500D03*
%TO.P,C79,2*%
%TO.N,Net-(C79-Pad2)*%
X100800000Y-48687500D03*
%TD*%
D12*
%TO.P,SW_BACK1,1,1*%
%TO.N,Net-(D23-A)*%
X70000000Y-95625000D03*
X76000000Y-95625000D03*
%TO.P,SW_BACK1,2,2*%
%TO.N,BTN_MTX_A*%
X70000000Y-99375000D03*
X76000000Y-99375000D03*
%TD*%
D14*
%TO.P,TP16,1,1*%
%TO.N,MIC_SCL*%
X70000000Y-133500000D03*
%TD*%
D15*
%TO.P,C28,1*%
%TO.N,GND*%
X82787500Y-70250000D03*
%TO.P,C28,2*%
%TO.N,Net-(D58-K)*%
X84512500Y-70250000D03*
%TD*%
D23*
%TO.P,D39,1,A1*%
%TO.N,BTN_MTX_2*%
X79500000Y-114170000D03*
%TO.P,D39,2,A2*%
%TO.N,GND*%
X79500000Y-113330000D03*
%TD*%
D20*
%TO.P,R44,1*%
%TO.N,3V3_MCU*%
X85250000Y-90087500D03*
%TO.P,R44,2*%
%TO.N,AUDIOAMP_I2C_SDA*%
X85250000Y-91912500D03*
%TD*%
D19*
%TO.P,D8,1,K*%
%TO.N,BTN_MTX_5*%
X82000000Y-137325000D03*
%TO.P,D8,2,A*%
%TO.N,Net-(D8-A)*%
X82000000Y-135225000D03*
%TD*%
D25*
%TO.P,D44,1,A1*%
%TO.N,BTN_MTX_C*%
X83080000Y-133500000D03*
%TO.P,D44,2,A2*%
%TO.N,GND*%
X83920000Y-133500000D03*
%TD*%
D14*
%TO.P,TP13,1,1*%
%TO.N,DISPLAY_SCLK*%
X101750000Y-85250000D03*
%TD*%
D15*
%TO.P,C65,1*%
%TO.N,GND*%
X94137500Y-55750000D03*
%TO.P,C65,2*%
%TO.N,1V8_AUDIO*%
X95862500Y-55750000D03*
%TD*%
D19*
%TO.P,D12,1,K*%
%TO.N,BTN_MTX_4*%
X78000000Y-129850000D03*
%TO.P,D12,2,A*%
%TO.N,Net-(D12-A)*%
X78000000Y-127750000D03*
%TD*%
D26*
%TO.P,D58,1,K*%
%TO.N,Net-(D58-K)*%
X86150000Y-67750000D03*
%TO.P,D58,2,A*%
%TO.N,Net-(D58-A)*%
X82150000Y-67750000D03*
%TD*%
D11*
%TO.P,C29,1*%
%TO.N,GND*%
X82400000Y-73637500D03*
%TO.P,C29,2*%
%TO.N,Net-(J3-Pin_5)*%
X82400000Y-75362500D03*
%TD*%
D27*
%TO.P,L2,1*%
%TO.N,Net-(D58-A)*%
X79250000Y-68100000D03*
%TO.P,L2,2*%
%TO.N,3V3_MCU*%
X77050000Y-65900000D03*
%TD*%
D19*
%TO.P,D23,1,K*%
%TO.N,BTN_MTX_1*%
X77750000Y-97800000D03*
%TO.P,D23,2,A*%
%TO.N,Net-(D23-A)*%
X77750000Y-95700000D03*
%TD*%
D28*
%TO.P,R45,1*%
%TO.N,HEADSET_PTT*%
X111412500Y-76500000D03*
%TO.P,R45,2*%
%TO.N,3V3_MCU*%
X109587500Y-76500000D03*
%TD*%
D12*
%TO.P,SW_7,1,1*%
%TO.N,Net-(D12-A)*%
X70000000Y-127625000D03*
X76000000Y-127625000D03*
%TO.P,SW_7,2,2*%
%TO.N,BTN_MTX_A*%
X70000000Y-131375000D03*
X76000000Y-131375000D03*
%TD*%
%TO.P,SW_3,1,1*%
%TO.N,Net-(D14-A)*%
X98000000Y-111625000D03*
X104000000Y-111625000D03*
%TO.P,SW_3,2,2*%
%TO.N,BTN_MTX_C*%
X98000000Y-115375000D03*
X104000000Y-115375000D03*
%TD*%
D29*
%TO.P,D17,1,K*%
%TO.N,BTN_MTX_3*%
X79550000Y-118000000D03*
%TO.P,D17,2,A*%
%TO.N,Net-(D17-A)*%
X77450000Y-118000000D03*
%TD*%
D12*
%TO.P,SW_8,1,1*%
%TO.N,Net-(D11-A)*%
X84000000Y-127625000D03*
X90000000Y-127625000D03*
%TO.P,SW_8,2,2*%
%TO.N,BTN_MTX_B*%
X84000000Y-131375000D03*
X90000000Y-131375000D03*
%TD*%
D13*
%TO.P,R14,1*%
%TO.N,Net-(J3-Pin_8)*%
X85400000Y-75912500D03*
%TO.P,R14,2*%
%TO.N,3V3_MCU*%
X85400000Y-74087500D03*
%TD*%
D30*
%TO.P,U12,1,IOVSS*%
%TO.N,GND*%
X98100000Y-54300000D03*
%TO.P,U12,2,IOVDD*%
%TO.N,3V3_MCU*%
X98100000Y-54800000D03*
%TO.P,U12,3,DVDD*%
%TO.N,1V8_AUDIO*%
X98100000Y-55300000D03*
%TO.P,U12,4,DOUT*%
%TO.N,AUDIOAMP_SDO*%
X98100000Y-55800000D03*
%TO.P,U12,5,DIN*%
%TO.N,AUDIOAMP_SDI*%
X98100000Y-56300000D03*
%TO.P,U12,6,WCLK*%
%TO.N,AUDIOAMP_WORDSELECT*%
X98100000Y-56800000D03*
%TO.P,U12,7,BCLK*%
%TO.N,AUDIOAMP_SCL*%
X98100000Y-57300000D03*
%TO.P,U12,8,MCLK*%
%TO.N,AUDIOAMP_MASTERCLK*%
X98100000Y-57800000D03*
D31*
%TO.P,U12,9,SDA*%
%TO.N,AUDIOAMP_I2C_SDA*%
X98800000Y-58500000D03*
%TO.P,U12,10,SCL*%
%TO.N,AUDIOAMP_I2C_SCL*%
X99300000Y-58500000D03*
%TO.P,U12,11,VOL/MICDET*%
%TO.N,Net-(U12-VOL{slash}MICDET)*%
X99800000Y-58500000D03*
%TO.P,U12,12,MICBIAS*%
%TO.N,Net-(U12-MICBIAS)*%
X100300000Y-58500000D03*
%TO.P,U12,13,MIC1LP*%
%TO.N,unconnected-(U12-MIC1LP-Pad13)*%
X100800000Y-58500000D03*
%TO.P,U12,14,MIC1RP*%
%TO.N,unconnected-(U12-MIC1RP-Pad14)*%
X101300000Y-58500000D03*
%TO.P,U12,15,MIC1LM*%
%TO.N,Net-(U12-MIC1LM)*%
X101800000Y-58500000D03*
%TO.P,U12,16,AVSS*%
%TO.N,GND*%
X102300000Y-58500000D03*
D30*
%TO.P,U12,17,AVDD*%
%TO.N,3V3_MCU*%
X103000000Y-57800000D03*
%TO.P,U12,18,DVSS*%
%TO.N,GND*%
X103000000Y-57300000D03*
%TO.P,U12,19,SPKM*%
%TO.N,Net-(J6-Pin_2)*%
X103000000Y-56800000D03*
%TO.P,U12,20,SPKVSS*%
%TO.N,GND*%
X103000000Y-56300000D03*
%TO.P,U12,21,SPKVDD*%
%TO.N,3V3_MCU*%
X103000000Y-55800000D03*
%TO.P,U12,22,SPKP*%
%TO.N,Net-(J6-Pin_1)*%
X103000000Y-55300000D03*
%TO.P,U12,23,SPKM*%
%TO.N,Net-(J6-Pin_2)*%
X103000000Y-54800000D03*
%TO.P,U12,24,SPKVDD*%
%TO.N,3V3_MCU*%
X103000000Y-54300000D03*
D31*
%TO.P,U12,25,SPKVSS*%
%TO.N,GND*%
X102300000Y-53600000D03*
%TO.P,U12,26,SPKP*%
%TO.N,Net-(J6-Pin_1)*%
X101800000Y-53600000D03*
%TO.P,U12,27,HPL*%
%TO.N,Net-(U12-HPL)*%
X101300000Y-53600000D03*
%TO.P,U12,28,HPVDD*%
%TO.N,3V3_MCU*%
X100800000Y-53600000D03*
%TO.P,U12,29,HPVSS*%
%TO.N,GND*%
X100300000Y-53600000D03*
%TO.P,U12,30,HPR*%
%TO.N,Net-(U12-HPR)*%
X99800000Y-53600000D03*
%TO.P,U12,31,~{RESET}*%
%TO.N,AUDIOAMP_RESET*%
X99300000Y-53600000D03*
%TO.P,U12,32,GPIO1*%
%TO.N,unconnected-(U12-GPIO1-Pad32)*%
X98800000Y-53600000D03*
D32*
%TO.P,U12,33,EP*%
%TO.N,GND*%
X100550000Y-56050000D03*
%TD*%
D33*
%TO.P,D27,1,K*%
%TO.N,BTN_MTX_0*%
X95950000Y-101750000D03*
%TO.P,D27,2,A*%
%TO.N,Net-(D27-A)*%
X98050000Y-101750000D03*
%TD*%
%TO.P,D21,1,K*%
%TO.N,BTN_MTX_1*%
X92450000Y-108000000D03*
%TO.P,D21,2,A*%
%TO.N,Net-(D21-A)*%
X94550000Y-108000000D03*
%TD*%
D34*
%TO.P,J3,1,Pin_1*%
%TO.N,unconnected-(J3-Pin_1-Pad1)*%
X81250000Y-79150000D03*
%TO.P,J3,2,Pin_2*%
%TO.N,Net-(J3-Pin_2)*%
X81750000Y-79150000D03*
%TO.P,J3,3,Pin_3*%
%TO.N,Net-(J3-Pin_3)*%
X82250000Y-79150000D03*
%TO.P,J3,4,Pin_4*%
%TO.N,unconnected-(J3-Pin_4-Pad4)*%
X82750000Y-79150000D03*
%TO.P,J3,5,Pin_5*%
%TO.N,Net-(J3-Pin_5)*%
X83250000Y-79150000D03*
%TO.P,J3,6,Pin_6*%
%TO.N,unconnected-(J3-Pin_6-Pad6)*%
X83750000Y-79150000D03*
%TO.P,J3,7,Pin_7*%
%TO.N,unconnected-(J3-Pin_7-Pad7)*%
X84250000Y-79150000D03*
%TO.P,J3,8,Pin_8*%
%TO.N,Net-(J3-Pin_8)*%
X84750000Y-79150000D03*
%TO.P,J3,9,Pin_9*%
%TO.N,DISPLAY_BUSY*%
X85250000Y-79150000D03*
%TO.P,J3,10,Pin_10*%
%TO.N,DISPLAY_RESET*%
X85750000Y-79150000D03*
%TO.P,J3,11,Pin_11*%
%TO.N,Net-(J3-Pin_11)*%
X86250000Y-79150000D03*
%TO.P,J3,12,Pin_12*%
%TO.N,DISPLAY_CS*%
X86750000Y-79150000D03*
%TO.P,J3,13,Pin_13*%
%TO.N,DISPLAY_SCLK*%
X87250000Y-79150000D03*
%TO.P,J3,14,Pin_14*%
%TO.N,DISPLAY_SDI*%
X87750000Y-79150000D03*
%TO.P,J3,15,Pin_15*%
%TO.N,3V3_MCU*%
X88250000Y-79150000D03*
%TO.P,J3,16,Pin_16*%
X88750000Y-79150000D03*
%TO.P,J3,17,Pin_17*%
%TO.N,GND*%
X89250000Y-79150000D03*
%TO.P,J3,18,Pin_18*%
%TO.N,Net-(J3-Pin_18)*%
X89750000Y-79150000D03*
%TO.P,J3,19,Pin_19*%
%TO.N,Net-(J3-Pin_19)*%
X90250000Y-79150000D03*
%TO.P,J3,20,Pin_20*%
%TO.N,Net-(J3-Pin_20)*%
X90750000Y-79150000D03*
%TO.P,J3,21,Pin_21*%
%TO.N,Net-(D58-K)*%
X91250000Y-79150000D03*
%TO.P,J3,22,Pin_22*%
%TO.N,Net-(J3-Pin_22)*%
X91750000Y-79150000D03*
%TO.P,J3,23,Pin_23*%
%TO.N,Net-(D56-A)*%
X92250000Y-79150000D03*
%TO.P,J3,24,Pin_24*%
%TO.N,Net-(J3-Pin_24)*%
X92750000Y-79150000D03*
D35*
%TO.P,J3,MP*%
%TO.N,N/C*%
X79350000Y-82400000D03*
X94650000Y-82400000D03*
%TD*%
D36*
%TO.P,C72,1*%
%TO.N,GND*%
X106062500Y-48750000D03*
%TO.P,C72,2*%
%TO.N,3V3_MCU*%
X102937500Y-48750000D03*
%TD*%
D14*
%TO.P,TP20,1,1*%
%TO.N,RF_SEL*%
X79750000Y-93750000D03*
%TD*%
D37*
%TO.P,D32,1,K*%
%TO.N,Net-(D32-K)*%
X76125000Y-55000000D03*
%TO.P,D32,2,A*%
%TO.N,3V3_MCU*%
X77875000Y-55000000D03*
%TD*%
D25*
%TO.P,D42,1,A1*%
%TO.N,BTN_MTX_A*%
X77780000Y-120900000D03*
%TO.P,D42,2,A2*%
%TO.N,GND*%
X78620000Y-120900000D03*
%TD*%
D14*
%TO.P,TP27,1,1*%
%TO.N,AUDIOAMP_WORDSELECT*%
X101150000Y-64100000D03*
%TD*%
D11*
%TO.P,C33,1*%
%TO.N,GND*%
X88650000Y-73025000D03*
%TO.P,C33,2*%
%TO.N,Net-(J3-Pin_18)*%
X88650000Y-74750000D03*
%TD*%
D12*
%TO.P,SW_\u002A1,1,1*%
%TO.N,Net-(D4-A)*%
X70000000Y-135625000D03*
X76000000Y-135625000D03*
%TO.P,SW_\u002A1,2,2*%
%TO.N,BTN_MTX_A*%
X70000000Y-139375000D03*
X76000000Y-139375000D03*
%TD*%
%TO.P,SW_ENTER1,1,1*%
%TO.N,Net-(D21-A)*%
X98000000Y-95625000D03*
X104000000Y-95625000D03*
%TO.P,SW_ENTER1,2,2*%
%TO.N,BTN_MTX_C*%
X98000000Y-99375000D03*
X104000000Y-99375000D03*
%TD*%
D25*
%TO.P,D35,1,A1*%
%TO.N,BTN_MTX_5*%
X79830000Y-130250000D03*
%TO.P,D35,2,A2*%
%TO.N,GND*%
X80670000Y-130250000D03*
%TD*%
D38*
%TO.P,R8,1*%
%TO.N,Net-(J2-CC1)*%
X110337500Y-108500000D03*
%TO.P,R8,2*%
%TO.N,GND*%
X112162500Y-108500000D03*
%TD*%
D12*
%TO.P,SW_#1,1,1*%
%TO.N,Net-(D9-A)*%
X98000000Y-135625000D03*
X104000000Y-135625000D03*
%TO.P,SW_#1,2,2*%
%TO.N,BTN_MTX_C*%
X98000000Y-139375000D03*
X104000000Y-139375000D03*
%TD*%
%TO.P,SW_RIGHT1,1,1*%
%TO.N,Net-(D27-A)*%
X98000000Y-103625000D03*
X104000000Y-103625000D03*
%TO.P,SW_RIGHT1,2,2*%
%TO.N,BTN_MTX_C*%
X98000000Y-107375000D03*
X104000000Y-107375000D03*
%TD*%
D19*
%TO.P,D24,1,K*%
%TO.N,BTN_MTX_0*%
X77950000Y-105800000D03*
%TO.P,D24,2,A*%
%TO.N,Net-(D24-A)*%
X77950000Y-103700000D03*
%TD*%
D20*
%TO.P,R43,1*%
%TO.N,3V3_MCU*%
X83500000Y-90087500D03*
%TO.P,R43,2*%
%TO.N,AUDIOAMP_I2C_SCL*%
X83500000Y-91912500D03*
%TD*%
D14*
%TO.P,TP17,1,1*%
%TO.N,MIC_WORDSELECT*%
X76000000Y-141500000D03*
%TD*%
D19*
%TO.P,D11,1,K*%
%TO.N,BTN_MTX_4*%
X92000000Y-129300000D03*
%TO.P,D11,2,A*%
%TO.N,Net-(D11-A)*%
X92000000Y-127200000D03*
%TD*%
D29*
%TO.P,D20,1,K*%
%TO.N,BTN_MTX_1*%
X65500000Y-64750000D03*
%TO.P,D20,2,A*%
%TO.N,Net-(D20-A)*%
X63400000Y-64750000D03*
%TD*%
D39*
%TO.P,C77,1*%
%TO.N,1V8_AUDIO*%
X94317500Y-54500000D03*
%TO.P,C77,2*%
%TO.N,GND*%
X93182500Y-54500000D03*
%TD*%
D11*
%TO.P,C27,1*%
%TO.N,GND*%
X95900000Y-74137500D03*
%TO.P,C27,2*%
%TO.N,Net-(D56-A)*%
X95900000Y-75862500D03*
%TD*%
D17*
%TO.P,C39,1*%
%TO.N,GND*%
X112362500Y-97000000D03*
%TO.P,C39,2*%
%TO.N,3V3_MCU*%
X110637500Y-97000000D03*
%TD*%
D38*
%TO.P,R16,1*%
%TO.N,3V3_MCU*%
X87100000Y-76387500D03*
%TO.P,R16,2*%
%TO.N,Net-(J3-Pin_18)*%
X88925000Y-76387500D03*
%TD*%
D12*
%TO.P,SW_2,1,1*%
%TO.N,Net-(D15-A)*%
X84000000Y-111625000D03*
X90000000Y-111625000D03*
%TO.P,SW_2,2,2*%
%TO.N,BTN_MTX_B*%
X84000000Y-115375000D03*
X90000000Y-115375000D03*
%TD*%
D40*
%TO.P,C76,1*%
%TO.N,GND*%
X102550000Y-51182500D03*
%TO.P,C76,2*%
%TO.N,3V3_MCU*%
X102550000Y-52317500D03*
%TD*%
D19*
%TO.P,D19,1,K*%
%TO.N,BTN_MTX_3*%
X106000000Y-121300000D03*
%TO.P,D19,2,A*%
%TO.N,Net-(D19-A)*%
X106000000Y-119200000D03*
%TD*%
D16*
%TO.P,D34,1,A1*%
%TO.N,HEADSET_PTT*%
X109170000Y-72000000D03*
%TO.P,D34,2,A2*%
%TO.N,GND*%
X108330000Y-72000000D03*
%TD*%
D25*
%TO.P,D43,1,A1*%
%TO.N,BTN_MTX_B*%
X91830000Y-123500000D03*
%TO.P,D43,2,A2*%
%TO.N,GND*%
X92670000Y-123500000D03*
%TD*%
D19*
%TO.P,D4,1,K*%
%TO.N,BTN_MTX_5*%
X77700000Y-137300000D03*
%TO.P,D4,2,A*%
%TO.N,Net-(D4-A)*%
X77700000Y-135200000D03*
%TD*%
D13*
%TO.P,R47,1*%
%TO.N,HEADSET_CONN*%
X102750000Y-75162500D03*
%TO.P,R47,2*%
%TO.N,GND*%
X102750000Y-73337500D03*
%TD*%
D26*
%TO.P,D57,1,K*%
%TO.N,GND*%
X91750000Y-64000000D03*
%TO.P,D57,2,A*%
%TO.N,Net-(D56-K)*%
X87750000Y-64000000D03*
%TD*%
D13*
%TO.P,R21,1*%
%TO.N,BTN_ENC_B*%
X87500000Y-59662500D03*
%TO.P,R21,2*%
%TO.N,3V3_MCU*%
X87500000Y-57837500D03*
%TD*%
D12*
%TO.P,SW_LEFT1,1,1*%
%TO.N,Net-(D24-A)*%
X70000000Y-103625000D03*
X76000000Y-103625000D03*
%TO.P,SW_LEFT1,2,2*%
%TO.N,BTN_MTX_A*%
X70000000Y-107375000D03*
X76000000Y-107375000D03*
%TD*%
D14*
%TO.P,TP29,1,1*%
%TO.N,AUDIOAMP_SDI*%
X98900000Y-66400000D03*
%TD*%
D25*
%TO.P,D50,1,A1*%
%TO.N,FLASH_SDO*%
X111330000Y-91500000D03*
%TO.P,D50,2,A2*%
%TO.N,GND*%
X112170000Y-91500000D03*
%TD*%
D12*
%TO.P,SW_DOWN1,1,1*%
%TO.N,Net-(D22-A)*%
X84000000Y-103625000D03*
X90000000Y-103625000D03*
%TO.P,SW_DOWN1,2,2*%
%TO.N,BTN_MTX_B*%
X84000000Y-107375000D03*
X90000000Y-107375000D03*
%TD*%
D14*
%TO.P,TP41,1,1*%
%TO.N,MIC_SDO*%
X72000000Y-133500000D03*
%TD*%
D19*
%TO.P,D14,1,K*%
%TO.N,BTN_MTX_2*%
X105900000Y-115800000D03*
%TO.P,D14,2,A*%
%TO.N,Net-(D14-A)*%
X105900000Y-113700000D03*
%TD*%
D33*
%TO.P,D18,1,K*%
%TO.N,BTN_MTX_3*%
X86950000Y-117500000D03*
%TO.P,D18,2,A*%
%TO.N,Net-(D18-A)*%
X89050000Y-117500000D03*
%TD*%
D20*
%TO.P,R52,1*%
%TO.N,Net-(U12-VOL{slash}MICDET)*%
X100250000Y-69837500D03*
%TO.P,R52,2*%
%TO.N,Net-(D36-A1)*%
X100250000Y-71662500D03*
%TD*%
D16*
%TO.P,D38,1,A1*%
%TO.N,BTN_MTX_3*%
X106420000Y-122500000D03*
%TO.P,D38,2,A2*%
%TO.N,GND*%
X105580000Y-122500000D03*
%TD*%
D29*
%TO.P,D13,1,K*%
%TO.N,BTN_MTX_2*%
X65800000Y-95750000D03*
%TO.P,D13,2,A*%
%TO.N,Net-(D13-A)*%
X63700000Y-95750000D03*
%TD*%
D16*
%TO.P,D46,1,A1*%
%TO.N,Net-(D46-A1)*%
X88500000Y-49000000D03*
%TO.P,D46,2,A2*%
%TO.N,GND*%
X87660000Y-49000000D03*
%TD*%
D19*
%TO.P,D10,1,K*%
%TO.N,BTN_MTX_4*%
X106000000Y-129300000D03*
%TO.P,D10,2,A*%
%TO.N,Net-(D10-A)*%
X106000000Y-127200000D03*
%TD*%
D14*
%TO.P,TP28,1,1*%
%TO.N,AUDIOAMP_SCL*%
X99050000Y-63950000D03*
%TD*%
D19*
%TO.P,D15,1,K*%
%TO.N,BTN_MTX_2*%
X92000000Y-113800000D03*
%TO.P,D15,2,A*%
%TO.N,Net-(D15-A)*%
X92000000Y-111700000D03*
%TD*%
D14*
%TO.P,TP21,1,1*%
%TO.N,RF_SCLK*%
X81750000Y-93250000D03*
%TD*%
D29*
%TO.P,D28,1,K*%
%TO.N,BTN_MTX_0*%
X65550000Y-76250000D03*
%TO.P,D28,2,A*%
%TO.N,Net-(D28-A)*%
X63450000Y-76250000D03*
%TD*%
D22*
%TO.P,C81,1*%
%TO.N,GND*%
X84932500Y-61087500D03*
%TO.P,C81,2*%
%TO.N,BTN_ENC_B*%
X86067500Y-61087500D03*
%TD*%
D14*
%TO.P,TP19,1,1*%
%TO.N,RF_SDO*%
X82250000Y-96000000D03*
%TD*%
D11*
%TO.P,C31,1*%
%TO.N,GND*%
X93900000Y-74137500D03*
%TO.P,C31,2*%
%TO.N,Net-(J3-Pin_22)*%
X93900000Y-75862500D03*
%TD*%
D14*
%TO.P,TP32,1,1*%
%TO.N,Net-(J2-D+-PadA6)*%
X107750000Y-110750000D03*
%TD*%
D10*
%TO.P,D52,1,A1*%
%TO.N,SD_CS*%
X107500000Y-98330000D03*
%TO.P,D52,2,A2*%
%TO.N,GND*%
X107500000Y-99170000D03*
%TD*%
D39*
%TO.P,C38,1*%
%TO.N,GND*%
X112067500Y-95500000D03*
%TO.P,C38,2*%
%TO.N,3V3_MCU*%
X110932500Y-95500000D03*
%TD*%
D41*
%TO.P,Q1,1,G*%
%TO.N,Net-(J3-Pin_2)*%
X78950000Y-76500000D03*
%TO.P,Q1,2,S*%
%TO.N,Net-(J3-Pin_3)*%
X80850000Y-76500000D03*
%TO.P,Q1,3,D*%
%TO.N,Net-(D58-A)*%
X79900000Y-74625000D03*
%TD*%
D12*
%TO.P,SW_4,1,1*%
%TO.N,Net-(D17-A)*%
X70000000Y-119625000D03*
X76000000Y-119625000D03*
%TO.P,SW_4,2,2*%
%TO.N,BTN_MTX_A*%
X70000000Y-123375000D03*
X76000000Y-123375000D03*
%TD*%
D11*
%TO.P,C35,1*%
%TO.N,GND*%
X90400000Y-74137500D03*
%TO.P,C35,2*%
%TO.N,Net-(J3-Pin_19)*%
X90400000Y-75862500D03*
%TD*%
D25*
%TO.P,D31,1,A1*%
%TO.N,POT_VOLUME*%
X67160000Y-53500000D03*
%TO.P,D31,2,A2*%
%TO.N,GND*%
X68000000Y-53500000D03*
%TD*%
D14*
%TO.P,TP9,1,1*%
%TO.N,AUDIOAMP_I2C_SDA*%
X100050000Y-68050000D03*
%TD*%
D11*
%TO.P,C32,1*%
%TO.N,GND*%
X91900000Y-74137500D03*
%TO.P,C32,2*%
%TO.N,Net-(J3-Pin_20)*%
X91900000Y-75862500D03*
%TD*%
D23*
%TO.P,D48,1,A1*%
%TO.N,SD_CARD_DETECT*%
X98500000Y-88420000D03*
%TO.P,D48,2,A2*%
%TO.N,GND*%
X98500000Y-87580000D03*
%TD*%
D22*
%TO.P,C74,1*%
%TO.N,GND*%
X102232500Y-59750000D03*
%TO.P,C74,2*%
%TO.N,3V3_MCU*%
X103367500Y-59750000D03*
%TD*%
D16*
%TO.P,D51,1,A1*%
%TO.N,DISPLAY_SCLK*%
X106840000Y-94250000D03*
%TO.P,D51,2,A2*%
%TO.N,GND*%
X106000000Y-94250000D03*
%TD*%
D28*
%TO.P,R42,1*%
%TO.N,3V3_MCU*%
X98625000Y-48500000D03*
%TO.P,R42,2*%
%TO.N,AUDIOAMP_RESET*%
X96800000Y-48500000D03*
%TD*%
%TO.P,R9,1*%
%TO.N,GND*%
X112162500Y-111500000D03*
%TO.P,R9,2*%
%TO.N,Net-(J2-CC2)*%
X110337500Y-111500000D03*
%TD*%
D12*
%TO.P,SW_1,1,1*%
%TO.N,Net-(D16-A)*%
X70000000Y-111625000D03*
X76000000Y-111625000D03*
%TO.P,SW_1,2,2*%
%TO.N,BTN_MTX_A*%
X70000000Y-115375000D03*
X76000000Y-115375000D03*
%TD*%
D38*
%TO.P,R27,1*%
%TO.N,CHGR_CONN*%
X109087500Y-119250000D03*
%TO.P,R27,2*%
%TO.N,GND*%
X110912500Y-119250000D03*
%TD*%
D13*
%TO.P,R19,1*%
%TO.N,SD_CARD_DETECT*%
X100500000Y-90912500D03*
%TO.P,R19,2*%
%TO.N,3V3_MCU*%
X100500000Y-89087500D03*
%TD*%
D12*
%TO.P,SW_6,1,1*%
%TO.N,Net-(D19-A)*%
X98000000Y-119625000D03*
X104000000Y-119625000D03*
%TO.P,SW_6,2,2*%
%TO.N,BTN_MTX_C*%
X98000000Y-123375000D03*
X104000000Y-123375000D03*
%TD*%
D23*
%TO.P,D36,1,A1*%
%TO.N,Net-(D36-A1)*%
X106750000Y-69170000D03*
%TO.P,D36,2,A2*%
%TO.N,GND*%
X106750000Y-68330000D03*
%TD*%
D25*
%TO.P,D41,1,A1*%
%TO.N,BTN_MTX_0*%
X78580000Y-107250000D03*
%TO.P,D41,2,A2*%
%TO.N,GND*%
X79420000Y-107250000D03*
%TD*%
D42*
%TO.P,D56,1,K*%
%TO.N,Net-(D56-K)*%
X90650000Y-67750000D03*
%TO.P,D56,2,A*%
%TO.N,Net-(D56-A)*%
X94650000Y-67750000D03*
%TD*%
D24*
%TO.P,C40,1*%
%TO.N,GND*%
X106000000Y-91062500D03*
%TO.P,C40,2*%
%TO.N,3V3_MCU*%
X106000000Y-87937500D03*
%TD*%
D19*
%TO.P,D16,1,K*%
%TO.N,BTN_MTX_2*%
X78000000Y-113300000D03*
%TO.P,D16,2,A*%
%TO.N,Net-(D16-A)*%
X78000000Y-111200000D03*
%TD*%
D25*
%TO.P,D53,1,A1*%
%TO.N,3V3_MCU*%
X111500000Y-94000000D03*
%TO.P,D53,2,A2*%
%TO.N,GND*%
X112340000Y-94000000D03*
%TD*%
D33*
%TO.P,D22,1,K*%
%TO.N,BTN_MTX_1*%
X85700000Y-101750000D03*
%TO.P,D22,2,A*%
%TO.N,Net-(D22-A)*%
X87800000Y-101750000D03*
%TD*%
D14*
%TO.P,TP14,1,1*%
%TO.N,DISPLAY_SDI*%
X101750000Y-83250000D03*
%TD*%
D25*
%TO.P,D37,1,A1*%
%TO.N,BTN_MTX_4*%
X78080000Y-131750000D03*
%TO.P,D37,2,A2*%
%TO.N,GND*%
X78920000Y-131750000D03*
%TD*%
D22*
%TO.P,C82,1*%
%TO.N,BTN_ENC_A*%
X82432500Y-61087500D03*
%TO.P,C82,2*%
%TO.N,GND*%
X83567500Y-61087500D03*
%TD*%
D14*
%TO.P,TP26,1,1*%
%TO.N,AUDIOAMP_SDO*%
X92850000Y-61200000D03*
%TD*%
D40*
%TO.P,C80,1*%
%TO.N,Net-(U12-MIC1LM)*%
X103000000Y-67932500D03*
%TO.P,C80,2*%
%TO.N,Net-(D36-A1)*%
X103000000Y-69067500D03*
%TD*%
D28*
%TO.P,R26,1*%
%TO.N,V_CHG*%
X110912500Y-121000000D03*
%TO.P,R26,2*%
%TO.N,CHGR_CONN*%
X109087500Y-121000000D03*
%TD*%
D25*
%TO.P,D47,1,A1*%
%TO.N,Net-(D47-A1)*%
X85080000Y-49000000D03*
%TO.P,D47,2,A2*%
%TO.N,GND*%
X85920000Y-49000000D03*
%TD*%
D36*
%TO.P,C90,1*%
%TO.N,Net-(U12-HPR)*%
X98612500Y-50500000D03*
%TO.P,C90,2*%
%TO.N,GND*%
X95487500Y-50500000D03*
%TD*%
D24*
%TO.P,C42,1*%
%TO.N,GND*%
X103000000Y-91000000D03*
%TO.P,C42,2*%
%TO.N,3V3_MCU*%
X103000000Y-87875000D03*
%TD*%
D14*
%TO.P,TP42,1,1*%
%TO.N,AUDIOAMP_MASTERCLK*%
X99050000Y-61150000D03*
%TD*%
D43*
%TO.P,J8,R*%
%TO.N,Net-(D36-A1)*%
X104775000Y-69250000D03*
D44*
%TO.P,J8,RN*%
%TO.N,N/C*%
X104775000Y-71750000D03*
D45*
%TO.P,J8,S*%
%TO.N,HEADSET_PTT*%
X109775000Y-74250000D03*
D43*
%TO.P,J8,T*%
%TO.N,Net-(J8-PadT)*%
X104775000Y-79250000D03*
D46*
%TO.P,J8,TN*%
%TO.N,HEADSET_CONN*%
X104775000Y-76750000D03*
%TD*%
D47*
%TO.P,SW_SIDE1,*%
%TO.N,*%
X64702500Y-61475000D03*
X64702500Y-68485000D03*
D48*
%TO.P,SW_SIDE1,1,1*%
%TO.N,Net-(D20-A)*%
X62212500Y-62725000D03*
%TO.P,SW_SIDE1,2,2*%
%TO.N,BTN_MTX_D*%
X62212500Y-67225000D03*
%TD*%
D49*
%TO.P,U11,1*%
%TO.N,3V3_MCU*%
X64500000Y-51000000D03*
%TO.P,U11,2*%
%TO.N,POT_VOLUME*%
X67000000Y-51000000D03*
%TO.P,U11,3*%
%TO.N,GND*%
X69500000Y-51000000D03*
%TO.P,U11,4*%
%TO.N,V_BAT_RAW*%
X64500000Y-57250000D03*
%TO.P,U11,5*%
%TO.N,V_BAT*%
X69500000Y-57250000D03*
%TD*%
D50*
%TO.P,J1,1,Pin_1*%
%TO.N,Net-(J1-Pin_1)*%
X63500000Y-115775000D03*
D51*
%TO.P,J1,2,Pin_2*%
%TO.N,GND*%
X63500000Y-113235000D03*
%TO.P,J1,3,Pin_3*%
%TO.N,Net-(J1-Pin_3)*%
X63500000Y-110695000D03*
%TD*%
D52*
%TO.P,J2,S1,SHIELD*%
%TO.N,GND*%
X112850000Y-105430000D03*
D53*
X108650000Y-105430000D03*
D52*
X112850000Y-114070000D03*
D53*
X108650000Y-114070000D03*
%TD*%
D54*
%TO.P,J6,1,Pin_1*%
%TO.N,Net-(J6-Pin_1)*%
X105550000Y-55500000D03*
D55*
%TO.P,J6,2,Pin_2*%
%TO.N,Net-(J6-Pin_2)*%
X105550000Y-57500000D03*
%TD*%
D56*
%TO.P,J7,1*%
%TO.N,GND*%
X112175000Y-63250000D03*
D57*
%TO.P,J7,2*%
%TO.N,Net-(C79-Pad2)*%
X107675000Y-65000000D03*
%TO.P,J7,3*%
X107675000Y-61500000D03*
D56*
%TO.P,J7,4*%
%TO.N,GND*%
X105375000Y-63250000D03*
%TD*%
D47*
%TO.P,SW_PTT1,*%
%TO.N,*%
X64702500Y-72975000D03*
X64702500Y-79985000D03*
D48*
%TO.P,SW_PTT1,1,1*%
%TO.N,Net-(D28-A)*%
X62212500Y-74225000D03*
%TO.P,SW_PTT1,2,2*%
%TO.N,BTN_MTX_D*%
X62212500Y-78725000D03*
%TD*%
D47*
%TO.P,SW_SIDE2,*%
%TO.N,*%
X64702500Y-92475000D03*
X64702500Y-99485000D03*
D48*
%TO.P,SW_SIDE2,1,1*%
%TO.N,Net-(D13-A)*%
X62212500Y-93725000D03*
%TO.P,SW_SIDE2,2,2*%
%TO.N,BTN_MTX_D*%
X62212500Y-98225000D03*
%TD*%
D58*
%TO.P,J9,1,Pin_1*%
%TO.N,GND*%
X90250000Y-144500000D03*
%TO.P,J9,2,Pin_2*%
%TO.N,V_BAT_RAW*%
X92790000Y-144500000D03*
%TD*%
D48*
%TO.P,SW1,A,A*%
%TO.N,Net-(D47-A1)*%
X84500000Y-51000000D03*
%TO.P,SW1,B,B*%
%TO.N,Net-(D46-A1)*%
X89500000Y-51000000D03*
%TO.P,SW1,C,C*%
%TO.N,GND*%
X87000000Y-51000000D03*
%TO.P,SW1,S1,S1*%
%TO.N,Net-(D29-A)*%
X84500000Y-56000000D03*
%TO.P,SW1,S2,S2*%
%TO.N,BTN_MTX_D*%
X89500000Y-56000000D03*
%TD*%
D59*
%TO.N,V_BAT_RAW*%
X96837500Y-138225000D03*
X94500000Y-139900000D03*
X94250000Y-141500000D03*
X98500000Y-138250000D03*
X92500000Y-141200000D03*
X92500000Y-142600000D03*
X94250000Y-143000000D03*
D60*
%TO.N,GND*%
X68250000Y-117750000D03*
X111750000Y-119250000D03*
X75000000Y-129000000D03*
X106800000Y-74050000D03*
D61*
X106362500Y-50250000D03*
X101750000Y-115250000D03*
D60*
X93250000Y-123250000D03*
X88000000Y-121198000D03*
X107500000Y-99750000D03*
X102300000Y-60250000D03*
D59*
X87900000Y-71750000D03*
D60*
X106000000Y-94750000D03*
X84250000Y-117250000D03*
D59*
X74895000Y-106062500D03*
X90250000Y-142500000D03*
X93876000Y-72500000D03*
D61*
X104500000Y-91000000D03*
D59*
X83900000Y-72000000D03*
D60*
X97750000Y-53750000D03*
D59*
X100000000Y-145000000D03*
D60*
X78500000Y-111900000D03*
X79400000Y-142200000D03*
X107750000Y-72025000D03*
D61*
X92750000Y-48750000D03*
X75852012Y-121056038D03*
D59*
X82650000Y-72000000D03*
D61*
X73800000Y-96700000D03*
D59*
X88000000Y-141250000D03*
X98000000Y-145000000D03*
D60*
X104000000Y-56500000D03*
X79437558Y-131640000D03*
X84400000Y-126605000D03*
D59*
X104000000Y-145000000D03*
X96000000Y-145000000D03*
D61*
X68182500Y-131682500D03*
D59*
X103000000Y-141000000D03*
D61*
X111000000Y-92500000D03*
D60*
X102300000Y-59250000D03*
D61*
X93766000Y-96800000D03*
D60*
X79400000Y-108700000D03*
X84100000Y-110849998D03*
X62750000Y-121367500D03*
D59*
X89262500Y-80500000D03*
X102000000Y-143000000D03*
X96250000Y-66000000D03*
D61*
X94687500Y-52250000D03*
X94707293Y-60250732D03*
X82000000Y-100000000D03*
X97750000Y-47500000D03*
D59*
X98000000Y-143250000D03*
D61*
X99250000Y-122500000D03*
X112500000Y-98250000D03*
D59*
X88000000Y-143250000D03*
D61*
X81000000Y-99750000D03*
X110742282Y-87757718D03*
X99250000Y-87750000D03*
D60*
X104750000Y-122000000D03*
X67267500Y-119800000D03*
X106000000Y-95250000D03*
X85750000Y-116250000D03*
X73750000Y-137136000D03*
X84500000Y-133000000D03*
D61*
X69500000Y-125000000D03*
D60*
X67750000Y-113000000D03*
D59*
X94500000Y-65000000D03*
D61*
X71000000Y-94350000D03*
X91351000Y-94000000D03*
D59*
X96500000Y-69250000D03*
X88000000Y-144750000D03*
X71895000Y-102812500D03*
X93876000Y-70500000D03*
D60*
X102864216Y-53135784D03*
X106750000Y-67850000D03*
D61*
X87250000Y-138000000D03*
X74000000Y-94350000D03*
X100250000Y-96750000D03*
D60*
X72000000Y-113250000D03*
D61*
X79796834Y-120593834D03*
D60*
X102000000Y-73337500D03*
D59*
X74750000Y-104312500D03*
X95900000Y-71000000D03*
D60*
X84250000Y-61087500D03*
D59*
X104000000Y-143000000D03*
X96250000Y-72500000D03*
D61*
X71200000Y-96700000D03*
D59*
X77012500Y-72750000D03*
X91150000Y-73000000D03*
D60*
X103896446Y-57853554D03*
D61*
X111000000Y-102500000D03*
D60*
X69497320Y-114247919D03*
X76200000Y-129800000D03*
D59*
X90250000Y-141250000D03*
D61*
X104924265Y-126250000D03*
D59*
X102000000Y-145000000D03*
D61*
X91200000Y-96700000D03*
X71750000Y-142750000D03*
X107000000Y-106500000D03*
X103250000Y-50500000D03*
D60*
X79745002Y-128285231D03*
D61*
X112449000Y-110000000D03*
D60*
X89250000Y-77750000D03*
X93705257Y-55044346D03*
X94991250Y-54008750D03*
D61*
X74500000Y-142250000D03*
D60*
X91500000Y-109250000D03*
D59*
%TO.N,3V3_MCU*%
X88012500Y-77500000D03*
D61*
X101293750Y-88293750D03*
X103570000Y-52317500D03*
X108500000Y-77087500D03*
D59*
X85400000Y-72750000D03*
D62*
X99000000Y-47500000D03*
D60*
X71500000Y-125750000D03*
D61*
X79000000Y-55000000D03*
D60*
X76941235Y-101000000D03*
D59*
X74895000Y-109312500D03*
X71395000Y-109312500D03*
D61*
X111000000Y-94500000D03*
X71250000Y-129000000D03*
D59*
X79250000Y-63000000D03*
X74750000Y-107312500D03*
D60*
X73750000Y-115250000D03*
D61*
X88500000Y-58250000D03*
D60*
X103750000Y-55800000D03*
X71000000Y-132250000D03*
X82250000Y-118150000D03*
D61*
X85250000Y-134000000D03*
D60*
X100750000Y-53000000D03*
X70750000Y-122000000D03*
D61*
X75250000Y-133750000D03*
D60*
X74501000Y-127574698D03*
X85200000Y-126605000D03*
X80180000Y-126900000D03*
D61*
X104500000Y-87875000D03*
X103367500Y-58750000D03*
D60*
X97250000Y-54800000D03*
D61*
X84400000Y-88900000D03*
D59*
X78650000Y-65500000D03*
X72145000Y-107312500D03*
D61*
X80000000Y-57750000D03*
D60*
X85600000Y-121198000D03*
D61*
X82750000Y-115250000D03*
D60*
%TO.N,1V1_MCU*%
X87250000Y-119250000D03*
X87750000Y-119250000D03*
X79500000Y-112500000D03*
X71404364Y-119736471D03*
X77437504Y-128402390D03*
%TO.N,V_CHG*%
X110900000Y-122100000D03*
%TO.N,POT_VOLUME*%
X66848000Y-99000000D03*
%TO.N,1V8_AUDIO*%
X96500000Y-55250000D03*
%TO.N,BTN_ENC_B*%
X66032782Y-115472208D03*
%TO.N,BTN_ENC_A*%
X65500000Y-116238000D03*
%TO.N,BTN_MTX_5*%
X79550010Y-128853193D03*
%TO.N,BTN_MTX_4*%
X79424654Y-127719654D03*
%TO.N,Net-(D12-A)*%
X74501000Y-129500000D03*
X71250000Y-127750000D03*
%TO.N,BTN_MTX_2*%
X105999000Y-112800000D03*
X73900000Y-112700000D03*
X81400000Y-120100000D03*
X68146446Y-112053554D03*
X67200000Y-118200000D03*
X65200000Y-117800000D03*
X105887500Y-115200000D03*
%TO.N,BTN_MTX_3*%
X80778263Y-126945653D03*
X77000000Y-92800000D03*
X81200000Y-119349000D03*
%TO.N,BTN_MTX_1*%
X96800000Y-109500000D03*
X81180000Y-126500000D03*
X78426000Y-94426000D03*
X97187751Y-111000000D03*
X66000000Y-66750000D03*
%TO.N,BTN_MTX_0*%
X79200000Y-129500000D03*
X90500000Y-100192894D03*
X92200000Y-100200000D03*
X66990380Y-111709620D03*
X66198000Y-76950000D03*
X79300000Y-104800000D03*
X82000000Y-100900000D03*
X67500000Y-110250000D03*
%TO.N,HEADSET_CONN*%
X89204346Y-83545654D03*
%TO.N,HEADSET_PTT*%
X99350000Y-92550000D03*
X82896446Y-100896446D03*
%TO.N,BTN_MTX_A*%
X82083823Y-123209069D03*
X75234000Y-121600000D03*
X75902554Y-122702554D03*
%TO.N,BTN_MTX_B*%
X91500000Y-118900000D03*
X91000000Y-132375000D03*
X91000000Y-123375000D03*
X90000000Y-98500000D03*
X91732762Y-104500001D03*
X82075883Y-123827323D03*
%TO.N,BTN_MTX_C*%
X107000000Y-112800000D03*
X82794669Y-129898223D03*
X106440660Y-114459340D03*
%TO.N,BTN_MTX_D*%
X83000000Y-127500000D03*
X80300000Y-140700000D03*
%TO.N,SD_CARD_DETECT*%
X75156536Y-124406536D03*
X99250000Y-89750000D03*
X94699999Y-113524696D03*
%TO.N,Net-(U7-GPIO26)*%
X71578304Y-123980804D03*
X70963341Y-126018329D03*
%TO.N,SD_CS*%
X106945004Y-97695004D03*
X96260638Y-111144362D03*
X74987074Y-126415000D03*
%TO.N,Net-(J2-CC1)*%
X106885620Y-108411001D03*
%TO.N,Net-(J2-CC2)*%
X107103221Y-111500000D03*
%TO.N,DISPLAY_CS*%
X81750000Y-118600000D03*
X86927753Y-80572247D03*
X89437074Y-105806374D03*
%TO.N,DISPLAY_SCLK*%
X107656500Y-94406500D03*
X78999688Y-124982319D03*
X95500735Y-112099265D03*
%TO.N,DISPLAY_RESET*%
X86021446Y-81250000D03*
X90325734Y-105000000D03*
X80626690Y-117948000D03*
%TO.N,DISPLAY_BUSY*%
X89883969Y-105406014D03*
X81203000Y-118349000D03*
X85250000Y-80500000D03*
%TO.N,DISPLAY_SDI*%
X78390529Y-124999936D03*
X96209168Y-111800000D03*
X107831500Y-95831500D03*
%TO.N,RF_SCLK*%
X83750000Y-94750000D03*
D59*
%TO.N,V_BAT*%
X74500000Y-99750000D03*
D61*
X71500000Y-55000000D03*
X87200000Y-96700000D03*
X89550000Y-93900000D03*
X75000000Y-96500000D03*
X82864656Y-99497630D03*
D59*
X72444998Y-99750000D03*
D61*
X76300000Y-97200000D03*
X87200000Y-94100000D03*
X85200000Y-98200000D03*
X75000003Y-94350000D03*
D60*
%TO.N,RF_GPIO3*%
X79820004Y-94887104D03*
X79735646Y-97997499D03*
%TO.N,RF_SDI*%
X79449000Y-100375000D03*
X83400000Y-96997500D03*
%TO.N,RF_SEL*%
X82125000Y-94375000D03*
X78448000Y-98750000D03*
%TO.N,RF_GPIO2*%
X75754793Y-101547687D03*
X81500000Y-96500000D03*
%TO.N,RF_SDO*%
X78047001Y-101560106D03*
X82720196Y-96970196D03*
%TO.N,Net-(J6-Pin_2)*%
X104250000Y-54750000D03*
%TO.N,Net-(J6-Pin_1)*%
X103750000Y-55199997D03*
X101933709Y-52912384D03*
%TO.N,Net-(U1-~{CS})*%
X81000000Y-135000000D03*
X81831864Y-129348954D03*
%TO.N,Net-(R3-Pad1)*%
X108250000Y-116875000D03*
X85250000Y-145500000D03*
%TO.N,Net-(J2-D+-PadA6)*%
X107000000Y-110500000D03*
%TO.N,Net-(J2-D--PadA7)*%
X107000000Y-109000000D03*
%TO.N,MIC_SDO*%
X72175437Y-117658917D03*
X73835000Y-138047850D03*
%TO.N,CHGR_CONN*%
X91771621Y-110150000D03*
%TO.N,CHGR_STAT*%
X73874293Y-134874293D03*
X74000000Y-122950000D03*
%TO.N,AUDIOAMP_RESET*%
X81804996Y-104054996D03*
X90750000Y-90500000D03*
X100579000Y-85651000D03*
X80332748Y-117349466D03*
X99000000Y-52750000D03*
%TO.N,AUDIOAMP_I2C_SCL*%
X100250000Y-66250000D03*
X84299999Y-94147899D03*
X100178000Y-86250000D03*
%TO.N,AUDIOAMP_I2C_SDA*%
X99778000Y-65825734D03*
X99649289Y-87056767D03*
X84799999Y-94593896D03*
%TO.N,LED_STATUS*%
X66750000Y-125000000D03*
X74000000Y-59500000D03*
X71500000Y-122500000D03*
%TO.N,Net-(U7-RUN)*%
X69500000Y-122067500D03*
X71900999Y-118192477D03*
%TO.N,Net-(U1-CLK)*%
X81700000Y-132300000D03*
X81273277Y-129568000D03*
%TO.N,FLASH_CS*%
X74100000Y-130300000D03*
X74100000Y-127000000D03*
%TO.N,FLASH_SDO*%
X111250000Y-91000000D03*
X95201000Y-112905052D03*
X77680000Y-125000000D03*
%TO.N,MIC_WORDSELECT*%
X73250000Y-135500000D03*
X75377196Y-141500000D03*
X73500000Y-117750000D03*
%TO.N,MIC_SCL*%
X73750000Y-118500000D03*
X71000000Y-135000000D03*
X72699000Y-134092725D03*
%TO.N,AUDIOAMP_SDI*%
X79422319Y-123099001D03*
X99377000Y-65373729D03*
X94200000Y-113100000D03*
%TO.N,AUDIOAMP_SDO*%
X92954322Y-115270372D03*
X77290996Y-123002146D03*
X97975000Y-64750000D03*
%TO.N,AUDIOAMP_SCL*%
X78715212Y-123099001D03*
X98750000Y-63000000D03*
X93702000Y-114200000D03*
%TO.N,AUDIOAMP_WORDSELECT*%
X100900000Y-63100000D03*
X98250000Y-63500000D03*
X93378588Y-114846106D03*
X78008106Y-123099000D03*
%TO.N,AUDIOAMP_MASTERCLK*%
X76039607Y-126850000D03*
X92262847Y-115961847D03*
X98230828Y-60826000D03*
%TD*%
D63*
%TO.N,GND*%
X105080000Y-122000000D02*
X105580000Y-122500000D01*
D64*
X100800000Y-56300000D02*
X100550000Y-56050000D01*
X94687500Y-51300000D02*
X95487500Y-50500000D01*
D63*
X112850000Y-107812500D02*
X112162500Y-108500000D01*
X93000000Y-123500000D02*
X93250000Y-123250000D01*
D64*
X102300000Y-58500000D02*
X102300000Y-57800000D01*
D63*
X69500000Y-53580000D02*
X68790000Y-54290000D01*
X106362500Y-49050000D02*
X106062500Y-48750000D01*
D64*
X112362500Y-95795000D02*
X112067500Y-95500000D01*
D63*
X84932500Y-61087500D02*
X83567500Y-61087500D01*
X87900000Y-73025000D02*
X87150000Y-73025000D01*
D64*
X94137500Y-55750000D02*
X94137500Y-55455000D01*
X85920000Y-49000000D02*
X86340000Y-49000000D01*
X79400000Y-107270000D02*
X79420000Y-107250000D01*
X106000000Y-94250000D02*
X106000000Y-94750000D01*
X102300000Y-60250000D02*
X102300000Y-60862500D01*
D63*
X112162500Y-110250000D02*
X112199000Y-110250000D01*
D64*
X94687500Y-53705000D02*
X95482500Y-54500000D01*
D63*
X84000000Y-133500000D02*
X84500000Y-133000000D01*
D64*
X88000000Y-144750000D02*
X86250000Y-144750000D01*
X104500000Y-91000000D02*
X105937500Y-91000000D01*
X101800000Y-57300000D02*
X100550000Y-56050000D01*
X94137500Y-55455000D02*
X93716250Y-55033750D01*
X102300000Y-54300000D02*
X100550000Y-56050000D01*
X93716250Y-55033750D02*
X93182500Y-54500000D01*
X102300000Y-53600000D02*
X102300000Y-54300000D01*
X111170000Y-92500000D02*
X111000000Y-92500000D01*
D63*
X69500000Y-51000000D02*
X69500000Y-53580000D01*
X88650000Y-73025000D02*
X89287500Y-73025000D01*
D64*
X98100000Y-54100000D02*
X97750000Y-53750000D01*
X68000000Y-53500000D02*
X68790000Y-54290000D01*
X108330000Y-72000000D02*
X107775000Y-72000000D01*
D63*
X89287500Y-73025000D02*
X90400000Y-74137500D01*
X112162500Y-111500000D02*
X112162500Y-110250000D01*
D64*
X102000000Y-73337500D02*
X102750000Y-73337500D01*
X98100000Y-54300000D02*
X98100000Y-54100000D01*
X80050000Y-128850000D02*
X80600000Y-129400000D01*
D63*
X78500000Y-111900000D02*
X78500000Y-112665000D01*
X87900000Y-73025000D02*
X87900000Y-71750000D01*
D64*
X103000000Y-57300000D02*
X103415798Y-57300000D01*
D63*
X91750000Y-109500000D02*
X91500000Y-109250000D01*
D64*
X98100000Y-54300000D02*
X98800000Y-54300000D01*
D63*
X79400000Y-141620000D02*
X79400000Y-142200000D01*
X112850000Y-112187500D02*
X112162500Y-111500000D01*
D64*
X99080000Y-87580000D02*
X99250000Y-87750000D01*
D63*
X79327558Y-131750000D02*
X78920000Y-131750000D01*
D65*
X77150000Y-72612500D02*
X77012500Y-72750000D01*
D63*
X79437558Y-131640000D02*
X79327558Y-131750000D01*
X112850000Y-105430000D02*
X112850000Y-107812500D01*
X112199000Y-110250000D02*
X112449000Y-110000000D01*
D64*
X107775000Y-72000000D02*
X107750000Y-72025000D01*
X103000000Y-57300000D02*
X101800000Y-57300000D01*
X106750000Y-68330000D02*
X106750000Y-67850000D01*
X103000000Y-56300000D02*
X100800000Y-56300000D01*
X103415798Y-57300000D02*
X103896446Y-57780648D01*
D63*
X96650000Y-74137500D02*
X95900000Y-74137500D01*
X82537500Y-70500000D02*
X82787500Y-70250000D01*
D64*
X106000000Y-95750000D02*
X106000000Y-95250000D01*
X94687500Y-52250000D02*
X94687500Y-51300000D01*
X112362500Y-97000000D02*
X112362500Y-95795000D01*
X78926166Y-120593834D02*
X78620000Y-120900000D01*
X86340000Y-49000000D02*
X87000000Y-49660000D01*
X102300000Y-53600000D02*
X102400000Y-53600000D01*
D63*
X78500000Y-112665000D02*
X79165000Y-113330000D01*
D64*
X87000000Y-51000000D02*
X87000000Y-49660000D01*
D63*
X79165000Y-113330000D02*
X79500000Y-113330000D01*
D64*
X105937500Y-91000000D02*
X106000000Y-91062500D01*
D63*
X112162500Y-110250000D02*
X112162500Y-108500000D01*
D64*
X103896446Y-57780648D02*
X103896446Y-57853554D01*
X89250000Y-80487500D02*
X89262500Y-80500000D01*
X112067500Y-94272500D02*
X112340000Y-94000000D01*
X100300000Y-53600000D02*
X100300000Y-55800000D01*
D63*
X102550000Y-51182500D02*
X102567500Y-51182500D01*
D64*
X103800000Y-56300000D02*
X104000000Y-56500000D01*
D63*
X102567500Y-51182500D02*
X103250000Y-50500000D01*
D64*
X106000000Y-95250000D02*
X106000000Y-94750000D01*
X89250000Y-79150000D02*
X89250000Y-80487500D01*
D63*
X110912500Y-119250000D02*
X111750000Y-119250000D01*
X91150000Y-74137500D02*
X91150000Y-73000000D01*
X93900000Y-72524000D02*
X93876000Y-72500000D01*
D64*
X79400000Y-108700000D02*
X79400000Y-107270000D01*
D63*
X106362500Y-50250000D02*
X106362500Y-49050000D01*
D64*
X87000000Y-49660000D02*
X87660000Y-49000000D01*
X103000000Y-91000000D02*
X104500000Y-91000000D01*
X100300000Y-55800000D02*
X100550000Y-56050000D01*
X93715853Y-55033750D02*
X93705257Y-55044346D01*
X102300000Y-59250000D02*
X102300000Y-60250000D01*
X102300000Y-60862500D02*
X102437500Y-61000000D01*
D63*
X104750000Y-122000000D02*
X105080000Y-122000000D01*
X92670000Y-123500000D02*
X93000000Y-123500000D01*
D64*
X98800000Y-54300000D02*
X100550000Y-56050000D01*
X102232500Y-59750000D02*
X102232500Y-60182500D01*
X80600000Y-129400000D02*
X80600000Y-130180000D01*
X80050000Y-128590229D02*
X80050000Y-128850000D01*
X102232500Y-60182500D02*
X102300000Y-60250000D01*
D65*
X93876000Y-72500000D02*
X93876000Y-70500000D01*
D63*
X93900000Y-74137500D02*
X93900000Y-72524000D01*
D64*
X112340000Y-93840000D02*
X111000000Y-92500000D01*
X89250000Y-79150000D02*
X89250000Y-77750000D01*
X79745002Y-128285231D02*
X80050000Y-128590229D01*
X94687500Y-53250000D02*
X94687500Y-52250000D01*
X79500000Y-113250000D02*
X79500000Y-113330000D01*
D63*
X91900000Y-74137500D02*
X91150000Y-74137500D01*
D64*
X80600000Y-130180000D02*
X80670000Y-130250000D01*
D63*
X106362500Y-51250000D02*
X106362500Y-50250000D01*
D64*
X112362500Y-97000000D02*
X112362500Y-98112500D01*
D63*
X83920000Y-133500000D02*
X84000000Y-133500000D01*
D64*
X79796834Y-120593834D02*
X78926166Y-120593834D01*
X98500000Y-87580000D02*
X99080000Y-87580000D01*
X93716250Y-55033750D02*
X93715853Y-55033750D01*
X103000000Y-56300000D02*
X103800000Y-56300000D01*
X106250000Y-74080000D02*
X106770000Y-74080000D01*
D63*
X91150000Y-74137500D02*
X90400000Y-74137500D01*
D64*
X106770000Y-74080000D02*
X106800000Y-74050000D01*
D63*
X97400000Y-74137500D02*
X96650000Y-74137500D01*
D64*
X112170000Y-91500000D02*
X111170000Y-92500000D01*
X84932500Y-61087500D02*
X84250000Y-61087500D01*
X112362500Y-98112500D02*
X112500000Y-98250000D01*
D65*
X77150000Y-71362500D02*
X77150000Y-72612500D01*
D64*
X112067500Y-95500000D02*
X112067500Y-94272500D01*
X107500000Y-99170000D02*
X107500000Y-99750000D01*
D63*
X112850000Y-114070000D02*
X112850000Y-112187500D01*
D64*
X94687500Y-53250000D02*
X94687500Y-53705000D01*
D63*
X68790000Y-54290000D02*
X68080000Y-55000000D01*
D64*
X112340000Y-94000000D02*
X112340000Y-93840000D01*
D63*
X88650000Y-73025000D02*
X87900000Y-73025000D01*
D64*
X102400000Y-53600000D02*
X102864216Y-53135784D01*
D63*
X92080000Y-109500000D02*
X91750000Y-109500000D01*
D64*
X102300000Y-58500000D02*
X102300000Y-59250000D01*
X102300000Y-57800000D02*
X100550000Y-56050000D01*
X83567500Y-61087500D02*
X84250000Y-61087500D01*
D66*
%TO.N,3V3_MCU*%
X79250000Y-63000000D02*
X79250000Y-63700000D01*
X79250000Y-63700000D02*
X77050000Y-65900000D01*
D64*
X103000000Y-55800000D02*
X103750000Y-55800000D01*
D63*
X98625000Y-47875000D02*
X99000000Y-47500000D01*
X107500000Y-77087500D02*
X108500000Y-77087500D01*
X104162500Y-60545000D02*
X103367500Y-59750000D01*
D64*
X100800000Y-53050000D02*
X100750000Y-53000000D01*
D63*
X109000000Y-77087500D02*
X109587500Y-76500000D01*
D65*
X76500000Y-69000000D02*
X76512500Y-69000000D01*
D64*
X96617500Y-54500000D02*
X96950000Y-54500000D01*
D63*
X98625000Y-48500000D02*
X98625000Y-47875000D01*
D65*
X78650000Y-65500000D02*
X78650000Y-63600000D01*
D64*
X100800000Y-53600000D02*
X100800000Y-53050000D01*
D63*
X103367500Y-59750000D02*
X103367500Y-58750000D01*
X103367500Y-58750000D02*
X103367500Y-58243500D01*
X100500000Y-89087500D02*
X101293750Y-88293750D01*
X87500000Y-57837500D02*
X88087500Y-57837500D01*
X104162500Y-61000000D02*
X104162500Y-60545000D01*
X77875000Y-55000000D02*
X79000000Y-55000000D01*
X81000000Y-57837500D02*
X80087500Y-57837500D01*
X104500000Y-87875000D02*
X105937500Y-87875000D01*
D65*
X86962500Y-76412500D02*
X86987500Y-76387500D01*
X77150000Y-66000000D02*
X77050000Y-65900000D01*
D64*
X96950000Y-54500000D02*
X97250000Y-54800000D01*
D65*
X77050000Y-65900000D02*
X76500000Y-66450000D01*
D64*
X96617500Y-54500000D02*
X96617500Y-53455000D01*
X98100000Y-54800000D02*
X97250000Y-54800000D01*
D65*
X78650000Y-63600000D02*
X79250000Y-63000000D01*
D63*
X85400000Y-74087500D02*
X85400000Y-72750000D01*
X103570000Y-52317500D02*
X102550000Y-52317500D01*
X103000000Y-87875000D02*
X104500000Y-87875000D01*
D64*
X103000000Y-54300000D02*
X103570000Y-53730000D01*
D63*
X101712500Y-87875000D02*
X101293750Y-88293750D01*
X103000000Y-87875000D02*
X101712500Y-87875000D01*
X111000000Y-94500000D02*
X111000000Y-96637500D01*
D65*
X87150000Y-74750000D02*
X87150000Y-76225000D01*
D63*
X85250000Y-90087500D02*
X84400000Y-90087500D01*
X111000000Y-96637500D02*
X110637500Y-97000000D01*
D65*
X76512500Y-69000000D02*
X77150000Y-69637500D01*
D64*
X111500000Y-94000000D02*
X111000000Y-94500000D01*
D63*
X104637500Y-51250000D02*
X104637500Y-50450000D01*
X103367500Y-58243500D02*
X103000000Y-57876000D01*
X105937500Y-87875000D02*
X106000000Y-87937500D01*
D64*
X96617500Y-53455000D02*
X96412500Y-53250000D01*
X103570000Y-53730000D02*
X103570000Y-52317500D01*
D63*
X80087500Y-57837500D02*
X80000000Y-57750000D01*
D65*
X87150000Y-76225000D02*
X86987500Y-76387500D01*
D63*
X84400000Y-88900000D02*
X84400000Y-90087500D01*
X85187500Y-90087500D02*
X85250000Y-90087500D01*
X108500000Y-77087500D02*
X109000000Y-77087500D01*
X104637500Y-50450000D02*
X102937500Y-48750000D01*
X84400000Y-90087500D02*
X83500000Y-90087500D01*
X88087500Y-57837500D02*
X88500000Y-58250000D01*
D65*
X76500000Y-66450000D02*
X76500000Y-69000000D01*
D63*
X104637500Y-51250000D02*
X103570000Y-52317500D01*
D67*
%TO.N,Net-(D58-A)*%
X82150000Y-67750000D02*
X82150000Y-67387500D01*
D64*
%TO.N,Net-(D56-A)*%
X92250000Y-78248000D02*
X92483384Y-78014616D01*
X92250000Y-79150000D02*
X92250000Y-78248000D01*
D63*
X93265650Y-78014616D02*
X92900000Y-78014616D01*
X94826000Y-67926000D02*
X94826000Y-76454266D01*
D64*
X92483384Y-78014616D02*
X92900000Y-78014616D01*
D63*
X94826000Y-76454266D02*
X93265650Y-78014616D01*
X92900000Y-78014616D02*
X92664616Y-78014616D01*
D65*
X95063500Y-75862500D02*
X94951000Y-75750000D01*
D63*
X94650000Y-67750000D02*
X94826000Y-67926000D01*
D65*
X95900000Y-75862500D02*
X95063500Y-75862500D01*
D64*
%TO.N,Net-(D58-K)*%
X91250000Y-79150000D02*
X91250000Y-77818134D01*
X91250000Y-77818134D02*
X92826000Y-76242134D01*
D63*
X92826000Y-76242134D02*
X92826000Y-72324000D01*
D64*
%TO.N,Net-(J3-Pin_5)*%
X82400000Y-77230036D02*
X83250000Y-78080036D01*
X82400000Y-75362500D02*
X82400000Y-77230036D01*
X83250000Y-78080036D02*
X83250000Y-79150000D01*
%TO.N,Net-(J3-Pin_24)*%
X94112500Y-79150000D02*
X97400000Y-75862500D01*
X92750000Y-79150000D02*
X94112500Y-79150000D01*
%TO.N,Net-(J3-Pin_22)*%
X91750000Y-78150000D02*
X91750000Y-79150000D01*
X93900000Y-75862500D02*
X93900000Y-76000000D01*
X93900000Y-76000000D02*
X91750000Y-78150000D01*
%TO.N,Net-(J3-Pin_20)*%
X90750000Y-77362500D02*
X92250000Y-75862500D01*
X90750000Y-79150000D02*
X90750000Y-77362500D01*
%TO.N,Net-(J3-Pin_18)*%
X88650000Y-76225000D02*
X88812500Y-76387500D01*
D65*
X88925000Y-75025000D02*
X88650000Y-74750000D01*
X88925000Y-76387500D02*
X88925000Y-75025000D01*
D64*
X89750000Y-77325000D02*
X89750000Y-79150000D01*
X88812500Y-76387500D02*
X89750000Y-77325000D01*
%TO.N,Net-(J3-Pin_19)*%
X90250000Y-76012500D02*
X90400000Y-75862500D01*
X90250000Y-79150000D02*
X90250000Y-76012500D01*
D63*
%TO.N,V_CHG*%
X110900000Y-121012500D02*
X110912500Y-121000000D01*
X110900000Y-122100000D02*
X110900000Y-121012500D01*
%TO.N,POT_VOLUME*%
X66355000Y-53500000D02*
X66355000Y-51645000D01*
D64*
X67160000Y-53500000D02*
X66355000Y-53500000D01*
D63*
X66848000Y-69000000D02*
X66848000Y-97500000D01*
X66355000Y-64355000D02*
X66355000Y-55000000D01*
X66355000Y-55000000D02*
X66355000Y-53500000D01*
X66848000Y-69000000D02*
X66848000Y-64848000D01*
X66848000Y-97500000D02*
X66848000Y-99000000D01*
X66355000Y-51645000D02*
X67000000Y-51000000D01*
X66848000Y-64848000D02*
X66355000Y-64355000D01*
D64*
%TO.N,1V8_AUDIO*%
X96362500Y-55250000D02*
X95862500Y-55750000D01*
X95567500Y-55750000D02*
X94317500Y-54500000D01*
X97000000Y-55250000D02*
X96362500Y-55250000D01*
X97050000Y-55300000D02*
X97000000Y-55250000D01*
X98100000Y-55300000D02*
X97050000Y-55300000D01*
X95862500Y-55750000D02*
X95567500Y-55750000D01*
%TO.N,Net-(U12-HPL)*%
X100800000Y-51812500D02*
X101300000Y-52312500D01*
X101300000Y-52312500D02*
X101300000Y-53600000D01*
D63*
%TO.N,Net-(C79-Pad2)*%
X107454211Y-54274497D02*
X107250000Y-54478708D01*
X107250000Y-54478708D02*
X107250000Y-58500000D01*
X102088500Y-47399000D02*
X106772292Y-47399000D01*
X106772292Y-47399000D02*
X107454211Y-48080919D01*
X107675000Y-65000000D02*
X107675000Y-61500000D01*
X107454211Y-48080919D02*
X107454211Y-54274497D01*
X100800000Y-48687500D02*
X102088500Y-47399000D01*
X107675000Y-58925000D02*
X107675000Y-61500000D01*
X107250000Y-58500000D02*
X107675000Y-58925000D01*
D64*
%TO.N,Net-(U12-MIC1LM)*%
X101800000Y-58500000D02*
X101800000Y-59165824D01*
X101526000Y-59439824D02*
X101526000Y-61526000D01*
X103000000Y-63000000D02*
X103000000Y-67932500D01*
X101800000Y-59165824D02*
X101526000Y-59439824D01*
X101526000Y-61526000D02*
X103000000Y-63000000D01*
%TO.N,Net-(D36-A1)*%
X101750000Y-71662500D02*
X100250000Y-71662500D01*
X103000000Y-69067500D02*
X103000000Y-70412500D01*
X104592500Y-69067500D02*
X104775000Y-69250000D01*
X106670000Y-69250000D02*
X106750000Y-69170000D01*
X103000000Y-70412500D02*
X101750000Y-71662500D01*
X103000000Y-69067500D02*
X104592500Y-69067500D01*
X104775000Y-69250000D02*
X106670000Y-69250000D01*
D63*
%TO.N,BTN_ENC_B*%
X86067500Y-61087500D02*
X86067500Y-59980000D01*
X87500000Y-59662500D02*
X85750000Y-59662500D01*
X86067500Y-59980000D02*
X85750000Y-59662500D01*
X68250000Y-99741364D02*
X66032782Y-101958582D01*
X66032782Y-101958582D02*
X66032782Y-115472208D01*
X68250000Y-66991364D02*
X68250000Y-99741364D01*
X86067500Y-61087500D02*
X86067500Y-61397500D01*
X79500000Y-61000000D02*
X74241364Y-61000000D01*
X85616500Y-61848500D02*
X80348500Y-61848500D01*
X86067500Y-61397500D02*
X85616500Y-61848500D01*
X80348500Y-61848500D02*
X79500000Y-61000000D01*
X74241364Y-61000000D02*
X68250000Y-66991364D01*
%TO.N,BTN_ENC_A*%
X67549000Y-99451000D02*
X67549000Y-66701000D01*
X82432500Y-61087500D02*
X82432500Y-59980000D01*
X65500000Y-116238000D02*
X65331782Y-116069782D01*
X74000000Y-60250000D02*
X80412500Y-60250000D01*
X65331782Y-116069782D02*
X65331782Y-101668218D01*
X65331782Y-101668218D02*
X67549000Y-99451000D01*
X82750000Y-59662500D02*
X81000000Y-59662500D01*
X67549000Y-66701000D02*
X74000000Y-60250000D01*
X82432500Y-59980000D02*
X82750000Y-59662500D01*
X80412500Y-60250000D02*
X81000000Y-59662500D01*
D64*
%TO.N,Net-(U12-HPR)*%
X99800000Y-52661160D02*
X99800000Y-53600000D01*
X98612500Y-51473660D02*
X99800000Y-52661160D01*
X98612500Y-50500000D02*
X98612500Y-51473660D01*
D63*
%TO.N,BTN_MTX_5*%
X80701000Y-134378346D02*
X80250000Y-134829346D01*
D64*
X79649000Y-129016100D02*
X79800000Y-129167100D01*
D63*
X83049000Y-140201000D02*
X91049000Y-140201000D01*
X82000000Y-137325000D02*
X82000000Y-139152000D01*
X91049000Y-140201000D02*
X93976000Y-137274000D01*
X93976000Y-137274000D02*
X105974000Y-137274000D01*
X80250000Y-137300000D02*
X81975000Y-137300000D01*
D64*
X79800000Y-130220000D02*
X79830000Y-130250000D01*
D63*
X80701000Y-131201000D02*
X80701000Y-134378346D01*
X78000000Y-137300000D02*
X80250000Y-137300000D01*
D64*
X79800000Y-129167100D02*
X79800000Y-130220000D01*
X79649000Y-128952183D02*
X79649000Y-129016100D01*
D63*
X82000000Y-139152000D02*
X83049000Y-140201000D01*
X81975000Y-137300000D02*
X82000000Y-137325000D01*
X79830000Y-130250000D02*
X79830000Y-130330000D01*
X105974000Y-137274000D02*
X106000000Y-137300000D01*
X79830000Y-130330000D02*
X80701000Y-131201000D01*
D64*
X79550010Y-128853193D02*
X79649000Y-128952183D01*
D63*
X80250000Y-134829346D02*
X80250000Y-137300000D01*
%TO.N,Net-(D4-A)*%
X76425000Y-135200000D02*
X77700000Y-135200000D01*
X73073850Y-138698850D02*
X74104654Y-138698850D01*
X74104654Y-138698850D02*
X75250000Y-137553504D01*
X75250000Y-136375000D02*
X76000000Y-135625000D01*
X76000000Y-135625000D02*
X76425000Y-135200000D01*
X75250000Y-137553504D02*
X75250000Y-136375000D01*
X70000000Y-135625000D02*
X73073850Y-138698850D01*
%TO.N,Net-(D8-A)*%
X84000000Y-135625000D02*
X90000000Y-135625000D01*
X83600000Y-135225000D02*
X84000000Y-135625000D01*
X82000000Y-135225000D02*
X83600000Y-135225000D01*
%TO.N,Net-(D9-A)*%
X104000000Y-135625000D02*
X105575000Y-135625000D01*
X98000000Y-135625000D02*
X104000000Y-135625000D01*
X105575000Y-135625000D02*
X106000000Y-135200000D01*
%TO.N,Net-(D10-A)*%
X104000000Y-127625000D02*
X105575000Y-127625000D01*
X98000000Y-127625000D02*
X104000000Y-127625000D01*
X104000000Y-127625000D02*
X104051735Y-127676735D01*
X105575000Y-127625000D02*
X106000000Y-127200000D01*
%TO.N,BTN_MTX_4*%
X92000000Y-129300000D02*
X91897223Y-129197223D01*
X79205346Y-127719654D02*
X79424654Y-127719654D01*
X79544308Y-127600000D02*
X79424654Y-127719654D01*
X82230346Y-128630346D02*
X81630346Y-128630346D01*
X79205346Y-127719654D02*
X78000000Y-128925000D01*
X79424654Y-127719654D02*
X79444308Y-127700000D01*
X91897223Y-129197223D02*
X82797223Y-129197223D01*
X80600000Y-127600000D02*
X79544308Y-127600000D01*
X78080000Y-129930000D02*
X78000000Y-129850000D01*
X78000000Y-128925000D02*
X78000000Y-129850000D01*
X78080000Y-131750000D02*
X78080000Y-129930000D01*
X82797223Y-129197223D02*
X82230346Y-128630346D01*
X81630346Y-128630346D02*
X80600000Y-127600000D01*
X92000000Y-129300000D02*
X106000000Y-129300000D01*
D64*
%TO.N,Net-(D11-A)*%
X84000000Y-127625000D02*
X84275000Y-127900000D01*
X89725000Y-127900000D02*
X90000000Y-127625000D01*
D63*
X84000000Y-127625000D02*
X90000000Y-127625000D01*
X89875000Y-127500000D02*
X90000000Y-127625000D01*
X90000000Y-127625000D02*
X91575000Y-127625000D01*
X91575000Y-127625000D02*
X92000000Y-127200000D01*
D64*
%TO.N,Net-(D12-A)*%
X76000000Y-129011932D02*
X76000000Y-127625000D01*
X71250000Y-127750000D02*
X70125000Y-127750000D01*
D63*
X77875000Y-127625000D02*
X78000000Y-127750000D01*
D64*
X75511932Y-129500000D02*
X76000000Y-129011932D01*
X74501000Y-129500000D02*
X75511932Y-129500000D01*
D63*
X76000000Y-127625000D02*
X77875000Y-127625000D01*
D64*
X70125000Y-127750000D02*
X70000000Y-127625000D01*
%TO.N,BTN_MTX_2*%
X105999000Y-112297912D02*
X104201088Y-110500000D01*
X90699000Y-118261106D02*
X89386894Y-116949000D01*
X65200000Y-117800000D02*
X64780782Y-117380782D01*
X81400000Y-120100000D02*
X81020768Y-120100000D01*
X90699000Y-118899000D02*
X90699000Y-118261106D01*
X83628232Y-118551000D02*
X82079232Y-120100000D01*
X82079232Y-120100000D02*
X81400000Y-120100000D01*
X95300000Y-110500000D02*
X92000000Y-113800000D01*
X79500000Y-115700000D02*
X79500000Y-114170000D01*
X91700000Y-114100000D02*
X91700000Y-116295768D01*
X89386894Y-116949000D02*
X88651000Y-116949000D01*
X74500000Y-113300000D02*
X73900000Y-112700000D01*
X64780782Y-101317321D02*
X66053500Y-100044603D01*
X67200000Y-118091479D02*
X67200000Y-118200000D01*
X66053500Y-100044603D02*
X66053500Y-96003500D01*
X64780782Y-117380782D02*
X64780782Y-101317321D01*
X80310384Y-119389616D02*
X80051722Y-119389616D01*
X80051722Y-119389616D02*
X78949000Y-118286894D01*
X78949000Y-116251000D02*
X79500000Y-115700000D01*
X92000000Y-116595768D02*
X92000000Y-119200000D01*
X88651000Y-116949000D02*
X87049000Y-118551000D01*
X66053500Y-96003500D02*
X65800000Y-95750000D01*
X91800000Y-119400000D02*
X91200000Y-119400000D01*
X81020768Y-120100000D02*
X80310384Y-119389616D01*
X68146446Y-112053554D02*
X68251000Y-112158108D01*
X92000000Y-119200000D02*
X91800000Y-119400000D01*
X92000000Y-113800000D02*
X91700000Y-114100000D01*
X68251000Y-117040479D02*
X67200000Y-118091479D01*
X87049000Y-118551000D02*
X83628232Y-118551000D01*
X105887500Y-115200000D02*
X105872639Y-115214861D01*
X104201088Y-110500000D02*
X95300000Y-110500000D01*
X91700000Y-116295768D02*
X92000000Y-116595768D01*
X91200000Y-119400000D02*
X90699000Y-118899000D01*
X105999000Y-112800000D02*
X105999000Y-112297912D01*
X68251000Y-112158108D02*
X68251000Y-117040479D01*
X78870000Y-114170000D02*
X79500000Y-114170000D01*
X105900000Y-115212500D02*
X105887500Y-115200000D01*
X105900000Y-115800000D02*
X105900000Y-115212500D01*
X78000000Y-113300000D02*
X78870000Y-114170000D01*
X78000000Y-113300000D02*
X74500000Y-113300000D01*
X78949000Y-118286894D02*
X78949000Y-116251000D01*
D63*
%TO.N,Net-(D13-A)*%
X62212500Y-94262500D02*
X63700000Y-95750000D01*
X62212500Y-93725000D02*
X62212500Y-94262500D01*
%TO.N,Net-(D14-A)*%
X98000000Y-111625000D02*
X104000000Y-111625000D01*
X104000000Y-111625000D02*
X104000000Y-111800000D01*
X104000000Y-111800000D02*
X105900000Y-113700000D01*
D64*
%TO.N,Net-(D15-A)*%
X92000000Y-111700000D02*
X90075000Y-111700000D01*
X90075000Y-111700000D02*
X90000000Y-111625000D01*
D63*
X84000000Y-111625000D02*
X90000000Y-111625000D01*
%TO.N,Net-(D16-A)*%
X77575000Y-111625000D02*
X78000000Y-111200000D01*
X70000000Y-111625000D02*
X76000000Y-111625000D01*
X76000000Y-111625000D02*
X77575000Y-111625000D01*
D64*
%TO.N,BTN_MTX_3*%
X75887213Y-100645687D02*
X75287213Y-100645687D01*
X77000000Y-99852000D02*
X76753000Y-100099000D01*
X82687521Y-128301000D02*
X81387521Y-127001000D01*
D63*
X86450000Y-118000000D02*
X86950000Y-117500000D01*
D64*
X80099000Y-104499000D02*
X80099000Y-116874693D01*
X79550000Y-117423693D02*
X79550000Y-118000000D01*
D63*
X106420000Y-122500000D02*
X106420000Y-121720000D01*
D64*
X74848000Y-101915100D02*
X75433900Y-102501000D01*
X77000000Y-92800000D02*
X77000000Y-99852000D01*
X75433900Y-102501000D02*
X76399000Y-102501000D01*
X106000000Y-121300000D02*
X105500000Y-120800000D01*
D63*
X79550000Y-118000000D02*
X79700000Y-118000000D01*
D64*
X80099000Y-116874693D02*
X79550000Y-117423693D01*
X78502000Y-102902000D02*
X80099000Y-104499000D01*
X81387521Y-127001000D02*
X80833610Y-127001000D01*
X105500000Y-120800000D02*
X99098000Y-120800000D01*
D63*
X106420000Y-121720000D02*
X106000000Y-121300000D01*
D64*
X97199000Y-123685200D02*
X92583200Y-128301000D01*
X80833610Y-127001000D02*
X80778263Y-126945653D01*
X76753000Y-100099000D02*
X76433900Y-100099000D01*
X92583200Y-128301000D02*
X82687521Y-128301000D01*
X74848000Y-101084900D02*
X74848000Y-101915100D01*
X75287213Y-100645687D02*
X74848000Y-101084900D01*
D63*
X82150000Y-119250000D02*
X83400000Y-118000000D01*
D64*
X76399000Y-102501000D02*
X76800000Y-102902000D01*
D63*
X80950000Y-119250000D02*
X82150000Y-119250000D01*
D64*
X97199000Y-122699000D02*
X97199000Y-123685200D01*
X76800000Y-102902000D02*
X78502000Y-102902000D01*
X76433900Y-100099000D02*
X75887213Y-100645687D01*
D63*
X83400000Y-118000000D02*
X86450000Y-118000000D01*
D64*
X99098000Y-120800000D02*
X97199000Y-122699000D01*
D63*
X79700000Y-118000000D02*
X80950000Y-119250000D01*
D64*
%TO.N,Net-(D17-A)*%
X71905783Y-117007917D02*
X73757917Y-117007917D01*
X76000000Y-119250000D02*
X76000000Y-119625000D01*
D63*
X71524437Y-117389263D02*
X71905783Y-117007917D01*
X70000000Y-119172822D02*
X71524437Y-117648385D01*
X77450000Y-118175000D02*
X76000000Y-119625000D01*
X77450000Y-118000000D02*
X77450000Y-118175000D01*
X70000000Y-119625000D02*
X70000000Y-119172822D01*
X71524437Y-117648385D02*
X71524437Y-117389263D01*
D64*
X73757917Y-117007917D02*
X76000000Y-119250000D01*
%TO.N,Net-(D18-A)*%
X84125000Y-119750000D02*
X89875000Y-119750000D01*
D63*
X90000000Y-119625000D02*
X90000000Y-118700000D01*
X89050000Y-117750000D02*
X89050000Y-117500000D01*
D64*
X89875000Y-119750000D02*
X90000000Y-119625000D01*
X84000000Y-119625000D02*
X84125000Y-119750000D01*
D63*
X90000000Y-118700000D02*
X89050000Y-117750000D01*
%TO.N,Net-(D19-A)*%
X105575000Y-119625000D02*
X106000000Y-119200000D01*
X104000000Y-119625000D02*
X105575000Y-119625000D01*
X98000000Y-119625000D02*
X104000000Y-119625000D01*
%TO.N,Net-(D20-A)*%
X62212500Y-63562500D02*
X63400000Y-64750000D01*
X62212500Y-62725000D02*
X62212500Y-63562500D01*
D64*
%TO.N,BTN_MTX_1*%
X75547272Y-101046687D02*
X76053313Y-101046687D01*
D63*
X78426000Y-97124000D02*
X77750000Y-97800000D01*
X86376000Y-101074000D02*
X85700000Y-101750000D01*
D64*
X96805000Y-116995000D02*
X96805000Y-113710873D01*
X96410000Y-123907100D02*
X96410000Y-117390000D01*
X96805000Y-113710873D02*
X96905000Y-113610873D01*
X77200000Y-102100000D02*
X75600000Y-102100000D01*
X97047896Y-111230798D02*
X97187751Y-111090943D01*
X81279000Y-126401000D02*
X83070100Y-126401000D01*
X97139347Y-112360968D02*
X97139347Y-111613726D01*
X96905000Y-112595315D02*
X97139347Y-112360968D01*
X77750000Y-99850000D02*
X77750000Y-97800000D01*
D63*
X92450000Y-104298000D02*
X89226000Y-101074000D01*
D64*
X83070100Y-126401000D02*
X83366100Y-126105000D01*
X97139347Y-111613726D02*
X97138347Y-111612726D01*
D63*
X92450000Y-108000000D02*
X92450000Y-104298000D01*
D64*
X97187751Y-111090943D02*
X97187751Y-111000000D01*
D63*
X92920000Y-108470000D02*
X92450000Y-108000000D01*
D64*
X77100000Y-100500000D02*
X77750000Y-99850000D01*
X79300000Y-101750000D02*
X78549000Y-102501000D01*
X77601000Y-102501000D02*
X77200000Y-102100000D01*
X93562100Y-126755000D02*
X96410000Y-123907100D01*
X75249000Y-101749000D02*
X75253793Y-101749000D01*
X85700000Y-101750000D02*
X86226000Y-101224000D01*
X78549000Y-102501000D02*
X77601000Y-102501000D01*
D63*
X66000000Y-66000000D02*
X65500000Y-65500000D01*
X89226000Y-101074000D02*
X86376000Y-101074000D01*
D64*
X75253793Y-101749000D02*
X75253793Y-101340166D01*
X97138347Y-111612726D02*
X97138347Y-111321250D01*
D63*
X66000000Y-66750000D02*
X66000000Y-66000000D01*
X92920000Y-109500000D02*
X92920000Y-108470000D01*
D64*
X96905000Y-113610873D02*
X96905000Y-112595315D01*
X75253793Y-101340166D02*
X75547272Y-101046687D01*
X75600000Y-102100000D02*
X75548687Y-102048687D01*
D63*
X85700000Y-101750000D02*
X79300000Y-101750000D01*
D64*
X75253793Y-101753793D02*
X75249000Y-101749000D01*
X75548687Y-102048687D02*
X75547272Y-102048687D01*
X85700000Y-101750000D02*
X81250000Y-101750000D01*
X91915500Y-126105000D02*
X92565500Y-126755000D01*
X83366100Y-126105000D02*
X91915500Y-126105000D01*
X97138347Y-111321250D02*
X97047896Y-111230798D01*
X96410000Y-117390000D02*
X96805000Y-116995000D01*
X92565500Y-126755000D02*
X93562100Y-126755000D01*
X76600000Y-100500000D02*
X77100000Y-100500000D01*
X81180000Y-126500000D02*
X81279000Y-126401000D01*
D63*
X96800000Y-109500000D02*
X92920000Y-109500000D01*
D64*
X76053313Y-101046687D02*
X76600000Y-100500000D01*
X75253793Y-101755208D02*
X75253793Y-101753793D01*
D63*
X65500000Y-65500000D02*
X65500000Y-64750000D01*
D64*
X75547272Y-102048687D02*
X75253793Y-101755208D01*
D63*
X78426000Y-94426000D02*
X78426000Y-97124000D01*
D64*
%TO.N,Net-(D21-A)*%
X96798000Y-96827000D02*
X96798000Y-105752000D01*
X96798000Y-105752000D02*
X94550000Y-108000000D01*
X98000000Y-95625000D02*
X96798000Y-96827000D01*
X104000000Y-95625000D02*
X98000000Y-95625000D01*
%TO.N,Net-(D22-A)*%
X87800000Y-101750000D02*
X87800000Y-103575000D01*
X90000000Y-103625000D02*
X87750000Y-103625000D01*
X87750000Y-103625000D02*
X84000000Y-103625000D01*
X87800000Y-103575000D02*
X87750000Y-103625000D01*
D63*
%TO.N,Net-(D23-A)*%
X76730346Y-92149000D02*
X77269654Y-92149000D01*
X70000000Y-95625000D02*
X76000000Y-95625000D01*
X77269654Y-92149000D02*
X77725000Y-92604346D01*
X76000000Y-95625000D02*
X76000000Y-92879346D01*
X76000000Y-92879346D02*
X76730346Y-92149000D01*
X77725000Y-92604346D02*
X77725000Y-95700000D01*
%TO.N,Net-(D24-A)*%
X74138500Y-103361500D02*
X75736500Y-103361500D01*
X73736500Y-103763500D02*
X74138500Y-103361500D01*
X70138500Y-103763500D02*
X73736500Y-103763500D01*
X75736500Y-103361500D02*
X76000000Y-103625000D01*
X77875000Y-103625000D02*
X77950000Y-103700000D01*
X76000000Y-103625000D02*
X77875000Y-103625000D01*
X70000000Y-103625000D02*
X70138500Y-103763500D01*
%TO.N,BTN_MTX_0*%
X78300000Y-105800000D02*
X79300000Y-104800000D01*
D64*
X82184371Y-100900000D02*
X82688925Y-100395446D01*
D63*
X77950000Y-105800000D02*
X77950000Y-106620000D01*
X64800000Y-119300000D02*
X66990380Y-117109620D01*
D64*
X90406106Y-100099000D02*
X90500000Y-100192894D01*
X78328232Y-136551000D02*
X78951000Y-135928232D01*
X64800000Y-135652000D02*
X64800000Y-135600000D01*
D63*
X65550000Y-76250000D02*
X66147000Y-76847000D01*
X75530000Y-110300000D02*
X78580000Y-107250000D01*
D64*
X76801000Y-140051000D02*
X77000000Y-139852000D01*
D63*
X64800000Y-135600000D02*
X64800000Y-119300000D01*
D64*
X85401000Y-100099000D02*
X89500000Y-100099000D01*
X82000000Y-100900000D02*
X82184371Y-100900000D01*
D63*
X77950000Y-106620000D02*
X78580000Y-107250000D01*
X66990380Y-117109620D02*
X66990380Y-111781744D01*
D64*
X89500000Y-100099000D02*
X90406106Y-100099000D01*
X69051000Y-140051000D02*
X76801000Y-140051000D01*
D63*
X66990380Y-111781744D02*
X66954318Y-111745682D01*
X95950000Y-101750000D02*
X94750000Y-101750000D01*
D64*
X77000000Y-137112106D02*
X77561106Y-136551000D01*
D63*
X77950000Y-105800000D02*
X78300000Y-105800000D01*
D64*
X64800000Y-135800000D02*
X69051000Y-140051000D01*
X64800000Y-135600000D02*
X64800000Y-135800000D01*
X78951000Y-135349114D02*
X80150000Y-134150114D01*
X92800000Y-99800000D02*
X92600000Y-99800000D01*
X80150000Y-131573210D02*
X79200000Y-130623210D01*
X79200000Y-130623210D02*
X79200000Y-129500000D01*
X92600000Y-99800000D02*
X92200000Y-100200000D01*
X85104554Y-100395446D02*
X85401000Y-100099000D01*
D63*
X94750000Y-101750000D02*
X92800000Y-99800000D01*
D64*
X77000000Y-139852000D02*
X77000000Y-137112106D01*
X82688925Y-100395446D02*
X85104554Y-100395446D01*
X77561106Y-136551000D02*
X78328232Y-136551000D01*
X80150000Y-134150114D02*
X80150000Y-131573210D01*
D63*
X66147000Y-76847000D02*
X66147000Y-76950000D01*
X67500000Y-110250000D02*
X67550000Y-110300000D01*
D64*
X78951000Y-135928232D02*
X78951000Y-135349114D01*
D63*
X67550000Y-110300000D02*
X75530000Y-110300000D01*
%TO.N,Net-(D25-A)*%
X90000000Y-96800000D02*
X90000000Y-95625000D01*
X84000000Y-95625000D02*
X90000000Y-95625000D01*
X92800000Y-97700000D02*
X90900000Y-97700000D01*
X90900000Y-97700000D02*
X90000000Y-96800000D01*
%TO.N,Net-(D27-A)*%
X98000000Y-103625000D02*
X98000000Y-101800000D01*
X104000000Y-103625000D02*
X98000000Y-103625000D01*
X98000000Y-101800000D02*
X98050000Y-101750000D01*
%TO.N,Net-(D28-A)*%
X62212500Y-74225000D02*
X62212500Y-75012500D01*
X62212500Y-75012500D02*
X63450000Y-76250000D01*
D64*
%TO.N,Net-(D32-K)*%
X76276000Y-55151000D02*
X76276000Y-57636500D01*
X76125000Y-55000000D02*
X76276000Y-55151000D01*
X76276000Y-57636500D02*
X75500000Y-58412500D01*
%TO.N,HEADSET_CONN*%
X94750000Y-81000000D02*
X100525000Y-81000000D01*
X100525000Y-81000000D02*
X104775000Y-76750000D01*
X89204346Y-83545654D02*
X90954346Y-83545654D01*
X90954346Y-83545654D02*
X93501000Y-80999000D01*
X93501000Y-80999000D02*
X94749000Y-80999000D01*
D63*
X102750000Y-75162500D02*
X103187500Y-75162500D01*
D64*
X94749000Y-80999000D02*
X94750000Y-81000000D01*
D63*
X106250000Y-75275000D02*
X104775000Y-76750000D01*
X103187500Y-75162500D02*
X104775000Y-76750000D01*
X106250000Y-74920000D02*
X106250000Y-75275000D01*
D64*
%TO.N,HEADSET_PTT*%
X89931232Y-101000000D02*
X89454232Y-100523000D01*
X89454232Y-100523000D02*
X86147768Y-100523000D01*
X92700000Y-98700000D02*
X90400000Y-101000000D01*
X90400000Y-101000000D02*
X89931232Y-101000000D01*
X93200000Y-98700000D02*
X92700000Y-98700000D01*
D63*
X111412500Y-76500000D02*
X111412500Y-75887500D01*
X111412500Y-75887500D02*
X109775000Y-74250000D01*
X109775000Y-72605000D02*
X109170000Y-72000000D01*
D64*
X99350000Y-92550000D02*
X93200000Y-98700000D01*
D63*
X109775000Y-74250000D02*
X109775000Y-72605000D01*
D64*
X99350000Y-92550000D02*
X99300000Y-92600000D01*
X85774322Y-100896446D02*
X82896446Y-100896446D01*
X86147768Y-100523000D02*
X85774322Y-100896446D01*
D63*
%TO.N,BTN_MTX_A*%
X68744000Y-100631000D02*
X70000000Y-99375000D01*
X76000000Y-137300000D02*
X77300000Y-136000000D01*
D64*
X70000000Y-107375000D02*
X69437500Y-106812500D01*
D63*
X75236500Y-108263500D02*
X76000000Y-107500000D01*
X70000000Y-131375000D02*
X66099000Y-127474000D01*
X70000000Y-115375000D02*
X70526000Y-115901000D01*
X78400000Y-133775000D02*
X76000000Y-131375000D01*
X67454346Y-120533808D02*
X67454346Y-123375000D01*
X70576000Y-98799000D02*
X70000000Y-99375000D01*
X77780000Y-121470000D02*
X77780000Y-121000000D01*
X75975150Y-139399850D02*
X70024850Y-139399850D01*
X70024850Y-139399850D02*
X70000000Y-139375000D01*
D64*
X75615686Y-120301000D02*
X76801000Y-120301000D01*
X66799000Y-109999000D02*
X66799000Y-110540364D01*
D63*
X78100000Y-136000000D02*
X78400000Y-135700000D01*
X76000000Y-107500000D02*
X76000000Y-107375000D01*
D64*
X82083823Y-123209069D02*
X82074754Y-123200000D01*
X69437500Y-106812500D02*
X66798000Y-109452000D01*
X76224000Y-123599000D02*
X76000000Y-123375000D01*
D63*
X66099000Y-124730346D02*
X67454346Y-123375000D01*
X76000000Y-99375000D02*
X75424000Y-98799000D01*
D64*
X70148320Y-113348320D02*
X70148320Y-115226680D01*
X75151012Y-120765674D02*
X75615686Y-120301000D01*
D63*
X69000000Y-132375000D02*
X69000000Y-138375000D01*
X70000000Y-131375000D02*
X69000000Y-132375000D01*
X70000000Y-115375000D02*
X70000000Y-117988154D01*
X76000000Y-123250000D02*
X76375000Y-122875000D01*
X70000000Y-139375000D02*
X70125000Y-139500000D01*
X75474000Y-115901000D02*
X76000000Y-115375000D01*
X66099000Y-127474000D02*
X66099000Y-124730346D01*
D64*
X76801000Y-120301000D02*
X78051000Y-119051000D01*
D63*
X70000000Y-117988154D02*
X67454346Y-120533808D01*
X70526000Y-115901000D02*
X75474000Y-115901000D01*
X77300000Y-136000000D02*
X78100000Y-136000000D01*
D64*
X70148320Y-115226680D02*
X70000000Y-115375000D01*
X75902554Y-122702554D02*
X75902554Y-123277554D01*
X66798000Y-109452000D02*
X66798000Y-109998000D01*
D63*
X70888500Y-108263500D02*
X75236500Y-108263500D01*
D64*
X67259636Y-111001000D02*
X67801000Y-111001000D01*
X75902554Y-123277554D02*
X76000000Y-123375000D01*
D63*
X76000000Y-139375000D02*
X76000000Y-137300000D01*
X75424000Y-98799000D02*
X70576000Y-98799000D01*
D64*
X78051000Y-119051000D02*
X78051000Y-117426000D01*
D63*
X67454346Y-123375000D02*
X70000000Y-123375000D01*
D64*
X78051000Y-117426000D02*
X76000000Y-115375000D01*
D63*
X76000000Y-123375000D02*
X76000000Y-123250000D01*
X76000000Y-139375000D02*
X75975150Y-139399850D01*
X70000000Y-107375000D02*
X70888500Y-108263500D01*
D64*
X75902554Y-122702554D02*
X76075000Y-122875000D01*
X66798000Y-109998000D02*
X66799000Y-109999000D01*
D63*
X76375000Y-122875000D02*
X77780000Y-121470000D01*
X68744000Y-106119000D02*
X68744000Y-100631000D01*
D64*
X76075000Y-122875000D02*
X76375000Y-122875000D01*
D63*
X78400000Y-135700000D02*
X78400000Y-133775000D01*
D64*
X67801000Y-111001000D02*
X70148320Y-113348320D01*
X82074754Y-123200000D02*
X81050000Y-123200000D01*
X80651000Y-123599000D02*
X76224000Y-123599000D01*
D63*
X69000000Y-138375000D02*
X70000000Y-139375000D01*
D64*
X66799000Y-110540364D02*
X67259636Y-111001000D01*
D63*
X70000000Y-107375000D02*
X68744000Y-106119000D01*
D64*
X81050000Y-123200000D02*
X80651000Y-123599000D01*
X75234000Y-121600000D02*
X75151012Y-121517012D01*
X75151012Y-121517012D02*
X75151012Y-120765674D01*
%TO.N,BTN_MTX_B*%
X91913427Y-110998912D02*
X92398938Y-110998912D01*
X92676000Y-112124026D02*
X92349026Y-112451000D01*
D63*
X89676000Y-123051000D02*
X90000000Y-123375000D01*
D64*
X92398938Y-110998912D02*
X92676000Y-111275974D01*
D63*
X91705000Y-123375000D02*
X91830000Y-123500000D01*
X84000000Y-115316504D02*
X84000000Y-115375000D01*
X90000000Y-131375000D02*
X84000000Y-131375000D01*
D64*
X90000000Y-98500000D02*
X90000000Y-99375000D01*
D63*
X90000000Y-139375000D02*
X91000000Y-138375000D01*
D64*
X82250001Y-123749999D02*
X82625000Y-123375000D01*
X82153207Y-123749999D02*
X82250001Y-123749999D01*
D63*
X84000000Y-123375000D02*
X84324000Y-123051000D01*
D64*
X92349026Y-112451000D02*
X92049000Y-112451000D01*
X92049000Y-112451000D02*
X90000000Y-114500000D01*
X90000000Y-106232763D02*
X90000000Y-107375000D01*
D63*
X84324000Y-123051000D02*
X89676000Y-123051000D01*
D64*
X82625000Y-123375000D02*
X84000000Y-123375000D01*
X92676000Y-111275974D02*
X92676000Y-112124026D01*
X91500000Y-116875000D02*
X90000000Y-115375000D01*
D63*
X84125000Y-139250000D02*
X89875000Y-139250000D01*
D64*
X91500000Y-118900000D02*
X91500000Y-116875000D01*
D63*
X90000000Y-123375000D02*
X91705000Y-123375000D01*
X91000000Y-138375000D02*
X91000000Y-132375000D01*
X89875000Y-139250000D02*
X90000000Y-139375000D01*
D64*
X90000000Y-114500000D02*
X90000000Y-115375000D01*
X91732762Y-104500001D02*
X90000000Y-106232763D01*
X90000000Y-107375000D02*
X90000000Y-109085485D01*
D63*
X91000000Y-123375000D02*
X90000000Y-123375000D01*
X91000000Y-132375000D02*
X90000000Y-131375000D01*
X90000000Y-99375000D02*
X84000000Y-99375000D01*
X84000000Y-107375000D02*
X90000000Y-107375000D01*
D64*
X90000000Y-109085485D02*
X91913427Y-110998912D01*
D63*
X84000000Y-115375000D02*
X90000000Y-115375000D01*
X84000000Y-139375000D02*
X84125000Y-139250000D01*
D64*
X82075883Y-123827323D02*
X82153207Y-123749999D01*
%TO.N,BTN_MTX_C*%
X106331320Y-114350000D02*
X105025000Y-114350000D01*
D63*
X82794669Y-129898223D02*
X82947446Y-130051000D01*
X98726000Y-116101000D02*
X103274000Y-116101000D01*
D64*
X98000000Y-99375000D02*
X97199000Y-100176000D01*
D63*
X104000000Y-139375000D02*
X105025026Y-139375000D01*
X104000000Y-107375000D02*
X98000000Y-107375000D01*
D64*
X106602221Y-111707521D02*
X106602221Y-111702221D01*
D63*
X98000000Y-115375000D02*
X98726000Y-116101000D01*
X82947446Y-130051000D02*
X96676000Y-130051000D01*
X106701000Y-137699026D02*
X106701000Y-133050974D01*
X106750000Y-123400000D02*
X107121000Y-123029000D01*
X107121000Y-123029000D02*
X107121000Y-118496000D01*
X104000000Y-123375000D02*
X106725000Y-123375000D01*
D64*
X97199000Y-106574000D02*
X98000000Y-107375000D01*
D63*
X105025026Y-131375000D02*
X104000000Y-131375000D01*
D64*
X107000000Y-112100000D02*
X106901000Y-112001000D01*
D63*
X106750000Y-129650026D02*
X106750000Y-123400000D01*
X82794669Y-129898223D02*
X82751000Y-129941892D01*
D64*
X97199000Y-100176000D02*
X97199000Y-106574000D01*
D63*
X106701000Y-133050974D02*
X105025026Y-131375000D01*
D64*
X106901000Y-112001000D02*
X106895700Y-112001000D01*
D63*
X105025026Y-139375000D02*
X106701000Y-137699026D01*
X82751000Y-133171000D02*
X83080000Y-133500000D01*
X104000000Y-99375000D02*
X98000000Y-99375000D01*
X106250000Y-109625000D02*
X104000000Y-107375000D01*
D64*
X106602221Y-111702221D02*
X106249000Y-111349000D01*
X107000000Y-112800000D02*
X107000000Y-112100000D01*
X106895700Y-112001000D02*
X106602221Y-111707521D01*
X106440660Y-114459340D02*
X106331320Y-114350000D01*
D63*
X106725000Y-123375000D02*
X106750000Y-123400000D01*
X105025026Y-131375000D02*
X106750000Y-129650026D01*
X82751000Y-129997127D02*
X82751000Y-133171000D01*
X103274000Y-116101000D02*
X104000000Y-115375000D01*
D64*
X106249000Y-111349000D02*
X106249000Y-111292479D01*
D63*
X96676000Y-130051000D02*
X98000000Y-131375000D01*
D64*
X105025000Y-114350000D02*
X104000000Y-115375000D01*
D63*
X104000000Y-123375000D02*
X98000000Y-123375000D01*
D64*
X106249000Y-111292479D02*
X106250000Y-111291479D01*
D63*
X107121000Y-118496000D02*
X104000000Y-115375000D01*
X106250000Y-111000000D02*
X106250000Y-109625000D01*
X82751000Y-129941892D02*
X82751000Y-129997127D01*
D64*
X106250000Y-111291479D02*
X106250000Y-111000000D01*
D63*
X98000000Y-139375000D02*
X104000000Y-139375000D01*
X104000000Y-131375000D02*
X98000000Y-131375000D01*
%TO.N,BTN_MTX_D*%
X78400000Y-140700000D02*
X74500000Y-144600000D01*
X61500000Y-134400000D02*
X61500000Y-102100000D01*
X80300000Y-140700000D02*
X78400000Y-140700000D01*
X61500000Y-102100000D02*
X62250000Y-101350000D01*
X62250000Y-101350000D02*
X62250000Y-98262500D01*
X71700000Y-144600000D02*
X61500000Y-134400000D01*
X74500000Y-144600000D02*
X71700000Y-144600000D01*
X62250000Y-98262500D02*
X62212500Y-98225000D01*
D64*
%TO.N,SD_CARD_DETECT*%
X94405000Y-123076600D02*
X93381600Y-124100000D01*
X93381600Y-124100000D02*
X82511727Y-124100000D01*
X99250000Y-89750000D02*
X99337500Y-89750000D01*
X94761346Y-113586043D02*
X94761346Y-116115575D01*
X79560083Y-124100000D02*
X79460083Y-124000000D01*
X75313072Y-124250000D02*
X75156536Y-124406536D01*
X77970738Y-124000000D02*
X77720738Y-124250000D01*
X94699999Y-113524696D02*
X94761346Y-113586043D01*
X82511727Y-124100000D02*
X82283404Y-124328323D01*
X94761346Y-116115575D02*
X94405000Y-116471921D01*
X82283404Y-124328323D02*
X81868362Y-124328323D01*
X94405000Y-116471921D02*
X94405000Y-123076600D01*
X77720738Y-124250000D02*
X75313072Y-124250000D01*
X98500000Y-88420000D02*
X98500000Y-89000000D01*
X81868362Y-124328323D02*
X81640039Y-124100000D01*
X79460083Y-124000000D02*
X77970738Y-124000000D01*
X81640039Y-124100000D02*
X79560083Y-124100000D01*
X99337500Y-89750000D02*
X100500000Y-90912500D01*
X98500000Y-89000000D02*
X99250000Y-89750000D01*
%TO.N,Net-(U7-GPIO26)*%
X70963341Y-126018329D02*
X70963341Y-124595767D01*
X70963341Y-124595767D02*
X71578304Y-123980804D01*
%TO.N,SD_CS*%
X96009000Y-122412200D02*
X96009000Y-122618800D01*
X92081600Y-125704000D02*
X83200000Y-125704000D01*
X96365346Y-115451175D02*
X96365346Y-115783375D01*
X96394359Y-111144362D02*
X96737347Y-111487350D01*
X96738347Y-112194868D02*
X96504000Y-112429215D01*
X82904000Y-126000000D02*
X75402074Y-126000000D01*
X96738347Y-111779826D02*
X96738347Y-112194868D01*
X96260638Y-111144362D02*
X96394359Y-111144362D01*
X96365346Y-116447775D02*
X96365346Y-116779975D01*
X96737347Y-111778826D02*
X96738347Y-111779826D01*
X96365346Y-115783375D02*
X96365346Y-116115575D01*
X96403999Y-113898317D02*
X96403999Y-114230517D01*
X96504000Y-113444773D02*
X96403999Y-113544774D01*
X96365346Y-116115575D02*
X96365346Y-116447775D01*
X96365346Y-114269170D02*
X96365346Y-115451175D01*
X95069400Y-124680600D02*
X95066100Y-124683900D01*
X95133200Y-124616800D02*
X95069400Y-124680600D01*
X96403999Y-114230517D02*
X96365346Y-114269170D01*
X95368100Y-124381900D02*
X95304300Y-124445700D01*
X95066100Y-124683900D02*
X94985600Y-124764400D01*
X93063800Y-126354000D02*
X92731600Y-126354000D01*
X107500000Y-98330000D02*
X107500000Y-98250000D01*
X96009000Y-123408800D02*
X96009000Y-123741000D01*
X95774100Y-123975900D02*
X95603000Y-124147000D01*
X95301000Y-124449000D02*
X95133200Y-124616800D01*
X94046000Y-125704000D02*
X93630900Y-126119100D01*
X94280900Y-125469100D02*
X94046000Y-125704000D01*
X75402074Y-126000000D02*
X74987074Y-126415000D01*
X94515800Y-125234200D02*
X94280900Y-125469100D01*
X96403999Y-113544774D02*
X96403999Y-113566117D01*
X96403999Y-113815475D02*
X96403999Y-113898317D01*
X96009000Y-121954400D02*
X96009000Y-122286600D01*
X96504000Y-112429215D02*
X96504000Y-112697531D01*
X95603000Y-124147000D02*
X95539200Y-124210800D01*
X96009000Y-123741000D02*
X95774100Y-123975900D01*
X93396000Y-126354000D02*
X93063800Y-126354000D01*
X95304300Y-124445700D02*
X95301000Y-124449000D01*
X96009000Y-122744400D02*
X96009000Y-123076600D01*
X94898300Y-124851700D02*
X94750700Y-124999300D01*
X96130446Y-117014875D02*
X96009000Y-117136321D01*
X92731600Y-126354000D02*
X92496700Y-126119100D01*
X96504000Y-112780373D02*
X96504000Y-113029731D01*
X93630900Y-126119100D02*
X93396000Y-126354000D01*
X107500000Y-98250000D02*
X106945004Y-97695004D01*
X96504000Y-113029731D02*
X96504000Y-113112573D01*
X94750700Y-124999300D02*
X94515800Y-125234200D01*
X83200000Y-125704000D02*
X82904000Y-126000000D01*
X96009000Y-122618800D02*
X96009000Y-122744400D01*
X96009000Y-122286600D02*
X96009000Y-122412200D01*
X96737347Y-111487350D02*
X96737347Y-111778826D01*
X96504000Y-113112573D02*
X96504000Y-113444773D01*
X96504000Y-112697531D02*
X96504000Y-112780373D01*
X94985600Y-124764400D02*
X94898300Y-124851700D01*
X92496700Y-126119100D02*
X92081600Y-125704000D01*
X96009000Y-123076600D02*
X96009000Y-123408800D01*
X96365346Y-116779975D02*
X96130446Y-117014875D01*
X96009000Y-117136321D02*
X96009000Y-121954400D01*
X96403999Y-113566117D02*
X96403999Y-113815475D01*
X95539200Y-124210800D02*
X95368100Y-124381900D01*
%TO.N,Net-(J2-CC1)*%
X109786500Y-107949000D02*
X107347621Y-107949000D01*
X107347621Y-107949000D02*
X106885620Y-108411001D01*
X110337500Y-108500000D02*
X109786500Y-107949000D01*
%TO.N,Net-(J2-CC2)*%
X107154221Y-111551000D02*
X110286500Y-111551000D01*
X107103221Y-111500000D02*
X107154221Y-111551000D01*
X110286500Y-111551000D02*
X110337500Y-111500000D01*
%TO.N,DISPLAY_CS*%
X89437074Y-105806374D02*
X89333700Y-105703000D01*
X81703000Y-106248300D02*
X81703000Y-118553000D01*
X89333700Y-105703000D02*
X82248300Y-105703000D01*
X82248300Y-105703000D02*
X81703000Y-106248300D01*
X86927753Y-80572247D02*
X86750000Y-80394494D01*
X86750000Y-80394494D02*
X86750000Y-79150000D01*
X81703000Y-118553000D02*
X81750000Y-118600000D01*
%TO.N,DISPLAY_SCLK*%
X79892283Y-124902000D02*
X79560083Y-124902000D01*
X95702000Y-112697531D02*
X95702000Y-113112573D01*
X94801000Y-123814800D02*
X94737200Y-123878600D01*
X101583900Y-84473600D02*
X89022250Y-84473600D01*
X82843927Y-124902000D02*
X82615604Y-125130323D01*
X95207000Y-123408800D02*
X94972100Y-123643700D01*
X95702000Y-113112573D02*
X95601999Y-113212574D01*
X95700000Y-112695531D02*
X95702000Y-112697531D01*
X82615604Y-125130323D02*
X82283404Y-125130323D01*
X87428753Y-80779768D02*
X87428753Y-80364726D01*
X93049400Y-124902000D02*
X82843927Y-124902000D01*
X79000000Y-124982631D02*
X78999688Y-124982319D01*
X88690050Y-84473600D02*
X88473600Y-84473600D01*
X101750000Y-84473600D02*
X101750000Y-85250000D01*
X95601999Y-113212574D02*
X95601999Y-113483275D01*
X89022250Y-84473600D02*
X88690050Y-84473600D01*
X107656500Y-86656500D02*
X105473600Y-84473600D01*
X81536162Y-125130323D02*
X81307839Y-124902000D01*
X94972100Y-123643700D02*
X94801000Y-123814800D01*
X106840000Y-94250000D02*
X107500000Y-94250000D01*
X81868362Y-125130323D02*
X81536162Y-125130323D01*
X95500735Y-112099265D02*
X95700000Y-112298530D01*
X95563346Y-116115575D02*
X95563346Y-116447775D01*
X94183600Y-124432200D02*
X93948700Y-124667100D01*
X82200562Y-125130323D02*
X81951204Y-125130323D01*
X95207000Y-122744400D02*
X95207000Y-123076600D01*
X82283404Y-125130323D02*
X82200562Y-125130323D01*
X95700000Y-112298530D02*
X95700000Y-112695531D01*
X93713800Y-124902000D02*
X93381600Y-124902000D01*
X87250000Y-80185973D02*
X87250000Y-79150000D01*
X87428753Y-81111968D02*
X87428753Y-80779768D01*
X101750000Y-84473600D02*
X101583900Y-84473600D01*
X95563346Y-116447775D02*
X95328446Y-116682675D01*
X95601999Y-113898317D02*
X95563346Y-113936970D01*
X93381600Y-124902000D02*
X93049400Y-124902000D01*
X88000000Y-81683215D02*
X87663653Y-81346868D01*
X93948700Y-124667100D02*
X93713800Y-124902000D01*
X95601999Y-113566117D02*
X95601999Y-113898317D01*
X94737200Y-123878600D02*
X94566100Y-124049700D01*
X81307839Y-124902000D02*
X79892283Y-124902000D01*
X95207000Y-122286600D02*
X95207000Y-122744400D01*
X88473600Y-84473600D02*
X88000000Y-84000000D01*
X87428753Y-80364726D02*
X87349000Y-80284973D01*
X95207000Y-116804121D02*
X95207000Y-122286600D01*
X79051000Y-125000000D02*
X79000000Y-125000000D01*
X105473600Y-84473600D02*
X101750000Y-84473600D01*
X95563346Y-113936970D02*
X95563346Y-115783375D01*
X79000000Y-125000000D02*
X79000000Y-124982631D01*
X95207000Y-123076600D02*
X95207000Y-123408800D01*
X94566100Y-124049700D02*
X94183600Y-124432200D01*
X107656500Y-94406500D02*
X107656500Y-86656500D01*
X87349000Y-80284973D02*
X87250000Y-80185973D01*
X88000000Y-84000000D02*
X88000000Y-81683215D01*
X95563346Y-115783375D02*
X95563346Y-116115575D01*
X79560083Y-124902000D02*
X79245538Y-124902000D01*
X95328446Y-116682675D02*
X95207000Y-116804121D01*
X79245538Y-124902000D02*
X79165219Y-124982319D01*
X95601999Y-113483275D02*
X95601999Y-113566117D01*
X81951204Y-125130323D02*
X81868362Y-125130323D01*
X79165219Y-124982319D02*
X78999688Y-124982319D01*
X87663653Y-81346868D02*
X87428753Y-81111968D01*
X107500000Y-94250000D02*
X107656500Y-94406500D01*
D65*
%TO.N,Net-(J3-Pin_3)*%
X80650000Y-72500000D02*
X80850000Y-72700000D01*
X80850000Y-72700000D02*
X80850000Y-76500000D01*
D64*
X80850000Y-76500000D02*
X82250000Y-77900000D01*
X82250000Y-77900000D02*
X82250000Y-79150000D01*
D63*
X80890732Y-76500000D02*
X82270366Y-77879634D01*
X80850000Y-76500000D02*
X80890732Y-76500000D01*
D64*
%TO.N,DISPLAY_RESET*%
X90226734Y-104901000D02*
X81916100Y-104901000D01*
X81916100Y-104901000D02*
X80901000Y-105916100D01*
X80901000Y-105916100D02*
X80901000Y-117673690D01*
X90325734Y-105000000D02*
X90226734Y-104901000D01*
X80901000Y-117673690D02*
X80626690Y-117948000D01*
X85750000Y-81030431D02*
X85750000Y-79150000D01*
X86021446Y-81250000D02*
X85969569Y-81250000D01*
X85969569Y-81250000D02*
X85750000Y-81030431D01*
%TO.N,DISPLAY_BUSY*%
X89779955Y-105302000D02*
X89883969Y-105406014D01*
X81203000Y-117989268D02*
X81302000Y-117890268D01*
X82082200Y-105302000D02*
X89779955Y-105302000D01*
X85250000Y-80500000D02*
X85250000Y-79150000D01*
X81302000Y-106082200D02*
X82082200Y-105302000D01*
X81302000Y-117890268D02*
X81302000Y-106082200D01*
X81203000Y-118349000D02*
X81203000Y-117989268D01*
%TO.N,Net-(J3-Pin_2)*%
X78950000Y-76500000D02*
X79988500Y-77538500D01*
X79988500Y-77538500D02*
X81150000Y-77538500D01*
X81750000Y-78138500D02*
X81750000Y-79150000D01*
X81150000Y-77538500D02*
X81750000Y-78138500D01*
%TO.N,Net-(J3-Pin_8)*%
X84750000Y-78248000D02*
X84750000Y-79150000D01*
X85400000Y-75912500D02*
X85111500Y-75624000D01*
X83124000Y-76892134D02*
X84430866Y-78199000D01*
X84430866Y-78199000D02*
X84701000Y-78199000D01*
X85111500Y-75624000D02*
X83432866Y-75624000D01*
X84701000Y-78199000D02*
X84750000Y-78248000D01*
X83432866Y-75624000D02*
X83124000Y-75932866D01*
X83124000Y-75932866D02*
X83124000Y-76892134D01*
%TO.N,DISPLAY_SDI*%
X96002999Y-113378674D02*
X96002999Y-113400017D01*
X96002999Y-114064417D02*
X95964346Y-114103070D01*
X95608000Y-122120500D02*
X95608000Y-122452700D01*
X78792167Y-125483319D02*
X78498688Y-125189840D01*
X81702262Y-125531323D02*
X81370062Y-125531323D01*
X107750000Y-95750000D02*
X107831500Y-95831500D01*
X96101000Y-112464630D02*
X96101000Y-112529431D01*
X95964346Y-114103070D02*
X95964346Y-115617275D01*
X87829753Y-80198626D02*
X87750000Y-80118873D01*
X96002999Y-113732217D02*
X96002999Y-114064417D01*
X95608000Y-122910500D02*
X95608000Y-123242700D01*
X94732200Y-124450700D02*
X94584600Y-124598300D01*
X95964346Y-115949475D02*
X95964346Y-116281675D01*
X101750000Y-84072600D02*
X88856150Y-84072600D01*
X107831500Y-95831500D02*
X108157500Y-95505500D01*
X87829753Y-80945868D02*
X87829753Y-80198626D01*
X83010027Y-125303000D02*
X82781704Y-125531323D01*
X88500000Y-81616115D02*
X87829753Y-80945868D01*
X82117304Y-125531323D02*
X82034462Y-125531323D01*
X96101000Y-112529431D02*
X96103000Y-112531431D01*
X92247700Y-125303000D02*
X83010027Y-125303000D01*
X78498688Y-125189840D02*
X78390529Y-125081681D01*
X95608000Y-122578300D02*
X95608000Y-122910500D01*
X94584600Y-124598300D02*
X94349700Y-124833200D01*
X96002999Y-113649375D02*
X96002999Y-113732217D01*
X95729446Y-116848775D02*
X95608000Y-116970221D01*
X96101000Y-112132430D02*
X96101000Y-112464630D01*
X108157500Y-86407500D02*
X105822600Y-84072600D01*
X82781704Y-125531323D02*
X82449504Y-125531323D01*
X94114800Y-125068100D02*
X93879900Y-125303000D01*
X92897700Y-125953000D02*
X92247700Y-125303000D01*
X78390529Y-125081681D02*
X78390529Y-124999936D01*
X95964346Y-115617275D02*
X95964346Y-115949475D01*
X93879900Y-125303000D02*
X93229900Y-125953000D01*
X95608000Y-116970221D02*
X95608000Y-122120500D01*
X95608000Y-123242700D02*
X95608000Y-123574900D01*
X95373100Y-123809800D02*
X95202000Y-123980900D01*
X88500000Y-83716450D02*
X88500000Y-81616115D01*
X78840171Y-125531323D02*
X78792167Y-125483319D01*
X96100000Y-111909168D02*
X96100000Y-112131430D01*
X95608000Y-122452700D02*
X95608000Y-122578300D01*
X95138200Y-124044700D02*
X94967100Y-124215800D01*
X95964346Y-116613875D02*
X95729446Y-116848775D01*
X94349700Y-124833200D02*
X94114800Y-125068100D01*
X88856150Y-84072600D02*
X88500000Y-83716450D01*
X96103000Y-112531431D02*
X96103000Y-112863631D01*
X94967100Y-124215800D02*
X94903300Y-124279600D01*
X108157500Y-95505500D02*
X108157500Y-86407500D01*
X96103000Y-112863631D02*
X96103000Y-112946473D01*
X81370062Y-125531323D02*
X78840171Y-125531323D01*
X96103000Y-112946473D02*
X96103000Y-113278673D01*
X94900000Y-124282900D02*
X94732200Y-124450700D01*
X105822600Y-84072600D02*
X101750000Y-84072600D01*
X82366662Y-125531323D02*
X82117304Y-125531323D01*
X94903300Y-124279600D02*
X94900000Y-124282900D01*
X82034462Y-125531323D02*
X81785104Y-125531323D01*
X106840000Y-95750000D02*
X107750000Y-95750000D01*
X95202000Y-123980900D02*
X95138200Y-124044700D01*
X96209168Y-111800000D02*
X96100000Y-111909168D01*
X87750000Y-80118873D02*
X87750000Y-79150000D01*
X96002999Y-113400017D02*
X96002999Y-113649375D01*
X101750000Y-84072600D02*
X101750000Y-83000000D01*
X96103000Y-113278673D02*
X96002999Y-113378674D01*
X81785104Y-125531323D02*
X81702262Y-125531323D01*
X95964346Y-116281675D02*
X95964346Y-116613875D01*
X93229900Y-125953000D02*
X92897700Y-125953000D01*
X95608000Y-123574900D02*
X95373100Y-123809800D01*
X82449504Y-125531323D02*
X82366662Y-125531323D01*
X96100000Y-112131430D02*
X96101000Y-112132430D01*
%TO.N,Net-(J3-Pin_11)*%
X83900000Y-76412500D02*
X84414500Y-76412500D01*
X84414500Y-76412500D02*
X86250000Y-78248000D01*
X86250000Y-78248000D02*
X86250000Y-79150000D01*
%TO.N,RF_SCLK*%
X83750000Y-94750000D02*
X83250000Y-94750000D01*
X83250000Y-94750000D02*
X81750000Y-93250000D01*
D63*
%TO.N,V_BAT*%
X73000000Y-55000000D02*
X71500000Y-55000000D01*
D64*
%TO.N,RF_GPIO3*%
X79820004Y-94887104D02*
X79750000Y-94957108D01*
X79750000Y-94957108D02*
X79750000Y-97983145D01*
X79750000Y-97983145D02*
X79735646Y-97997499D01*
%TO.N,RF_SDI*%
X81414600Y-98164600D02*
X82108004Y-97471196D01*
X79449000Y-100130200D02*
X81414600Y-98164600D01*
X82927717Y-97471196D02*
X83221196Y-97177717D01*
X82000000Y-98750000D02*
X81414600Y-98164600D01*
X83221196Y-97177717D02*
X83221196Y-97176304D01*
X79449000Y-100375000D02*
X79449000Y-100130200D01*
X83348946Y-96946446D02*
X83400000Y-96997500D01*
X83221196Y-97176304D02*
X83348946Y-97048554D01*
X83348946Y-97048554D02*
X83348946Y-96946446D01*
X82108004Y-97471196D02*
X82927717Y-97471196D01*
%TO.N,RF_SEL*%
X79213341Y-97984659D02*
X78448000Y-98750000D01*
X79750000Y-93750000D02*
X79750000Y-94375000D01*
X79750000Y-94375000D02*
X79625000Y-94375000D01*
X82125000Y-94375000D02*
X79750000Y-94375000D01*
X79213341Y-94786659D02*
X79213341Y-97984659D01*
X79625000Y-94375000D02*
X79213341Y-94786659D01*
%TO.N,RF_GPIO2*%
X75754793Y-101547687D02*
X75802480Y-101500000D01*
X77250000Y-101500000D02*
X78099000Y-100651000D01*
X78099000Y-100651000D02*
X78099000Y-100346000D01*
X78099000Y-100346000D02*
X81500000Y-96945000D01*
X81500000Y-96945000D02*
X81500000Y-96500000D01*
X75802480Y-101500000D02*
X77250000Y-101500000D01*
%TO.N,RF_SDO*%
X78265100Y-101052000D02*
X78500000Y-100817100D01*
X78047001Y-101560106D02*
X78047001Y-101270099D01*
X81666100Y-97346000D02*
X81901000Y-97111100D01*
X78500000Y-100817100D02*
X78500000Y-100512100D01*
X82041904Y-96970196D02*
X82720196Y-96970196D01*
X78047001Y-101270099D02*
X78265100Y-101052000D01*
X82720196Y-96970196D02*
X82720196Y-96470196D01*
X81901000Y-97111100D02*
X82041904Y-96970196D01*
X78500000Y-100512100D02*
X81666100Y-97346000D01*
X82720196Y-96470196D02*
X82250000Y-96000000D01*
%TO.N,Net-(J6-Pin_2)*%
X104198997Y-54698997D02*
X103542479Y-54698997D01*
X104250000Y-54750000D02*
X104198997Y-54698997D01*
X103542479Y-54698997D02*
X103441476Y-54800000D01*
X103000000Y-56800000D02*
X103550000Y-56800000D01*
X103441476Y-54800000D02*
X103000000Y-54800000D01*
X103550000Y-56800000D02*
X104250000Y-57500000D01*
X104250000Y-57500000D02*
X105550000Y-57500000D01*
%TO.N,Net-(J6-Pin_1)*%
X101800000Y-53600000D02*
X101800000Y-53046093D01*
X103000000Y-55300000D02*
X105350000Y-55300000D01*
X101800000Y-53046093D02*
X101933709Y-52912384D01*
X105350000Y-55300000D02*
X105550000Y-55500000D01*
D63*
%TO.N,Net-(J8-PadT)*%
X107162500Y-79250000D02*
X107500000Y-78912500D01*
X104775000Y-79250000D02*
X107162500Y-79250000D01*
D64*
%TO.N,Net-(U1-~{CS})*%
X81831864Y-129348954D02*
X81831864Y-130531864D01*
X81831864Y-130531864D02*
X82200000Y-130900000D01*
X82200000Y-130900000D02*
X82200000Y-133800000D01*
X82200000Y-133800000D02*
X81000000Y-135000000D01*
%TO.N,Net-(R3-Pad1)*%
X108299000Y-116924000D02*
X108250000Y-116875000D01*
X104949000Y-145801000D02*
X108500000Y-142250000D01*
X85250000Y-145500000D02*
X85551000Y-145801000D01*
X108500000Y-142250000D02*
X108500000Y-121668134D01*
X108299000Y-121467134D02*
X108299000Y-116924000D01*
X108500000Y-121668134D02*
X108299000Y-121467134D01*
X85551000Y-145801000D02*
X104949000Y-145801000D01*
%TO.N,Net-(J2-D+-PadA6)*%
X107500000Y-110500000D02*
X107750000Y-110750000D01*
X107000000Y-110500000D02*
X107500000Y-110500000D01*
%TO.N,Net-(J2-D--PadA7)*%
X107500000Y-109000000D02*
X107750000Y-108750000D01*
X107000000Y-109000000D02*
X107500000Y-109000000D01*
%TO.N,MIC_SDO*%
X72148997Y-133498003D02*
X72397000Y-133250000D01*
X72401999Y-117885479D02*
X72175437Y-117658917D01*
X71500000Y-133750000D02*
X71751997Y-133498003D01*
X72397000Y-133250000D02*
X72397000Y-118583900D01*
X71500000Y-135750000D02*
X71500000Y-133750000D01*
X71751997Y-133498003D02*
X72148997Y-133498003D01*
X72148997Y-133498003D02*
X72147000Y-133500000D01*
X73797850Y-138047850D02*
X71500000Y-135750000D01*
X72397000Y-118583900D02*
X72401999Y-118578901D01*
X72401999Y-118578901D02*
X72401999Y-117885479D01*
X73835000Y-138047850D02*
X73797850Y-138047850D01*
D63*
%TO.N,Net-(D46-A1)*%
X89500000Y-54087500D02*
X89500000Y-51000000D01*
D64*
X88500000Y-50000000D02*
X88500000Y-49000000D01*
D63*
X85750000Y-57837500D02*
X89500000Y-54087500D01*
D64*
X89500000Y-51000000D02*
X88500000Y-50000000D01*
%TO.N,CHGR_CONN*%
X106499000Y-112171400D02*
X106499000Y-113460364D01*
X91771621Y-110150000D02*
X91821621Y-110100000D01*
X104432900Y-110100000D02*
X106016450Y-111683550D01*
X106016450Y-111683550D02*
X106016450Y-111688850D01*
X108900000Y-119062500D02*
X109087500Y-119250000D01*
X91821621Y-110100000D02*
X104432900Y-110100000D01*
X108900000Y-115861364D02*
X108900000Y-119062500D01*
X106016450Y-111688850D02*
X106499000Y-112171400D01*
D63*
X109087500Y-119250000D02*
X109087500Y-121000000D01*
D64*
X106499000Y-113460364D02*
X108900000Y-115861364D01*
%TO.N,CHGR_STAT*%
X73600000Y-123050000D02*
X73600000Y-134600000D01*
X73700000Y-122950000D02*
X73600000Y-123050000D01*
X74000000Y-122950000D02*
X73700000Y-122950000D01*
X73600000Y-134600000D02*
X73874293Y-134874293D01*
%TO.N,Net-(D47-A1)*%
X85080000Y-50420000D02*
X85080000Y-49000000D01*
X84500000Y-51000000D02*
X85080000Y-50420000D01*
D63*
X82750000Y-52750000D02*
X84500000Y-51000000D01*
X82750000Y-57837500D02*
X82750000Y-52750000D01*
D64*
%TO.N,AUDIOAMP_RESET*%
X80400534Y-117349466D02*
X80332748Y-117349466D01*
X99870479Y-85849000D02*
X99970479Y-85749000D01*
X96500000Y-86250000D02*
X98624436Y-86250000D01*
X80500000Y-105500000D02*
X80500000Y-117250000D01*
X98627436Y-86247000D02*
X99183435Y-86247000D01*
X96800000Y-50550000D02*
X99000000Y-52750000D01*
X98624436Y-86250000D02*
X98627436Y-86247000D01*
X99970479Y-85749000D02*
X100385521Y-85749000D01*
X99183435Y-86247000D02*
X99581435Y-85849000D01*
X92250000Y-90500000D02*
X96500000Y-86250000D01*
X81804996Y-104054996D02*
X81804996Y-104195004D01*
X100385521Y-85749000D02*
X100386521Y-85750000D01*
X99581435Y-85849000D02*
X99870479Y-85849000D01*
X100480000Y-85750000D02*
X100579000Y-85651000D01*
X81804996Y-104195004D02*
X80500000Y-105500000D01*
X99300000Y-53050000D02*
X99300000Y-53600000D01*
X100386521Y-85750000D02*
X100480000Y-85750000D01*
X80500000Y-117250000D02*
X80400534Y-117349466D01*
X90750000Y-90500000D02*
X92250000Y-90500000D01*
X96800000Y-48500000D02*
X96800000Y-50550000D01*
X99000000Y-52750000D02*
X99300000Y-53050000D01*
%TO.N,AUDIOAMP_I2C_SCL*%
X99349535Y-86648000D02*
X98793536Y-86648000D01*
X84299999Y-93299999D02*
X83500000Y-92500000D01*
X99300000Y-59434200D02*
X99300000Y-58500000D01*
X99747535Y-86250000D02*
X99349535Y-86648000D01*
X98793536Y-86648000D02*
X98785769Y-86655767D01*
X100178000Y-86250000D02*
X99747535Y-86250000D01*
X84299999Y-94147899D02*
X84299999Y-93299999D01*
X100278000Y-60412200D02*
X99300000Y-59434200D01*
X84288500Y-91124000D02*
X83500000Y-91912500D01*
X96725109Y-86655767D02*
X92256876Y-91124000D01*
X100278000Y-66222000D02*
X100278000Y-60412200D01*
X101000000Y-66250000D02*
X100250000Y-66250000D01*
X100250000Y-66250000D02*
X100278000Y-66222000D01*
X98785769Y-86655767D02*
X96725109Y-86655767D01*
X92256876Y-91124000D02*
X84288500Y-91124000D01*
X83500000Y-92500000D02*
X83500000Y-91912500D01*
%TO.N,AUDIOAMP_I2C_SDA*%
X92035476Y-91912500D02*
X85250000Y-91912500D01*
X98959636Y-87049000D02*
X98951869Y-87056767D01*
X99877000Y-60578300D02*
X99133900Y-59835200D01*
X99749000Y-67749000D02*
X100050000Y-68050000D01*
X85250000Y-93549999D02*
X85250000Y-91912500D01*
X99749000Y-65854734D02*
X99749000Y-67749000D01*
X99778000Y-65772000D02*
X99877000Y-65673000D01*
X84799999Y-94593896D02*
X84799999Y-94000000D01*
X99778000Y-65825734D02*
X99749000Y-65854734D01*
X98951869Y-87056767D02*
X96891209Y-87056767D01*
X99133900Y-59835200D02*
X98899000Y-59600300D01*
X99778000Y-65825734D02*
X99778000Y-65772000D01*
X98899000Y-59600300D02*
X98800000Y-59501300D01*
X84799999Y-94000000D02*
X85250000Y-93549999D01*
X98800000Y-59501300D02*
X98800000Y-58500000D01*
X99548131Y-87056767D02*
X99540364Y-87049000D01*
X99649289Y-87056767D02*
X99548131Y-87056767D01*
X99877000Y-64707521D02*
X99877000Y-60578300D01*
X96891209Y-87056767D02*
X92035476Y-91912500D01*
X99877000Y-65673000D02*
X99877000Y-64707521D01*
X99540364Y-87049000D02*
X98959636Y-87049000D01*
%TO.N,Net-(U12-MICBIAS)*%
X102599000Y-67316824D02*
X102599000Y-63166100D01*
X101125000Y-61692100D02*
X101125000Y-60125000D01*
X101750000Y-69837500D02*
X101750000Y-68165824D01*
X102599000Y-63166100D02*
X101125000Y-61692100D01*
X101750000Y-68165824D02*
X102599000Y-67316824D01*
X100300000Y-59300000D02*
X100300000Y-58500000D01*
X101125000Y-60125000D02*
X100300000Y-59300000D01*
%TO.N,LED_STATUS*%
X67708521Y-125000000D02*
X66750000Y-125000000D01*
X70553000Y-124299000D02*
X68409521Y-124299000D01*
X74000000Y-58087500D02*
X75500000Y-56587500D01*
X71500000Y-123352000D02*
X70553000Y-124299000D01*
X74000000Y-59500000D02*
X74000000Y-58087500D01*
X68409521Y-124299000D02*
X67708521Y-125000000D01*
X71500000Y-122500000D02*
X71500000Y-123352000D01*
%TO.N,Net-(U12-VOL{slash}MICDET)*%
X100724000Y-60291100D02*
X99800000Y-59367100D01*
X100250000Y-69837500D02*
X100250000Y-69098724D01*
X102198000Y-63332200D02*
X100724000Y-61858200D01*
X99800000Y-59367100D02*
X99800000Y-58500000D01*
X100724000Y-61858200D02*
X100724000Y-60291100D01*
X100250000Y-69098724D02*
X102198000Y-67150724D01*
X102198000Y-67150724D02*
X102198000Y-63332200D01*
%TO.N,Net-(U7-RUN)*%
X69500000Y-122067500D02*
X69932500Y-122067500D01*
X72000999Y-118292477D02*
X71900999Y-118192477D01*
X71996000Y-120004000D02*
X71996000Y-118417800D01*
X71996000Y-118417800D02*
X72000999Y-118412801D01*
X72000999Y-118412801D02*
X72000999Y-118292477D01*
X69932500Y-122067500D02*
X71996000Y-120004000D01*
%TO.N,Net-(U1-CLK)*%
X81300000Y-131900000D02*
X81300000Y-129594723D01*
X81700000Y-132300000D02*
X81300000Y-131900000D01*
X81300000Y-129594723D02*
X81273277Y-129568000D01*
%TO.N,FLASH_CS*%
X74001000Y-127099000D02*
X74100000Y-127000000D01*
X74001000Y-130201000D02*
X74001000Y-127099000D01*
X74100000Y-130300000D02*
X74001000Y-130201000D01*
%TO.N,FLASH_SDO*%
X82449504Y-124729323D02*
X82117304Y-124729323D01*
X93215500Y-124501000D02*
X82677827Y-124501000D01*
X79374302Y-124481319D02*
X78198681Y-124481319D01*
X82034462Y-124729323D02*
X81702262Y-124729323D01*
X81473939Y-124501000D02*
X79726183Y-124501000D01*
X79393983Y-124501000D02*
X79374302Y-124481319D01*
X95200999Y-113732217D02*
X95162346Y-113770870D01*
X111330000Y-91080000D02*
X111250000Y-91000000D01*
X95201000Y-112905052D02*
X94994938Y-113111114D01*
X111330000Y-91500000D02*
X111330000Y-91080000D01*
X95200999Y-113317175D02*
X95200999Y-113732217D01*
X77680000Y-125000000D02*
X77649997Y-124969997D01*
X94571100Y-123477600D02*
X94400000Y-123648700D01*
X82677827Y-124501000D02*
X82449504Y-124729323D01*
X94994938Y-113111114D02*
X95200999Y-113317175D01*
X82117304Y-124729323D02*
X82034462Y-124729323D01*
X78198681Y-124481319D02*
X77680000Y-125000000D01*
X93547700Y-124501000D02*
X93215500Y-124501000D01*
X95162346Y-116281675D02*
X94927446Y-116516575D01*
X79726183Y-124501000D02*
X79393983Y-124501000D01*
X81702262Y-124729323D02*
X81473939Y-124501000D01*
X93782600Y-124266100D02*
X93547700Y-124501000D01*
X94806000Y-123242700D02*
X94571100Y-123477600D01*
X94806000Y-116638021D02*
X94806000Y-122910500D01*
X94806000Y-122910500D02*
X94806000Y-123242700D01*
X94400000Y-123648700D02*
X93782600Y-124266100D01*
X95162346Y-115949475D02*
X95162346Y-116281675D01*
X95162346Y-113770870D02*
X95162346Y-115949475D01*
X94927446Y-116516575D02*
X94806000Y-116638021D01*
%TO.N,MIC_WORDSELECT*%
X75377196Y-141500000D02*
X76000000Y-141500000D01*
X73708521Y-117750000D02*
X73500000Y-117750000D01*
X73199000Y-120051000D02*
X74250000Y-119000000D01*
X73250000Y-135000000D02*
X73199000Y-134949000D01*
X73250000Y-135500000D02*
X73250000Y-135000000D01*
X74250000Y-119000000D02*
X74250000Y-118291479D01*
X74250000Y-118291479D02*
X73708521Y-117750000D01*
X73199000Y-134949000D02*
X73199000Y-120051000D01*
%TO.N,MIC_SCL*%
X71000000Y-134500000D02*
X70000000Y-133500000D01*
X72699000Y-134092725D02*
X72798000Y-133993725D01*
X72798000Y-133993725D02*
X72798000Y-118750000D01*
X72798000Y-118750000D02*
X73048000Y-118500000D01*
X71000000Y-135000000D02*
X71000000Y-134500000D01*
X73048000Y-118500000D02*
X73750000Y-118500000D01*
%TO.N,AUDIOAMP_SDI*%
X94004000Y-116305821D02*
X94004000Y-121560400D01*
X93064400Y-122500000D02*
X84095768Y-122500000D01*
X83199000Y-122699000D02*
X83199000Y-122700000D01*
X80270449Y-122701000D02*
X79891783Y-123079666D01*
X99377000Y-65373729D02*
X99307250Y-65373729D01*
X94549000Y-62601024D02*
X94549000Y-61398976D01*
X96547000Y-59400976D02*
X96547000Y-57303002D01*
X94360346Y-115949475D02*
X94004000Y-116305821D01*
X97550002Y-56300000D02*
X98100000Y-56300000D01*
X80788664Y-122701000D02*
X80270449Y-122701000D01*
X83199000Y-122700000D02*
X80789664Y-122700000D01*
X80789664Y-122700000D02*
X80788664Y-122701000D01*
X98900000Y-65850729D02*
X99377000Y-65373729D01*
X94004000Y-121560400D02*
X93064400Y-122500000D01*
X97384521Y-63451000D02*
X95398976Y-63451000D01*
X79891783Y-123079666D02*
X79441654Y-123079666D01*
X84095768Y-122500000D02*
X83896768Y-122699000D01*
X95398976Y-63451000D02*
X94549000Y-62601024D01*
X99307250Y-65373729D02*
X97384521Y-63451000D01*
X94549000Y-61398976D02*
X96547000Y-59400976D01*
X98900000Y-66400000D02*
X98900000Y-65850729D01*
X94360346Y-114260346D02*
X94360346Y-115949475D01*
X83896768Y-122699000D02*
X83199000Y-122699000D01*
X79441654Y-123079666D02*
X79422319Y-123099001D01*
X94200000Y-113100000D02*
X94200000Y-114100000D01*
X94200000Y-114100000D02*
X94360346Y-114260346D01*
X96547000Y-57303002D02*
X97550002Y-56300000D01*
%TO.N,AUDIOAMP_SDO*%
X79709636Y-121498000D02*
X80290364Y-121498000D01*
X92954322Y-115270372D02*
X92901000Y-115323694D01*
X88619239Y-120910719D02*
X88501530Y-120793010D01*
X93742576Y-61250000D02*
X93742576Y-62361700D01*
X80290364Y-121498000D02*
X80291364Y-121497000D01*
X78796142Y-121497000D02*
X77290996Y-123002146D01*
X93692576Y-61200000D02*
X93742576Y-61250000D01*
X92566100Y-121297000D02*
X92233900Y-121297000D01*
X89337720Y-121297000D02*
X89005520Y-121297000D01*
X92801000Y-121062100D02*
X92566100Y-121297000D01*
X83597468Y-121297000D02*
X84753000Y-121297000D01*
X95232876Y-63852000D02*
X97077000Y-63852000D01*
X88308520Y-120600000D02*
X88479260Y-120770740D01*
X97077000Y-63852000D02*
X97975000Y-64750000D01*
X85450000Y-120600000D02*
X88308520Y-120600000D01*
X93742576Y-59507424D02*
X93742576Y-61250000D01*
X93742576Y-62361700D02*
X95232876Y-63852000D01*
X84753000Y-121297000D02*
X85450000Y-120600000D01*
X77290996Y-123002146D02*
X77327342Y-122965800D01*
X88501530Y-120793010D02*
X88500996Y-120792476D01*
X82700700Y-121496000D02*
X83398468Y-121496000D01*
X82699700Y-121497000D02*
X82700700Y-121496000D01*
X92801000Y-120729900D02*
X92801000Y-121062100D01*
X92901000Y-115323694D02*
X92901000Y-115707521D01*
X79708636Y-121497000D02*
X79709636Y-121498000D01*
X98100000Y-55800000D02*
X97450000Y-55800000D01*
X92801000Y-115807521D02*
X92801000Y-120729900D01*
X92850000Y-61200000D02*
X93692576Y-61200000D01*
X80291364Y-121497000D02*
X82699700Y-121497000D01*
X89005520Y-121297000D02*
X88770620Y-121062100D01*
X92000000Y-121297000D02*
X89337720Y-121297000D01*
X79800000Y-121497000D02*
X78796142Y-121497000D01*
X88735896Y-121027376D02*
X88619239Y-120910719D01*
X88479260Y-120770740D02*
X88501000Y-120792479D01*
X88500996Y-120792476D02*
X88479260Y-120770740D01*
X83398468Y-121496000D02*
X83597468Y-121297000D01*
X92901000Y-115707521D02*
X92801000Y-115807521D01*
X88770620Y-121062100D02*
X88735896Y-121027376D01*
X97450000Y-55800000D02*
X93742576Y-59507424D01*
X92233900Y-121297000D02*
X92000000Y-121297000D01*
%TO.N,AUDIOAMP_SCL*%
X98474000Y-62724000D02*
X98750000Y-63000000D01*
X98474000Y-61824000D02*
X98474000Y-61854876D01*
X99050000Y-63300000D02*
X98750000Y-63000000D01*
X98474000Y-61854876D02*
X98474000Y-62187076D01*
X98474000Y-62187076D02*
X98474000Y-62392134D01*
X98100000Y-57300000D02*
X97684202Y-57300000D01*
X98474000Y-62392134D02*
X98474000Y-62724000D01*
X97684202Y-57300000D02*
X97349000Y-57635202D01*
X93702000Y-114200000D02*
X93959346Y-114457346D01*
X93959346Y-114457346D02*
X93959346Y-115783375D01*
X83032900Y-122298000D02*
X83031900Y-122299000D01*
X79514213Y-122300000D02*
X78715212Y-123099001D01*
X83929668Y-122099000D02*
X83730668Y-122298000D01*
X80622564Y-122300000D02*
X79514213Y-122300000D01*
X83730668Y-122298000D02*
X83032900Y-122298000D01*
X80623564Y-122299000D02*
X80622564Y-122300000D01*
X93603000Y-121394300D02*
X92898300Y-122099000D01*
X97349000Y-57635202D02*
X97349000Y-60699000D01*
X93702000Y-114200000D02*
X93775305Y-114200000D01*
X83031900Y-122299000D02*
X80623564Y-122299000D01*
X92898300Y-122099000D02*
X83929668Y-122099000D01*
X93959346Y-115783375D02*
X93603000Y-116139721D01*
X97349000Y-60699000D02*
X98474000Y-61824000D01*
X93603000Y-116139721D02*
X93603000Y-121394300D01*
X99050000Y-63950000D02*
X99050000Y-63300000D01*
%TO.N,AUDIOAMP_WORDSELECT*%
X84036900Y-121698000D02*
X84369100Y-121698000D01*
X93202000Y-121228200D02*
X93202000Y-120896000D01*
X98073000Y-62020976D02*
X98073000Y-63323000D01*
X79201000Y-121899000D02*
X79543536Y-121899000D01*
X92732200Y-121698000D02*
X92967100Y-121463100D01*
X82865800Y-121898000D02*
X82866800Y-121897000D01*
X97617102Y-56800000D02*
X96948000Y-57469102D01*
X89503820Y-121698000D02*
X90236432Y-121698000D01*
X80456464Y-121899000D02*
X80457464Y-121898000D01*
X91833900Y-121698000D02*
X92067800Y-121698000D01*
X84369100Y-121698000D02*
X88839420Y-121698000D01*
X78008106Y-123099000D02*
X78008106Y-123091894D01*
X79543536Y-121899000D02*
X79875736Y-121899000D01*
X89171620Y-121698000D02*
X89503820Y-121698000D01*
X82533600Y-121898000D02*
X82865800Y-121898000D01*
X82866800Y-121897000D02*
X83232368Y-121897000D01*
X93455322Y-115062851D02*
X93455322Y-114922840D01*
X93378589Y-114846106D02*
X93378588Y-114846106D01*
X90236432Y-121698000D02*
X91332200Y-121698000D01*
X88839420Y-121698000D02*
X89171620Y-121698000D01*
X92067800Y-121698000D02*
X92166100Y-121698000D01*
X91332200Y-121698000D02*
X91833900Y-121698000D01*
X98073000Y-63323000D02*
X98250000Y-63500000D01*
X93455322Y-114922840D02*
X93378588Y-114846106D01*
X83232368Y-121897000D02*
X83564568Y-121897000D01*
X83763568Y-121698000D02*
X84036900Y-121698000D01*
X93455322Y-115720299D02*
X93455322Y-115477893D01*
X96948000Y-57469102D02*
X96948000Y-60895976D01*
X93202000Y-120896000D02*
X93202000Y-120563800D01*
X92400000Y-121698000D02*
X92732200Y-121698000D01*
X80457464Y-121898000D02*
X82533600Y-121898000D01*
X100900000Y-63100000D02*
X100900000Y-63850000D01*
X92967100Y-121463100D02*
X93202000Y-121228200D01*
X93302000Y-115873621D02*
X93455322Y-115720299D01*
X79875736Y-121899000D02*
X80124264Y-121899000D01*
X83564568Y-121897000D02*
X83763568Y-121698000D01*
X98100000Y-56800000D02*
X97617102Y-56800000D01*
X96948000Y-60895976D02*
X98073000Y-62020976D01*
X93455322Y-115477893D02*
X93455322Y-115062851D01*
X92166100Y-121698000D02*
X92400000Y-121698000D01*
X78008106Y-123091894D02*
X79201000Y-121899000D01*
X100900000Y-63850000D02*
X101150000Y-64100000D01*
X93202000Y-115973621D02*
X93302000Y-115873621D01*
X80124264Y-121899000D02*
X80456464Y-121899000D01*
X93202000Y-120563800D02*
X93202000Y-115973621D01*
%TO.N,AUDIOAMP_MASTERCLK*%
X75842962Y-121757038D02*
X76142376Y-121757038D01*
X98230828Y-60638034D02*
X97750000Y-60157206D01*
X74486074Y-123113926D02*
X75842962Y-121757038D01*
X89171620Y-120896000D02*
X92400000Y-120896000D01*
X98726000Y-60826000D02*
X99050000Y-61150000D01*
X74486074Y-126622521D02*
X74486074Y-123113926D01*
X98230828Y-60826000D02*
X98230828Y-60638034D01*
X85283900Y-120199000D02*
X88474620Y-120199000D01*
X97750000Y-60157206D02*
X97750000Y-58150000D01*
X92400000Y-116099000D02*
X92262847Y-115961847D01*
X75973607Y-126916000D02*
X74779553Y-126916000D01*
X80000000Y-119800000D02*
X81100000Y-120900000D01*
X84586900Y-120896000D02*
X85283900Y-120199000D01*
X88901996Y-120626376D02*
X89171620Y-120896000D01*
X74779553Y-126916000D02*
X74486074Y-126622521D01*
X97750000Y-58150000D02*
X98100000Y-57800000D01*
X83427368Y-120900000D02*
X83431368Y-120896000D01*
X76142376Y-121757038D02*
X78099414Y-119800000D01*
X81100000Y-120900000D02*
X83427368Y-120900000D01*
X88785339Y-120509719D02*
X88901996Y-120626371D01*
X98230828Y-60826000D02*
X98726000Y-60826000D01*
X92400000Y-120896000D02*
X92400000Y-116099000D01*
X83431368Y-120896000D02*
X84586900Y-120896000D01*
X78099414Y-119800000D02*
X80000000Y-119800000D01*
X88474620Y-120199000D02*
X88785339Y-120509719D01*
X88901996Y-120626371D02*
X88901996Y-120626376D01*
X76039607Y-126850000D02*
X75973607Y-126916000D01*
%TD*%
%TA.AperFunction,Conductor*%
%TO.N,GND*%
G36*
X82081509Y-69519685D02*
G01*
X82127264Y-69572489D01*
X82137208Y-69641647D01*
X82113737Y-69698311D01*
X82055232Y-69776462D01*
X82006241Y-69907812D01*
X82000000Y-69965853D01*
X82000000Y-70000000D01*
X82663500Y-70000000D01*
X82730539Y-70019685D01*
X82776294Y-70072489D01*
X82787500Y-70124000D01*
X82787500Y-70250000D01*
X82913500Y-70250000D01*
X82980539Y-70269685D01*
X83026294Y-70322489D01*
X83037500Y-70374000D01*
X83037500Y-70975000D01*
X83134130Y-70975000D01*
X83134146Y-70974999D01*
X83192187Y-70968758D01*
X83323537Y-70919767D01*
X83435761Y-70835756D01*
X83438319Y-70833199D01*
X83441492Y-70831465D01*
X83442858Y-70830444D01*
X83443004Y-70830640D01*
X83499642Y-70799714D01*
X83569334Y-70804698D01*
X83625267Y-70846570D01*
X83649684Y-70912034D01*
X83650000Y-70920880D01*
X83650000Y-71000000D01*
X84098638Y-71000000D01*
X84165677Y-71019685D01*
X84186319Y-71036319D01*
X84613681Y-71463681D01*
X84647166Y-71525004D01*
X84650000Y-71551362D01*
X84650000Y-73864470D01*
X84630315Y-73931509D01*
X84577511Y-73977264D01*
X84508353Y-73987208D01*
X84451689Y-73963737D01*
X84373537Y-73905232D01*
X84242187Y-73856241D01*
X84184146Y-73850000D01*
X84150000Y-73850000D01*
X84150000Y-74463500D01*
X84130315Y-74530539D01*
X84077511Y-74576294D01*
X84026000Y-74587500D01*
X83900000Y-74587500D01*
X83900000Y-74713500D01*
X83880315Y-74780539D01*
X83827511Y-74826294D01*
X83776000Y-74837500D01*
X83166439Y-74837500D01*
X83123972Y-74860688D01*
X83054280Y-74855702D01*
X82998347Y-74813830D01*
X82997846Y-74813155D01*
X82968007Y-74772725D01*
X82950711Y-74749289D01*
X82950709Y-74749288D01*
X82950709Y-74749287D01*
X82844476Y-74670884D01*
X82844477Y-74670884D01*
X82766778Y-74643696D01*
X82710003Y-74602974D01*
X82684256Y-74538021D01*
X82697713Y-74469460D01*
X82746100Y-74419057D01*
X82764401Y-74410473D01*
X82873535Y-74369767D01*
X82873537Y-74369766D01*
X82978376Y-74291284D01*
X83043841Y-74266866D01*
X83112114Y-74281717D01*
X83140369Y-74302869D01*
X83175000Y-74337500D01*
X83650000Y-74337500D01*
X83650000Y-73850000D01*
X83615853Y-73850000D01*
X83557812Y-73856241D01*
X83426462Y-73905233D01*
X83426459Y-73905234D01*
X83323310Y-73982451D01*
X83257846Y-74006868D01*
X83189573Y-73992016D01*
X83140168Y-73942611D01*
X83126479Y-73888979D01*
X83125000Y-73887500D01*
X82524000Y-73887500D01*
X82456961Y-73867815D01*
X82411206Y-73815011D01*
X82400000Y-73763500D01*
X82400000Y-73637500D01*
X82274000Y-73637500D01*
X82206961Y-73617815D01*
X82161206Y-73565011D01*
X82150000Y-73513500D01*
X82150000Y-73387500D01*
X82650000Y-73387500D01*
X83125000Y-73387500D01*
X83125000Y-73290870D01*
X83124999Y-73290853D01*
X83118758Y-73232812D01*
X83069767Y-73101462D01*
X82985758Y-72989241D01*
X82873537Y-72905232D01*
X82742187Y-72856241D01*
X82684146Y-72850000D01*
X82650000Y-72850000D01*
X82650000Y-73387500D01*
X82150000Y-73387500D01*
X82150000Y-72850000D01*
X82115853Y-72850000D01*
X82057812Y-72856241D01*
X81926462Y-72905232D01*
X81814240Y-72989241D01*
X81759715Y-73062078D01*
X81703781Y-73103948D01*
X81634090Y-73108932D01*
X81572767Y-73075446D01*
X81539282Y-73014123D01*
X81543409Y-72946807D01*
X81547646Y-72934699D01*
X81548787Y-72922525D01*
X81550500Y-72904269D01*
X81550500Y-72095730D01*
X81547646Y-72065300D01*
X81547646Y-72065298D01*
X81502793Y-71937119D01*
X81502793Y-71937118D01*
X81456825Y-71874833D01*
X81424229Y-71830666D01*
X81400259Y-71765037D01*
X81400000Y-71757033D01*
X81400000Y-71500000D01*
X81383953Y-71483953D01*
X81371562Y-71480315D01*
X81325807Y-71427511D01*
X81315863Y-71358353D01*
X81344888Y-71294797D01*
X81364290Y-71276734D01*
X81457187Y-71207190D01*
X81457190Y-71207187D01*
X81543350Y-71092093D01*
X81543354Y-71092086D01*
X81593596Y-70957379D01*
X81593598Y-70957372D01*
X81599999Y-70897844D01*
X81600000Y-70897827D01*
X81600000Y-70750000D01*
X80774000Y-70750000D01*
X80765314Y-70747449D01*
X80756353Y-70748738D01*
X80732312Y-70737759D01*
X80706961Y-70730315D01*
X80701033Y-70723474D01*
X80692797Y-70719713D01*
X80678507Y-70697478D01*
X80661206Y-70677511D01*
X80658918Y-70666996D01*
X80655023Y-70660935D01*
X80650000Y-70626000D01*
X80650000Y-70534146D01*
X82000000Y-70534146D01*
X82006241Y-70592187D01*
X82055232Y-70723537D01*
X82139241Y-70835758D01*
X82251462Y-70919767D01*
X82382812Y-70968758D01*
X82440853Y-70974999D01*
X82440870Y-70975000D01*
X82537500Y-70975000D01*
X82537500Y-70500000D01*
X82000000Y-70500000D01*
X82000000Y-70534146D01*
X80650000Y-70534146D01*
X80650000Y-70374000D01*
X80669685Y-70306961D01*
X80722489Y-70261206D01*
X80774000Y-70250000D01*
X81600000Y-70250000D01*
X81600000Y-70102172D01*
X81599999Y-70102155D01*
X81593598Y-70042627D01*
X81593596Y-70042620D01*
X81543354Y-69907913D01*
X81543350Y-69907906D01*
X81457190Y-69792812D01*
X81457187Y-69792809D01*
X81364290Y-69723266D01*
X81322419Y-69667332D01*
X81317435Y-69597641D01*
X81350921Y-69536318D01*
X81412244Y-69502834D01*
X81438601Y-69500000D01*
X82014470Y-69500000D01*
X82081509Y-69519685D01*
G37*
%TD.AperFunction*%
%TD*%
%TA.AperFunction,Conductor*%
%TO.N,Net-(D58-A)*%
G36*
X82415677Y-63519685D02*
G01*
X82436319Y-63536319D01*
X82848779Y-63948779D01*
X82882264Y-64010102D01*
X82877280Y-64079794D01*
X82835408Y-64135727D01*
X82834731Y-64136230D01*
X82749289Y-64199288D01*
X82749288Y-64199289D01*
X82670884Y-64305523D01*
X82643696Y-64383221D01*
X82602974Y-64439997D01*
X82538021Y-64465743D01*
X82469459Y-64452286D01*
X82419057Y-64403898D01*
X82410473Y-64385599D01*
X82369767Y-64276462D01*
X82285758Y-64164241D01*
X82173537Y-64080232D01*
X82042187Y-64031241D01*
X81984146Y-64025000D01*
X81887500Y-64025000D01*
X81887500Y-65475000D01*
X81984130Y-65475000D01*
X81984146Y-65474999D01*
X82042187Y-65468758D01*
X82173537Y-65419767D01*
X82285758Y-65335758D01*
X82369767Y-65223536D01*
X82369767Y-65223535D01*
X82410473Y-65114401D01*
X82452345Y-65058467D01*
X82517809Y-65034050D01*
X82586082Y-65048902D01*
X82635487Y-65098307D01*
X82643696Y-65116778D01*
X82670884Y-65194476D01*
X82749288Y-65300710D01*
X82749289Y-65300711D01*
X82849633Y-65374768D01*
X82891884Y-65430415D01*
X82900000Y-65474538D01*
X82900000Y-66000000D01*
X83598638Y-66000000D01*
X83665677Y-66019685D01*
X83686319Y-66036319D01*
X84113681Y-66463681D01*
X84147166Y-66525004D01*
X84150000Y-66551362D01*
X84150000Y-69198638D01*
X84130315Y-69265677D01*
X84113681Y-69286319D01*
X83686319Y-69713681D01*
X83659391Y-69728384D01*
X83633573Y-69744977D01*
X83627372Y-69745868D01*
X83624996Y-69747166D01*
X83598638Y-69750000D01*
X83500735Y-69750000D01*
X83433696Y-69730315D01*
X83407439Y-69705702D01*
X83407282Y-69705860D01*
X83402401Y-69700979D01*
X83400964Y-69699632D01*
X83400710Y-69699288D01*
X83294476Y-69620884D01*
X83169848Y-69577274D01*
X83169849Y-69577274D01*
X83140260Y-69574500D01*
X83140256Y-69574500D01*
X82434744Y-69574500D01*
X82431845Y-69574500D01*
X82431845Y-69573539D01*
X82367735Y-69557924D01*
X82320401Y-69508909D01*
X82315206Y-69499160D01*
X82282570Y-69437915D01*
X82236815Y-69385111D01*
X82236809Y-69385104D01*
X82219227Y-69367160D01*
X82219226Y-69367159D01*
X82219224Y-69367157D01*
X82219222Y-69367156D01*
X82219220Y-69367154D01*
X82139410Y-69322511D01*
X82139405Y-69322509D01*
X82072373Y-69302826D01*
X82072369Y-69302825D01*
X82072368Y-69302825D01*
X82014470Y-69294500D01*
X81438601Y-69294500D01*
X81438600Y-69294500D01*
X81416622Y-69295678D01*
X81390279Y-69298511D01*
X81390273Y-69298512D01*
X81313761Y-69322469D01*
X81252453Y-69355944D01*
X81252446Y-69355948D01*
X81231153Y-69369326D01*
X81170559Y-69437828D01*
X81170559Y-69437829D01*
X81137068Y-69499160D01*
X81126397Y-69521909D01*
X81115220Y-69594398D01*
X81085548Y-69657654D01*
X81026388Y-69694827D01*
X80992668Y-69699500D01*
X80145730Y-69699500D01*
X80115300Y-69702353D01*
X80115298Y-69702353D01*
X79987119Y-69747206D01*
X79987117Y-69747207D01*
X79877850Y-69827850D01*
X79797207Y-69937117D01*
X79797206Y-69937119D01*
X79752353Y-70065298D01*
X79752353Y-70065300D01*
X79749500Y-70095730D01*
X79749500Y-70904269D01*
X79752353Y-70934699D01*
X79752353Y-70934701D01*
X79797206Y-71062880D01*
X79797207Y-71062882D01*
X79877850Y-71172150D01*
X79987118Y-71252793D01*
X80066957Y-71280730D01*
X80085946Y-71294349D01*
X80107203Y-71304057D01*
X80113805Y-71314331D01*
X80123731Y-71321450D01*
X80132343Y-71343176D01*
X80144977Y-71362835D01*
X80147732Y-71381999D01*
X80149478Y-71386403D01*
X80150000Y-71397770D01*
X80150000Y-71602229D01*
X80130315Y-71669268D01*
X80077511Y-71715023D01*
X80066956Y-71719270D01*
X79987117Y-71747207D01*
X79877850Y-71827850D01*
X79797207Y-71937117D01*
X79797206Y-71937119D01*
X79752353Y-72065298D01*
X79752353Y-72065300D01*
X79749500Y-72095730D01*
X79749500Y-72904269D01*
X79752353Y-72934699D01*
X79752353Y-72934701D01*
X79797206Y-73062880D01*
X79797207Y-73062882D01*
X79877850Y-73172150D01*
X79987118Y-73252793D01*
X80066957Y-73280730D01*
X80079946Y-73290045D01*
X80095187Y-73294866D01*
X80107752Y-73309989D01*
X80123731Y-73321450D01*
X80130143Y-73336939D01*
X80139838Y-73348607D01*
X80144687Y-73372066D01*
X80149077Y-73382670D01*
X80150000Y-73390193D01*
X80150000Y-73500000D01*
X80163472Y-73500000D01*
X80170556Y-73557741D01*
X80165761Y-73586798D01*
X80163661Y-73616175D01*
X80160067Y-73621311D01*
X80159182Y-73626679D01*
X80150000Y-73636842D01*
X80150000Y-74501000D01*
X80130315Y-74568039D01*
X80077511Y-74613794D01*
X80026000Y-74625000D01*
X79900000Y-74625000D01*
X79900000Y-74751000D01*
X79880315Y-74818039D01*
X79827511Y-74863794D01*
X79776000Y-74875000D01*
X79350001Y-74875000D01*
X79350001Y-74876000D01*
X79330316Y-74943039D01*
X79277512Y-74988794D01*
X79226001Y-75000000D01*
X78201362Y-75000000D01*
X78134323Y-74980315D01*
X78113681Y-74963681D01*
X77686319Y-74536319D01*
X77652834Y-74474996D01*
X77650000Y-74448638D01*
X77650000Y-74006013D01*
X79350000Y-74006013D01*
X79350000Y-74375000D01*
X79650000Y-74375000D01*
X79650000Y-73648351D01*
X79624856Y-73652333D01*
X79511953Y-73709860D01*
X79511949Y-73709863D01*
X79422363Y-73799449D01*
X79422360Y-73799453D01*
X79364833Y-73912355D01*
X79350000Y-74006013D01*
X77650000Y-74006013D01*
X77650000Y-73066098D01*
X77659439Y-73018645D01*
X77686080Y-72954328D01*
X77713000Y-72818993D01*
X77713000Y-72751242D01*
X77717225Y-72719149D01*
X77725500Y-72688267D01*
X77725500Y-72536734D01*
X77725500Y-71982925D01*
X77745185Y-71915886D01*
X77749730Y-71909291D01*
X77779116Y-71869475D01*
X77822725Y-71744849D01*
X77825500Y-71715256D01*
X77825500Y-71009744D01*
X77822725Y-70980151D01*
X77806820Y-70934699D01*
X77779115Y-70855523D01*
X77700711Y-70749289D01*
X77700708Y-70749286D01*
X77700357Y-70749027D01*
X77700067Y-70748645D01*
X77694141Y-70742719D01*
X77694952Y-70741907D01*
X77658112Y-70693376D01*
X77650000Y-70649264D01*
X77650000Y-70350735D01*
X77669685Y-70283696D01*
X77694297Y-70257439D01*
X77694140Y-70257282D01*
X77699020Y-70252401D01*
X77700368Y-70250964D01*
X77700711Y-70250711D01*
X77779116Y-70144475D01*
X77822725Y-70019849D01*
X77825500Y-69990256D01*
X77825500Y-69284744D01*
X77822725Y-69255151D01*
X77792707Y-69169366D01*
X79499999Y-69169366D01*
X79538861Y-69150652D01*
X79538862Y-69150651D01*
X79562125Y-69131377D01*
X80245658Y-68447844D01*
X80650000Y-68447844D01*
X80656401Y-68507372D01*
X80656403Y-68507379D01*
X80706645Y-68642086D01*
X80706649Y-68642093D01*
X80792809Y-68757187D01*
X80792812Y-68757190D01*
X80907906Y-68843350D01*
X80907913Y-68843354D01*
X81042620Y-68893596D01*
X81042627Y-68893598D01*
X81102155Y-68899999D01*
X81102172Y-68900000D01*
X81900000Y-68900000D01*
X82400000Y-68900000D01*
X83197828Y-68900000D01*
X83197844Y-68899999D01*
X83257372Y-68893598D01*
X83257379Y-68893596D01*
X83392086Y-68843354D01*
X83392093Y-68843350D01*
X83507187Y-68757190D01*
X83507190Y-68757187D01*
X83593350Y-68642093D01*
X83593354Y-68642086D01*
X83643596Y-68507379D01*
X83643598Y-68507372D01*
X83649999Y-68447844D01*
X83650000Y-68447827D01*
X83650000Y-68000000D01*
X82400000Y-68000000D01*
X82400000Y-68900000D01*
X81900000Y-68900000D01*
X81900000Y-68000000D01*
X80650000Y-68000000D01*
X80650000Y-68447844D01*
X80245658Y-68447844D01*
X80281378Y-68412124D01*
X80281390Y-68412111D01*
X80300648Y-68388868D01*
X80358855Y-68268002D01*
X80378848Y-68135355D01*
X80378848Y-68135354D01*
X80358855Y-68002709D01*
X80358724Y-68002437D01*
X80358723Y-68002435D01*
X80300648Y-67881842D01*
X80281390Y-67858599D01*
X80281378Y-67858586D01*
X79559325Y-67136532D01*
X79499999Y-67077206D01*
X79499999Y-69169366D01*
X77792707Y-69169366D01*
X77779116Y-69130525D01*
X77738702Y-69075766D01*
X77700711Y-69024289D01*
X77700708Y-69024286D01*
X77700357Y-69024027D01*
X77700067Y-69023645D01*
X77694141Y-69017719D01*
X77694952Y-69016907D01*
X77658112Y-68968376D01*
X77650000Y-68924264D01*
X77650000Y-68349999D01*
X78227206Y-68349999D01*
X79000000Y-69122793D01*
X79000001Y-69122792D01*
X79000001Y-68349999D01*
X78227206Y-68349999D01*
X77650000Y-68349999D01*
X77650000Y-67878218D01*
X77651626Y-67870038D01*
X77650711Y-67864962D01*
X77654529Y-67850001D01*
X78180632Y-67850001D01*
X79000001Y-67850001D01*
X79000001Y-67052155D01*
X80650000Y-67052155D01*
X80650000Y-67500000D01*
X81900000Y-67500000D01*
X82400000Y-67500000D01*
X83650000Y-67500000D01*
X83650000Y-67052172D01*
X83649999Y-67052155D01*
X83643598Y-66992627D01*
X83643596Y-66992620D01*
X83593354Y-66857913D01*
X83593350Y-66857906D01*
X83507190Y-66742812D01*
X83507187Y-66742809D01*
X83392093Y-66656649D01*
X83392086Y-66656645D01*
X83257379Y-66606403D01*
X83257372Y-66606401D01*
X83197844Y-66600000D01*
X82400000Y-66600000D01*
X82400000Y-67500000D01*
X81900000Y-67500000D01*
X81900000Y-66600000D01*
X81102155Y-66600000D01*
X81042627Y-66606401D01*
X81042620Y-66606403D01*
X80907913Y-66656645D01*
X80907906Y-66656649D01*
X80792812Y-66742809D01*
X80792809Y-66742812D01*
X80706649Y-66857906D01*
X80706645Y-66857913D01*
X80656403Y-66992620D01*
X80656401Y-66992627D01*
X80650000Y-67052155D01*
X79000001Y-67052155D01*
X79000001Y-67030632D01*
X78961137Y-67049348D01*
X78937874Y-67068622D01*
X78218622Y-67787874D01*
X78199348Y-67811137D01*
X78180632Y-67850001D01*
X77654529Y-67850001D01*
X77659438Y-67830767D01*
X77890562Y-67272783D01*
X77917438Y-67232561D01*
X78400000Y-66750000D01*
X78796447Y-66353553D01*
X79150000Y-66000000D01*
X79150000Y-65999999D01*
X79155232Y-65994767D01*
X79174045Y-65966610D01*
X79194114Y-65946542D01*
X79270775Y-65831811D01*
X79323580Y-65704328D01*
X79332389Y-65660041D01*
X79350500Y-65568995D01*
X79350500Y-65431007D01*
X79350382Y-65430415D01*
X79341240Y-65384456D01*
X79347466Y-65314868D01*
X79375173Y-65272588D01*
X79613616Y-65034146D01*
X80850000Y-65034146D01*
X80856241Y-65092187D01*
X80905232Y-65223537D01*
X80989241Y-65335758D01*
X81101462Y-65419767D01*
X81232812Y-65468758D01*
X81290853Y-65474999D01*
X81290870Y-65475000D01*
X81387500Y-65475000D01*
X81387500Y-65000000D01*
X80850000Y-65000000D01*
X80850000Y-65034146D01*
X79613616Y-65034146D01*
X80165690Y-64482073D01*
X80177475Y-64465853D01*
X80850000Y-64465853D01*
X80850000Y-64500000D01*
X81387500Y-64500000D01*
X81387500Y-64025000D01*
X81290853Y-64025000D01*
X81232812Y-64031241D01*
X81101462Y-64080232D01*
X80989241Y-64164241D01*
X80905232Y-64276462D01*
X80856241Y-64407812D01*
X80850000Y-64465853D01*
X80177475Y-64465853D01*
X80276760Y-64329199D01*
X80362547Y-64160832D01*
X80420940Y-63981118D01*
X80426062Y-63948779D01*
X80450500Y-63794486D01*
X80450500Y-63624000D01*
X80470185Y-63556961D01*
X80522989Y-63511206D01*
X80574500Y-63500000D01*
X82348638Y-63500000D01*
X82415677Y-63519685D01*
G37*
%TD.AperFunction*%
%TD*%
%TA.AperFunction,Conductor*%
%TO.N,3V3_MCU*%
G36*
X86774034Y-73769685D02*
G01*
X86819789Y-73822489D01*
X86829733Y-73891647D01*
X86800708Y-73955203D01*
X86750329Y-73990182D01*
X86676462Y-74017732D01*
X86564241Y-74101741D01*
X86480232Y-74213962D01*
X86431241Y-74345312D01*
X86425000Y-74403353D01*
X86425000Y-74500000D01*
X87026000Y-74500000D01*
X87093039Y-74519685D01*
X87138794Y-74572489D01*
X87150000Y-74624000D01*
X87150000Y-74750000D01*
X87276000Y-74750000D01*
X87343039Y-74769685D01*
X87388794Y-74822489D01*
X87400000Y-74874000D01*
X87400000Y-75566138D01*
X87380315Y-75633177D01*
X87363681Y-75653819D01*
X87350000Y-75667500D01*
X87350000Y-76137500D01*
X87837500Y-76137500D01*
X87837500Y-76103370D01*
X87837499Y-76103353D01*
X87831258Y-76045312D01*
X87782267Y-75913962D01*
X87698258Y-75801741D01*
X87586033Y-75717730D01*
X87583352Y-75716266D01*
X87581191Y-75714105D01*
X87578936Y-75712417D01*
X87579178Y-75712092D01*
X87533947Y-75666861D01*
X87519095Y-75598588D01*
X87543512Y-75533123D01*
X87599446Y-75491252D01*
X87599448Y-75491251D01*
X87623537Y-75482266D01*
X87735758Y-75398258D01*
X87819766Y-75286038D01*
X87821241Y-75283337D01*
X87823419Y-75281158D01*
X87825083Y-75278936D01*
X87825402Y-75279175D01*
X87870643Y-75233927D01*
X87938914Y-75219070D01*
X88004381Y-75243482D01*
X88029848Y-75269121D01*
X88099289Y-75363211D01*
X88205525Y-75441616D01*
X88266457Y-75462937D01*
X88285443Y-75476555D01*
X88306703Y-75486264D01*
X88313306Y-75496539D01*
X88323230Y-75503657D01*
X88331841Y-75525380D01*
X88344477Y-75545042D01*
X88347232Y-75564205D01*
X88348978Y-75568609D01*
X88349500Y-75579977D01*
X88349500Y-75812636D01*
X88329815Y-75879675D01*
X88325271Y-75886268D01*
X88283384Y-75943023D01*
X88239774Y-76067650D01*
X88237000Y-76097239D01*
X88237000Y-76677760D01*
X88239774Y-76707349D01*
X88283384Y-76831976D01*
X88361788Y-76938210D01*
X88361789Y-76938211D01*
X88468023Y-77016615D01*
X88468024Y-77016615D01*
X88468025Y-77016616D01*
X88592651Y-77060225D01*
X88592650Y-77060225D01*
X88622240Y-77063000D01*
X88622244Y-77063000D01*
X89011667Y-77063000D01*
X89041107Y-77071644D01*
X89071094Y-77078168D01*
X89076109Y-77081922D01*
X89078706Y-77082685D01*
X89099348Y-77099319D01*
X89113681Y-77113652D01*
X89147166Y-77174975D01*
X89150000Y-77201333D01*
X89150000Y-77273685D01*
X89130315Y-77340724D01*
X89088001Y-77381071D01*
X89004086Y-77429520D01*
X88929521Y-77504085D01*
X88876794Y-77595410D01*
X88876793Y-77595413D01*
X88849500Y-77697273D01*
X88849500Y-77802727D01*
X88876793Y-77904587D01*
X88929520Y-77995913D01*
X88929523Y-77995916D01*
X88932887Y-78001742D01*
X88937037Y-78017231D01*
X88944477Y-78028808D01*
X88949500Y-78063743D01*
X88949500Y-78149138D01*
X88929815Y-78216177D01*
X88913181Y-78236819D01*
X88900000Y-78250000D01*
X88900000Y-78469084D01*
X88899500Y-78479262D01*
X88899500Y-79026000D01*
X88896949Y-79034685D01*
X88898238Y-79043647D01*
X88887259Y-79067687D01*
X88879815Y-79093039D01*
X88872974Y-79098966D01*
X88869213Y-79107203D01*
X88846978Y-79121492D01*
X88827011Y-79138794D01*
X88816496Y-79141081D01*
X88810435Y-79144977D01*
X88775500Y-79150000D01*
X88724000Y-79150000D01*
X88656961Y-79130315D01*
X88611206Y-79077511D01*
X88600000Y-79026000D01*
X88600000Y-78250000D01*
X88575374Y-78250000D01*
X88524192Y-78260181D01*
X88475808Y-78260181D01*
X88424626Y-78250000D01*
X88400000Y-78250000D01*
X88400000Y-79026000D01*
X88397449Y-79034685D01*
X88398738Y-79043647D01*
X88387759Y-79067687D01*
X88380315Y-79093039D01*
X88373474Y-79098966D01*
X88369713Y-79107203D01*
X88347478Y-79121492D01*
X88327511Y-79138794D01*
X88316996Y-79141081D01*
X88310935Y-79144977D01*
X88276000Y-79150000D01*
X88224500Y-79150000D01*
X88157461Y-79130315D01*
X88111706Y-79077511D01*
X88100500Y-79026000D01*
X88100500Y-78479262D01*
X88100000Y-78469084D01*
X88100000Y-78250000D01*
X88075374Y-78250000D01*
X88002456Y-78264504D01*
X87981356Y-78278603D01*
X87914679Y-78299480D01*
X87912466Y-78299500D01*
X87580252Y-78299500D01*
X87524190Y-78310651D01*
X87515851Y-78310650D01*
X87511052Y-78312539D01*
X87475809Y-78310650D01*
X87437104Y-78302951D01*
X87381912Y-78276593D01*
X86900000Y-77875000D01*
X86564496Y-77595413D01*
X86540980Y-77575816D01*
X86528137Y-77563444D01*
X86122927Y-77112500D01*
X85878627Y-76840626D01*
X85867687Y-76826530D01*
X85803514Y-76730271D01*
X85785225Y-76671646D01*
X86362500Y-76671646D01*
X86368741Y-76729687D01*
X86417732Y-76861037D01*
X86501741Y-76973258D01*
X86613962Y-77057267D01*
X86745312Y-77106258D01*
X86803353Y-77112499D01*
X86803370Y-77112500D01*
X86850000Y-77112500D01*
X87350000Y-77112500D01*
X87396630Y-77112500D01*
X87396646Y-77112499D01*
X87454687Y-77106258D01*
X87586037Y-77057267D01*
X87698258Y-76973258D01*
X87782267Y-76861037D01*
X87831258Y-76729687D01*
X87837499Y-76671646D01*
X87837500Y-76671629D01*
X87837500Y-76637500D01*
X87350000Y-76637500D01*
X87350000Y-77112500D01*
X86850000Y-77112500D01*
X86850000Y-76637500D01*
X86362500Y-76637500D01*
X86362500Y-76671646D01*
X85785225Y-76671646D01*
X85782706Y-76663572D01*
X85801261Y-76596211D01*
X85838397Y-76561527D01*
X85836999Y-76559633D01*
X85844473Y-76554116D01*
X85844475Y-76554116D01*
X85950711Y-76475711D01*
X86029116Y-76369475D01*
X86072725Y-76244849D01*
X86075500Y-76215256D01*
X86075500Y-76103353D01*
X86362500Y-76103353D01*
X86362500Y-76137500D01*
X86850000Y-76137500D01*
X86850000Y-75633862D01*
X86869685Y-75566823D01*
X86886319Y-75546181D01*
X86900000Y-75532500D01*
X86900000Y-75000000D01*
X86425000Y-75000000D01*
X86425000Y-75096646D01*
X86431241Y-75154687D01*
X86480232Y-75286037D01*
X86564241Y-75398258D01*
X86683564Y-75487583D01*
X86681355Y-75490532D01*
X86718443Y-75527668D01*
X86733251Y-75595950D01*
X86708792Y-75661399D01*
X86652908Y-75703206D01*
X86613966Y-75717731D01*
X86613963Y-75717732D01*
X86501741Y-75801741D01*
X86417732Y-75913962D01*
X86368741Y-76045312D01*
X86362500Y-76103353D01*
X86075500Y-76103353D01*
X86075500Y-75609744D01*
X86072725Y-75580151D01*
X86068686Y-75568609D01*
X86045958Y-75503657D01*
X86029116Y-75455525D01*
X86018849Y-75441614D01*
X85950711Y-75349289D01*
X85950710Y-75349288D01*
X85844476Y-75270884D01*
X85719848Y-75227274D01*
X85719849Y-75227274D01*
X85690260Y-75224500D01*
X85690256Y-75224500D01*
X85109744Y-75224500D01*
X85109740Y-75224500D01*
X85080150Y-75227274D01*
X85080148Y-75227275D01*
X85012450Y-75250964D01*
X84942671Y-75254526D01*
X84882044Y-75219798D01*
X84852816Y-75169857D01*
X84848223Y-75154687D01*
X84779425Y-74927465D01*
X84778838Y-74857601D01*
X84816117Y-74798508D01*
X84879427Y-74768950D01*
X84941439Y-74775353D01*
X85057812Y-74818758D01*
X85115853Y-74824999D01*
X85115870Y-74825000D01*
X85150000Y-74825000D01*
X85650000Y-74825000D01*
X85684130Y-74825000D01*
X85684146Y-74824999D01*
X85742187Y-74818758D01*
X85873537Y-74769767D01*
X85985758Y-74685758D01*
X86069767Y-74573537D01*
X86118758Y-74442187D01*
X86124999Y-74384146D01*
X86125000Y-74384129D01*
X86125000Y-74337500D01*
X85650000Y-74337500D01*
X85650000Y-74825000D01*
X85150000Y-74825000D01*
X85150000Y-74211500D01*
X85169685Y-74144461D01*
X85222489Y-74098706D01*
X85274000Y-74087500D01*
X85400000Y-74087500D01*
X85400000Y-73961500D01*
X85419685Y-73894461D01*
X85472489Y-73848706D01*
X85524000Y-73837500D01*
X86125000Y-73837500D01*
X86140173Y-73822326D01*
X86144685Y-73806961D01*
X86197489Y-73761206D01*
X86249000Y-73750000D01*
X86706995Y-73750000D01*
X86774034Y-73769685D01*
G37*
%TD.AperFunction*%
%TD*%
%TA.AperFunction,Conductor*%
%TO.N,Net-(D56-K)*%
G36*
X89765677Y-62269685D02*
G01*
X89786319Y-62286319D01*
X90044378Y-62544378D01*
X90077863Y-62605701D01*
X90073243Y-62670292D01*
X90074226Y-62670581D01*
X90072900Y-62675095D01*
X90072879Y-62675393D01*
X90072608Y-62676088D01*
X90052826Y-62743456D01*
X90052825Y-62743464D01*
X90045630Y-62793509D01*
X90044500Y-62801365D01*
X90044500Y-62851996D01*
X90046592Y-62881244D01*
X90051614Y-62916176D01*
X90051615Y-62916178D01*
X90063321Y-62947564D01*
X90062366Y-62947808D01*
X90066053Y-62962252D01*
X90071202Y-62979304D01*
X90080939Y-62994799D01*
X90082145Y-62998032D01*
X90083452Y-63000066D01*
X90083453Y-63000068D01*
X90102256Y-63029325D01*
X90102259Y-63029329D01*
X90107946Y-63038179D01*
X90107946Y-63038180D01*
X90119363Y-63055946D01*
X90119862Y-63056740D01*
X90119893Y-63056771D01*
X90119917Y-63056808D01*
X90134780Y-63077091D01*
X90151326Y-63089742D01*
X90155908Y-63093421D01*
X90159954Y-63096830D01*
X90169264Y-63106140D01*
X90188098Y-63122800D01*
X90194136Y-63125631D01*
X90205900Y-63135544D01*
X90221281Y-63158766D01*
X90239311Y-63180004D01*
X90241178Y-63188805D01*
X90244483Y-63193794D01*
X90244639Y-63205111D01*
X90250000Y-63230370D01*
X90250000Y-65000000D01*
X90365381Y-65048075D01*
X90711522Y-65192302D01*
X90711530Y-65192304D01*
X90711537Y-65192307D01*
X90711538Y-65192308D01*
X91226804Y-65407002D01*
X91279964Y-65449320D01*
X91284455Y-65455599D01*
X91347705Y-65521651D01*
X91347707Y-65521652D01*
X91347708Y-65521653D01*
X91406049Y-65560099D01*
X91458973Y-65585006D01*
X92146665Y-65795524D01*
X92205003Y-65833968D01*
X92213539Y-65845308D01*
X92244009Y-65891013D01*
X92629174Y-66468761D01*
X92649982Y-66535459D01*
X92650000Y-66537543D01*
X92650000Y-68698638D01*
X92630315Y-68765677D01*
X92613681Y-68786319D01*
X92186319Y-69213681D01*
X92124996Y-69247166D01*
X92098638Y-69250000D01*
X89442349Y-69250000D01*
X89375310Y-69230315D01*
X89366498Y-69224095D01*
X89353030Y-69213681D01*
X88807685Y-68791994D01*
X88766692Y-68735413D01*
X88763526Y-68725102D01*
X88691439Y-68447844D01*
X89150000Y-68447844D01*
X89156401Y-68507372D01*
X89156403Y-68507379D01*
X89206645Y-68642086D01*
X89206649Y-68642093D01*
X89292809Y-68757187D01*
X89292812Y-68757190D01*
X89407906Y-68843350D01*
X89407913Y-68843354D01*
X89542620Y-68893596D01*
X89542627Y-68893598D01*
X89602155Y-68899999D01*
X89602172Y-68900000D01*
X90400000Y-68900000D01*
X90900000Y-68900000D01*
X91697828Y-68900000D01*
X91697844Y-68899999D01*
X91757372Y-68893598D01*
X91757379Y-68893596D01*
X91892086Y-68843354D01*
X91892093Y-68843350D01*
X92007187Y-68757190D01*
X92007190Y-68757187D01*
X92093350Y-68642093D01*
X92093354Y-68642086D01*
X92143596Y-68507379D01*
X92143598Y-68507372D01*
X92149999Y-68447844D01*
X92150000Y-68447827D01*
X92150000Y-68000000D01*
X90900000Y-68000000D01*
X90900000Y-68900000D01*
X90400000Y-68900000D01*
X90400000Y-68000000D01*
X89150000Y-68000000D01*
X89150000Y-68447844D01*
X88691439Y-68447844D01*
X88375817Y-67233911D01*
X88375816Y-67233910D01*
X88328560Y-67052155D01*
X89150000Y-67052155D01*
X89150000Y-67500000D01*
X90400000Y-67500000D01*
X90900000Y-67500000D01*
X92150000Y-67500000D01*
X92150000Y-67052172D01*
X92149999Y-67052155D01*
X92143598Y-66992627D01*
X92143596Y-66992620D01*
X92093354Y-66857913D01*
X92093350Y-66857906D01*
X92007190Y-66742812D01*
X92007187Y-66742809D01*
X91892093Y-66656649D01*
X91892086Y-66656645D01*
X91757379Y-66606403D01*
X91757372Y-66606401D01*
X91697844Y-66600000D01*
X90900000Y-66600000D01*
X90900000Y-67500000D01*
X90400000Y-67500000D01*
X90400000Y-66600000D01*
X89602155Y-66600000D01*
X89542627Y-66606401D01*
X89542620Y-66606403D01*
X89407913Y-66656645D01*
X89407906Y-66656649D01*
X89292812Y-66742809D01*
X89292809Y-66742812D01*
X89206649Y-66857906D01*
X89206645Y-66857913D01*
X89156403Y-66992620D01*
X89156401Y-66992627D01*
X89150000Y-67052155D01*
X88328560Y-67052155D01*
X88250000Y-66750000D01*
X87751880Y-66706685D01*
X87285801Y-66666155D01*
X87285801Y-66666154D01*
X87270280Y-66664804D01*
X87234699Y-66652354D01*
X87204266Y-66649500D01*
X87094254Y-66649500D01*
X87088894Y-66649034D01*
X87088893Y-66649034D01*
X85375000Y-66500000D01*
X84381993Y-66413650D01*
X84316911Y-66388232D01*
X84293472Y-66364431D01*
X84258991Y-66318371D01*
X84258983Y-66318363D01*
X83831634Y-65891013D01*
X83831633Y-65891012D01*
X83815283Y-65876325D01*
X83815269Y-65876313D01*
X83794620Y-65859672D01*
X83723575Y-65822509D01*
X83656543Y-65802826D01*
X83655894Y-65802732D01*
X83598638Y-65794500D01*
X83598634Y-65794500D01*
X83229500Y-65794500D01*
X83220814Y-65791949D01*
X83211853Y-65793238D01*
X83187812Y-65782259D01*
X83162461Y-65774815D01*
X83156533Y-65767974D01*
X83148297Y-65764213D01*
X83134007Y-65741978D01*
X83116706Y-65722011D01*
X83114418Y-65711496D01*
X83110523Y-65705435D01*
X83105500Y-65670500D01*
X83105500Y-65533362D01*
X83112500Y-65509522D01*
X83112500Y-65475000D01*
X83612500Y-65475000D01*
X83709130Y-65475000D01*
X83709146Y-65474999D01*
X83767187Y-65468758D01*
X83898537Y-65419767D01*
X84010758Y-65335758D01*
X84094767Y-65223537D01*
X84143758Y-65092187D01*
X84149999Y-65034146D01*
X84150000Y-65034129D01*
X84150000Y-65000000D01*
X83612500Y-65000000D01*
X83612500Y-65475000D01*
X83112500Y-65475000D01*
X83112500Y-64697844D01*
X86250000Y-64697844D01*
X86256401Y-64757372D01*
X86256403Y-64757379D01*
X86306645Y-64892086D01*
X86306649Y-64892093D01*
X86392809Y-65007187D01*
X86392812Y-65007190D01*
X86507906Y-65093350D01*
X86507913Y-65093354D01*
X86642620Y-65143596D01*
X86642627Y-65143598D01*
X86702155Y-65149999D01*
X86702172Y-65150000D01*
X87500000Y-65150000D01*
X88000000Y-65150000D01*
X88797828Y-65150000D01*
X88797844Y-65149999D01*
X88857372Y-65143598D01*
X88857379Y-65143596D01*
X88992086Y-65093354D01*
X88992093Y-65093350D01*
X89107187Y-65007190D01*
X89107190Y-65007187D01*
X89193350Y-64892093D01*
X89193354Y-64892086D01*
X89243596Y-64757379D01*
X89243598Y-64757372D01*
X89249999Y-64697844D01*
X89250000Y-64697827D01*
X89250000Y-64250000D01*
X88000000Y-64250000D01*
X88000000Y-65150000D01*
X87500000Y-65150000D01*
X87500000Y-64250000D01*
X86250000Y-64250000D01*
X86250000Y-64697844D01*
X83112500Y-64697844D01*
X83112500Y-64500000D01*
X83612500Y-64500000D01*
X84150000Y-64500000D01*
X84150000Y-64465870D01*
X84149999Y-64465853D01*
X84143758Y-64407812D01*
X84094766Y-64276462D01*
X84094765Y-64276459D01*
X84092136Y-64272947D01*
X84010758Y-64164241D01*
X83898537Y-64080232D01*
X83767187Y-64031241D01*
X83709146Y-64025000D01*
X83612500Y-64025000D01*
X83612500Y-64500000D01*
X83112500Y-64500000D01*
X83112500Y-64025000D01*
X83110500Y-64023000D01*
X83078854Y-63969038D01*
X83062629Y-63911620D01*
X83062627Y-63911616D01*
X83029142Y-63850293D01*
X82994089Y-63803469D01*
X82902301Y-63711681D01*
X82868816Y-63650358D01*
X82873800Y-63580666D01*
X82915672Y-63524733D01*
X82981136Y-63500316D01*
X82989982Y-63500000D01*
X85250000Y-63500000D01*
X85408275Y-63302155D01*
X86250000Y-63302155D01*
X86250000Y-63750000D01*
X87500000Y-63750000D01*
X88000000Y-63750000D01*
X89250000Y-63750000D01*
X89250000Y-63302172D01*
X89249999Y-63302155D01*
X89243598Y-63242627D01*
X89243596Y-63242620D01*
X89193354Y-63107913D01*
X89193350Y-63107906D01*
X89107190Y-62992812D01*
X89107187Y-62992809D01*
X88992093Y-62906649D01*
X88992086Y-62906645D01*
X88857379Y-62856403D01*
X88857372Y-62856401D01*
X88797844Y-62850000D01*
X88000000Y-62850000D01*
X88000000Y-63750000D01*
X87500000Y-63750000D01*
X87500000Y-62850000D01*
X86702155Y-62850000D01*
X86642627Y-62856401D01*
X86642620Y-62856403D01*
X86507913Y-62906645D01*
X86507906Y-62906649D01*
X86392812Y-62992809D01*
X86392809Y-62992812D01*
X86306649Y-63107906D01*
X86306645Y-63107913D01*
X86256403Y-63242620D01*
X86256401Y-63242627D01*
X86250000Y-63302155D01*
X85408275Y-63302155D01*
X85472888Y-63221389D01*
X85522986Y-63158766D01*
X85562346Y-63109566D01*
X85562348Y-63109566D01*
X85850000Y-62750000D01*
X85920006Y-62662491D01*
X85963113Y-62628196D01*
X86724537Y-62262237D01*
X86778252Y-62250000D01*
X89698638Y-62250000D01*
X89765677Y-62269685D01*
G37*
%TD.AperFunction*%
%TD*%
%TA.AperFunction,Conductor*%
%TO.N,Net-(D58-K)*%
G36*
X84631905Y-66641657D02*
G01*
X84696985Y-66667074D01*
X84737994Y-66723643D01*
X84741909Y-66793403D01*
X84720429Y-66839499D01*
X84706648Y-66857907D01*
X84706645Y-66857913D01*
X84656403Y-66992620D01*
X84656401Y-66992627D01*
X84650000Y-67052155D01*
X84650000Y-67500000D01*
X87650000Y-67500000D01*
X87650000Y-67052172D01*
X87649822Y-67048847D01*
X87650720Y-67048798D01*
X87653754Y-67031970D01*
X87652582Y-67011079D01*
X87659829Y-66998276D01*
X87662440Y-66983799D01*
X87676696Y-66968483D01*
X87687004Y-66950276D01*
X87700021Y-66943424D01*
X87710045Y-66932657D01*
X87730317Y-66927480D01*
X87748833Y-66917736D01*
X87774016Y-66916322D01*
X87777743Y-66915371D01*
X87784049Y-66915756D01*
X88000396Y-66934569D01*
X88065474Y-66959986D01*
X88106483Y-67016555D01*
X88109660Y-67026898D01*
X88119091Y-67063170D01*
X88129672Y-67103866D01*
X88176928Y-67285620D01*
X88176929Y-67285622D01*
X88476242Y-68436828D01*
X88492551Y-68499555D01*
X88559535Y-68757187D01*
X88564641Y-68776823D01*
X88567077Y-68785419D01*
X88570241Y-68795724D01*
X88570243Y-68795728D01*
X88570244Y-68795732D01*
X88600278Y-68855980D01*
X88641271Y-68912561D01*
X88681980Y-68954562D01*
X88681981Y-68954563D01*
X88825215Y-69065318D01*
X88866208Y-69121899D01*
X88869374Y-69132210D01*
X88886645Y-69198634D01*
X88900000Y-69250000D01*
X89021705Y-69250000D01*
X89088744Y-69269685D01*
X89097541Y-69275893D01*
X89240793Y-69386663D01*
X89247993Y-69391984D01*
X89256805Y-69398204D01*
X89256808Y-69398205D01*
X89256809Y-69398206D01*
X89317405Y-69427487D01*
X89317407Y-69427487D01*
X89317412Y-69427490D01*
X89384451Y-69447175D01*
X89442349Y-69455500D01*
X89442353Y-69455500D01*
X92098639Y-69455500D01*
X92101180Y-69455363D01*
X92120607Y-69454322D01*
X92120614Y-69454321D01*
X92120618Y-69454321D01*
X92146965Y-69451488D01*
X92223482Y-69427529D01*
X92284805Y-69394044D01*
X92331629Y-69358991D01*
X92404301Y-69286319D01*
X92431228Y-69271615D01*
X92457047Y-69255023D01*
X92463247Y-69254131D01*
X92465624Y-69252834D01*
X92491982Y-69250000D01*
X92598638Y-69250000D01*
X92665677Y-69269685D01*
X92686319Y-69286319D01*
X93113681Y-69713681D01*
X93147166Y-69775004D01*
X93150000Y-69801362D01*
X93150000Y-72448638D01*
X93130315Y-72515677D01*
X93113681Y-72536319D01*
X92686319Y-72963681D01*
X92624996Y-72997166D01*
X92598638Y-73000000D01*
X91965988Y-73000000D01*
X91898949Y-72980315D01*
X91853194Y-72927511D01*
X91844371Y-72900192D01*
X91823581Y-72795677D01*
X91823580Y-72795676D01*
X91823580Y-72795672D01*
X91794067Y-72724420D01*
X91770778Y-72668195D01*
X91770771Y-72668182D01*
X91694114Y-72553458D01*
X91694111Y-72553454D01*
X91596545Y-72455888D01*
X91596541Y-72455885D01*
X91481817Y-72379228D01*
X91481804Y-72379221D01*
X91354332Y-72326421D01*
X91354322Y-72326418D01*
X91218995Y-72299500D01*
X91218993Y-72299500D01*
X91081007Y-72299500D01*
X91081005Y-72299500D01*
X90945677Y-72326418D01*
X90945667Y-72326421D01*
X90818195Y-72379221D01*
X90818182Y-72379228D01*
X90703458Y-72455885D01*
X90703454Y-72455888D01*
X90605888Y-72553454D01*
X90605885Y-72553458D01*
X90546680Y-72642065D01*
X90522318Y-72662424D01*
X90499082Y-72684058D01*
X90495703Y-72684667D01*
X90493068Y-72686870D01*
X90461562Y-72690826D01*
X90430323Y-72696463D01*
X90425826Y-72695315D01*
X90423743Y-72695577D01*
X90396125Y-72687735D01*
X90319233Y-72655885D01*
X90279005Y-72629005D01*
X89150000Y-71500000D01*
X88796447Y-71500000D01*
X88637517Y-71500000D01*
X88570478Y-71480315D01*
X88524723Y-71427511D01*
X88522957Y-71423456D01*
X88520776Y-71418191D01*
X88520771Y-71418182D01*
X88444114Y-71303458D01*
X88444111Y-71303454D01*
X88346545Y-71205888D01*
X88346541Y-71205885D01*
X88231817Y-71129228D01*
X88231804Y-71129221D01*
X88104332Y-71076421D01*
X88104322Y-71076418D01*
X87968995Y-71049500D01*
X87968993Y-71049500D01*
X87831007Y-71049500D01*
X87831005Y-71049500D01*
X87695677Y-71076418D01*
X87695667Y-71076421D01*
X87568195Y-71129221D01*
X87568182Y-71129228D01*
X87453458Y-71205885D01*
X87453454Y-71205888D01*
X87355888Y-71303454D01*
X87355885Y-71303458D01*
X87279228Y-71418182D01*
X87279223Y-71418191D01*
X87277043Y-71423456D01*
X87233200Y-71477858D01*
X87166905Y-71499921D01*
X87162483Y-71500000D01*
X84940794Y-71500000D01*
X84873755Y-71480315D01*
X84831348Y-71431375D01*
X84830450Y-71431866D01*
X84828194Y-71427735D01*
X84828000Y-71427511D01*
X84827698Y-71426827D01*
X84811831Y-71397770D01*
X84794044Y-71365195D01*
X84793329Y-71364241D01*
X84759001Y-71318384D01*
X84758998Y-71318381D01*
X84758991Y-71318371D01*
X84627301Y-71186681D01*
X84593816Y-71125358D01*
X84598800Y-71055666D01*
X84640672Y-70999733D01*
X84706136Y-70975316D01*
X84714982Y-70975000D01*
X84859130Y-70975000D01*
X84859146Y-70974999D01*
X84917187Y-70968758D01*
X85048537Y-70919767D01*
X85160758Y-70835758D01*
X85244767Y-70723537D01*
X85293758Y-70592187D01*
X85299999Y-70534146D01*
X85300000Y-70534129D01*
X85300000Y-70500000D01*
X84636500Y-70500000D01*
X84569461Y-70480315D01*
X84523706Y-70427511D01*
X84512500Y-70376000D01*
X84512500Y-70250000D01*
X84386500Y-70250000D01*
X84319461Y-70230315D01*
X84273706Y-70177511D01*
X84262500Y-70126000D01*
X84262500Y-70000000D01*
X84762500Y-70000000D01*
X85300000Y-70000000D01*
X85300000Y-69965870D01*
X85299999Y-69965853D01*
X85293758Y-69907812D01*
X85244767Y-69776462D01*
X85160758Y-69664241D01*
X85048537Y-69580232D01*
X84917187Y-69531241D01*
X84859146Y-69525000D01*
X84762500Y-69525000D01*
X84762500Y-70000000D01*
X84262500Y-70000000D01*
X84262500Y-69473638D01*
X84266863Y-69473638D01*
X84269986Y-69429972D01*
X84287153Y-69399831D01*
X84286985Y-69399721D01*
X84288754Y-69397019D01*
X84289627Y-69395488D01*
X84290327Y-69394620D01*
X84327490Y-69323575D01*
X84347175Y-69256536D01*
X84355500Y-69198638D01*
X84355500Y-68447844D01*
X84650000Y-68447844D01*
X84656401Y-68507372D01*
X84656403Y-68507379D01*
X84706645Y-68642086D01*
X84706649Y-68642093D01*
X84792809Y-68757187D01*
X84792812Y-68757190D01*
X84907906Y-68843350D01*
X84907913Y-68843354D01*
X85042620Y-68893596D01*
X85042627Y-68893598D01*
X85102155Y-68899999D01*
X85102172Y-68900000D01*
X85900000Y-68900000D01*
X86400000Y-68900000D01*
X87197828Y-68900000D01*
X87197844Y-68899999D01*
X87257372Y-68893598D01*
X87257379Y-68893596D01*
X87392086Y-68843354D01*
X87392093Y-68843350D01*
X87507187Y-68757190D01*
X87507190Y-68757187D01*
X87593350Y-68642093D01*
X87593354Y-68642086D01*
X87643596Y-68507379D01*
X87643598Y-68507372D01*
X87649999Y-68447844D01*
X87650000Y-68447827D01*
X87650000Y-68000000D01*
X86400000Y-68000000D01*
X86400000Y-68900000D01*
X85900000Y-68900000D01*
X85900000Y-68000000D01*
X84650000Y-68000000D01*
X84650000Y-68447844D01*
X84355500Y-68447844D01*
X84355500Y-66752872D01*
X84375185Y-66685833D01*
X84427989Y-66640078D01*
X84490241Y-66629338D01*
X84631905Y-66641657D01*
G37*
%TD.AperFunction*%
%TD*%
%TA.AperFunction,Conductor*%
%TO.N,V_BAT_RAW*%
G36*
X94943039Y-140269685D02*
G01*
X94988794Y-140322489D01*
X95000000Y-140374000D01*
X95000000Y-145376500D01*
X94980315Y-145443539D01*
X94927511Y-145489294D01*
X94876000Y-145500500D01*
X93382650Y-145500500D01*
X93315611Y-145480815D01*
X93269856Y-145428011D01*
X93259247Y-145364347D01*
X93262972Y-145326524D01*
X92836448Y-144900000D01*
X92842661Y-144900000D01*
X92944394Y-144872741D01*
X93035606Y-144820080D01*
X93110080Y-144745606D01*
X93162741Y-144654394D01*
X93190000Y-144552661D01*
X93190000Y-144546448D01*
X93616524Y-144972972D01*
X93616525Y-144972971D01*
X93631876Y-144949998D01*
X93631879Y-144949992D01*
X93703491Y-144777105D01*
X93703493Y-144777097D01*
X93739999Y-144593571D01*
X93740000Y-144593569D01*
X93740000Y-144406430D01*
X93739999Y-144406428D01*
X93703493Y-144222902D01*
X93703491Y-144222894D01*
X93631879Y-144050007D01*
X93616524Y-144027027D01*
X93190000Y-144453551D01*
X93190000Y-144447339D01*
X93162741Y-144345606D01*
X93110080Y-144254394D01*
X93035606Y-144179920D01*
X92944394Y-144127259D01*
X92842661Y-144100000D01*
X92836447Y-144100000D01*
X93262972Y-143673474D01*
X93262971Y-143673473D01*
X93240002Y-143658126D01*
X93239990Y-143658119D01*
X93067105Y-143586508D01*
X93067097Y-143586506D01*
X92883570Y-143550000D01*
X92696430Y-143550000D01*
X92512902Y-143586506D01*
X92512894Y-143586508D01*
X92340005Y-143658121D01*
X92317027Y-143673473D01*
X92317027Y-143673474D01*
X92743554Y-144100000D01*
X92737339Y-144100000D01*
X92635606Y-144127259D01*
X92544394Y-144179920D01*
X92469920Y-144254394D01*
X92417259Y-144345606D01*
X92390000Y-144447339D01*
X92390000Y-144453553D01*
X91963474Y-144027027D01*
X91963473Y-144027027D01*
X91948121Y-144050005D01*
X91876508Y-144222894D01*
X91876506Y-144222902D01*
X91840000Y-144406428D01*
X91840000Y-144593571D01*
X91876506Y-144777097D01*
X91876508Y-144777105D01*
X91948119Y-144949990D01*
X91948126Y-144950002D01*
X91963473Y-144972971D01*
X91963474Y-144972972D01*
X92390000Y-144546446D01*
X92390000Y-144552661D01*
X92417259Y-144654394D01*
X92469920Y-144745606D01*
X92544394Y-144820080D01*
X92635606Y-144872741D01*
X92737339Y-144900000D01*
X92743553Y-144900000D01*
X92317027Y-145326525D01*
X92320752Y-145364347D01*
X92307733Y-145432993D01*
X92259668Y-145483703D01*
X92197349Y-145500500D01*
X91624000Y-145500500D01*
X91556961Y-145480815D01*
X91511206Y-145428011D01*
X91500000Y-145376500D01*
X91500000Y-140438465D01*
X91508644Y-140409024D01*
X91515168Y-140379038D01*
X91518922Y-140374022D01*
X91519685Y-140371426D01*
X91536319Y-140350784D01*
X91600784Y-140286319D01*
X91662107Y-140252834D01*
X91688465Y-140250000D01*
X94876000Y-140250000D01*
X94943039Y-140269685D01*
G37*
%TD.AperFunction*%
%TD*%
%TA.AperFunction,Conductor*%
%TO.N,GND*%
G36*
X93385115Y-62269685D02*
G01*
X93430870Y-62322489D01*
X93442076Y-62374000D01*
X93442076Y-62401262D01*
X93448132Y-62423862D01*
X93462555Y-62477690D01*
X93462556Y-62477691D01*
X93498235Y-62539489D01*
X93502113Y-62546207D01*
X93502115Y-62546209D01*
X93502116Y-62546211D01*
X94992416Y-64036511D01*
X95048365Y-64092460D01*
X95048367Y-64092461D01*
X95048371Y-64092464D01*
X95116880Y-64132017D01*
X95116887Y-64132021D01*
X95193314Y-64152500D01*
X95272438Y-64152500D01*
X96901167Y-64152500D01*
X96968206Y-64172185D01*
X96988848Y-64188819D01*
X97540663Y-64740634D01*
X97572757Y-64796221D01*
X97601793Y-64904588D01*
X97601794Y-64904589D01*
X97654520Y-64995913D01*
X97729087Y-65070480D01*
X97820413Y-65123207D01*
X97922273Y-65150500D01*
X97922275Y-65150500D01*
X98026000Y-65150500D01*
X98093039Y-65170185D01*
X98138794Y-65222989D01*
X98150000Y-65274500D01*
X98150000Y-73364470D01*
X98130315Y-73431509D01*
X98077511Y-73477264D01*
X98008353Y-73487208D01*
X97951689Y-73463737D01*
X97873537Y-73405232D01*
X97742187Y-73356241D01*
X97684146Y-73350000D01*
X97650000Y-73350000D01*
X97650000Y-74013500D01*
X97630315Y-74080539D01*
X97577511Y-74126294D01*
X97526000Y-74137500D01*
X97400000Y-74137500D01*
X97400000Y-74263500D01*
X97380315Y-74330539D01*
X97327511Y-74376294D01*
X97276000Y-74387500D01*
X96024000Y-74387500D01*
X95956961Y-74367815D01*
X95911206Y-74315011D01*
X95900000Y-74263500D01*
X95900000Y-74137500D01*
X95774000Y-74137500D01*
X95706961Y-74117815D01*
X95661206Y-74065011D01*
X95650000Y-74013500D01*
X95650000Y-73887500D01*
X96150000Y-73887500D01*
X97150000Y-73887500D01*
X97150000Y-73350000D01*
X97115853Y-73350000D01*
X97057812Y-73356241D01*
X96926462Y-73405232D01*
X96814241Y-73489241D01*
X96749267Y-73576036D01*
X96693333Y-73617907D01*
X96623641Y-73622891D01*
X96562318Y-73589406D01*
X96550733Y-73576036D01*
X96485758Y-73489241D01*
X96373537Y-73405232D01*
X96242187Y-73356241D01*
X96184146Y-73350000D01*
X96150000Y-73350000D01*
X96150000Y-73887500D01*
X95650000Y-73887500D01*
X95650000Y-73350000D01*
X95615853Y-73350000D01*
X95557810Y-73356241D01*
X95443833Y-73398753D01*
X95374142Y-73403737D01*
X95312819Y-73370252D01*
X95279334Y-73308929D01*
X95276500Y-73282571D01*
X95276500Y-68974500D01*
X95296185Y-68907461D01*
X95348989Y-68861706D01*
X95400500Y-68850500D01*
X95704270Y-68850500D01*
X95734699Y-68847646D01*
X95734701Y-68847646D01*
X95798790Y-68825219D01*
X95862882Y-68802793D01*
X95972150Y-68722150D01*
X96052793Y-68612882D01*
X96075219Y-68548790D01*
X96097646Y-68484701D01*
X96097646Y-68484699D01*
X96100500Y-68454269D01*
X96100500Y-67045730D01*
X96097646Y-67015300D01*
X96097646Y-67015298D01*
X96052793Y-66887119D01*
X96052792Y-66887117D01*
X95972150Y-66777850D01*
X95862882Y-66697207D01*
X95862880Y-66697206D01*
X95734700Y-66652353D01*
X95704270Y-66649500D01*
X95704266Y-66649500D01*
X95274000Y-66649500D01*
X95206961Y-66629815D01*
X95161206Y-66577011D01*
X95150000Y-66525500D01*
X95150000Y-66500000D01*
X95149999Y-66499999D01*
X91519126Y-65388507D01*
X91460785Y-65350061D01*
X91432491Y-65286177D01*
X91443227Y-65217137D01*
X91467742Y-65182256D01*
X91499998Y-65150000D01*
X92000000Y-65150000D01*
X92797828Y-65150000D01*
X92797844Y-65149999D01*
X92857372Y-65143598D01*
X92857379Y-65143596D01*
X92992086Y-65093354D01*
X92992093Y-65093350D01*
X93107187Y-65007190D01*
X93107190Y-65007187D01*
X93193350Y-64892093D01*
X93193354Y-64892086D01*
X93243596Y-64757379D01*
X93243598Y-64757372D01*
X93249999Y-64697844D01*
X93250000Y-64697827D01*
X93250000Y-64250000D01*
X92000000Y-64250000D01*
X92000000Y-65150000D01*
X91499998Y-65150000D01*
X91500000Y-65149998D01*
X91500000Y-63750000D01*
X92000000Y-63750000D01*
X93250000Y-63750000D01*
X93250000Y-63302172D01*
X93249999Y-63302155D01*
X93243598Y-63242627D01*
X93243596Y-63242620D01*
X93193354Y-63107913D01*
X93193350Y-63107906D01*
X93107190Y-62992812D01*
X93107187Y-62992809D01*
X92992093Y-62906649D01*
X92992086Y-62906645D01*
X92857379Y-62856403D01*
X92857372Y-62856401D01*
X92797844Y-62850000D01*
X92000000Y-62850000D01*
X92000000Y-63750000D01*
X91500000Y-63750000D01*
X91500000Y-62850000D01*
X90702155Y-62850000D01*
X90642627Y-62856401D01*
X90642620Y-62856403D01*
X90507913Y-62906645D01*
X90507906Y-62906649D01*
X90448311Y-62951263D01*
X90435690Y-62955970D01*
X90425511Y-62964791D01*
X90403594Y-62967942D01*
X90382847Y-62975681D01*
X90369685Y-62972818D01*
X90356353Y-62974735D01*
X90336211Y-62965536D01*
X90314574Y-62960830D01*
X90305049Y-62951305D01*
X90292797Y-62945710D01*
X90280826Y-62927082D01*
X90265168Y-62911425D01*
X90261481Y-62896981D01*
X90255023Y-62886932D01*
X90250000Y-62851997D01*
X90250000Y-62801362D01*
X90269685Y-62734323D01*
X90286319Y-62713681D01*
X90713681Y-62286319D01*
X90775004Y-62252834D01*
X90801362Y-62250000D01*
X93318076Y-62250000D01*
X93385115Y-62269685D01*
G37*
%TD.AperFunction*%
%TD*%
%TA.AperFunction,Conductor*%
%TO.N,GND*%
G36*
X91208253Y-140645096D02*
G01*
X91266117Y-140684257D01*
X91293623Y-140748484D01*
X91294500Y-140763209D01*
X91294500Y-143944476D01*
X91274815Y-144011515D01*
X91222011Y-144057270D01*
X91152853Y-144067214D01*
X91089297Y-144038189D01*
X91079728Y-144027342D01*
X91076524Y-144027027D01*
X90650000Y-144453551D01*
X90650000Y-144447339D01*
X90622741Y-144345606D01*
X90570080Y-144254394D01*
X90495606Y-144179920D01*
X90404394Y-144127259D01*
X90302661Y-144100000D01*
X90296447Y-144100000D01*
X90722972Y-143673474D01*
X90722971Y-143673473D01*
X90700002Y-143658126D01*
X90699990Y-143658119D01*
X90527105Y-143586508D01*
X90527097Y-143586506D01*
X90343570Y-143550000D01*
X90156430Y-143550000D01*
X89972902Y-143586506D01*
X89972894Y-143586508D01*
X89800005Y-143658121D01*
X89777027Y-143673473D01*
X89777027Y-143673474D01*
X90203554Y-144100000D01*
X90197339Y-144100000D01*
X90095606Y-144127259D01*
X90004394Y-144179920D01*
X89929920Y-144254394D01*
X89877259Y-144345606D01*
X89850000Y-144447339D01*
X89850000Y-144453553D01*
X89423474Y-144027027D01*
X89423473Y-144027027D01*
X89408121Y-144050005D01*
X89336508Y-144222894D01*
X89336506Y-144222902D01*
X89300000Y-144406428D01*
X89300000Y-144593571D01*
X89336506Y-144777097D01*
X89336508Y-144777105D01*
X89408119Y-144949990D01*
X89408126Y-144950002D01*
X89423473Y-144972971D01*
X89423474Y-144972972D01*
X89850000Y-144546446D01*
X89850000Y-144552661D01*
X89877259Y-144654394D01*
X89929920Y-144745606D01*
X90004394Y-144820080D01*
X90095606Y-144872741D01*
X90197339Y-144900000D01*
X90203553Y-144900000D01*
X89777027Y-145326525D01*
X89780752Y-145364347D01*
X89767733Y-145432993D01*
X89719668Y-145483703D01*
X89657349Y-145500500D01*
X87124000Y-145500500D01*
X87056961Y-145480815D01*
X87011206Y-145428011D01*
X87000000Y-145376500D01*
X87000000Y-140775500D01*
X87019685Y-140708461D01*
X87072489Y-140662706D01*
X87124000Y-140651500D01*
X91108307Y-140651500D01*
X91108309Y-140651500D01*
X91138406Y-140643435D01*
X91208253Y-140645096D01*
G37*
%TD.AperFunction*%
%TA.AperFunction,Conductor*%
G36*
X91076524Y-144972972D02*
G01*
X91084706Y-144972166D01*
X91121011Y-144941826D01*
X91190336Y-144933119D01*
X91253364Y-144963274D01*
X91290082Y-145022718D01*
X91294500Y-145055522D01*
X91294500Y-145376500D01*
X91274815Y-145443539D01*
X91222011Y-145489294D01*
X91170500Y-145500500D01*
X90842650Y-145500500D01*
X90775611Y-145480815D01*
X90729856Y-145428011D01*
X90719247Y-145364347D01*
X90722972Y-145326524D01*
X90296448Y-144900000D01*
X90302661Y-144900000D01*
X90404394Y-144872741D01*
X90495606Y-144820080D01*
X90570080Y-144745606D01*
X90622741Y-144654394D01*
X90650000Y-144552661D01*
X90650000Y-144546448D01*
X91076524Y-144972972D01*
G37*
%TD.AperFunction*%
%TD*%
M02*
