M48
; DRILL file {KiCad 9.0.2} date 2025-06-22T20:43:31-0600
; FORMAT={-:-/ absolute / metric / decimal}
; #@! TF.CreationDate,2025-06-22T20:43:31-06:00
; #@! TF.GenerationSoftware,Kicad,Pcbnew,9.0.2
; #@! TF.FileFunction,Plated,1,4,PTH
FMAT,2
METRIC
; #@! TA.AperFunction,Plated,PTH,ViaDrill
T1C0.300
; #@! TA.AperFunction,Plated,PTH,ViaDrill
T2C0.400
; #@! TA.AperFunction,Plated,PTH,ComponentDrill
T3C0.400
; #@! TA.AperFunction,Plated,PTH,ComponentDrill
T4C0.600
; #@! TA.AperFunction,Plated,PTH,ComponentDrill
T5C0.750
; #@! TA.AperFunction,Plated,PTH,ComponentDrill
T6C0.800
; #@! TA.AperFunction,Plated,PTH,ComponentDrill
T7C0.990
; #@! TA.AperFunction,Plated,PTH,ComponentDrill
T8C1.000
; #@! TA.AperFunction,Plated,PTH,ComponentDrill
T9C1.100
; #@! TA.AperFunction,Plated,PTH,ComponentDrill
T10C1.300
%
G90
G05
T1
X62.75Y-121.367
X65.2Y-117.8
X65.332Y-116.07
X66.0Y-66.75
X66.033Y-115.55
X66.147Y-76.847
X66.848Y-99.0
X66.9Y-125.0
X66.99Y-111.71
X67.2Y-118.2
X67.267Y-119.8
X67.5Y-110.25
X67.775Y-113.1
X68.25Y-117.75
X68.3Y-112.054
X69.221Y-122.346
X69.9Y-65.15
X70.675Y-134.175
X70.7Y-114.2
X70.7Y-132.25
X70.8Y-121.95
X70.963Y-126.018
X71.133Y-120.025
X71.25Y-127.75
X71.5Y-122.2
X71.578Y-124.35
X71.9Y-118.7
X71.954Y-118.052
X72.0Y-113.25
X72.05Y-134.75
X73.6Y-112.4
X73.75Y-114.402
X73.75Y-137.136
X73.773Y-135.552
X73.812Y-122.95
X73.86Y-138.097
X73.875Y-118.275
X74.0Y-59.5
X74.125Y-127.067
X74.125Y-130.05
X74.325Y-117.77
X74.65Y-134.85
X74.704Y-129.754
X74.732Y-124.832
X74.789Y-140.636
X74.987Y-126.415
X75.039Y-129.197
X75.417Y-120.503
X75.775Y-121.075
X75.824Y-101.65
X75.903Y-122.703
X76.2Y-129.8
X76.475Y-126.5
X76.941Y-101.0
X77.0Y-92.8
X77.327Y-122.966
X77.396Y-128.396
X77.68Y-125.0
X78.096Y-101.527
X78.1Y-123.0
X78.35Y-99.175
X78.426Y-94.426
X78.48Y-125.02
X78.5Y-111.9
X78.825Y-123.025
X79.174Y-128.851
X79.2Y-129.5
X79.3Y-104.8
X79.4Y-108.7
X79.4Y-142.2
X79.5Y-112.5
X79.55Y-127.65
X79.627Y-98.271
X79.631Y-122.943
X79.65Y-124.9
X79.75Y-128.55
X79.82Y-94.887
X79.875Y-101.15
X80.25Y-126.95
X80.3Y-140.7
X80.376Y-117.184
X80.462Y-117.84
X81.05Y-131.1
X81.068Y-127.489
X81.087Y-118.163
X81.272Y-126.457
X81.4Y-120.1
X81.5Y-96.55
X81.575Y-119.474
X81.67Y-129.013
X81.675Y-132.365
X81.835Y-103.991
X81.9Y-116.7
X81.95Y-123.15
X81.95Y-123.8
X82.0Y-143.662
X82.1Y-129.5
X82.125Y-94.375
X82.15Y-118.15
X82.2Y-134.051
X82.706Y-96.879
X82.779Y-100.979
X83.125Y-100.341
X83.349Y-96.972
X83.4Y-129.944
X83.75Y-94.65
X84.1Y-110.825
X84.25Y-61.087
X84.25Y-117.199
X84.3Y-94.148
X84.4Y-126.65
X84.5Y-133.0
X84.85Y-94.825
X85.2Y-126.65
X85.275Y-121.125
X85.525Y-81.125
X85.75Y-116.25
X86.75Y-80.394
X86.796Y-81.65
X87.225Y-119.225
X87.55Y-118.775
X88.114Y-121.148
X89.171Y-83.548
X89.225Y-77.8
X89.5Y-105.9
X90.0Y-98.5
X90.15Y-105.3
X90.45Y-104.7
X90.6Y-90.599
X90.625Y-100.2
X91.0Y-123.375
X91.0Y-132.375
X91.025Y-104.175
X91.075Y-110.1
X91.425Y-119.0
X91.5Y-109.25
X92.008Y-115.1
X92.2Y-100.2
X92.553Y-115.466
X93.136Y-115.02
X93.25Y-123.25
X93.619Y-54.971
X93.727Y-114.462
X94.236Y-113.85
X94.75Y-113.4
X95.087Y-53.962
X95.3Y-112.8
X95.812Y-112.367
X96.209Y-111.8
X96.423Y-60.176
X96.5Y-55.25
X96.507Y-111.198
X97.05Y-109.5
X97.1Y-111.0
X97.284Y-54.775
X97.75Y-53.75
X97.871Y-63.121
X97.946Y-65.554
X98.243Y-60.839
X99.0Y-47.5
X99.0Y-52.75
X99.05Y-64.125
X99.25Y-89.75
X99.35Y-92.55
X99.401Y-65.0
X99.755Y-87.097
X100.075Y-65.3
X100.203Y-85.985
X100.604Y-84.999
X100.625Y-64.952
X100.775Y-52.9
X101.012Y-63.212
X101.857Y-52.956
X102.0Y-73.337
X102.3Y-60.25
X102.9Y-53.1
X103.75Y-55.85
X103.811Y-55.203
X104.025Y-57.975
X104.044Y-54.281
X104.254Y-56.746
X105.65Y-94.7
X105.65Y-95.25
X105.873Y-112.926
X106.025Y-115.1
X106.441Y-114.459
X106.75Y-67.85
X106.8Y-74.05
X106.963Y-97.713
X107.0Y-109.0
X107.0Y-110.5
X107.025Y-112.925
X107.03Y-108.169
X107.05Y-111.4
X107.5Y-99.75
X107.575Y-94.325
X107.75Y-72.025
X107.831Y-95.831
X108.25Y-116.875
X110.9Y-122.1
X111.25Y-91.0
X111.75Y-119.25
T2
X68.182Y-131.683
X69.5Y-125.0
X71.0Y-94.35
X71.2Y-96.7
X71.25Y-129.0
X71.395Y-109.312
X71.5Y-55.0
X71.697Y-126.4
X71.75Y-142.75
X71.895Y-102.812
X72.145Y-107.312
X72.445Y-99.75
X73.8Y-96.7
X74.0Y-94.35
X74.5Y-99.75
X74.5Y-142.25
X74.75Y-104.312
X74.75Y-107.312
X74.895Y-106.062
X74.895Y-109.312
X75.0Y-96.5
X75.0Y-94.35
X75.25Y-133.75
X76.3Y-97.2
X77.013Y-72.75
X78.65Y-65.5
X79.0Y-55.0
X79.25Y-63.0
X79.797Y-120.594
X80.0Y-57.75
X81.1Y-99.975
X82.0Y-100.0
X82.65Y-72.0
X82.75Y-115.25
X82.865Y-99.498
X83.9Y-72.0
X84.4Y-88.9
X85.2Y-98.2
X85.25Y-134.0
X85.4Y-72.75
X87.2Y-94.1
X87.2Y-96.7
X87.7Y-138.1
X87.9Y-71.75
X88.0Y-141.25
X88.0Y-143.25
X88.0Y-144.75
X88.013Y-77.5
X88.5Y-58.25
X89.263Y-80.5
X89.55Y-93.9
X90.25Y-141.25
X90.25Y-142.5
X91.15Y-73.0
X91.2Y-96.7
X91.351Y-94.0
X92.5Y-141.2
X92.5Y-142.6
X93.766Y-96.8
X93.876Y-70.5
X93.876Y-72.5
X94.25Y-141.5
X94.25Y-143.0
X94.5Y-65.0
X94.5Y-139.9
X94.688Y-52.25
X94.887Y-47.75
X95.9Y-71.0
X96.0Y-145.0
X96.25Y-66.0
X96.25Y-72.5
X96.5Y-69.25
X96.837Y-138.225
X97.619Y-47.642
X98.0Y-143.25
X98.0Y-145.0
X98.5Y-138.25
X99.25Y-87.75
X99.25Y-122.5
X100.0Y-145.0
X100.25Y-96.75
X101.294Y-88.294
X101.75Y-115.25
X102.0Y-143.0
X102.0Y-145.0
X103.0Y-141.0
X103.25Y-50.5
X103.367Y-58.75
X103.57Y-52.317
X104.0Y-143.0
X104.0Y-145.0
X104.5Y-87.875
X104.5Y-91.0
X104.825Y-122.325
X104.924Y-126.25
X106.362Y-50.25
X107.0Y-106.5
X108.5Y-77.087
X110.742Y-87.758
X111.0Y-92.5
X111.0Y-94.5
X111.0Y-102.5
X112.449Y-110.0
X112.5Y-98.25
T5
X105.55Y-55.5
X105.55Y-57.5
T6
X90.25Y-144.5
X92.79Y-144.5
T7
X62.212Y-62.725
X62.212Y-67.225
X62.212Y-74.225
X62.212Y-78.725
X62.212Y-93.725
X62.212Y-98.225
T8
X63.5Y-110.695
X63.5Y-113.235
X63.5Y-115.775
X84.5Y-51.0
X84.5Y-56.0
X87.0Y-51.0
X89.5Y-51.0
X89.5Y-56.0
T9
X64.5Y-51.0
X64.5Y-57.25
X67.0Y-51.0
X69.5Y-51.0
X69.5Y-57.25
T10
X64.703Y-61.475
X64.703Y-68.485
X64.703Y-72.975
X64.703Y-79.985
X64.703Y-92.475
X64.703Y-99.485
T3
G00X105.275Y-69.25
M15
G01X104.275Y-69.25
M16
G05
G00X104.275Y-79.25
M15
G01X105.275Y-79.25
M16
G05
G00X109.775Y-73.75
M15
G01X109.775Y-74.75
M16
G05
T4
G00X105.375Y-62.8
M15
G01X105.375Y-63.7
M16
G05
G00X108.125Y-61.5
M15
G01X107.225Y-61.5
M16
G05
G00X108.125Y-65.0
M15
G01X107.225Y-65.0
M16
G05
G00X109.2Y-105.43
M15
G01X108.1Y-105.43
M16
G05
G00X109.2Y-114.07
M15
G01X108.1Y-114.07
M16
G05
G00X112.175Y-62.8
M15
G01X112.175Y-63.7
M16
G05
G00X113.25Y-105.43
M15
G01X112.45Y-105.43
M16
G05
G00X113.25Y-114.07
M15
G01X112.45Y-114.07
M16
G05
T6
G00X105.125Y-71.75
M15
G01X104.425Y-71.75
M16
G05
G00X104.425Y-76.75
M15
G01X105.125Y-76.75
M16
G05
M30
