%TF.GenerationSoftware,KiCad,Pcbnew,9.0.0*%
%TF.CreationDate,2025-06-22T14:00:25-06:00*%
%TF.ProjectId,OSS Radio Hardware Design,4f535320-5261-4646-996f-204861726477,rev?*%
%TF.SameCoordinates,Original*%
%TF.FileFunction,Paste,Bot*%
%TF.FilePolarity,Positive*%
%FSLAX46Y46*%
G04 Gerber Fmt 4.6, Leading zero omitted, Abs format (unit mm)*
G04 Created by KiCad (PCBNEW 9.0.0) date 2025-06-22 14:00:25*
%MOMM*%
%LPD*%
G01*
G04 APERTURE LIST*
G04 Aperture macros list*
%AMRoundRect*
0 Rectangle with rounded corners*
0 $1 Rounding radius*
0 $2 $3 $4 $5 $6 $7 $8 $9 X,Y pos of 4 corners*
0 Add a 4 corners polygon primitive as box body*
4,1,4,$2,$3,$4,$5,$6,$7,$8,$9,$2,$3,0*
0 Add four circle primitives for the rounded corners*
1,1,$1+$1,$2,$3*
1,1,$1+$1,$4,$5*
1,1,$1+$1,$6,$7*
1,1,$1+$1,$8,$9*
0 Add four rect primitives between the rounded corners*
20,1,$1+$1,$2,$3,$4,$5,0*
20,1,$1+$1,$4,$5,$6,$7,0*
20,1,$1+$1,$6,$7,$8,$9,0*
20,1,$1+$1,$8,$9,$2,$3,0*%
G04 Aperture macros list end*
%ADD10C,0.000000*%
%ADD11RoundRect,0.237500X0.237500X-0.250000X0.237500X0.250000X-0.237500X0.250000X-0.237500X-0.250000X0*%
%ADD12RoundRect,0.155000X-0.155000X0.212500X-0.155000X-0.212500X0.155000X-0.212500X0.155000X0.212500X0*%
%ADD13R,1.000000X0.750000*%
%ADD14RoundRect,0.237500X0.250000X0.237500X-0.250000X0.237500X-0.250000X-0.237500X0.250000X-0.237500X0*%
%ADD15RoundRect,0.250000X-1.000000X-0.650000X1.000000X-0.650000X1.000000X0.650000X-1.000000X0.650000X0*%
%ADD16RoundRect,0.237500X-0.300000X-0.237500X0.300000X-0.237500X0.300000X0.237500X-0.300000X0.237500X0*%
%ADD17RoundRect,0.237500X-0.237500X0.250000X-0.237500X-0.250000X0.237500X-0.250000X0.237500X0.250000X0*%
%ADD18RoundRect,0.155000X0.155000X-0.212500X0.155000X0.212500X-0.155000X0.212500X-0.155000X-0.212500X0*%
%ADD19RoundRect,0.155000X-0.212500X-0.155000X0.212500X-0.155000X0.212500X0.155000X-0.212500X0.155000X0*%
%ADD20RoundRect,0.162500X-0.650000X-0.162500X0.650000X-0.162500X0.650000X0.162500X-0.650000X0.162500X0*%
%ADD21RoundRect,0.150000X-0.150000X0.512500X-0.150000X-0.512500X0.150000X-0.512500X0.150000X0.512500X0*%
%ADD22RoundRect,0.250000X0.650000X-1.000000X0.650000X1.000000X-0.650000X1.000000X-0.650000X-1.000000X0*%
%ADD23RoundRect,0.250000X-1.500000X0.925000X-1.500000X-0.925000X1.500000X-0.925000X1.500000X0.925000X0*%
%ADD24R,1.400000X1.200000*%
%ADD25RoundRect,0.155000X0.212500X0.155000X-0.212500X0.155000X-0.212500X-0.155000X0.212500X-0.155000X0*%
%ADD26RoundRect,0.237500X0.237500X-0.300000X0.237500X0.300000X-0.237500X0.300000X-0.237500X-0.300000X0*%
%ADD27RoundRect,0.237500X-0.237500X0.300000X-0.237500X-0.300000X0.237500X-0.300000X0.237500X0.300000X0*%
%ADD28R,1.240000X0.600000*%
%ADD29R,1.240000X0.300000*%
%ADD30R,1.828800X0.457200*%
%ADD31RoundRect,0.250000X0.450000X-0.325000X0.450000X0.325000X-0.450000X0.325000X-0.450000X-0.325000X0*%
%ADD32RoundRect,0.237500X0.300000X0.237500X-0.300000X0.237500X-0.300000X-0.237500X0.300000X-0.237500X0*%
%ADD33RoundRect,0.250000X0.650000X-0.412500X0.650000X0.412500X-0.650000X0.412500X-0.650000X-0.412500X0*%
%ADD34RoundRect,0.237500X-0.250000X-0.237500X0.250000X-0.237500X0.250000X0.237500X-0.250000X0.237500X0*%
%ADD35R,0.203200X1.143000*%
%ADD36RoundRect,0.112500X0.187500X0.112500X-0.187500X0.112500X-0.187500X-0.112500X0.187500X-0.112500X0*%
%ADD37R,2.000000X0.800000*%
%ADD38R,1.400000X1.800000*%
%ADD39R,1.900000X1.400000*%
%ADD40RoundRect,0.150000X-0.150000X0.587500X-0.150000X-0.587500X0.150000X-0.587500X0.150000X0.587500X0*%
%ADD41RoundRect,0.375000X-0.375000X0.625000X-0.375000X-0.625000X0.375000X-0.625000X0.375000X0.625000X0*%
%ADD42RoundRect,0.500000X-1.400000X0.500000X-1.400000X-0.500000X1.400000X-0.500000X1.400000X0.500000X0*%
%ADD43RoundRect,0.237500X0.287500X0.237500X-0.287500X0.237500X-0.287500X-0.237500X0.287500X-0.237500X0*%
%ADD44RoundRect,0.112500X0.112500X-0.187500X0.112500X0.187500X-0.112500X0.187500X-0.112500X-0.187500X0*%
%ADD45RoundRect,0.250000X-0.450000X0.325000X-0.450000X-0.325000X0.450000X-0.325000X0.450000X0.325000X0*%
%ADD46R,0.914400X0.254000*%
%ADD47R,0.254000X0.914400*%
%ADD48R,1.752600X1.752600*%
%ADD49RoundRect,0.130500X0.169500X0.130500X-0.169500X0.130500X-0.169500X-0.130500X0.169500X-0.130500X0*%
%ADD50RoundRect,0.250000X0.400000X0.625000X-0.400000X0.625000X-0.400000X-0.625000X0.400000X-0.625000X0*%
%ADD51RoundRect,0.227500X0.227500X-0.227500X0.227500X0.227500X-0.227500X0.227500X-0.227500X-0.227500X0*%
%ADD52RoundRect,0.050000X0.050000X-0.350000X0.050000X0.350000X-0.050000X0.350000X-0.050000X-0.350000X0*%
%ADD53RoundRect,0.050000X0.350000X-0.050000X0.350000X0.050000X-0.350000X0.050000X-0.350000X-0.050000X0*%
G04 APERTURE END LIST*
D10*
%TO.C,U8*%
G36*
X72573900Y-142425300D02*
G01*
X72532200Y-142500700D01*
X72503700Y-142582000D01*
X72489300Y-142666900D01*
X72489300Y-142753100D01*
X72503700Y-142838000D01*
X72532200Y-142919300D01*
X72573900Y-142994700D01*
X72359100Y-143209400D01*
X72276700Y-143080000D01*
X72220000Y-142937400D01*
X72191100Y-142786700D01*
X72191100Y-142633300D01*
X72220000Y-142482600D01*
X72276700Y-142340000D01*
X72359100Y-142210600D01*
X72573900Y-142425300D01*
G37*
G36*
X73499400Y-143350900D02*
G01*
X73370000Y-143433300D01*
X73227400Y-143490000D01*
X73076700Y-143518900D01*
X72923300Y-143518900D01*
X72772600Y-143490000D01*
X72630000Y-143433300D01*
X72500600Y-143350900D01*
X72715300Y-143136100D01*
X72790700Y-143177800D01*
X72872000Y-143206300D01*
X72956900Y-143220700D01*
X73043100Y-143220700D01*
X73128000Y-143206300D01*
X73209300Y-143177800D01*
X73284700Y-143136100D01*
X73499400Y-143350900D01*
G37*
G36*
X73227400Y-141930000D02*
G01*
X73370000Y-141986700D01*
X73499400Y-142069100D01*
X73284700Y-142283900D01*
X73209300Y-142242200D01*
X73128000Y-142213700D01*
X73043100Y-142199300D01*
X72956900Y-142199300D01*
X72872000Y-142213700D01*
X72790700Y-142242200D01*
X72715300Y-142283900D01*
X72500600Y-142069100D01*
X72630000Y-141986700D01*
X72772600Y-141930000D01*
X72923300Y-141901100D01*
X73076700Y-141901100D01*
X73227400Y-141930000D01*
G37*
G36*
X73723300Y-142340000D02*
G01*
X73780000Y-142482600D01*
X73808900Y-142633300D01*
X73808900Y-142786700D01*
X73780000Y-142937400D01*
X73723300Y-143080000D01*
X73640900Y-143209400D01*
X73426100Y-142994700D01*
X73467800Y-142919300D01*
X73496300Y-142838000D01*
X73510700Y-142753100D01*
X73510700Y-142666900D01*
X73496300Y-142582000D01*
X73467800Y-142500700D01*
X73426100Y-142425300D01*
X73640900Y-142210600D01*
X73723300Y-142340000D01*
G37*
%TD*%
D11*
%TO.C,R3*%
X81000000Y-143662500D03*
X81000000Y-141837500D03*
%TD*%
D12*
%TO.C,C14*%
X82875000Y-111932500D03*
X82875000Y-113067500D03*
%TD*%
D13*
%TO.C,SW_RESET1*%
X61500000Y-129625000D03*
X67500000Y-129625000D03*
X61500000Y-125875000D03*
X67500000Y-125875000D03*
%TD*%
D14*
%TO.C,R1*%
X84412500Y-137000000D03*
X82587500Y-137000000D03*
%TD*%
D13*
%TO.C,SW_BOOTSEL1*%
X107250000Y-120625000D03*
X113250000Y-120625000D03*
X107250000Y-116875000D03*
X113250000Y-116875000D03*
%TD*%
D15*
%TO.C,D55*%
X98752400Y-135980700D03*
X102752400Y-135980700D03*
%TD*%
D16*
%TO.C,C78*%
X93637500Y-59250000D03*
X95362500Y-59250000D03*
%TD*%
D17*
%TO.C,R38*%
X104000000Y-123312500D03*
X104000000Y-125137500D03*
%TD*%
D18*
%TO.C,C1*%
X86500000Y-138067500D03*
X86500000Y-136932500D03*
%TD*%
D19*
%TO.C,C47*%
X71932500Y-139136000D03*
X73067500Y-139136000D03*
%TD*%
D20*
%TO.C,U1*%
X79912500Y-134905000D03*
X79912500Y-133635000D03*
X79912500Y-132365000D03*
X79912500Y-131095000D03*
X87087500Y-131095000D03*
X87087500Y-132365000D03*
X87087500Y-133635000D03*
X87087500Y-134905000D03*
%TD*%
%TO.C,U5*%
X69412500Y-134905000D03*
X69412500Y-133635000D03*
X69412500Y-132365000D03*
X69412500Y-131095000D03*
X76587500Y-131095000D03*
X76587500Y-132365000D03*
X76587500Y-133635000D03*
X76587500Y-134905000D03*
%TD*%
D21*
%TO.C,U4*%
X69250000Y-101512500D03*
X70200000Y-101512500D03*
X71150000Y-101512500D03*
X71150000Y-103787500D03*
X70200000Y-103787500D03*
X69250000Y-103787500D03*
%TD*%
D11*
%TO.C,R50*%
X70250000Y-128912500D03*
X70250000Y-127087500D03*
%TD*%
D22*
%TO.C,D30*%
X95337500Y-120725000D03*
X95337500Y-116725000D03*
%TD*%
D23*
%TO.C,L3*%
X95500000Y-125950000D03*
X95500000Y-132000000D03*
%TD*%
D24*
%TO.C,Y1*%
X66100000Y-121500000D03*
X63900000Y-121500000D03*
X63900000Y-119800000D03*
X66100000Y-119800000D03*
%TD*%
D25*
%TO.C,C52*%
X102655000Y-116725000D03*
X101520000Y-116725000D03*
%TD*%
D26*
%TO.C,C4*%
X86570000Y-118612500D03*
X86570000Y-116887500D03*
%TD*%
D18*
%TO.C,C7*%
X70080000Y-114817500D03*
X70080000Y-113682500D03*
%TD*%
%TO.C,C11*%
X70010000Y-124067500D03*
X70010000Y-122932500D03*
%TD*%
D27*
%TO.C,C97*%
X72895000Y-101175000D03*
X72895000Y-102900000D03*
%TD*%
D18*
%TO.C,C15*%
X62100000Y-121367500D03*
X62100000Y-120232500D03*
%TD*%
D28*
%TO.C,J2*%
X108050000Y-106550000D03*
X108050000Y-107350000D03*
D29*
X108050000Y-108500000D03*
X108050000Y-109500000D03*
X108050000Y-110000000D03*
X108050000Y-111000000D03*
D28*
X108050000Y-112150000D03*
X108050000Y-112950000D03*
X108050000Y-112950000D03*
X108050000Y-112150000D03*
D29*
X108050000Y-111500000D03*
X108050000Y-110500000D03*
X108050000Y-109000000D03*
X108050000Y-108000000D03*
D28*
X108050000Y-107350000D03*
X108050000Y-106550000D03*
%TD*%
D11*
%TO.C,R18*%
X68580000Y-114912500D03*
X68580000Y-113087500D03*
%TD*%
D12*
%TO.C,C12*%
X78000000Y-112532500D03*
X78000000Y-113667500D03*
%TD*%
D19*
%TO.C,C37*%
X86182500Y-121000000D03*
X87317500Y-121000000D03*
%TD*%
%TO.C,C68*%
X70442500Y-125250000D03*
X71577500Y-125250000D03*
%TD*%
D30*
%TO.C,U9*%
X105347900Y-139005701D03*
X105347900Y-139655699D03*
X105347900Y-140305701D03*
X105347900Y-140955699D03*
X101156900Y-140955699D03*
X101156900Y-140305701D03*
X101156900Y-139655699D03*
X101156900Y-139005701D03*
%TD*%
D26*
%TO.C,C51*%
X98087500Y-121587500D03*
X98087500Y-119862500D03*
%TD*%
D19*
%TO.C,C43*%
X71932500Y-137136000D03*
X73067500Y-137136000D03*
%TD*%
D17*
%TO.C,R17*%
X66830000Y-113087500D03*
X66830000Y-114912500D03*
%TD*%
D16*
%TO.C,C58*%
X96475000Y-123475000D03*
X98200000Y-123475000D03*
%TD*%
D31*
%TO.C,L1*%
X88500000Y-118775000D03*
X88500000Y-116725000D03*
%TD*%
D11*
%TO.C,R28*%
X78750000Y-138912500D03*
X78750000Y-137087500D03*
%TD*%
D32*
%TO.C,C54*%
X91862500Y-139900000D03*
X90137500Y-139900000D03*
%TD*%
D33*
%TO.C,C99*%
X73395000Y-108375000D03*
X73395000Y-105250000D03*
%TD*%
D34*
%TO.C,R4*%
X102837500Y-110250000D03*
X104662500Y-110250000D03*
%TD*%
D35*
%TO.C,J5*%
X84700001Y-98320000D03*
X84299999Y-98320000D03*
X83900000Y-98320000D03*
X83500001Y-98320000D03*
X83099999Y-98320000D03*
X82700000Y-98320000D03*
X82300000Y-98320000D03*
X81900001Y-98320000D03*
X81499999Y-98320000D03*
X81100000Y-98320000D03*
X80700001Y-98320000D03*
X80299999Y-98320000D03*
X84700001Y-95680000D03*
X84299999Y-95680000D03*
X83900000Y-95680000D03*
X83500001Y-95680000D03*
X83099999Y-95680000D03*
X82700000Y-95680000D03*
X82300000Y-95680000D03*
X81900001Y-95680000D03*
X81499999Y-95680000D03*
X81100000Y-95680000D03*
X80700001Y-95680000D03*
X80299999Y-95680000D03*
%TD*%
D18*
%TO.C,C67*%
X75000000Y-128317500D03*
X75000000Y-127182500D03*
%TD*%
D17*
%TO.C,R36*%
X100087500Y-114812500D03*
X100087500Y-116637500D03*
%TD*%
D12*
%TO.C,C19*%
X67900000Y-120432500D03*
X67900000Y-121567500D03*
%TD*%
D25*
%TO.C,C61*%
X105155000Y-117225000D03*
X104020000Y-117225000D03*
%TD*%
D36*
%TO.C,D59*%
X82300000Y-139500000D03*
X80200000Y-139500000D03*
%TD*%
D37*
%TO.C,J4*%
X109225000Y-97940000D03*
X108825000Y-96840000D03*
X109225000Y-95740000D03*
X109425000Y-94640000D03*
X109225000Y-93540000D03*
X109425000Y-92440000D03*
X109225000Y-91340000D03*
X109225000Y-90240000D03*
D38*
X98675000Y-91050000D03*
X98675000Y-96750000D03*
D39*
X111825000Y-89450000D03*
X112825000Y-102600000D03*
%TD*%
D19*
%TO.C,C9*%
X72012500Y-113800000D03*
X73147500Y-113800000D03*
%TD*%
D25*
%TO.C,C55*%
X100819900Y-142980700D03*
X99684900Y-142980700D03*
%TD*%
D14*
%TO.C,R39*%
X105000000Y-115225000D03*
X103175000Y-115225000D03*
%TD*%
D11*
%TO.C,R37*%
X105605000Y-125137500D03*
X105605000Y-123312500D03*
%TD*%
D40*
%TO.C,Q2*%
X93802400Y-136105700D03*
X95702400Y-136105700D03*
X94752400Y-137980700D03*
%TD*%
D11*
%TO.C,R29*%
X107500000Y-141412500D03*
X107500000Y-139587500D03*
%TD*%
D25*
%TO.C,C17*%
X70067500Y-117750000D03*
X68932500Y-117750000D03*
%TD*%
D41*
%TO.C,U13*%
X94200000Y-50850000D03*
X96500000Y-50850000D03*
D42*
X96500000Y-57150000D03*
D41*
X98800000Y-50850000D03*
%TD*%
D26*
%TO.C,C16*%
X79600000Y-111362500D03*
X79600000Y-109637500D03*
%TD*%
D43*
%TO.C,D26*%
X112625000Y-123750000D03*
X110875000Y-123750000D03*
%TD*%
D18*
%TO.C,C8*%
X80300000Y-128817500D03*
X80300000Y-127682500D03*
%TD*%
D44*
%TO.C,D29*%
X80750000Y-56300000D03*
X80750000Y-54200000D03*
%TD*%
D27*
%TO.C,C96*%
X74395000Y-101175000D03*
X74395000Y-102900000D03*
%TD*%
D11*
%TO.C,R23*%
X74500000Y-139144500D03*
X74500000Y-137319500D03*
%TD*%
D18*
%TO.C,C59*%
X104837500Y-121317500D03*
X104837500Y-120182500D03*
%TD*%
D34*
%TO.C,R2*%
X85382500Y-113000000D03*
X87207500Y-113000000D03*
%TD*%
D17*
%TO.C,R49*%
X111750000Y-125587500D03*
X111750000Y-127412500D03*
%TD*%
D32*
%TO.C,C69*%
X99362500Y-59250000D03*
X97637500Y-59250000D03*
%TD*%
D45*
%TO.C,L4*%
X70895000Y-105900000D03*
X70895000Y-107950000D03*
%TD*%
D32*
%TO.C,C2*%
X87157500Y-111500000D03*
X85432500Y-111500000D03*
%TD*%
D18*
%TO.C,C66*%
X84400000Y-125317500D03*
X84400000Y-124182500D03*
%TD*%
D12*
%TO.C,C41*%
X67500000Y-132365000D03*
X67500000Y-133500000D03*
%TD*%
D26*
%TO.C,C3*%
X85000000Y-118612500D03*
X85000000Y-116887500D03*
%TD*%
D46*
%TO.C,U10*%
X100226189Y-120749189D03*
X100226189Y-120249063D03*
X100226189Y-119748937D03*
X100226189Y-119248811D03*
D47*
X101000000Y-118475000D03*
X101500126Y-118475000D03*
X102000252Y-118475000D03*
X102500378Y-118475000D03*
D46*
X103274189Y-119248811D03*
X103274189Y-119748937D03*
X103274189Y-120249063D03*
X103274189Y-120749189D03*
D47*
X102500378Y-121523000D03*
X102000252Y-121523000D03*
X101500126Y-121523000D03*
X101000000Y-121523000D03*
D48*
X101750189Y-119999000D03*
%TD*%
D49*
%TO.C,U8*%
X73900000Y-140636000D03*
X73900000Y-141458000D03*
X72100000Y-141458000D03*
X72100000Y-140636000D03*
X73000000Y-140636000D03*
%TD*%
D25*
%TO.C,C18*%
X77367500Y-129100000D03*
X76232500Y-129100000D03*
%TD*%
D16*
%TO.C,C63*%
X97387500Y-48750000D03*
X99112500Y-48750000D03*
%TD*%
D50*
%TO.C,R25*%
X108802400Y-136480700D03*
X105702400Y-136480700D03*
%TD*%
D27*
%TO.C,C60*%
X103837500Y-126862500D03*
X103837500Y-128587500D03*
%TD*%
%TO.C,C98*%
X68895000Y-105562500D03*
X68895000Y-107287500D03*
%TD*%
D25*
%TO.C,C10*%
X87317500Y-122000000D03*
X86182500Y-122000000D03*
%TD*%
D19*
%TO.C,C49*%
X71932500Y-138136000D03*
X73067500Y-138136000D03*
%TD*%
D51*
%TO.C,U7*%
X76750000Y-121880000D03*
X77880000Y-121880000D03*
X79010000Y-121880000D03*
X76750000Y-120750000D03*
X77880000Y-120750000D03*
X79010000Y-120750000D03*
X76750000Y-119620000D03*
X77880000Y-119620000D03*
X79010000Y-119620000D03*
D52*
X81680000Y-125700000D03*
X81280000Y-125700000D03*
X80880000Y-125700000D03*
X80480000Y-125700000D03*
X80080000Y-125700000D03*
X79680000Y-125700000D03*
X79280000Y-125700000D03*
X78880000Y-125700000D03*
X78480000Y-125700000D03*
X78080000Y-125700000D03*
X77680000Y-125700000D03*
X77280000Y-125700000D03*
X76880000Y-125700000D03*
X76480000Y-125700000D03*
X76080000Y-125700000D03*
X75680000Y-125700000D03*
X75280000Y-125700000D03*
X74880000Y-125700000D03*
X74480000Y-125700000D03*
X74080000Y-125700000D03*
D53*
X72930000Y-124550000D03*
X72930000Y-124150000D03*
X72930000Y-123750000D03*
X72930000Y-123350000D03*
X72930000Y-122950000D03*
X72930000Y-122550000D03*
X72930000Y-122150000D03*
X72930000Y-121750000D03*
X72930000Y-121350000D03*
X72930000Y-120950000D03*
X72930000Y-120550000D03*
X72930000Y-120150000D03*
X72930000Y-119750000D03*
X72930000Y-119350000D03*
X72930000Y-118950000D03*
X72930000Y-118550000D03*
X72930000Y-118150000D03*
X72930000Y-117750000D03*
X72930000Y-117350000D03*
X72930000Y-116950000D03*
D52*
X74080000Y-115800000D03*
X74480000Y-115800000D03*
X74880000Y-115800000D03*
X75280000Y-115800000D03*
X75680000Y-115800000D03*
X76080000Y-115800000D03*
X76480000Y-115800000D03*
X76880000Y-115800000D03*
X77280000Y-115800000D03*
X77680000Y-115800000D03*
X78080000Y-115800000D03*
X78480000Y-115800000D03*
X78880000Y-115800000D03*
X79280000Y-115800000D03*
X79680000Y-115800000D03*
X80080000Y-115800000D03*
X80480000Y-115800000D03*
X80880000Y-115800000D03*
X81280000Y-115800000D03*
X81680000Y-115800000D03*
D53*
X82830000Y-116950000D03*
X82830000Y-117350000D03*
X82830000Y-117750000D03*
X82830000Y-118150000D03*
X82830000Y-118550000D03*
X82830000Y-118950000D03*
X82830000Y-119350000D03*
X82830000Y-119750000D03*
X82830000Y-120150000D03*
X82830000Y-120550000D03*
X82830000Y-120950000D03*
X82830000Y-121350000D03*
X82830000Y-121750000D03*
X82830000Y-122150000D03*
X82830000Y-122550000D03*
X82830000Y-122950000D03*
X82830000Y-123350000D03*
X82830000Y-123750000D03*
X82830000Y-124150000D03*
X82830000Y-124550000D03*
%TD*%
D14*
%TO.C,R7*%
X65912500Y-132500000D03*
X64087500Y-132500000D03*
%TD*%
D27*
%TO.C,C53*%
X96600000Y-140837500D03*
X96600000Y-142562500D03*
%TD*%
D16*
%TO.C,C64*%
X93887500Y-48750000D03*
X95612500Y-48750000D03*
%TD*%
D22*
%TO.C,D54*%
X101000000Y-129975000D03*
X101000000Y-125975000D03*
%TD*%
D14*
%TO.C,R6*%
X69802500Y-119000000D03*
X67977500Y-119000000D03*
%TD*%
D12*
%TO.C,C13*%
X83875000Y-111932500D03*
X83875000Y-113067500D03*
%TD*%
D34*
%TO.C,R5*%
X102837500Y-108500000D03*
X104662500Y-108500000D03*
%TD*%
M02*
