%TF.GenerationSoftware,KiCad,Pcbnew,9.0.7*%
%TF.CreationDate,2026-03-19T14:05:17-06:00*%
%TF.ProjectId,OSS-Radio_2M70CM,4f53532d-5261-4646-996f-5f324d373043,rev?*%
%TF.SameCoordinates,Original*%
%TF.FileFunction,Legend,Top*%
%TF.FilePolarity,Positive*%
%FSLAX46Y46*%
G04 Gerber Fmt 4.6, Leading zero omitted, Abs format (unit mm)*
G04 Created by KiCad (PCBNEW 9.0.7) date 2026-03-19 14:05:17*
%MOMM*%
%LPD*%
G01*
G04 APERTURE LIST*
%ADD10C,0.150000*%
%ADD11C,0.120000*%
%ADD12C,0.000000*%
G04 APERTURE END LIST*
D10*
X139822493Y-81371212D02*
X140132017Y-81371212D01*
X139760588Y-81585498D02*
X139977255Y-80835498D01*
X139977255Y-80835498D02*
X140193922Y-81585498D01*
X140410588Y-81585498D02*
X140410588Y-81085498D01*
X140410588Y-81228355D02*
X140441541Y-81156926D01*
X140441541Y-81156926D02*
X140472493Y-81121212D01*
X140472493Y-81121212D02*
X140534398Y-81085498D01*
X140534398Y-81085498D02*
X140596303Y-81085498D01*
X140812969Y-81585498D02*
X140812969Y-80835498D01*
X140874874Y-81299784D02*
X141060588Y-81585498D01*
X141060588Y-81085498D02*
X140812969Y-81371212D01*
X141432017Y-81585498D02*
X141370112Y-81549784D01*
X141370112Y-81549784D02*
X141339159Y-81514069D01*
X141339159Y-81514069D02*
X141308207Y-81442641D01*
X141308207Y-81442641D02*
X141308207Y-81228355D01*
X141308207Y-81228355D02*
X141339159Y-81156926D01*
X141339159Y-81156926D02*
X141370112Y-81121212D01*
X141370112Y-81121212D02*
X141432017Y-81085498D01*
X141432017Y-81085498D02*
X141524874Y-81085498D01*
X141524874Y-81085498D02*
X141586778Y-81121212D01*
X141586778Y-81121212D02*
X141617731Y-81156926D01*
X141617731Y-81156926D02*
X141648683Y-81228355D01*
X141648683Y-81228355D02*
X141648683Y-81442641D01*
X141648683Y-81442641D02*
X141617731Y-81514069D01*
X141617731Y-81514069D02*
X141586778Y-81549784D01*
X141586778Y-81549784D02*
X141524874Y-81585498D01*
X141524874Y-81585498D02*
X141432017Y-81585498D01*
X141896302Y-81549784D02*
X141958207Y-81585498D01*
X141958207Y-81585498D02*
X142082016Y-81585498D01*
X142082016Y-81585498D02*
X142143921Y-81549784D01*
X142143921Y-81549784D02*
X142174873Y-81478355D01*
X142174873Y-81478355D02*
X142174873Y-81442641D01*
X142174873Y-81442641D02*
X142143921Y-81371212D01*
X142143921Y-81371212D02*
X142082016Y-81335498D01*
X142082016Y-81335498D02*
X141989159Y-81335498D01*
X141989159Y-81335498D02*
X141927254Y-81299784D01*
X141927254Y-81299784D02*
X141896302Y-81228355D01*
X141896302Y-81228355D02*
X141896302Y-81192641D01*
X141896302Y-81192641D02*
X141927254Y-81121212D01*
X141927254Y-81121212D02*
X141989159Y-81085498D01*
X141989159Y-81085498D02*
X142082016Y-81085498D01*
X142082016Y-81085498D02*
X142143921Y-81121212D01*
X142948682Y-81192641D02*
X143165349Y-81192641D01*
X143258206Y-81585498D02*
X142948682Y-81585498D01*
X142948682Y-81585498D02*
X142948682Y-80835498D01*
X142948682Y-80835498D02*
X143258206Y-80835498D01*
X143536777Y-81085498D02*
X143536777Y-81585498D01*
X143536777Y-81156926D02*
X143567730Y-81121212D01*
X143567730Y-81121212D02*
X143629635Y-81085498D01*
X143629635Y-81085498D02*
X143722492Y-81085498D01*
X143722492Y-81085498D02*
X143784396Y-81121212D01*
X143784396Y-81121212D02*
X143815349Y-81192641D01*
X143815349Y-81192641D02*
X143815349Y-81585498D01*
X144403444Y-81085498D02*
X144403444Y-81692641D01*
X144403444Y-81692641D02*
X144372491Y-81764069D01*
X144372491Y-81764069D02*
X144341539Y-81799784D01*
X144341539Y-81799784D02*
X144279634Y-81835498D01*
X144279634Y-81835498D02*
X144186777Y-81835498D01*
X144186777Y-81835498D02*
X144124872Y-81799784D01*
X144403444Y-81549784D02*
X144341539Y-81585498D01*
X144341539Y-81585498D02*
X144217730Y-81585498D01*
X144217730Y-81585498D02*
X144155825Y-81549784D01*
X144155825Y-81549784D02*
X144124872Y-81514069D01*
X144124872Y-81514069D02*
X144093920Y-81442641D01*
X144093920Y-81442641D02*
X144093920Y-81228355D01*
X144093920Y-81228355D02*
X144124872Y-81156926D01*
X144124872Y-81156926D02*
X144155825Y-81121212D01*
X144155825Y-81121212D02*
X144217730Y-81085498D01*
X144217730Y-81085498D02*
X144341539Y-81085498D01*
X144341539Y-81085498D02*
X144403444Y-81121212D01*
X144712967Y-81585498D02*
X144712967Y-81085498D01*
X144712967Y-80835498D02*
X144682015Y-80871212D01*
X144682015Y-80871212D02*
X144712967Y-80906926D01*
X144712967Y-80906926D02*
X144743920Y-80871212D01*
X144743920Y-80871212D02*
X144712967Y-80835498D01*
X144712967Y-80835498D02*
X144712967Y-80906926D01*
X145022491Y-81085498D02*
X145022491Y-81585498D01*
X145022491Y-81156926D02*
X145053444Y-81121212D01*
X145053444Y-81121212D02*
X145115349Y-81085498D01*
X145115349Y-81085498D02*
X145208206Y-81085498D01*
X145208206Y-81085498D02*
X145270110Y-81121212D01*
X145270110Y-81121212D02*
X145301063Y-81192641D01*
X145301063Y-81192641D02*
X145301063Y-81585498D01*
X145858205Y-81549784D02*
X145796301Y-81585498D01*
X145796301Y-81585498D02*
X145672491Y-81585498D01*
X145672491Y-81585498D02*
X145610586Y-81549784D01*
X145610586Y-81549784D02*
X145579634Y-81478355D01*
X145579634Y-81478355D02*
X145579634Y-81192641D01*
X145579634Y-81192641D02*
X145610586Y-81121212D01*
X145610586Y-81121212D02*
X145672491Y-81085498D01*
X145672491Y-81085498D02*
X145796301Y-81085498D01*
X145796301Y-81085498D02*
X145858205Y-81121212D01*
X145858205Y-81121212D02*
X145889158Y-81192641D01*
X145889158Y-81192641D02*
X145889158Y-81264069D01*
X145889158Y-81264069D02*
X145579634Y-81335498D01*
X146415348Y-81549784D02*
X146353444Y-81585498D01*
X146353444Y-81585498D02*
X146229634Y-81585498D01*
X146229634Y-81585498D02*
X146167729Y-81549784D01*
X146167729Y-81549784D02*
X146136777Y-81478355D01*
X146136777Y-81478355D02*
X146136777Y-81192641D01*
X146136777Y-81192641D02*
X146167729Y-81121212D01*
X146167729Y-81121212D02*
X146229634Y-81085498D01*
X146229634Y-81085498D02*
X146353444Y-81085498D01*
X146353444Y-81085498D02*
X146415348Y-81121212D01*
X146415348Y-81121212D02*
X146446301Y-81192641D01*
X146446301Y-81192641D02*
X146446301Y-81264069D01*
X146446301Y-81264069D02*
X146136777Y-81335498D01*
X146724872Y-81585498D02*
X146724872Y-81085498D01*
X146724872Y-81228355D02*
X146755825Y-81156926D01*
X146755825Y-81156926D02*
X146786777Y-81121212D01*
X146786777Y-81121212D02*
X146848682Y-81085498D01*
X146848682Y-81085498D02*
X146910587Y-81085498D01*
X147127253Y-81585498D02*
X147127253Y-81085498D01*
X147127253Y-80835498D02*
X147096301Y-80871212D01*
X147096301Y-80871212D02*
X147127253Y-80906926D01*
X147127253Y-80906926D02*
X147158206Y-80871212D01*
X147158206Y-80871212D02*
X147127253Y-80835498D01*
X147127253Y-80835498D02*
X147127253Y-80906926D01*
X147436777Y-81085498D02*
X147436777Y-81585498D01*
X147436777Y-81156926D02*
X147467730Y-81121212D01*
X147467730Y-81121212D02*
X147529635Y-81085498D01*
X147529635Y-81085498D02*
X147622492Y-81085498D01*
X147622492Y-81085498D02*
X147684396Y-81121212D01*
X147684396Y-81121212D02*
X147715349Y-81192641D01*
X147715349Y-81192641D02*
X147715349Y-81585498D01*
X148303444Y-81085498D02*
X148303444Y-81692641D01*
X148303444Y-81692641D02*
X148272491Y-81764069D01*
X148272491Y-81764069D02*
X148241539Y-81799784D01*
X148241539Y-81799784D02*
X148179634Y-81835498D01*
X148179634Y-81835498D02*
X148086777Y-81835498D01*
X148086777Y-81835498D02*
X148024872Y-81799784D01*
X148303444Y-81549784D02*
X148241539Y-81585498D01*
X148241539Y-81585498D02*
X148117730Y-81585498D01*
X148117730Y-81585498D02*
X148055825Y-81549784D01*
X148055825Y-81549784D02*
X148024872Y-81514069D01*
X148024872Y-81514069D02*
X147993920Y-81442641D01*
X147993920Y-81442641D02*
X147993920Y-81228355D01*
X147993920Y-81228355D02*
X148024872Y-81156926D01*
X148024872Y-81156926D02*
X148055825Y-81121212D01*
X148055825Y-81121212D02*
X148117730Y-81085498D01*
X148117730Y-81085498D02*
X148241539Y-81085498D01*
X148241539Y-81085498D02*
X148303444Y-81121212D01*
X139822493Y-82114384D02*
X139853445Y-82078670D01*
X139853445Y-82078670D02*
X139915350Y-82042956D01*
X139915350Y-82042956D02*
X140070112Y-82042956D01*
X140070112Y-82042956D02*
X140132017Y-82078670D01*
X140132017Y-82078670D02*
X140162969Y-82114384D01*
X140162969Y-82114384D02*
X140193922Y-82185813D01*
X140193922Y-82185813D02*
X140193922Y-82257242D01*
X140193922Y-82257242D02*
X140162969Y-82364384D01*
X140162969Y-82364384D02*
X139791541Y-82792956D01*
X139791541Y-82792956D02*
X140193922Y-82792956D01*
X140472493Y-82792956D02*
X140472493Y-82042956D01*
X140472493Y-82042956D02*
X140689160Y-82578670D01*
X140689160Y-82578670D02*
X140905827Y-82042956D01*
X140905827Y-82042956D02*
X140905827Y-82792956D01*
X141153446Y-82042956D02*
X141586779Y-82042956D01*
X141586779Y-82042956D02*
X141308208Y-82792956D01*
X141958208Y-82042956D02*
X142020113Y-82042956D01*
X142020113Y-82042956D02*
X142082017Y-82078670D01*
X142082017Y-82078670D02*
X142112970Y-82114384D01*
X142112970Y-82114384D02*
X142143922Y-82185813D01*
X142143922Y-82185813D02*
X142174875Y-82328670D01*
X142174875Y-82328670D02*
X142174875Y-82507242D01*
X142174875Y-82507242D02*
X142143922Y-82650099D01*
X142143922Y-82650099D02*
X142112970Y-82721527D01*
X142112970Y-82721527D02*
X142082017Y-82757242D01*
X142082017Y-82757242D02*
X142020113Y-82792956D01*
X142020113Y-82792956D02*
X141958208Y-82792956D01*
X141958208Y-82792956D02*
X141896303Y-82757242D01*
X141896303Y-82757242D02*
X141865351Y-82721527D01*
X141865351Y-82721527D02*
X141834398Y-82650099D01*
X141834398Y-82650099D02*
X141803446Y-82507242D01*
X141803446Y-82507242D02*
X141803446Y-82328670D01*
X141803446Y-82328670D02*
X141834398Y-82185813D01*
X141834398Y-82185813D02*
X141865351Y-82114384D01*
X141865351Y-82114384D02*
X141896303Y-82078670D01*
X141896303Y-82078670D02*
X141958208Y-82042956D01*
X142824875Y-82721527D02*
X142793923Y-82757242D01*
X142793923Y-82757242D02*
X142701065Y-82792956D01*
X142701065Y-82792956D02*
X142639161Y-82792956D01*
X142639161Y-82792956D02*
X142546304Y-82757242D01*
X142546304Y-82757242D02*
X142484399Y-82685813D01*
X142484399Y-82685813D02*
X142453446Y-82614384D01*
X142453446Y-82614384D02*
X142422494Y-82471527D01*
X142422494Y-82471527D02*
X142422494Y-82364384D01*
X142422494Y-82364384D02*
X142453446Y-82221527D01*
X142453446Y-82221527D02*
X142484399Y-82150099D01*
X142484399Y-82150099D02*
X142546304Y-82078670D01*
X142546304Y-82078670D02*
X142639161Y-82042956D01*
X142639161Y-82042956D02*
X142701065Y-82042956D01*
X142701065Y-82042956D02*
X142793923Y-82078670D01*
X142793923Y-82078670D02*
X142824875Y-82114384D01*
X143103446Y-82792956D02*
X143103446Y-82042956D01*
X143103446Y-82042956D02*
X143320113Y-82578670D01*
X143320113Y-82578670D02*
X143536780Y-82042956D01*
X143536780Y-82042956D02*
X143536780Y-82792956D01*
X144712970Y-82792956D02*
X144496303Y-82435813D01*
X144341541Y-82792956D02*
X144341541Y-82042956D01*
X144341541Y-82042956D02*
X144589160Y-82042956D01*
X144589160Y-82042956D02*
X144651065Y-82078670D01*
X144651065Y-82078670D02*
X144682018Y-82114384D01*
X144682018Y-82114384D02*
X144712970Y-82185813D01*
X144712970Y-82185813D02*
X144712970Y-82292956D01*
X144712970Y-82292956D02*
X144682018Y-82364384D01*
X144682018Y-82364384D02*
X144651065Y-82400099D01*
X144651065Y-82400099D02*
X144589160Y-82435813D01*
X144589160Y-82435813D02*
X144341541Y-82435813D01*
X145208208Y-82400099D02*
X144991541Y-82400099D01*
X144991541Y-82792956D02*
X144991541Y-82042956D01*
X144991541Y-82042956D02*
X145301065Y-82042956D01*
X146043922Y-82792956D02*
X146043922Y-82042956D01*
X146043922Y-82042956D02*
X146260589Y-82578670D01*
X146260589Y-82578670D02*
X146477256Y-82042956D01*
X146477256Y-82042956D02*
X146477256Y-82792956D01*
X146879637Y-82792956D02*
X146817732Y-82757242D01*
X146817732Y-82757242D02*
X146786779Y-82721527D01*
X146786779Y-82721527D02*
X146755827Y-82650099D01*
X146755827Y-82650099D02*
X146755827Y-82435813D01*
X146755827Y-82435813D02*
X146786779Y-82364384D01*
X146786779Y-82364384D02*
X146817732Y-82328670D01*
X146817732Y-82328670D02*
X146879637Y-82292956D01*
X146879637Y-82292956D02*
X146972494Y-82292956D01*
X146972494Y-82292956D02*
X147034398Y-82328670D01*
X147034398Y-82328670D02*
X147065351Y-82364384D01*
X147065351Y-82364384D02*
X147096303Y-82435813D01*
X147096303Y-82435813D02*
X147096303Y-82650099D01*
X147096303Y-82650099D02*
X147065351Y-82721527D01*
X147065351Y-82721527D02*
X147034398Y-82757242D01*
X147034398Y-82757242D02*
X146972494Y-82792956D01*
X146972494Y-82792956D02*
X146879637Y-82792956D01*
X147653446Y-82792956D02*
X147653446Y-82042956D01*
X147653446Y-82757242D02*
X147591541Y-82792956D01*
X147591541Y-82792956D02*
X147467732Y-82792956D01*
X147467732Y-82792956D02*
X147405827Y-82757242D01*
X147405827Y-82757242D02*
X147374874Y-82721527D01*
X147374874Y-82721527D02*
X147343922Y-82650099D01*
X147343922Y-82650099D02*
X147343922Y-82435813D01*
X147343922Y-82435813D02*
X147374874Y-82364384D01*
X147374874Y-82364384D02*
X147405827Y-82328670D01*
X147405827Y-82328670D02*
X147467732Y-82292956D01*
X147467732Y-82292956D02*
X147591541Y-82292956D01*
X147591541Y-82292956D02*
X147653446Y-82328670D01*
X148241541Y-82292956D02*
X148241541Y-82792956D01*
X147962969Y-82292956D02*
X147962969Y-82685813D01*
X147962969Y-82685813D02*
X147993922Y-82757242D01*
X147993922Y-82757242D02*
X148055827Y-82792956D01*
X148055827Y-82792956D02*
X148148684Y-82792956D01*
X148148684Y-82792956D02*
X148210588Y-82757242D01*
X148210588Y-82757242D02*
X148241541Y-82721527D01*
X148643922Y-82792956D02*
X148582017Y-82757242D01*
X148582017Y-82757242D02*
X148551064Y-82685813D01*
X148551064Y-82685813D02*
X148551064Y-82042956D01*
X149139159Y-82757242D02*
X149077255Y-82792956D01*
X149077255Y-82792956D02*
X148953445Y-82792956D01*
X148953445Y-82792956D02*
X148891540Y-82757242D01*
X148891540Y-82757242D02*
X148860588Y-82685813D01*
X148860588Y-82685813D02*
X148860588Y-82400099D01*
X148860588Y-82400099D02*
X148891540Y-82328670D01*
X148891540Y-82328670D02*
X148953445Y-82292956D01*
X148953445Y-82292956D02*
X149077255Y-82292956D01*
X149077255Y-82292956D02*
X149139159Y-82328670D01*
X149139159Y-82328670D02*
X149170112Y-82400099D01*
X149170112Y-82400099D02*
X149170112Y-82471527D01*
X149170112Y-82471527D02*
X148860588Y-82542956D01*
X140224874Y-84000414D02*
X140008207Y-83643271D01*
X139853445Y-84000414D02*
X139853445Y-83250414D01*
X139853445Y-83250414D02*
X140101064Y-83250414D01*
X140101064Y-83250414D02*
X140162969Y-83286128D01*
X140162969Y-83286128D02*
X140193922Y-83321842D01*
X140193922Y-83321842D02*
X140224874Y-83393271D01*
X140224874Y-83393271D02*
X140224874Y-83500414D01*
X140224874Y-83500414D02*
X140193922Y-83571842D01*
X140193922Y-83571842D02*
X140162969Y-83607557D01*
X140162969Y-83607557D02*
X140101064Y-83643271D01*
X140101064Y-83643271D02*
X139853445Y-83643271D01*
X140751064Y-83964700D02*
X140689160Y-84000414D01*
X140689160Y-84000414D02*
X140565350Y-84000414D01*
X140565350Y-84000414D02*
X140503445Y-83964700D01*
X140503445Y-83964700D02*
X140472493Y-83893271D01*
X140472493Y-83893271D02*
X140472493Y-83607557D01*
X140472493Y-83607557D02*
X140503445Y-83536128D01*
X140503445Y-83536128D02*
X140565350Y-83500414D01*
X140565350Y-83500414D02*
X140689160Y-83500414D01*
X140689160Y-83500414D02*
X140751064Y-83536128D01*
X140751064Y-83536128D02*
X140782017Y-83607557D01*
X140782017Y-83607557D02*
X140782017Y-83678985D01*
X140782017Y-83678985D02*
X140472493Y-83750414D01*
X140998684Y-83500414D02*
X141153446Y-84000414D01*
X141153446Y-84000414D02*
X141308207Y-83500414D01*
X142174874Y-83250414D02*
X142236779Y-83250414D01*
X142236779Y-83250414D02*
X142298683Y-83286128D01*
X142298683Y-83286128D02*
X142329636Y-83321842D01*
X142329636Y-83321842D02*
X142360588Y-83393271D01*
X142360588Y-83393271D02*
X142391541Y-83536128D01*
X142391541Y-83536128D02*
X142391541Y-83714700D01*
X142391541Y-83714700D02*
X142360588Y-83857557D01*
X142360588Y-83857557D02*
X142329636Y-83928985D01*
X142329636Y-83928985D02*
X142298683Y-83964700D01*
X142298683Y-83964700D02*
X142236779Y-84000414D01*
X142236779Y-84000414D02*
X142174874Y-84000414D01*
X142174874Y-84000414D02*
X142112969Y-83964700D01*
X142112969Y-83964700D02*
X142082017Y-83928985D01*
X142082017Y-83928985D02*
X142051064Y-83857557D01*
X142051064Y-83857557D02*
X142020112Y-83714700D01*
X142020112Y-83714700D02*
X142020112Y-83536128D01*
X142020112Y-83536128D02*
X142051064Y-83393271D01*
X142051064Y-83393271D02*
X142082017Y-83321842D01*
X142082017Y-83321842D02*
X142112969Y-83286128D01*
X142112969Y-83286128D02*
X142174874Y-83250414D01*
X142670112Y-83928985D02*
X142701065Y-83964700D01*
X142701065Y-83964700D02*
X142670112Y-84000414D01*
X142670112Y-84000414D02*
X142639160Y-83964700D01*
X142639160Y-83964700D02*
X142670112Y-83928985D01*
X142670112Y-83928985D02*
X142670112Y-84000414D01*
X142917732Y-83250414D02*
X143320113Y-83250414D01*
X143320113Y-83250414D02*
X143103446Y-83536128D01*
X143103446Y-83536128D02*
X143196303Y-83536128D01*
X143196303Y-83536128D02*
X143258208Y-83571842D01*
X143258208Y-83571842D02*
X143289160Y-83607557D01*
X143289160Y-83607557D02*
X143320113Y-83678985D01*
X143320113Y-83678985D02*
X143320113Y-83857557D01*
X143320113Y-83857557D02*
X143289160Y-83928985D01*
X143289160Y-83928985D02*
X143258208Y-83964700D01*
X143258208Y-83964700D02*
X143196303Y-84000414D01*
X143196303Y-84000414D02*
X143010589Y-84000414D01*
X143010589Y-84000414D02*
X142948684Y-83964700D01*
X142948684Y-83964700D02*
X142917732Y-83928985D01*
X144093922Y-84000414D02*
X144093922Y-83250414D01*
X144093922Y-83250414D02*
X144248684Y-83250414D01*
X144248684Y-83250414D02*
X144341541Y-83286128D01*
X144341541Y-83286128D02*
X144403446Y-83357557D01*
X144403446Y-83357557D02*
X144434399Y-83428985D01*
X144434399Y-83428985D02*
X144465351Y-83571842D01*
X144465351Y-83571842D02*
X144465351Y-83678985D01*
X144465351Y-83678985D02*
X144434399Y-83821842D01*
X144434399Y-83821842D02*
X144403446Y-83893271D01*
X144403446Y-83893271D02*
X144341541Y-83964700D01*
X144341541Y-83964700D02*
X144248684Y-84000414D01*
X144248684Y-84000414D02*
X144093922Y-84000414D01*
X144991541Y-83964700D02*
X144929637Y-84000414D01*
X144929637Y-84000414D02*
X144805827Y-84000414D01*
X144805827Y-84000414D02*
X144743922Y-83964700D01*
X144743922Y-83964700D02*
X144712970Y-83893271D01*
X144712970Y-83893271D02*
X144712970Y-83607557D01*
X144712970Y-83607557D02*
X144743922Y-83536128D01*
X144743922Y-83536128D02*
X144805827Y-83500414D01*
X144805827Y-83500414D02*
X144929637Y-83500414D01*
X144929637Y-83500414D02*
X144991541Y-83536128D01*
X144991541Y-83536128D02*
X145022494Y-83607557D01*
X145022494Y-83607557D02*
X145022494Y-83678985D01*
X145022494Y-83678985D02*
X144712970Y-83750414D01*
X145270113Y-83964700D02*
X145332018Y-84000414D01*
X145332018Y-84000414D02*
X145455827Y-84000414D01*
X145455827Y-84000414D02*
X145517732Y-83964700D01*
X145517732Y-83964700D02*
X145548684Y-83893271D01*
X145548684Y-83893271D02*
X145548684Y-83857557D01*
X145548684Y-83857557D02*
X145517732Y-83786128D01*
X145517732Y-83786128D02*
X145455827Y-83750414D01*
X145455827Y-83750414D02*
X145362970Y-83750414D01*
X145362970Y-83750414D02*
X145301065Y-83714700D01*
X145301065Y-83714700D02*
X145270113Y-83643271D01*
X145270113Y-83643271D02*
X145270113Y-83607557D01*
X145270113Y-83607557D02*
X145301065Y-83536128D01*
X145301065Y-83536128D02*
X145362970Y-83500414D01*
X145362970Y-83500414D02*
X145455827Y-83500414D01*
X145455827Y-83500414D02*
X145517732Y-83536128D01*
X145827255Y-84000414D02*
X145827255Y-83500414D01*
X145827255Y-83250414D02*
X145796303Y-83286128D01*
X145796303Y-83286128D02*
X145827255Y-83321842D01*
X145827255Y-83321842D02*
X145858208Y-83286128D01*
X145858208Y-83286128D02*
X145827255Y-83250414D01*
X145827255Y-83250414D02*
X145827255Y-83321842D01*
X146415351Y-83500414D02*
X146415351Y-84107557D01*
X146415351Y-84107557D02*
X146384398Y-84178985D01*
X146384398Y-84178985D02*
X146353446Y-84214700D01*
X146353446Y-84214700D02*
X146291541Y-84250414D01*
X146291541Y-84250414D02*
X146198684Y-84250414D01*
X146198684Y-84250414D02*
X146136779Y-84214700D01*
X146415351Y-83964700D02*
X146353446Y-84000414D01*
X146353446Y-84000414D02*
X146229637Y-84000414D01*
X146229637Y-84000414D02*
X146167732Y-83964700D01*
X146167732Y-83964700D02*
X146136779Y-83928985D01*
X146136779Y-83928985D02*
X146105827Y-83857557D01*
X146105827Y-83857557D02*
X146105827Y-83643271D01*
X146105827Y-83643271D02*
X146136779Y-83571842D01*
X146136779Y-83571842D02*
X146167732Y-83536128D01*
X146167732Y-83536128D02*
X146229637Y-83500414D01*
X146229637Y-83500414D02*
X146353446Y-83500414D01*
X146353446Y-83500414D02*
X146415351Y-83536128D01*
X146724874Y-83500414D02*
X146724874Y-84000414D01*
X146724874Y-83571842D02*
X146755827Y-83536128D01*
X146755827Y-83536128D02*
X146817732Y-83500414D01*
X146817732Y-83500414D02*
X146910589Y-83500414D01*
X146910589Y-83500414D02*
X146972493Y-83536128D01*
X146972493Y-83536128D02*
X147003446Y-83607557D01*
X147003446Y-83607557D02*
X147003446Y-84000414D01*
X147560588Y-83964700D02*
X147498684Y-84000414D01*
X147498684Y-84000414D02*
X147374874Y-84000414D01*
X147374874Y-84000414D02*
X147312969Y-83964700D01*
X147312969Y-83964700D02*
X147282017Y-83893271D01*
X147282017Y-83893271D02*
X147282017Y-83607557D01*
X147282017Y-83607557D02*
X147312969Y-83536128D01*
X147312969Y-83536128D02*
X147374874Y-83500414D01*
X147374874Y-83500414D02*
X147498684Y-83500414D01*
X147498684Y-83500414D02*
X147560588Y-83536128D01*
X147560588Y-83536128D02*
X147591541Y-83607557D01*
X147591541Y-83607557D02*
X147591541Y-83678985D01*
X147591541Y-83678985D02*
X147282017Y-83750414D01*
X148148684Y-84000414D02*
X148148684Y-83250414D01*
X148148684Y-83964700D02*
X148086779Y-84000414D01*
X148086779Y-84000414D02*
X147962970Y-84000414D01*
X147962970Y-84000414D02*
X147901065Y-83964700D01*
X147901065Y-83964700D02*
X147870112Y-83928985D01*
X147870112Y-83928985D02*
X147839160Y-83857557D01*
X147839160Y-83857557D02*
X147839160Y-83643271D01*
X147839160Y-83643271D02*
X147870112Y-83571842D01*
X147870112Y-83571842D02*
X147901065Y-83536128D01*
X147901065Y-83536128D02*
X147962970Y-83500414D01*
X147962970Y-83500414D02*
X148086779Y-83500414D01*
X148086779Y-83500414D02*
X148148684Y-83536128D01*
X148953445Y-84000414D02*
X148953445Y-83500414D01*
X148953445Y-83250414D02*
X148922493Y-83286128D01*
X148922493Y-83286128D02*
X148953445Y-83321842D01*
X148953445Y-83321842D02*
X148984398Y-83286128D01*
X148984398Y-83286128D02*
X148953445Y-83250414D01*
X148953445Y-83250414D02*
X148953445Y-83321842D01*
X149262969Y-83500414D02*
X149262969Y-84000414D01*
X149262969Y-83571842D02*
X149293922Y-83536128D01*
X149293922Y-83536128D02*
X149355827Y-83500414D01*
X149355827Y-83500414D02*
X149448684Y-83500414D01*
X149448684Y-83500414D02*
X149510588Y-83536128D01*
X149510588Y-83536128D02*
X149541541Y-83607557D01*
X149541541Y-83607557D02*
X149541541Y-84000414D01*
X150346302Y-83250414D02*
X150346302Y-83857557D01*
X150346302Y-83857557D02*
X150377255Y-83928985D01*
X150377255Y-83928985D02*
X150408207Y-83964700D01*
X150408207Y-83964700D02*
X150470112Y-84000414D01*
X150470112Y-84000414D02*
X150593921Y-84000414D01*
X150593921Y-84000414D02*
X150655826Y-83964700D01*
X150655826Y-83964700D02*
X150686779Y-83928985D01*
X150686779Y-83928985D02*
X150717731Y-83857557D01*
X150717731Y-83857557D02*
X150717731Y-83250414D01*
X150996302Y-83964700D02*
X151089159Y-84000414D01*
X151089159Y-84000414D02*
X151243921Y-84000414D01*
X151243921Y-84000414D02*
X151305826Y-83964700D01*
X151305826Y-83964700D02*
X151336778Y-83928985D01*
X151336778Y-83928985D02*
X151367731Y-83857557D01*
X151367731Y-83857557D02*
X151367731Y-83786128D01*
X151367731Y-83786128D02*
X151336778Y-83714700D01*
X151336778Y-83714700D02*
X151305826Y-83678985D01*
X151305826Y-83678985D02*
X151243921Y-83643271D01*
X151243921Y-83643271D02*
X151120112Y-83607557D01*
X151120112Y-83607557D02*
X151058207Y-83571842D01*
X151058207Y-83571842D02*
X151027254Y-83536128D01*
X151027254Y-83536128D02*
X150996302Y-83464700D01*
X150996302Y-83464700D02*
X150996302Y-83393271D01*
X150996302Y-83393271D02*
X151027254Y-83321842D01*
X151027254Y-83321842D02*
X151058207Y-83286128D01*
X151058207Y-83286128D02*
X151120112Y-83250414D01*
X151120112Y-83250414D02*
X151274873Y-83250414D01*
X151274873Y-83250414D02*
X151367731Y-83286128D01*
X151615350Y-83786128D02*
X151924874Y-83786128D01*
X151553445Y-84000414D02*
X151770112Y-83250414D01*
X151770112Y-83250414D02*
X151986779Y-84000414D01*
X156357142Y-101359580D02*
X156309523Y-101407200D01*
X156309523Y-101407200D02*
X156166666Y-101454819D01*
X156166666Y-101454819D02*
X156071428Y-101454819D01*
X156071428Y-101454819D02*
X155928571Y-101407200D01*
X155928571Y-101407200D02*
X155833333Y-101311961D01*
X155833333Y-101311961D02*
X155785714Y-101216723D01*
X155785714Y-101216723D02*
X155738095Y-101026247D01*
X155738095Y-101026247D02*
X155738095Y-100883390D01*
X155738095Y-100883390D02*
X155785714Y-100692914D01*
X155785714Y-100692914D02*
X155833333Y-100597676D01*
X155833333Y-100597676D02*
X155928571Y-100502438D01*
X155928571Y-100502438D02*
X156071428Y-100454819D01*
X156071428Y-100454819D02*
X156166666Y-100454819D01*
X156166666Y-100454819D02*
X156309523Y-100502438D01*
X156309523Y-100502438D02*
X156357142Y-100550057D01*
X157261904Y-100454819D02*
X156785714Y-100454819D01*
X156785714Y-100454819D02*
X156738095Y-100931009D01*
X156738095Y-100931009D02*
X156785714Y-100883390D01*
X156785714Y-100883390D02*
X156880952Y-100835771D01*
X156880952Y-100835771D02*
X157119047Y-100835771D01*
X157119047Y-100835771D02*
X157214285Y-100883390D01*
X157214285Y-100883390D02*
X157261904Y-100931009D01*
X157261904Y-100931009D02*
X157309523Y-101026247D01*
X157309523Y-101026247D02*
X157309523Y-101264342D01*
X157309523Y-101264342D02*
X157261904Y-101359580D01*
X157261904Y-101359580D02*
X157214285Y-101407200D01*
X157214285Y-101407200D02*
X157119047Y-101454819D01*
X157119047Y-101454819D02*
X156880952Y-101454819D01*
X156880952Y-101454819D02*
X156785714Y-101407200D01*
X156785714Y-101407200D02*
X156738095Y-101359580D01*
X158166666Y-100788152D02*
X158166666Y-101454819D01*
X157928571Y-100407200D02*
X157690476Y-101121485D01*
X157690476Y-101121485D02*
X158309523Y-101121485D01*
X144603333Y-99454819D02*
X144127143Y-99454819D01*
X144127143Y-99454819D02*
X144127143Y-98454819D01*
X144841429Y-98454819D02*
X145460476Y-98454819D01*
X145460476Y-98454819D02*
X145127143Y-98835771D01*
X145127143Y-98835771D02*
X145270000Y-98835771D01*
X145270000Y-98835771D02*
X145365238Y-98883390D01*
X145365238Y-98883390D02*
X145412857Y-98931009D01*
X145412857Y-98931009D02*
X145460476Y-99026247D01*
X145460476Y-99026247D02*
X145460476Y-99264342D01*
X145460476Y-99264342D02*
X145412857Y-99359580D01*
X145412857Y-99359580D02*
X145365238Y-99407200D01*
X145365238Y-99407200D02*
X145270000Y-99454819D01*
X145270000Y-99454819D02*
X144984286Y-99454819D01*
X144984286Y-99454819D02*
X144889048Y-99407200D01*
X144889048Y-99407200D02*
X144841429Y-99359580D01*
X149854819Y-114038094D02*
X149854819Y-113466666D01*
X150854819Y-113752380D02*
X149854819Y-113752380D01*
X150854819Y-113133332D02*
X149854819Y-113133332D01*
X149854819Y-113133332D02*
X149854819Y-112752380D01*
X149854819Y-112752380D02*
X149902438Y-112657142D01*
X149902438Y-112657142D02*
X149950057Y-112609523D01*
X149950057Y-112609523D02*
X150045295Y-112561904D01*
X150045295Y-112561904D02*
X150188152Y-112561904D01*
X150188152Y-112561904D02*
X150283390Y-112609523D01*
X150283390Y-112609523D02*
X150331009Y-112657142D01*
X150331009Y-112657142D02*
X150378628Y-112752380D01*
X150378628Y-112752380D02*
X150378628Y-113133332D01*
X150854819Y-111609523D02*
X150854819Y-112180951D01*
X150854819Y-111895237D02*
X149854819Y-111895237D01*
X149854819Y-111895237D02*
X149997676Y-111990475D01*
X149997676Y-111990475D02*
X150092914Y-112085713D01*
X150092914Y-112085713D02*
X150140533Y-112180951D01*
X149854819Y-110752380D02*
X149854819Y-110942856D01*
X149854819Y-110942856D02*
X149902438Y-111038094D01*
X149902438Y-111038094D02*
X149950057Y-111085713D01*
X149950057Y-111085713D02*
X150092914Y-111180951D01*
X150092914Y-111180951D02*
X150283390Y-111228570D01*
X150283390Y-111228570D02*
X150664342Y-111228570D01*
X150664342Y-111228570D02*
X150759580Y-111180951D01*
X150759580Y-111180951D02*
X150807200Y-111133332D01*
X150807200Y-111133332D02*
X150854819Y-111038094D01*
X150854819Y-111038094D02*
X150854819Y-110847618D01*
X150854819Y-110847618D02*
X150807200Y-110752380D01*
X150807200Y-110752380D02*
X150759580Y-110704761D01*
X150759580Y-110704761D02*
X150664342Y-110657142D01*
X150664342Y-110657142D02*
X150426247Y-110657142D01*
X150426247Y-110657142D02*
X150331009Y-110704761D01*
X150331009Y-110704761D02*
X150283390Y-110752380D01*
X150283390Y-110752380D02*
X150235771Y-110847618D01*
X150235771Y-110847618D02*
X150235771Y-111038094D01*
X150235771Y-111038094D02*
X150283390Y-111133332D01*
X150283390Y-111133332D02*
X150331009Y-111180951D01*
X150331009Y-111180951D02*
X150426247Y-111228570D01*
X161617142Y-94944580D02*
X161569523Y-94992200D01*
X161569523Y-94992200D02*
X161426666Y-95039819D01*
X161426666Y-95039819D02*
X161331428Y-95039819D01*
X161331428Y-95039819D02*
X161188571Y-94992200D01*
X161188571Y-94992200D02*
X161093333Y-94896961D01*
X161093333Y-94896961D02*
X161045714Y-94801723D01*
X161045714Y-94801723D02*
X160998095Y-94611247D01*
X160998095Y-94611247D02*
X160998095Y-94468390D01*
X160998095Y-94468390D02*
X161045714Y-94277914D01*
X161045714Y-94277914D02*
X161093333Y-94182676D01*
X161093333Y-94182676D02*
X161188571Y-94087438D01*
X161188571Y-94087438D02*
X161331428Y-94039819D01*
X161331428Y-94039819D02*
X161426666Y-94039819D01*
X161426666Y-94039819D02*
X161569523Y-94087438D01*
X161569523Y-94087438D02*
X161617142Y-94135057D01*
X162474285Y-94373152D02*
X162474285Y-95039819D01*
X162236190Y-93992200D02*
X161998095Y-94706485D01*
X161998095Y-94706485D02*
X162617142Y-94706485D01*
X162902857Y-94039819D02*
X163569523Y-94039819D01*
X163569523Y-94039819D02*
X163140952Y-95039819D01*
X157457142Y-89959580D02*
X157409523Y-90007200D01*
X157409523Y-90007200D02*
X157266666Y-90054819D01*
X157266666Y-90054819D02*
X157171428Y-90054819D01*
X157171428Y-90054819D02*
X157028571Y-90007200D01*
X157028571Y-90007200D02*
X156933333Y-89911961D01*
X156933333Y-89911961D02*
X156885714Y-89816723D01*
X156885714Y-89816723D02*
X156838095Y-89626247D01*
X156838095Y-89626247D02*
X156838095Y-89483390D01*
X156838095Y-89483390D02*
X156885714Y-89292914D01*
X156885714Y-89292914D02*
X156933333Y-89197676D01*
X156933333Y-89197676D02*
X157028571Y-89102438D01*
X157028571Y-89102438D02*
X157171428Y-89054819D01*
X157171428Y-89054819D02*
X157266666Y-89054819D01*
X157266666Y-89054819D02*
X157409523Y-89102438D01*
X157409523Y-89102438D02*
X157457142Y-89150057D01*
X158314285Y-89388152D02*
X158314285Y-90054819D01*
X158076190Y-89007200D02*
X157838095Y-89721485D01*
X157838095Y-89721485D02*
X158457142Y-89721485D01*
X159314285Y-89054819D02*
X158838095Y-89054819D01*
X158838095Y-89054819D02*
X158790476Y-89531009D01*
X158790476Y-89531009D02*
X158838095Y-89483390D01*
X158838095Y-89483390D02*
X158933333Y-89435771D01*
X158933333Y-89435771D02*
X159171428Y-89435771D01*
X159171428Y-89435771D02*
X159266666Y-89483390D01*
X159266666Y-89483390D02*
X159314285Y-89531009D01*
X159314285Y-89531009D02*
X159361904Y-89626247D01*
X159361904Y-89626247D02*
X159361904Y-89864342D01*
X159361904Y-89864342D02*
X159314285Y-89959580D01*
X159314285Y-89959580D02*
X159266666Y-90007200D01*
X159266666Y-90007200D02*
X159171428Y-90054819D01*
X159171428Y-90054819D02*
X158933333Y-90054819D01*
X158933333Y-90054819D02*
X158838095Y-90007200D01*
X158838095Y-90007200D02*
X158790476Y-89959580D01*
X146238095Y-104954819D02*
X146809523Y-104954819D01*
X146523809Y-105954819D02*
X146523809Y-104954819D01*
X147142857Y-105954819D02*
X147142857Y-104954819D01*
X147142857Y-104954819D02*
X147523809Y-104954819D01*
X147523809Y-104954819D02*
X147619047Y-105002438D01*
X147619047Y-105002438D02*
X147666666Y-105050057D01*
X147666666Y-105050057D02*
X147714285Y-105145295D01*
X147714285Y-105145295D02*
X147714285Y-105288152D01*
X147714285Y-105288152D02*
X147666666Y-105383390D01*
X147666666Y-105383390D02*
X147619047Y-105431009D01*
X147619047Y-105431009D02*
X147523809Y-105478628D01*
X147523809Y-105478628D02*
X147142857Y-105478628D01*
X148047619Y-104954819D02*
X148714285Y-104954819D01*
X148714285Y-104954819D02*
X148285714Y-105954819D01*
X161597142Y-96194580D02*
X161549523Y-96242200D01*
X161549523Y-96242200D02*
X161406666Y-96289819D01*
X161406666Y-96289819D02*
X161311428Y-96289819D01*
X161311428Y-96289819D02*
X161168571Y-96242200D01*
X161168571Y-96242200D02*
X161073333Y-96146961D01*
X161073333Y-96146961D02*
X161025714Y-96051723D01*
X161025714Y-96051723D02*
X160978095Y-95861247D01*
X160978095Y-95861247D02*
X160978095Y-95718390D01*
X160978095Y-95718390D02*
X161025714Y-95527914D01*
X161025714Y-95527914D02*
X161073333Y-95432676D01*
X161073333Y-95432676D02*
X161168571Y-95337438D01*
X161168571Y-95337438D02*
X161311428Y-95289819D01*
X161311428Y-95289819D02*
X161406666Y-95289819D01*
X161406666Y-95289819D02*
X161549523Y-95337438D01*
X161549523Y-95337438D02*
X161597142Y-95385057D01*
X162454285Y-95623152D02*
X162454285Y-96289819D01*
X162216190Y-95242200D02*
X161978095Y-95956485D01*
X161978095Y-95956485D02*
X162597142Y-95956485D01*
X163025714Y-96289819D02*
X163216190Y-96289819D01*
X163216190Y-96289819D02*
X163311428Y-96242200D01*
X163311428Y-96242200D02*
X163359047Y-96194580D01*
X163359047Y-96194580D02*
X163454285Y-96051723D01*
X163454285Y-96051723D02*
X163501904Y-95861247D01*
X163501904Y-95861247D02*
X163501904Y-95480295D01*
X163501904Y-95480295D02*
X163454285Y-95385057D01*
X163454285Y-95385057D02*
X163406666Y-95337438D01*
X163406666Y-95337438D02*
X163311428Y-95289819D01*
X163311428Y-95289819D02*
X163120952Y-95289819D01*
X163120952Y-95289819D02*
X163025714Y-95337438D01*
X163025714Y-95337438D02*
X162978095Y-95385057D01*
X162978095Y-95385057D02*
X162930476Y-95480295D01*
X162930476Y-95480295D02*
X162930476Y-95718390D01*
X162930476Y-95718390D02*
X162978095Y-95813628D01*
X162978095Y-95813628D02*
X163025714Y-95861247D01*
X163025714Y-95861247D02*
X163120952Y-95908866D01*
X163120952Y-95908866D02*
X163311428Y-95908866D01*
X163311428Y-95908866D02*
X163406666Y-95861247D01*
X163406666Y-95861247D02*
X163454285Y-95813628D01*
X163454285Y-95813628D02*
X163501904Y-95718390D01*
X144894580Y-97392857D02*
X144942200Y-97440476D01*
X144942200Y-97440476D02*
X144989819Y-97583333D01*
X144989819Y-97583333D02*
X144989819Y-97678571D01*
X144989819Y-97678571D02*
X144942200Y-97821428D01*
X144942200Y-97821428D02*
X144846961Y-97916666D01*
X144846961Y-97916666D02*
X144751723Y-97964285D01*
X144751723Y-97964285D02*
X144561247Y-98011904D01*
X144561247Y-98011904D02*
X144418390Y-98011904D01*
X144418390Y-98011904D02*
X144227914Y-97964285D01*
X144227914Y-97964285D02*
X144132676Y-97916666D01*
X144132676Y-97916666D02*
X144037438Y-97821428D01*
X144037438Y-97821428D02*
X143989819Y-97678571D01*
X143989819Y-97678571D02*
X143989819Y-97583333D01*
X143989819Y-97583333D02*
X144037438Y-97440476D01*
X144037438Y-97440476D02*
X144085057Y-97392857D01*
X144323152Y-96535714D02*
X144989819Y-96535714D01*
X143942200Y-96773809D02*
X144656485Y-97011904D01*
X144656485Y-97011904D02*
X144656485Y-96392857D01*
X144989819Y-95488095D02*
X144989819Y-96059523D01*
X144989819Y-95773809D02*
X143989819Y-95773809D01*
X143989819Y-95773809D02*
X144132676Y-95869047D01*
X144132676Y-95869047D02*
X144227914Y-95964285D01*
X144227914Y-95964285D02*
X144275533Y-96059523D01*
X147454819Y-94842857D02*
X146978628Y-95176190D01*
X147454819Y-95414285D02*
X146454819Y-95414285D01*
X146454819Y-95414285D02*
X146454819Y-95033333D01*
X146454819Y-95033333D02*
X146502438Y-94938095D01*
X146502438Y-94938095D02*
X146550057Y-94890476D01*
X146550057Y-94890476D02*
X146645295Y-94842857D01*
X146645295Y-94842857D02*
X146788152Y-94842857D01*
X146788152Y-94842857D02*
X146883390Y-94890476D01*
X146883390Y-94890476D02*
X146931009Y-94938095D01*
X146931009Y-94938095D02*
X146978628Y-95033333D01*
X146978628Y-95033333D02*
X146978628Y-95414285D01*
X147454819Y-93890476D02*
X147454819Y-94461904D01*
X147454819Y-94176190D02*
X146454819Y-94176190D01*
X146454819Y-94176190D02*
X146597676Y-94271428D01*
X146597676Y-94271428D02*
X146692914Y-94366666D01*
X146692914Y-94366666D02*
X146740533Y-94461904D01*
X146550057Y-93509523D02*
X146502438Y-93461904D01*
X146502438Y-93461904D02*
X146454819Y-93366666D01*
X146454819Y-93366666D02*
X146454819Y-93128571D01*
X146454819Y-93128571D02*
X146502438Y-93033333D01*
X146502438Y-93033333D02*
X146550057Y-92985714D01*
X146550057Y-92985714D02*
X146645295Y-92938095D01*
X146645295Y-92938095D02*
X146740533Y-92938095D01*
X146740533Y-92938095D02*
X146883390Y-92985714D01*
X146883390Y-92985714D02*
X147454819Y-93557142D01*
X147454819Y-93557142D02*
X147454819Y-92938095D01*
X149157142Y-95359580D02*
X149109523Y-95407200D01*
X149109523Y-95407200D02*
X148966666Y-95454819D01*
X148966666Y-95454819D02*
X148871428Y-95454819D01*
X148871428Y-95454819D02*
X148728571Y-95407200D01*
X148728571Y-95407200D02*
X148633333Y-95311961D01*
X148633333Y-95311961D02*
X148585714Y-95216723D01*
X148585714Y-95216723D02*
X148538095Y-95026247D01*
X148538095Y-95026247D02*
X148538095Y-94883390D01*
X148538095Y-94883390D02*
X148585714Y-94692914D01*
X148585714Y-94692914D02*
X148633333Y-94597676D01*
X148633333Y-94597676D02*
X148728571Y-94502438D01*
X148728571Y-94502438D02*
X148871428Y-94454819D01*
X148871428Y-94454819D02*
X148966666Y-94454819D01*
X148966666Y-94454819D02*
X149109523Y-94502438D01*
X149109523Y-94502438D02*
X149157142Y-94550057D01*
X150014285Y-94788152D02*
X150014285Y-95454819D01*
X149776190Y-94407200D02*
X149538095Y-95121485D01*
X149538095Y-95121485D02*
X150157142Y-95121485D01*
X150966666Y-94788152D02*
X150966666Y-95454819D01*
X150728571Y-94407200D02*
X150490476Y-95121485D01*
X150490476Y-95121485D02*
X151109523Y-95121485D01*
X152454819Y-93242857D02*
X151978628Y-93576190D01*
X152454819Y-93814285D02*
X151454819Y-93814285D01*
X151454819Y-93814285D02*
X151454819Y-93433333D01*
X151454819Y-93433333D02*
X151502438Y-93338095D01*
X151502438Y-93338095D02*
X151550057Y-93290476D01*
X151550057Y-93290476D02*
X151645295Y-93242857D01*
X151645295Y-93242857D02*
X151788152Y-93242857D01*
X151788152Y-93242857D02*
X151883390Y-93290476D01*
X151883390Y-93290476D02*
X151931009Y-93338095D01*
X151931009Y-93338095D02*
X151978628Y-93433333D01*
X151978628Y-93433333D02*
X151978628Y-93814285D01*
X151550057Y-92861904D02*
X151502438Y-92814285D01*
X151502438Y-92814285D02*
X151454819Y-92719047D01*
X151454819Y-92719047D02*
X151454819Y-92480952D01*
X151454819Y-92480952D02*
X151502438Y-92385714D01*
X151502438Y-92385714D02*
X151550057Y-92338095D01*
X151550057Y-92338095D02*
X151645295Y-92290476D01*
X151645295Y-92290476D02*
X151740533Y-92290476D01*
X151740533Y-92290476D02*
X151883390Y-92338095D01*
X151883390Y-92338095D02*
X152454819Y-92909523D01*
X152454819Y-92909523D02*
X152454819Y-92290476D01*
X152454819Y-91814285D02*
X152454819Y-91623809D01*
X152454819Y-91623809D02*
X152407200Y-91528571D01*
X152407200Y-91528571D02*
X152359580Y-91480952D01*
X152359580Y-91480952D02*
X152216723Y-91385714D01*
X152216723Y-91385714D02*
X152026247Y-91338095D01*
X152026247Y-91338095D02*
X151645295Y-91338095D01*
X151645295Y-91338095D02*
X151550057Y-91385714D01*
X151550057Y-91385714D02*
X151502438Y-91433333D01*
X151502438Y-91433333D02*
X151454819Y-91528571D01*
X151454819Y-91528571D02*
X151454819Y-91719047D01*
X151454819Y-91719047D02*
X151502438Y-91814285D01*
X151502438Y-91814285D02*
X151550057Y-91861904D01*
X151550057Y-91861904D02*
X151645295Y-91909523D01*
X151645295Y-91909523D02*
X151883390Y-91909523D01*
X151883390Y-91909523D02*
X151978628Y-91861904D01*
X151978628Y-91861904D02*
X152026247Y-91814285D01*
X152026247Y-91814285D02*
X152073866Y-91719047D01*
X152073866Y-91719047D02*
X152073866Y-91528571D01*
X152073866Y-91528571D02*
X152026247Y-91433333D01*
X152026247Y-91433333D02*
X151978628Y-91385714D01*
X151978628Y-91385714D02*
X151883390Y-91338095D01*
X153954819Y-100135904D02*
X153954819Y-99564476D01*
X154954819Y-99850190D02*
X153954819Y-99850190D01*
X154954819Y-99231142D02*
X153954819Y-99231142D01*
X153954819Y-99231142D02*
X153954819Y-98850190D01*
X153954819Y-98850190D02*
X154002438Y-98754952D01*
X154002438Y-98754952D02*
X154050057Y-98707333D01*
X154050057Y-98707333D02*
X154145295Y-98659714D01*
X154145295Y-98659714D02*
X154288152Y-98659714D01*
X154288152Y-98659714D02*
X154383390Y-98707333D01*
X154383390Y-98707333D02*
X154431009Y-98754952D01*
X154431009Y-98754952D02*
X154478628Y-98850190D01*
X154478628Y-98850190D02*
X154478628Y-99231142D01*
X154383390Y-98088285D02*
X154335771Y-98183523D01*
X154335771Y-98183523D02*
X154288152Y-98231142D01*
X154288152Y-98231142D02*
X154192914Y-98278761D01*
X154192914Y-98278761D02*
X154145295Y-98278761D01*
X154145295Y-98278761D02*
X154050057Y-98231142D01*
X154050057Y-98231142D02*
X154002438Y-98183523D01*
X154002438Y-98183523D02*
X153954819Y-98088285D01*
X153954819Y-98088285D02*
X153954819Y-97897809D01*
X153954819Y-97897809D02*
X154002438Y-97802571D01*
X154002438Y-97802571D02*
X154050057Y-97754952D01*
X154050057Y-97754952D02*
X154145295Y-97707333D01*
X154145295Y-97707333D02*
X154192914Y-97707333D01*
X154192914Y-97707333D02*
X154288152Y-97754952D01*
X154288152Y-97754952D02*
X154335771Y-97802571D01*
X154335771Y-97802571D02*
X154383390Y-97897809D01*
X154383390Y-97897809D02*
X154383390Y-98088285D01*
X154383390Y-98088285D02*
X154431009Y-98183523D01*
X154431009Y-98183523D02*
X154478628Y-98231142D01*
X154478628Y-98231142D02*
X154573866Y-98278761D01*
X154573866Y-98278761D02*
X154764342Y-98278761D01*
X154764342Y-98278761D02*
X154859580Y-98231142D01*
X154859580Y-98231142D02*
X154907200Y-98183523D01*
X154907200Y-98183523D02*
X154954819Y-98088285D01*
X154954819Y-98088285D02*
X154954819Y-97897809D01*
X154954819Y-97897809D02*
X154907200Y-97802571D01*
X154907200Y-97802571D02*
X154859580Y-97754952D01*
X154859580Y-97754952D02*
X154764342Y-97707333D01*
X154764342Y-97707333D02*
X154573866Y-97707333D01*
X154573866Y-97707333D02*
X154478628Y-97754952D01*
X154478628Y-97754952D02*
X154431009Y-97802571D01*
X154431009Y-97802571D02*
X154383390Y-97897809D01*
X139877142Y-95974819D02*
X139400952Y-95974819D01*
X139400952Y-95974819D02*
X139400952Y-94974819D01*
X140734285Y-95974819D02*
X140162857Y-95974819D01*
X140448571Y-95974819D02*
X140448571Y-94974819D01*
X140448571Y-94974819D02*
X140353333Y-95117676D01*
X140353333Y-95117676D02*
X140258095Y-95212914D01*
X140258095Y-95212914D02*
X140162857Y-95260533D01*
X141639047Y-94974819D02*
X141162857Y-94974819D01*
X141162857Y-94974819D02*
X141115238Y-95451009D01*
X141115238Y-95451009D02*
X141162857Y-95403390D01*
X141162857Y-95403390D02*
X141258095Y-95355771D01*
X141258095Y-95355771D02*
X141496190Y-95355771D01*
X141496190Y-95355771D02*
X141591428Y-95403390D01*
X141591428Y-95403390D02*
X141639047Y-95451009D01*
X141639047Y-95451009D02*
X141686666Y-95546247D01*
X141686666Y-95546247D02*
X141686666Y-95784342D01*
X141686666Y-95784342D02*
X141639047Y-95879580D01*
X141639047Y-95879580D02*
X141591428Y-95927200D01*
X141591428Y-95927200D02*
X141496190Y-95974819D01*
X141496190Y-95974819D02*
X141258095Y-95974819D01*
X141258095Y-95974819D02*
X141162857Y-95927200D01*
X141162857Y-95927200D02*
X141115238Y-95879580D01*
X149954819Y-105892857D02*
X149478628Y-106226190D01*
X149954819Y-106464285D02*
X148954819Y-106464285D01*
X148954819Y-106464285D02*
X148954819Y-106083333D01*
X148954819Y-106083333D02*
X149002438Y-105988095D01*
X149002438Y-105988095D02*
X149050057Y-105940476D01*
X149050057Y-105940476D02*
X149145295Y-105892857D01*
X149145295Y-105892857D02*
X149288152Y-105892857D01*
X149288152Y-105892857D02*
X149383390Y-105940476D01*
X149383390Y-105940476D02*
X149431009Y-105988095D01*
X149431009Y-105988095D02*
X149478628Y-106083333D01*
X149478628Y-106083333D02*
X149478628Y-106464285D01*
X149954819Y-104940476D02*
X149954819Y-105511904D01*
X149954819Y-105226190D02*
X148954819Y-105226190D01*
X148954819Y-105226190D02*
X149097676Y-105321428D01*
X149097676Y-105321428D02*
X149192914Y-105416666D01*
X149192914Y-105416666D02*
X149240533Y-105511904D01*
X148954819Y-104083333D02*
X148954819Y-104273809D01*
X148954819Y-104273809D02*
X149002438Y-104369047D01*
X149002438Y-104369047D02*
X149050057Y-104416666D01*
X149050057Y-104416666D02*
X149192914Y-104511904D01*
X149192914Y-104511904D02*
X149383390Y-104559523D01*
X149383390Y-104559523D02*
X149764342Y-104559523D01*
X149764342Y-104559523D02*
X149859580Y-104511904D01*
X149859580Y-104511904D02*
X149907200Y-104464285D01*
X149907200Y-104464285D02*
X149954819Y-104369047D01*
X149954819Y-104369047D02*
X149954819Y-104178571D01*
X149954819Y-104178571D02*
X149907200Y-104083333D01*
X149907200Y-104083333D02*
X149859580Y-104035714D01*
X149859580Y-104035714D02*
X149764342Y-103988095D01*
X149764342Y-103988095D02*
X149526247Y-103988095D01*
X149526247Y-103988095D02*
X149431009Y-104035714D01*
X149431009Y-104035714D02*
X149383390Y-104083333D01*
X149383390Y-104083333D02*
X149335771Y-104178571D01*
X149335771Y-104178571D02*
X149335771Y-104369047D01*
X149335771Y-104369047D02*
X149383390Y-104464285D01*
X149383390Y-104464285D02*
X149431009Y-104511904D01*
X149431009Y-104511904D02*
X149526247Y-104559523D01*
X154354819Y-105013094D02*
X154354819Y-104441666D01*
X155354819Y-104727380D02*
X154354819Y-104727380D01*
X155354819Y-104108332D02*
X154354819Y-104108332D01*
X154354819Y-104108332D02*
X154354819Y-103727380D01*
X154354819Y-103727380D02*
X154402438Y-103632142D01*
X154402438Y-103632142D02*
X154450057Y-103584523D01*
X154450057Y-103584523D02*
X154545295Y-103536904D01*
X154545295Y-103536904D02*
X154688152Y-103536904D01*
X154688152Y-103536904D02*
X154783390Y-103584523D01*
X154783390Y-103584523D02*
X154831009Y-103632142D01*
X154831009Y-103632142D02*
X154878628Y-103727380D01*
X154878628Y-103727380D02*
X154878628Y-104108332D01*
X155354819Y-102584523D02*
X155354819Y-103155951D01*
X155354819Y-102870237D02*
X154354819Y-102870237D01*
X154354819Y-102870237D02*
X154497676Y-102965475D01*
X154497676Y-102965475D02*
X154592914Y-103060713D01*
X154592914Y-103060713D02*
X154640533Y-103155951D01*
X154354819Y-101965475D02*
X154354819Y-101870237D01*
X154354819Y-101870237D02*
X154402438Y-101774999D01*
X154402438Y-101774999D02*
X154450057Y-101727380D01*
X154450057Y-101727380D02*
X154545295Y-101679761D01*
X154545295Y-101679761D02*
X154735771Y-101632142D01*
X154735771Y-101632142D02*
X154973866Y-101632142D01*
X154973866Y-101632142D02*
X155164342Y-101679761D01*
X155164342Y-101679761D02*
X155259580Y-101727380D01*
X155259580Y-101727380D02*
X155307200Y-101774999D01*
X155307200Y-101774999D02*
X155354819Y-101870237D01*
X155354819Y-101870237D02*
X155354819Y-101965475D01*
X155354819Y-101965475D02*
X155307200Y-102060713D01*
X155307200Y-102060713D02*
X155259580Y-102108332D01*
X155259580Y-102108332D02*
X155164342Y-102155951D01*
X155164342Y-102155951D02*
X154973866Y-102203570D01*
X154973866Y-102203570D02*
X154735771Y-102203570D01*
X154735771Y-102203570D02*
X154545295Y-102155951D01*
X154545295Y-102155951D02*
X154450057Y-102108332D01*
X154450057Y-102108332D02*
X154402438Y-102060713D01*
X154402438Y-102060713D02*
X154354819Y-101965475D01*
X146338095Y-89954819D02*
X146909523Y-89954819D01*
X146623809Y-90954819D02*
X146623809Y-89954819D01*
X147242857Y-90954819D02*
X147242857Y-89954819D01*
X147242857Y-89954819D02*
X147623809Y-89954819D01*
X147623809Y-89954819D02*
X147719047Y-90002438D01*
X147719047Y-90002438D02*
X147766666Y-90050057D01*
X147766666Y-90050057D02*
X147814285Y-90145295D01*
X147814285Y-90145295D02*
X147814285Y-90288152D01*
X147814285Y-90288152D02*
X147766666Y-90383390D01*
X147766666Y-90383390D02*
X147719047Y-90431009D01*
X147719047Y-90431009D02*
X147623809Y-90478628D01*
X147623809Y-90478628D02*
X147242857Y-90478628D01*
X148290476Y-90954819D02*
X148480952Y-90954819D01*
X148480952Y-90954819D02*
X148576190Y-90907200D01*
X148576190Y-90907200D02*
X148623809Y-90859580D01*
X148623809Y-90859580D02*
X148719047Y-90716723D01*
X148719047Y-90716723D02*
X148766666Y-90526247D01*
X148766666Y-90526247D02*
X148766666Y-90145295D01*
X148766666Y-90145295D02*
X148719047Y-90050057D01*
X148719047Y-90050057D02*
X148671428Y-90002438D01*
X148671428Y-90002438D02*
X148576190Y-89954819D01*
X148576190Y-89954819D02*
X148385714Y-89954819D01*
X148385714Y-89954819D02*
X148290476Y-90002438D01*
X148290476Y-90002438D02*
X148242857Y-90050057D01*
X148242857Y-90050057D02*
X148195238Y-90145295D01*
X148195238Y-90145295D02*
X148195238Y-90383390D01*
X148195238Y-90383390D02*
X148242857Y-90478628D01*
X148242857Y-90478628D02*
X148290476Y-90526247D01*
X148290476Y-90526247D02*
X148385714Y-90573866D01*
X148385714Y-90573866D02*
X148576190Y-90573866D01*
X148576190Y-90573866D02*
X148671428Y-90526247D01*
X148671428Y-90526247D02*
X148719047Y-90478628D01*
X148719047Y-90478628D02*
X148766666Y-90383390D01*
X137627142Y-99859580D02*
X137579523Y-99907200D01*
X137579523Y-99907200D02*
X137436666Y-99954819D01*
X137436666Y-99954819D02*
X137341428Y-99954819D01*
X137341428Y-99954819D02*
X137198571Y-99907200D01*
X137198571Y-99907200D02*
X137103333Y-99811961D01*
X137103333Y-99811961D02*
X137055714Y-99716723D01*
X137055714Y-99716723D02*
X137008095Y-99526247D01*
X137008095Y-99526247D02*
X137008095Y-99383390D01*
X137008095Y-99383390D02*
X137055714Y-99192914D01*
X137055714Y-99192914D02*
X137103333Y-99097676D01*
X137103333Y-99097676D02*
X137198571Y-99002438D01*
X137198571Y-99002438D02*
X137341428Y-98954819D01*
X137341428Y-98954819D02*
X137436666Y-98954819D01*
X137436666Y-98954819D02*
X137579523Y-99002438D01*
X137579523Y-99002438D02*
X137627142Y-99050057D01*
X137960476Y-98954819D02*
X138579523Y-98954819D01*
X138579523Y-98954819D02*
X138246190Y-99335771D01*
X138246190Y-99335771D02*
X138389047Y-99335771D01*
X138389047Y-99335771D02*
X138484285Y-99383390D01*
X138484285Y-99383390D02*
X138531904Y-99431009D01*
X138531904Y-99431009D02*
X138579523Y-99526247D01*
X138579523Y-99526247D02*
X138579523Y-99764342D01*
X138579523Y-99764342D02*
X138531904Y-99859580D01*
X138531904Y-99859580D02*
X138484285Y-99907200D01*
X138484285Y-99907200D02*
X138389047Y-99954819D01*
X138389047Y-99954819D02*
X138103333Y-99954819D01*
X138103333Y-99954819D02*
X138008095Y-99907200D01*
X138008095Y-99907200D02*
X137960476Y-99859580D01*
X139055714Y-99954819D02*
X139246190Y-99954819D01*
X139246190Y-99954819D02*
X139341428Y-99907200D01*
X139341428Y-99907200D02*
X139389047Y-99859580D01*
X139389047Y-99859580D02*
X139484285Y-99716723D01*
X139484285Y-99716723D02*
X139531904Y-99526247D01*
X139531904Y-99526247D02*
X139531904Y-99145295D01*
X139531904Y-99145295D02*
X139484285Y-99050057D01*
X139484285Y-99050057D02*
X139436666Y-99002438D01*
X139436666Y-99002438D02*
X139341428Y-98954819D01*
X139341428Y-98954819D02*
X139150952Y-98954819D01*
X139150952Y-98954819D02*
X139055714Y-99002438D01*
X139055714Y-99002438D02*
X139008095Y-99050057D01*
X139008095Y-99050057D02*
X138960476Y-99145295D01*
X138960476Y-99145295D02*
X138960476Y-99383390D01*
X138960476Y-99383390D02*
X139008095Y-99478628D01*
X139008095Y-99478628D02*
X139055714Y-99526247D01*
X139055714Y-99526247D02*
X139150952Y-99573866D01*
X139150952Y-99573866D02*
X139341428Y-99573866D01*
X139341428Y-99573866D02*
X139436666Y-99526247D01*
X139436666Y-99526247D02*
X139484285Y-99478628D01*
X139484285Y-99478628D02*
X139531904Y-99383390D01*
X138377142Y-101169580D02*
X138329523Y-101217200D01*
X138329523Y-101217200D02*
X138186666Y-101264819D01*
X138186666Y-101264819D02*
X138091428Y-101264819D01*
X138091428Y-101264819D02*
X137948571Y-101217200D01*
X137948571Y-101217200D02*
X137853333Y-101121961D01*
X137853333Y-101121961D02*
X137805714Y-101026723D01*
X137805714Y-101026723D02*
X137758095Y-100836247D01*
X137758095Y-100836247D02*
X137758095Y-100693390D01*
X137758095Y-100693390D02*
X137805714Y-100502914D01*
X137805714Y-100502914D02*
X137853333Y-100407676D01*
X137853333Y-100407676D02*
X137948571Y-100312438D01*
X137948571Y-100312438D02*
X138091428Y-100264819D01*
X138091428Y-100264819D02*
X138186666Y-100264819D01*
X138186666Y-100264819D02*
X138329523Y-100312438D01*
X138329523Y-100312438D02*
X138377142Y-100360057D01*
X138710476Y-100264819D02*
X139329523Y-100264819D01*
X139329523Y-100264819D02*
X138996190Y-100645771D01*
X138996190Y-100645771D02*
X139139047Y-100645771D01*
X139139047Y-100645771D02*
X139234285Y-100693390D01*
X139234285Y-100693390D02*
X139281904Y-100741009D01*
X139281904Y-100741009D02*
X139329523Y-100836247D01*
X139329523Y-100836247D02*
X139329523Y-101074342D01*
X139329523Y-101074342D02*
X139281904Y-101169580D01*
X139281904Y-101169580D02*
X139234285Y-101217200D01*
X139234285Y-101217200D02*
X139139047Y-101264819D01*
X139139047Y-101264819D02*
X138853333Y-101264819D01*
X138853333Y-101264819D02*
X138758095Y-101217200D01*
X138758095Y-101217200D02*
X138710476Y-101169580D01*
X139662857Y-100264819D02*
X140329523Y-100264819D01*
X140329523Y-100264819D02*
X139900952Y-101264819D01*
X162204819Y-104642857D02*
X162204819Y-105119047D01*
X162204819Y-105119047D02*
X161204819Y-105119047D01*
X162204819Y-103785714D02*
X162204819Y-104357142D01*
X162204819Y-104071428D02*
X161204819Y-104071428D01*
X161204819Y-104071428D02*
X161347676Y-104166666D01*
X161347676Y-104166666D02*
X161442914Y-104261904D01*
X161442914Y-104261904D02*
X161490533Y-104357142D01*
X161300057Y-103404761D02*
X161252438Y-103357142D01*
X161252438Y-103357142D02*
X161204819Y-103261904D01*
X161204819Y-103261904D02*
X161204819Y-103023809D01*
X161204819Y-103023809D02*
X161252438Y-102928571D01*
X161252438Y-102928571D02*
X161300057Y-102880952D01*
X161300057Y-102880952D02*
X161395295Y-102833333D01*
X161395295Y-102833333D02*
X161490533Y-102833333D01*
X161490533Y-102833333D02*
X161633390Y-102880952D01*
X161633390Y-102880952D02*
X162204819Y-103452380D01*
X162204819Y-103452380D02*
X162204819Y-102833333D01*
X147157142Y-99259580D02*
X147109523Y-99307200D01*
X147109523Y-99307200D02*
X146966666Y-99354819D01*
X146966666Y-99354819D02*
X146871428Y-99354819D01*
X146871428Y-99354819D02*
X146728571Y-99307200D01*
X146728571Y-99307200D02*
X146633333Y-99211961D01*
X146633333Y-99211961D02*
X146585714Y-99116723D01*
X146585714Y-99116723D02*
X146538095Y-98926247D01*
X146538095Y-98926247D02*
X146538095Y-98783390D01*
X146538095Y-98783390D02*
X146585714Y-98592914D01*
X146585714Y-98592914D02*
X146633333Y-98497676D01*
X146633333Y-98497676D02*
X146728571Y-98402438D01*
X146728571Y-98402438D02*
X146871428Y-98354819D01*
X146871428Y-98354819D02*
X146966666Y-98354819D01*
X146966666Y-98354819D02*
X147109523Y-98402438D01*
X147109523Y-98402438D02*
X147157142Y-98450057D01*
X148014285Y-98354819D02*
X147823809Y-98354819D01*
X147823809Y-98354819D02*
X147728571Y-98402438D01*
X147728571Y-98402438D02*
X147680952Y-98450057D01*
X147680952Y-98450057D02*
X147585714Y-98592914D01*
X147585714Y-98592914D02*
X147538095Y-98783390D01*
X147538095Y-98783390D02*
X147538095Y-99164342D01*
X147538095Y-99164342D02*
X147585714Y-99259580D01*
X147585714Y-99259580D02*
X147633333Y-99307200D01*
X147633333Y-99307200D02*
X147728571Y-99354819D01*
X147728571Y-99354819D02*
X147919047Y-99354819D01*
X147919047Y-99354819D02*
X148014285Y-99307200D01*
X148014285Y-99307200D02*
X148061904Y-99259580D01*
X148061904Y-99259580D02*
X148109523Y-99164342D01*
X148109523Y-99164342D02*
X148109523Y-98926247D01*
X148109523Y-98926247D02*
X148061904Y-98831009D01*
X148061904Y-98831009D02*
X148014285Y-98783390D01*
X148014285Y-98783390D02*
X147919047Y-98735771D01*
X147919047Y-98735771D02*
X147728571Y-98735771D01*
X147728571Y-98735771D02*
X147633333Y-98783390D01*
X147633333Y-98783390D02*
X147585714Y-98831009D01*
X147585714Y-98831009D02*
X147538095Y-98926247D01*
X148966666Y-98354819D02*
X148776190Y-98354819D01*
X148776190Y-98354819D02*
X148680952Y-98402438D01*
X148680952Y-98402438D02*
X148633333Y-98450057D01*
X148633333Y-98450057D02*
X148538095Y-98592914D01*
X148538095Y-98592914D02*
X148490476Y-98783390D01*
X148490476Y-98783390D02*
X148490476Y-99164342D01*
X148490476Y-99164342D02*
X148538095Y-99259580D01*
X148538095Y-99259580D02*
X148585714Y-99307200D01*
X148585714Y-99307200D02*
X148680952Y-99354819D01*
X148680952Y-99354819D02*
X148871428Y-99354819D01*
X148871428Y-99354819D02*
X148966666Y-99307200D01*
X148966666Y-99307200D02*
X149014285Y-99259580D01*
X149014285Y-99259580D02*
X149061904Y-99164342D01*
X149061904Y-99164342D02*
X149061904Y-98926247D01*
X149061904Y-98926247D02*
X149014285Y-98831009D01*
X149014285Y-98831009D02*
X148966666Y-98783390D01*
X148966666Y-98783390D02*
X148871428Y-98735771D01*
X148871428Y-98735771D02*
X148680952Y-98735771D01*
X148680952Y-98735771D02*
X148585714Y-98783390D01*
X148585714Y-98783390D02*
X148538095Y-98831009D01*
X148538095Y-98831009D02*
X148490476Y-98926247D01*
X150059580Y-101342857D02*
X150107200Y-101390476D01*
X150107200Y-101390476D02*
X150154819Y-101533333D01*
X150154819Y-101533333D02*
X150154819Y-101628571D01*
X150154819Y-101628571D02*
X150107200Y-101771428D01*
X150107200Y-101771428D02*
X150011961Y-101866666D01*
X150011961Y-101866666D02*
X149916723Y-101914285D01*
X149916723Y-101914285D02*
X149726247Y-101961904D01*
X149726247Y-101961904D02*
X149583390Y-101961904D01*
X149583390Y-101961904D02*
X149392914Y-101914285D01*
X149392914Y-101914285D02*
X149297676Y-101866666D01*
X149297676Y-101866666D02*
X149202438Y-101771428D01*
X149202438Y-101771428D02*
X149154819Y-101628571D01*
X149154819Y-101628571D02*
X149154819Y-101533333D01*
X149154819Y-101533333D02*
X149202438Y-101390476D01*
X149202438Y-101390476D02*
X149250057Y-101342857D01*
X149154819Y-100485714D02*
X149154819Y-100676190D01*
X149154819Y-100676190D02*
X149202438Y-100771428D01*
X149202438Y-100771428D02*
X149250057Y-100819047D01*
X149250057Y-100819047D02*
X149392914Y-100914285D01*
X149392914Y-100914285D02*
X149583390Y-100961904D01*
X149583390Y-100961904D02*
X149964342Y-100961904D01*
X149964342Y-100961904D02*
X150059580Y-100914285D01*
X150059580Y-100914285D02*
X150107200Y-100866666D01*
X150107200Y-100866666D02*
X150154819Y-100771428D01*
X150154819Y-100771428D02*
X150154819Y-100580952D01*
X150154819Y-100580952D02*
X150107200Y-100485714D01*
X150107200Y-100485714D02*
X150059580Y-100438095D01*
X150059580Y-100438095D02*
X149964342Y-100390476D01*
X149964342Y-100390476D02*
X149726247Y-100390476D01*
X149726247Y-100390476D02*
X149631009Y-100438095D01*
X149631009Y-100438095D02*
X149583390Y-100485714D01*
X149583390Y-100485714D02*
X149535771Y-100580952D01*
X149535771Y-100580952D02*
X149535771Y-100771428D01*
X149535771Y-100771428D02*
X149583390Y-100866666D01*
X149583390Y-100866666D02*
X149631009Y-100914285D01*
X149631009Y-100914285D02*
X149726247Y-100961904D01*
X149154819Y-99771428D02*
X149154819Y-99676190D01*
X149154819Y-99676190D02*
X149202438Y-99580952D01*
X149202438Y-99580952D02*
X149250057Y-99533333D01*
X149250057Y-99533333D02*
X149345295Y-99485714D01*
X149345295Y-99485714D02*
X149535771Y-99438095D01*
X149535771Y-99438095D02*
X149773866Y-99438095D01*
X149773866Y-99438095D02*
X149964342Y-99485714D01*
X149964342Y-99485714D02*
X150059580Y-99533333D01*
X150059580Y-99533333D02*
X150107200Y-99580952D01*
X150107200Y-99580952D02*
X150154819Y-99676190D01*
X150154819Y-99676190D02*
X150154819Y-99771428D01*
X150154819Y-99771428D02*
X150107200Y-99866666D01*
X150107200Y-99866666D02*
X150059580Y-99914285D01*
X150059580Y-99914285D02*
X149964342Y-99961904D01*
X149964342Y-99961904D02*
X149773866Y-100009523D01*
X149773866Y-100009523D02*
X149535771Y-100009523D01*
X149535771Y-100009523D02*
X149345295Y-99961904D01*
X149345295Y-99961904D02*
X149250057Y-99914285D01*
X149250057Y-99914285D02*
X149202438Y-99866666D01*
X149202438Y-99866666D02*
X149154819Y-99771428D01*
X156961905Y-109954819D02*
X157533333Y-109954819D01*
X157247619Y-110954819D02*
X157247619Y-109954819D01*
X157866667Y-110954819D02*
X157866667Y-109954819D01*
X157866667Y-109954819D02*
X158247619Y-109954819D01*
X158247619Y-109954819D02*
X158342857Y-110002438D01*
X158342857Y-110002438D02*
X158390476Y-110050057D01*
X158390476Y-110050057D02*
X158438095Y-110145295D01*
X158438095Y-110145295D02*
X158438095Y-110288152D01*
X158438095Y-110288152D02*
X158390476Y-110383390D01*
X158390476Y-110383390D02*
X158342857Y-110431009D01*
X158342857Y-110431009D02*
X158247619Y-110478628D01*
X158247619Y-110478628D02*
X157866667Y-110478628D01*
X159390476Y-110954819D02*
X158819048Y-110954819D01*
X159104762Y-110954819D02*
X159104762Y-109954819D01*
X159104762Y-109954819D02*
X159009524Y-110097676D01*
X159009524Y-110097676D02*
X158914286Y-110192914D01*
X158914286Y-110192914D02*
X158819048Y-110240533D01*
X159723810Y-109954819D02*
X160390476Y-109954819D01*
X160390476Y-109954819D02*
X159961905Y-110954819D01*
X146109580Y-118642857D02*
X146157200Y-118690476D01*
X146157200Y-118690476D02*
X146204819Y-118833333D01*
X146204819Y-118833333D02*
X146204819Y-118928571D01*
X146204819Y-118928571D02*
X146157200Y-119071428D01*
X146157200Y-119071428D02*
X146061961Y-119166666D01*
X146061961Y-119166666D02*
X145966723Y-119214285D01*
X145966723Y-119214285D02*
X145776247Y-119261904D01*
X145776247Y-119261904D02*
X145633390Y-119261904D01*
X145633390Y-119261904D02*
X145442914Y-119214285D01*
X145442914Y-119214285D02*
X145347676Y-119166666D01*
X145347676Y-119166666D02*
X145252438Y-119071428D01*
X145252438Y-119071428D02*
X145204819Y-118928571D01*
X145204819Y-118928571D02*
X145204819Y-118833333D01*
X145204819Y-118833333D02*
X145252438Y-118690476D01*
X145252438Y-118690476D02*
X145300057Y-118642857D01*
X146204819Y-117690476D02*
X146204819Y-118261904D01*
X146204819Y-117976190D02*
X145204819Y-117976190D01*
X145204819Y-117976190D02*
X145347676Y-118071428D01*
X145347676Y-118071428D02*
X145442914Y-118166666D01*
X145442914Y-118166666D02*
X145490533Y-118261904D01*
X145204819Y-117357142D02*
X145204819Y-116690476D01*
X145204819Y-116690476D02*
X146204819Y-117119047D01*
X156738095Y-111406819D02*
X157309523Y-111406819D01*
X157023809Y-112406819D02*
X157023809Y-111406819D01*
X157642857Y-112406819D02*
X157642857Y-111406819D01*
X157642857Y-111406819D02*
X158023809Y-111406819D01*
X158023809Y-111406819D02*
X158119047Y-111454438D01*
X158119047Y-111454438D02*
X158166666Y-111502057D01*
X158166666Y-111502057D02*
X158214285Y-111597295D01*
X158214285Y-111597295D02*
X158214285Y-111740152D01*
X158214285Y-111740152D02*
X158166666Y-111835390D01*
X158166666Y-111835390D02*
X158119047Y-111883009D01*
X158119047Y-111883009D02*
X158023809Y-111930628D01*
X158023809Y-111930628D02*
X157642857Y-111930628D01*
X158595238Y-111502057D02*
X158642857Y-111454438D01*
X158642857Y-111454438D02*
X158738095Y-111406819D01*
X158738095Y-111406819D02*
X158976190Y-111406819D01*
X158976190Y-111406819D02*
X159071428Y-111454438D01*
X159071428Y-111454438D02*
X159119047Y-111502057D01*
X159119047Y-111502057D02*
X159166666Y-111597295D01*
X159166666Y-111597295D02*
X159166666Y-111692533D01*
X159166666Y-111692533D02*
X159119047Y-111835390D01*
X159119047Y-111835390D02*
X158547619Y-112406819D01*
X158547619Y-112406819D02*
X159166666Y-112406819D01*
X136359580Y-103142857D02*
X136407200Y-103190476D01*
X136407200Y-103190476D02*
X136454819Y-103333333D01*
X136454819Y-103333333D02*
X136454819Y-103428571D01*
X136454819Y-103428571D02*
X136407200Y-103571428D01*
X136407200Y-103571428D02*
X136311961Y-103666666D01*
X136311961Y-103666666D02*
X136216723Y-103714285D01*
X136216723Y-103714285D02*
X136026247Y-103761904D01*
X136026247Y-103761904D02*
X135883390Y-103761904D01*
X135883390Y-103761904D02*
X135692914Y-103714285D01*
X135692914Y-103714285D02*
X135597676Y-103666666D01*
X135597676Y-103666666D02*
X135502438Y-103571428D01*
X135502438Y-103571428D02*
X135454819Y-103428571D01*
X135454819Y-103428571D02*
X135454819Y-103333333D01*
X135454819Y-103333333D02*
X135502438Y-103190476D01*
X135502438Y-103190476D02*
X135550057Y-103142857D01*
X135788152Y-102285714D02*
X136454819Y-102285714D01*
X135407200Y-102523809D02*
X136121485Y-102761904D01*
X136121485Y-102761904D02*
X136121485Y-102142857D01*
X135454819Y-101857142D02*
X135454819Y-101238095D01*
X135454819Y-101238095D02*
X135835771Y-101571428D01*
X135835771Y-101571428D02*
X135835771Y-101428571D01*
X135835771Y-101428571D02*
X135883390Y-101333333D01*
X135883390Y-101333333D02*
X135931009Y-101285714D01*
X135931009Y-101285714D02*
X136026247Y-101238095D01*
X136026247Y-101238095D02*
X136264342Y-101238095D01*
X136264342Y-101238095D02*
X136359580Y-101285714D01*
X136359580Y-101285714D02*
X136407200Y-101333333D01*
X136407200Y-101333333D02*
X136454819Y-101428571D01*
X136454819Y-101428571D02*
X136454819Y-101714285D01*
X136454819Y-101714285D02*
X136407200Y-101809523D01*
X136407200Y-101809523D02*
X136359580Y-101857142D01*
X155422080Y-88342857D02*
X155469700Y-88390476D01*
X155469700Y-88390476D02*
X155517319Y-88533333D01*
X155517319Y-88533333D02*
X155517319Y-88628571D01*
X155517319Y-88628571D02*
X155469700Y-88771428D01*
X155469700Y-88771428D02*
X155374461Y-88866666D01*
X155374461Y-88866666D02*
X155279223Y-88914285D01*
X155279223Y-88914285D02*
X155088747Y-88961904D01*
X155088747Y-88961904D02*
X154945890Y-88961904D01*
X154945890Y-88961904D02*
X154755414Y-88914285D01*
X154755414Y-88914285D02*
X154660176Y-88866666D01*
X154660176Y-88866666D02*
X154564938Y-88771428D01*
X154564938Y-88771428D02*
X154517319Y-88628571D01*
X154517319Y-88628571D02*
X154517319Y-88533333D01*
X154517319Y-88533333D02*
X154564938Y-88390476D01*
X154564938Y-88390476D02*
X154612557Y-88342857D01*
X154850652Y-87485714D02*
X155517319Y-87485714D01*
X154469700Y-87723809D02*
X155183985Y-87961904D01*
X155183985Y-87961904D02*
X155183985Y-87342857D01*
X154517319Y-86533333D02*
X154517319Y-86723809D01*
X154517319Y-86723809D02*
X154564938Y-86819047D01*
X154564938Y-86819047D02*
X154612557Y-86866666D01*
X154612557Y-86866666D02*
X154755414Y-86961904D01*
X154755414Y-86961904D02*
X154945890Y-87009523D01*
X154945890Y-87009523D02*
X155326842Y-87009523D01*
X155326842Y-87009523D02*
X155422080Y-86961904D01*
X155422080Y-86961904D02*
X155469700Y-86914285D01*
X155469700Y-86914285D02*
X155517319Y-86819047D01*
X155517319Y-86819047D02*
X155517319Y-86628571D01*
X155517319Y-86628571D02*
X155469700Y-86533333D01*
X155469700Y-86533333D02*
X155422080Y-86485714D01*
X155422080Y-86485714D02*
X155326842Y-86438095D01*
X155326842Y-86438095D02*
X155088747Y-86438095D01*
X155088747Y-86438095D02*
X154993509Y-86485714D01*
X154993509Y-86485714D02*
X154945890Y-86533333D01*
X154945890Y-86533333D02*
X154898271Y-86628571D01*
X154898271Y-86628571D02*
X154898271Y-86819047D01*
X154898271Y-86819047D02*
X154945890Y-86914285D01*
X154945890Y-86914285D02*
X154993509Y-86961904D01*
X154993509Y-86961904D02*
X155088747Y-87009523D01*
X147954819Y-112738094D02*
X147954819Y-112166666D01*
X148954819Y-112452380D02*
X147954819Y-112452380D01*
X148954819Y-111833332D02*
X147954819Y-111833332D01*
X147954819Y-111833332D02*
X147954819Y-111452380D01*
X147954819Y-111452380D02*
X148002438Y-111357142D01*
X148002438Y-111357142D02*
X148050057Y-111309523D01*
X148050057Y-111309523D02*
X148145295Y-111261904D01*
X148145295Y-111261904D02*
X148288152Y-111261904D01*
X148288152Y-111261904D02*
X148383390Y-111309523D01*
X148383390Y-111309523D02*
X148431009Y-111357142D01*
X148431009Y-111357142D02*
X148478628Y-111452380D01*
X148478628Y-111452380D02*
X148478628Y-111833332D01*
X148954819Y-110309523D02*
X148954819Y-110880951D01*
X148954819Y-110595237D02*
X147954819Y-110595237D01*
X147954819Y-110595237D02*
X148097676Y-110690475D01*
X148097676Y-110690475D02*
X148192914Y-110785713D01*
X148192914Y-110785713D02*
X148240533Y-110880951D01*
X148954819Y-109833332D02*
X148954819Y-109642856D01*
X148954819Y-109642856D02*
X148907200Y-109547618D01*
X148907200Y-109547618D02*
X148859580Y-109499999D01*
X148859580Y-109499999D02*
X148716723Y-109404761D01*
X148716723Y-109404761D02*
X148526247Y-109357142D01*
X148526247Y-109357142D02*
X148145295Y-109357142D01*
X148145295Y-109357142D02*
X148050057Y-109404761D01*
X148050057Y-109404761D02*
X148002438Y-109452380D01*
X148002438Y-109452380D02*
X147954819Y-109547618D01*
X147954819Y-109547618D02*
X147954819Y-109738094D01*
X147954819Y-109738094D02*
X148002438Y-109833332D01*
X148002438Y-109833332D02*
X148050057Y-109880951D01*
X148050057Y-109880951D02*
X148145295Y-109928570D01*
X148145295Y-109928570D02*
X148383390Y-109928570D01*
X148383390Y-109928570D02*
X148478628Y-109880951D01*
X148478628Y-109880951D02*
X148526247Y-109833332D01*
X148526247Y-109833332D02*
X148573866Y-109738094D01*
X148573866Y-109738094D02*
X148573866Y-109547618D01*
X148573866Y-109547618D02*
X148526247Y-109452380D01*
X148526247Y-109452380D02*
X148478628Y-109404761D01*
X148478628Y-109404761D02*
X148383390Y-109357142D01*
X147357142Y-118609580D02*
X147309523Y-118657200D01*
X147309523Y-118657200D02*
X147166666Y-118704819D01*
X147166666Y-118704819D02*
X147071428Y-118704819D01*
X147071428Y-118704819D02*
X146928571Y-118657200D01*
X146928571Y-118657200D02*
X146833333Y-118561961D01*
X146833333Y-118561961D02*
X146785714Y-118466723D01*
X146785714Y-118466723D02*
X146738095Y-118276247D01*
X146738095Y-118276247D02*
X146738095Y-118133390D01*
X146738095Y-118133390D02*
X146785714Y-117942914D01*
X146785714Y-117942914D02*
X146833333Y-117847676D01*
X146833333Y-117847676D02*
X146928571Y-117752438D01*
X146928571Y-117752438D02*
X147071428Y-117704819D01*
X147071428Y-117704819D02*
X147166666Y-117704819D01*
X147166666Y-117704819D02*
X147309523Y-117752438D01*
X147309523Y-117752438D02*
X147357142Y-117800057D01*
X148309523Y-118704819D02*
X147738095Y-118704819D01*
X148023809Y-118704819D02*
X148023809Y-117704819D01*
X148023809Y-117704819D02*
X147928571Y-117847676D01*
X147928571Y-117847676D02*
X147833333Y-117942914D01*
X147833333Y-117942914D02*
X147738095Y-117990533D01*
X149166666Y-117704819D02*
X148976190Y-117704819D01*
X148976190Y-117704819D02*
X148880952Y-117752438D01*
X148880952Y-117752438D02*
X148833333Y-117800057D01*
X148833333Y-117800057D02*
X148738095Y-117942914D01*
X148738095Y-117942914D02*
X148690476Y-118133390D01*
X148690476Y-118133390D02*
X148690476Y-118514342D01*
X148690476Y-118514342D02*
X148738095Y-118609580D01*
X148738095Y-118609580D02*
X148785714Y-118657200D01*
X148785714Y-118657200D02*
X148880952Y-118704819D01*
X148880952Y-118704819D02*
X149071428Y-118704819D01*
X149071428Y-118704819D02*
X149166666Y-118657200D01*
X149166666Y-118657200D02*
X149214285Y-118609580D01*
X149214285Y-118609580D02*
X149261904Y-118514342D01*
X149261904Y-118514342D02*
X149261904Y-118276247D01*
X149261904Y-118276247D02*
X149214285Y-118181009D01*
X149214285Y-118181009D02*
X149166666Y-118133390D01*
X149166666Y-118133390D02*
X149071428Y-118085771D01*
X149071428Y-118085771D02*
X148880952Y-118085771D01*
X148880952Y-118085771D02*
X148785714Y-118133390D01*
X148785714Y-118133390D02*
X148738095Y-118181009D01*
X148738095Y-118181009D02*
X148690476Y-118276247D01*
X152761905Y-114454819D02*
X153333333Y-114454819D01*
X153047619Y-115454819D02*
X153047619Y-114454819D01*
X153666667Y-115454819D02*
X153666667Y-114454819D01*
X153666667Y-114454819D02*
X154047619Y-114454819D01*
X154047619Y-114454819D02*
X154142857Y-114502438D01*
X154142857Y-114502438D02*
X154190476Y-114550057D01*
X154190476Y-114550057D02*
X154238095Y-114645295D01*
X154238095Y-114645295D02*
X154238095Y-114788152D01*
X154238095Y-114788152D02*
X154190476Y-114883390D01*
X154190476Y-114883390D02*
X154142857Y-114931009D01*
X154142857Y-114931009D02*
X154047619Y-114978628D01*
X154047619Y-114978628D02*
X153666667Y-114978628D01*
X154619048Y-114550057D02*
X154666667Y-114502438D01*
X154666667Y-114502438D02*
X154761905Y-114454819D01*
X154761905Y-114454819D02*
X155000000Y-114454819D01*
X155000000Y-114454819D02*
X155095238Y-114502438D01*
X155095238Y-114502438D02*
X155142857Y-114550057D01*
X155142857Y-114550057D02*
X155190476Y-114645295D01*
X155190476Y-114645295D02*
X155190476Y-114740533D01*
X155190476Y-114740533D02*
X155142857Y-114883390D01*
X155142857Y-114883390D02*
X154571429Y-115454819D01*
X154571429Y-115454819D02*
X155190476Y-115454819D01*
X155523810Y-114454819D02*
X156142857Y-114454819D01*
X156142857Y-114454819D02*
X155809524Y-114835771D01*
X155809524Y-114835771D02*
X155952381Y-114835771D01*
X155952381Y-114835771D02*
X156047619Y-114883390D01*
X156047619Y-114883390D02*
X156095238Y-114931009D01*
X156095238Y-114931009D02*
X156142857Y-115026247D01*
X156142857Y-115026247D02*
X156142857Y-115264342D01*
X156142857Y-115264342D02*
X156095238Y-115359580D01*
X156095238Y-115359580D02*
X156047619Y-115407200D01*
X156047619Y-115407200D02*
X155952381Y-115454819D01*
X155952381Y-115454819D02*
X155666667Y-115454819D01*
X155666667Y-115454819D02*
X155571429Y-115407200D01*
X155571429Y-115407200D02*
X155523810Y-115359580D01*
X139392142Y-97379580D02*
X139344523Y-97427200D01*
X139344523Y-97427200D02*
X139201666Y-97474819D01*
X139201666Y-97474819D02*
X139106428Y-97474819D01*
X139106428Y-97474819D02*
X138963571Y-97427200D01*
X138963571Y-97427200D02*
X138868333Y-97331961D01*
X138868333Y-97331961D02*
X138820714Y-97236723D01*
X138820714Y-97236723D02*
X138773095Y-97046247D01*
X138773095Y-97046247D02*
X138773095Y-96903390D01*
X138773095Y-96903390D02*
X138820714Y-96712914D01*
X138820714Y-96712914D02*
X138868333Y-96617676D01*
X138868333Y-96617676D02*
X138963571Y-96522438D01*
X138963571Y-96522438D02*
X139106428Y-96474819D01*
X139106428Y-96474819D02*
X139201666Y-96474819D01*
X139201666Y-96474819D02*
X139344523Y-96522438D01*
X139344523Y-96522438D02*
X139392142Y-96570057D01*
X139725476Y-96474819D02*
X140344523Y-96474819D01*
X140344523Y-96474819D02*
X140011190Y-96855771D01*
X140011190Y-96855771D02*
X140154047Y-96855771D01*
X140154047Y-96855771D02*
X140249285Y-96903390D01*
X140249285Y-96903390D02*
X140296904Y-96951009D01*
X140296904Y-96951009D02*
X140344523Y-97046247D01*
X140344523Y-97046247D02*
X140344523Y-97284342D01*
X140344523Y-97284342D02*
X140296904Y-97379580D01*
X140296904Y-97379580D02*
X140249285Y-97427200D01*
X140249285Y-97427200D02*
X140154047Y-97474819D01*
X140154047Y-97474819D02*
X139868333Y-97474819D01*
X139868333Y-97474819D02*
X139773095Y-97427200D01*
X139773095Y-97427200D02*
X139725476Y-97379580D01*
X140915952Y-96903390D02*
X140820714Y-96855771D01*
X140820714Y-96855771D02*
X140773095Y-96808152D01*
X140773095Y-96808152D02*
X140725476Y-96712914D01*
X140725476Y-96712914D02*
X140725476Y-96665295D01*
X140725476Y-96665295D02*
X140773095Y-96570057D01*
X140773095Y-96570057D02*
X140820714Y-96522438D01*
X140820714Y-96522438D02*
X140915952Y-96474819D01*
X140915952Y-96474819D02*
X141106428Y-96474819D01*
X141106428Y-96474819D02*
X141201666Y-96522438D01*
X141201666Y-96522438D02*
X141249285Y-96570057D01*
X141249285Y-96570057D02*
X141296904Y-96665295D01*
X141296904Y-96665295D02*
X141296904Y-96712914D01*
X141296904Y-96712914D02*
X141249285Y-96808152D01*
X141249285Y-96808152D02*
X141201666Y-96855771D01*
X141201666Y-96855771D02*
X141106428Y-96903390D01*
X141106428Y-96903390D02*
X140915952Y-96903390D01*
X140915952Y-96903390D02*
X140820714Y-96951009D01*
X140820714Y-96951009D02*
X140773095Y-96998628D01*
X140773095Y-96998628D02*
X140725476Y-97093866D01*
X140725476Y-97093866D02*
X140725476Y-97284342D01*
X140725476Y-97284342D02*
X140773095Y-97379580D01*
X140773095Y-97379580D02*
X140820714Y-97427200D01*
X140820714Y-97427200D02*
X140915952Y-97474819D01*
X140915952Y-97474819D02*
X141106428Y-97474819D01*
X141106428Y-97474819D02*
X141201666Y-97427200D01*
X141201666Y-97427200D02*
X141249285Y-97379580D01*
X141249285Y-97379580D02*
X141296904Y-97284342D01*
X141296904Y-97284342D02*
X141296904Y-97093866D01*
X141296904Y-97093866D02*
X141249285Y-96998628D01*
X141249285Y-96998628D02*
X141201666Y-96951009D01*
X141201666Y-96951009D02*
X141106428Y-96903390D01*
X147557142Y-97759580D02*
X147509523Y-97807200D01*
X147509523Y-97807200D02*
X147366666Y-97854819D01*
X147366666Y-97854819D02*
X147271428Y-97854819D01*
X147271428Y-97854819D02*
X147128571Y-97807200D01*
X147128571Y-97807200D02*
X147033333Y-97711961D01*
X147033333Y-97711961D02*
X146985714Y-97616723D01*
X146985714Y-97616723D02*
X146938095Y-97426247D01*
X146938095Y-97426247D02*
X146938095Y-97283390D01*
X146938095Y-97283390D02*
X146985714Y-97092914D01*
X146985714Y-97092914D02*
X147033333Y-96997676D01*
X147033333Y-96997676D02*
X147128571Y-96902438D01*
X147128571Y-96902438D02*
X147271428Y-96854819D01*
X147271428Y-96854819D02*
X147366666Y-96854819D01*
X147366666Y-96854819D02*
X147509523Y-96902438D01*
X147509523Y-96902438D02*
X147557142Y-96950057D01*
X148414285Y-96854819D02*
X148223809Y-96854819D01*
X148223809Y-96854819D02*
X148128571Y-96902438D01*
X148128571Y-96902438D02*
X148080952Y-96950057D01*
X148080952Y-96950057D02*
X147985714Y-97092914D01*
X147985714Y-97092914D02*
X147938095Y-97283390D01*
X147938095Y-97283390D02*
X147938095Y-97664342D01*
X147938095Y-97664342D02*
X147985714Y-97759580D01*
X147985714Y-97759580D02*
X148033333Y-97807200D01*
X148033333Y-97807200D02*
X148128571Y-97854819D01*
X148128571Y-97854819D02*
X148319047Y-97854819D01*
X148319047Y-97854819D02*
X148414285Y-97807200D01*
X148414285Y-97807200D02*
X148461904Y-97759580D01*
X148461904Y-97759580D02*
X148509523Y-97664342D01*
X148509523Y-97664342D02*
X148509523Y-97426247D01*
X148509523Y-97426247D02*
X148461904Y-97331009D01*
X148461904Y-97331009D02*
X148414285Y-97283390D01*
X148414285Y-97283390D02*
X148319047Y-97235771D01*
X148319047Y-97235771D02*
X148128571Y-97235771D01*
X148128571Y-97235771D02*
X148033333Y-97283390D01*
X148033333Y-97283390D02*
X147985714Y-97331009D01*
X147985714Y-97331009D02*
X147938095Y-97426247D01*
X149461904Y-97854819D02*
X148890476Y-97854819D01*
X149176190Y-97854819D02*
X149176190Y-96854819D01*
X149176190Y-96854819D02*
X149080952Y-96997676D01*
X149080952Y-96997676D02*
X148985714Y-97092914D01*
X148985714Y-97092914D02*
X148890476Y-97140533D01*
X158954819Y-105407857D02*
X158954819Y-105884047D01*
X158954819Y-105884047D02*
X157954819Y-105884047D01*
X158954819Y-104550714D02*
X158954819Y-105122142D01*
X158954819Y-104836428D02*
X157954819Y-104836428D01*
X157954819Y-104836428D02*
X158097676Y-104931666D01*
X158097676Y-104931666D02*
X158192914Y-105026904D01*
X158192914Y-105026904D02*
X158240533Y-105122142D01*
X157954819Y-104217380D02*
X157954819Y-103598333D01*
X157954819Y-103598333D02*
X158335771Y-103931666D01*
X158335771Y-103931666D02*
X158335771Y-103788809D01*
X158335771Y-103788809D02*
X158383390Y-103693571D01*
X158383390Y-103693571D02*
X158431009Y-103645952D01*
X158431009Y-103645952D02*
X158526247Y-103598333D01*
X158526247Y-103598333D02*
X158764342Y-103598333D01*
X158764342Y-103598333D02*
X158859580Y-103645952D01*
X158859580Y-103645952D02*
X158907200Y-103693571D01*
X158907200Y-103693571D02*
X158954819Y-103788809D01*
X158954819Y-103788809D02*
X158954819Y-104074523D01*
X158954819Y-104074523D02*
X158907200Y-104169761D01*
X158907200Y-104169761D02*
X158859580Y-104217380D01*
X151579819Y-88238094D02*
X151579819Y-87666666D01*
X152579819Y-87952380D02*
X151579819Y-87952380D01*
X152579819Y-87333332D02*
X151579819Y-87333332D01*
X151579819Y-87333332D02*
X151579819Y-86952380D01*
X151579819Y-86952380D02*
X151627438Y-86857142D01*
X151627438Y-86857142D02*
X151675057Y-86809523D01*
X151675057Y-86809523D02*
X151770295Y-86761904D01*
X151770295Y-86761904D02*
X151913152Y-86761904D01*
X151913152Y-86761904D02*
X152008390Y-86809523D01*
X152008390Y-86809523D02*
X152056009Y-86857142D01*
X152056009Y-86857142D02*
X152103628Y-86952380D01*
X152103628Y-86952380D02*
X152103628Y-87333332D01*
X152579819Y-85809523D02*
X152579819Y-86380951D01*
X152579819Y-86095237D02*
X151579819Y-86095237D01*
X151579819Y-86095237D02*
X151722676Y-86190475D01*
X151722676Y-86190475D02*
X151817914Y-86285713D01*
X151817914Y-86285713D02*
X151865533Y-86380951D01*
X151675057Y-85428570D02*
X151627438Y-85380951D01*
X151627438Y-85380951D02*
X151579819Y-85285713D01*
X151579819Y-85285713D02*
X151579819Y-85047618D01*
X151579819Y-85047618D02*
X151627438Y-84952380D01*
X151627438Y-84952380D02*
X151675057Y-84904761D01*
X151675057Y-84904761D02*
X151770295Y-84857142D01*
X151770295Y-84857142D02*
X151865533Y-84857142D01*
X151865533Y-84857142D02*
X152008390Y-84904761D01*
X152008390Y-84904761D02*
X152579819Y-85476189D01*
X152579819Y-85476189D02*
X152579819Y-84857142D01*
X140838095Y-85154819D02*
X140838095Y-85964342D01*
X140838095Y-85964342D02*
X140885714Y-86059580D01*
X140885714Y-86059580D02*
X140933333Y-86107200D01*
X140933333Y-86107200D02*
X141028571Y-86154819D01*
X141028571Y-86154819D02*
X141219047Y-86154819D01*
X141219047Y-86154819D02*
X141314285Y-86107200D01*
X141314285Y-86107200D02*
X141361904Y-86059580D01*
X141361904Y-86059580D02*
X141409523Y-85964342D01*
X141409523Y-85964342D02*
X141409523Y-85154819D01*
X141790476Y-85154819D02*
X142457142Y-85154819D01*
X142457142Y-85154819D02*
X142028571Y-86154819D01*
X141206774Y-86454630D02*
X141206774Y-86692725D01*
X140968679Y-86597487D02*
X141206774Y-86692725D01*
X141206774Y-86692725D02*
X141444869Y-86597487D01*
X141063917Y-86883201D02*
X141206774Y-86692725D01*
X141206774Y-86692725D02*
X141349631Y-86883201D01*
X141206774Y-86454630D02*
X141206774Y-86692725D01*
X140968679Y-86597487D02*
X141206774Y-86692725D01*
X141206774Y-86692725D02*
X141444869Y-86597487D01*
X141063917Y-86883201D02*
X141206774Y-86692725D01*
X141206774Y-86692725D02*
X141349631Y-86883201D01*
X151254819Y-110738094D02*
X151254819Y-110166666D01*
X152254819Y-110452380D02*
X151254819Y-110452380D01*
X152254819Y-109833332D02*
X151254819Y-109833332D01*
X151254819Y-109833332D02*
X151254819Y-109452380D01*
X151254819Y-109452380D02*
X151302438Y-109357142D01*
X151302438Y-109357142D02*
X151350057Y-109309523D01*
X151350057Y-109309523D02*
X151445295Y-109261904D01*
X151445295Y-109261904D02*
X151588152Y-109261904D01*
X151588152Y-109261904D02*
X151683390Y-109309523D01*
X151683390Y-109309523D02*
X151731009Y-109357142D01*
X151731009Y-109357142D02*
X151778628Y-109452380D01*
X151778628Y-109452380D02*
X151778628Y-109833332D01*
X151350057Y-108880951D02*
X151302438Y-108833332D01*
X151302438Y-108833332D02*
X151254819Y-108738094D01*
X151254819Y-108738094D02*
X151254819Y-108499999D01*
X151254819Y-108499999D02*
X151302438Y-108404761D01*
X151302438Y-108404761D02*
X151350057Y-108357142D01*
X151350057Y-108357142D02*
X151445295Y-108309523D01*
X151445295Y-108309523D02*
X151540533Y-108309523D01*
X151540533Y-108309523D02*
X151683390Y-108357142D01*
X151683390Y-108357142D02*
X152254819Y-108928570D01*
X152254819Y-108928570D02*
X152254819Y-108309523D01*
X151254819Y-107690475D02*
X151254819Y-107595237D01*
X151254819Y-107595237D02*
X151302438Y-107499999D01*
X151302438Y-107499999D02*
X151350057Y-107452380D01*
X151350057Y-107452380D02*
X151445295Y-107404761D01*
X151445295Y-107404761D02*
X151635771Y-107357142D01*
X151635771Y-107357142D02*
X151873866Y-107357142D01*
X151873866Y-107357142D02*
X152064342Y-107404761D01*
X152064342Y-107404761D02*
X152159580Y-107452380D01*
X152159580Y-107452380D02*
X152207200Y-107499999D01*
X152207200Y-107499999D02*
X152254819Y-107595237D01*
X152254819Y-107595237D02*
X152254819Y-107690475D01*
X152254819Y-107690475D02*
X152207200Y-107785713D01*
X152207200Y-107785713D02*
X152159580Y-107833332D01*
X152159580Y-107833332D02*
X152064342Y-107880951D01*
X152064342Y-107880951D02*
X151873866Y-107928570D01*
X151873866Y-107928570D02*
X151635771Y-107928570D01*
X151635771Y-107928570D02*
X151445295Y-107880951D01*
X151445295Y-107880951D02*
X151350057Y-107833332D01*
X151350057Y-107833332D02*
X151302438Y-107785713D01*
X151302438Y-107785713D02*
X151254819Y-107690475D01*
X137357142Y-98579580D02*
X137309523Y-98627200D01*
X137309523Y-98627200D02*
X137166666Y-98674819D01*
X137166666Y-98674819D02*
X137071428Y-98674819D01*
X137071428Y-98674819D02*
X136928571Y-98627200D01*
X136928571Y-98627200D02*
X136833333Y-98531961D01*
X136833333Y-98531961D02*
X136785714Y-98436723D01*
X136785714Y-98436723D02*
X136738095Y-98246247D01*
X136738095Y-98246247D02*
X136738095Y-98103390D01*
X136738095Y-98103390D02*
X136785714Y-97912914D01*
X136785714Y-97912914D02*
X136833333Y-97817676D01*
X136833333Y-97817676D02*
X136928571Y-97722438D01*
X136928571Y-97722438D02*
X137071428Y-97674819D01*
X137071428Y-97674819D02*
X137166666Y-97674819D01*
X137166666Y-97674819D02*
X137309523Y-97722438D01*
X137309523Y-97722438D02*
X137357142Y-97770057D01*
X138214285Y-98008152D02*
X138214285Y-98674819D01*
X137976190Y-97627200D02*
X137738095Y-98341485D01*
X137738095Y-98341485D02*
X138357142Y-98341485D01*
X138928571Y-97674819D02*
X139023809Y-97674819D01*
X139023809Y-97674819D02*
X139119047Y-97722438D01*
X139119047Y-97722438D02*
X139166666Y-97770057D01*
X139166666Y-97770057D02*
X139214285Y-97865295D01*
X139214285Y-97865295D02*
X139261904Y-98055771D01*
X139261904Y-98055771D02*
X139261904Y-98293866D01*
X139261904Y-98293866D02*
X139214285Y-98484342D01*
X139214285Y-98484342D02*
X139166666Y-98579580D01*
X139166666Y-98579580D02*
X139119047Y-98627200D01*
X139119047Y-98627200D02*
X139023809Y-98674819D01*
X139023809Y-98674819D02*
X138928571Y-98674819D01*
X138928571Y-98674819D02*
X138833333Y-98627200D01*
X138833333Y-98627200D02*
X138785714Y-98579580D01*
X138785714Y-98579580D02*
X138738095Y-98484342D01*
X138738095Y-98484342D02*
X138690476Y-98293866D01*
X138690476Y-98293866D02*
X138690476Y-98055771D01*
X138690476Y-98055771D02*
X138738095Y-97865295D01*
X138738095Y-97865295D02*
X138785714Y-97770057D01*
X138785714Y-97770057D02*
X138833333Y-97722438D01*
X138833333Y-97722438D02*
X138928571Y-97674819D01*
X156961905Y-107854819D02*
X157533333Y-107854819D01*
X157247619Y-108854819D02*
X157247619Y-107854819D01*
X157866667Y-108854819D02*
X157866667Y-107854819D01*
X157866667Y-107854819D02*
X158247619Y-107854819D01*
X158247619Y-107854819D02*
X158342857Y-107902438D01*
X158342857Y-107902438D02*
X158390476Y-107950057D01*
X158390476Y-107950057D02*
X158438095Y-108045295D01*
X158438095Y-108045295D02*
X158438095Y-108188152D01*
X158438095Y-108188152D02*
X158390476Y-108283390D01*
X158390476Y-108283390D02*
X158342857Y-108331009D01*
X158342857Y-108331009D02*
X158247619Y-108378628D01*
X158247619Y-108378628D02*
X157866667Y-108378628D01*
X159390476Y-108854819D02*
X158819048Y-108854819D01*
X159104762Y-108854819D02*
X159104762Y-107854819D01*
X159104762Y-107854819D02*
X159009524Y-107997676D01*
X159009524Y-107997676D02*
X158914286Y-108092914D01*
X158914286Y-108092914D02*
X158819048Y-108140533D01*
X159961905Y-108283390D02*
X159866667Y-108235771D01*
X159866667Y-108235771D02*
X159819048Y-108188152D01*
X159819048Y-108188152D02*
X159771429Y-108092914D01*
X159771429Y-108092914D02*
X159771429Y-108045295D01*
X159771429Y-108045295D02*
X159819048Y-107950057D01*
X159819048Y-107950057D02*
X159866667Y-107902438D01*
X159866667Y-107902438D02*
X159961905Y-107854819D01*
X159961905Y-107854819D02*
X160152381Y-107854819D01*
X160152381Y-107854819D02*
X160247619Y-107902438D01*
X160247619Y-107902438D02*
X160295238Y-107950057D01*
X160295238Y-107950057D02*
X160342857Y-108045295D01*
X160342857Y-108045295D02*
X160342857Y-108092914D01*
X160342857Y-108092914D02*
X160295238Y-108188152D01*
X160295238Y-108188152D02*
X160247619Y-108235771D01*
X160247619Y-108235771D02*
X160152381Y-108283390D01*
X160152381Y-108283390D02*
X159961905Y-108283390D01*
X159961905Y-108283390D02*
X159866667Y-108331009D01*
X159866667Y-108331009D02*
X159819048Y-108378628D01*
X159819048Y-108378628D02*
X159771429Y-108473866D01*
X159771429Y-108473866D02*
X159771429Y-108664342D01*
X159771429Y-108664342D02*
X159819048Y-108759580D01*
X159819048Y-108759580D02*
X159866667Y-108807200D01*
X159866667Y-108807200D02*
X159961905Y-108854819D01*
X159961905Y-108854819D02*
X160152381Y-108854819D01*
X160152381Y-108854819D02*
X160247619Y-108807200D01*
X160247619Y-108807200D02*
X160295238Y-108759580D01*
X160295238Y-108759580D02*
X160342857Y-108664342D01*
X160342857Y-108664342D02*
X160342857Y-108473866D01*
X160342857Y-108473866D02*
X160295238Y-108378628D01*
X160295238Y-108378628D02*
X160247619Y-108331009D01*
X160247619Y-108331009D02*
X160152381Y-108283390D01*
X140622142Y-94129580D02*
X140574523Y-94177200D01*
X140574523Y-94177200D02*
X140431666Y-94224819D01*
X140431666Y-94224819D02*
X140336428Y-94224819D01*
X140336428Y-94224819D02*
X140193571Y-94177200D01*
X140193571Y-94177200D02*
X140098333Y-94081961D01*
X140098333Y-94081961D02*
X140050714Y-93986723D01*
X140050714Y-93986723D02*
X140003095Y-93796247D01*
X140003095Y-93796247D02*
X140003095Y-93653390D01*
X140003095Y-93653390D02*
X140050714Y-93462914D01*
X140050714Y-93462914D02*
X140098333Y-93367676D01*
X140098333Y-93367676D02*
X140193571Y-93272438D01*
X140193571Y-93272438D02*
X140336428Y-93224819D01*
X140336428Y-93224819D02*
X140431666Y-93224819D01*
X140431666Y-93224819D02*
X140574523Y-93272438D01*
X140574523Y-93272438D02*
X140622142Y-93320057D01*
X141479285Y-93558152D02*
X141479285Y-94224819D01*
X141241190Y-93177200D02*
X141003095Y-93891485D01*
X141003095Y-93891485D02*
X141622142Y-93891485D01*
X141955476Y-93320057D02*
X142003095Y-93272438D01*
X142003095Y-93272438D02*
X142098333Y-93224819D01*
X142098333Y-93224819D02*
X142336428Y-93224819D01*
X142336428Y-93224819D02*
X142431666Y-93272438D01*
X142431666Y-93272438D02*
X142479285Y-93320057D01*
X142479285Y-93320057D02*
X142526904Y-93415295D01*
X142526904Y-93415295D02*
X142526904Y-93510533D01*
X142526904Y-93510533D02*
X142479285Y-93653390D01*
X142479285Y-93653390D02*
X141907857Y-94224819D01*
X141907857Y-94224819D02*
X142526904Y-94224819D01*
X152411905Y-112704819D02*
X152983333Y-112704819D01*
X152697619Y-113704819D02*
X152697619Y-112704819D01*
X153316667Y-113704819D02*
X153316667Y-112704819D01*
X153316667Y-112704819D02*
X153697619Y-112704819D01*
X153697619Y-112704819D02*
X153792857Y-112752438D01*
X153792857Y-112752438D02*
X153840476Y-112800057D01*
X153840476Y-112800057D02*
X153888095Y-112895295D01*
X153888095Y-112895295D02*
X153888095Y-113038152D01*
X153888095Y-113038152D02*
X153840476Y-113133390D01*
X153840476Y-113133390D02*
X153792857Y-113181009D01*
X153792857Y-113181009D02*
X153697619Y-113228628D01*
X153697619Y-113228628D02*
X153316667Y-113228628D01*
X154840476Y-113704819D02*
X154269048Y-113704819D01*
X154554762Y-113704819D02*
X154554762Y-112704819D01*
X154554762Y-112704819D02*
X154459524Y-112847676D01*
X154459524Y-112847676D02*
X154364286Y-112942914D01*
X154364286Y-112942914D02*
X154269048Y-112990533D01*
X155745238Y-112704819D02*
X155269048Y-112704819D01*
X155269048Y-112704819D02*
X155221429Y-113181009D01*
X155221429Y-113181009D02*
X155269048Y-113133390D01*
X155269048Y-113133390D02*
X155364286Y-113085771D01*
X155364286Y-113085771D02*
X155602381Y-113085771D01*
X155602381Y-113085771D02*
X155697619Y-113133390D01*
X155697619Y-113133390D02*
X155745238Y-113181009D01*
X155745238Y-113181009D02*
X155792857Y-113276247D01*
X155792857Y-113276247D02*
X155792857Y-113514342D01*
X155792857Y-113514342D02*
X155745238Y-113609580D01*
X155745238Y-113609580D02*
X155697619Y-113657200D01*
X155697619Y-113657200D02*
X155602381Y-113704819D01*
X155602381Y-113704819D02*
X155364286Y-113704819D01*
X155364286Y-113704819D02*
X155269048Y-113657200D01*
X155269048Y-113657200D02*
X155221429Y-113609580D01*
X157204819Y-104407857D02*
X157204819Y-104884047D01*
X157204819Y-104884047D02*
X156204819Y-104884047D01*
X157204819Y-103550714D02*
X157204819Y-104122142D01*
X157204819Y-103836428D02*
X156204819Y-103836428D01*
X156204819Y-103836428D02*
X156347676Y-103931666D01*
X156347676Y-103931666D02*
X156442914Y-104026904D01*
X156442914Y-104026904D02*
X156490533Y-104122142D01*
X156538152Y-102693571D02*
X157204819Y-102693571D01*
X156157200Y-102931666D02*
X156871485Y-103169761D01*
X156871485Y-103169761D02*
X156871485Y-102550714D01*
X144113095Y-100329819D02*
X144684523Y-100329819D01*
X144398809Y-101329819D02*
X144398809Y-100329819D01*
X145017857Y-101329819D02*
X145017857Y-100329819D01*
X145017857Y-100329819D02*
X145398809Y-100329819D01*
X145398809Y-100329819D02*
X145494047Y-100377438D01*
X145494047Y-100377438D02*
X145541666Y-100425057D01*
X145541666Y-100425057D02*
X145589285Y-100520295D01*
X145589285Y-100520295D02*
X145589285Y-100663152D01*
X145589285Y-100663152D02*
X145541666Y-100758390D01*
X145541666Y-100758390D02*
X145494047Y-100806009D01*
X145494047Y-100806009D02*
X145398809Y-100853628D01*
X145398809Y-100853628D02*
X145017857Y-100853628D01*
X146446428Y-100329819D02*
X146255952Y-100329819D01*
X146255952Y-100329819D02*
X146160714Y-100377438D01*
X146160714Y-100377438D02*
X146113095Y-100425057D01*
X146113095Y-100425057D02*
X146017857Y-100567914D01*
X146017857Y-100567914D02*
X145970238Y-100758390D01*
X145970238Y-100758390D02*
X145970238Y-101139342D01*
X145970238Y-101139342D02*
X146017857Y-101234580D01*
X146017857Y-101234580D02*
X146065476Y-101282200D01*
X146065476Y-101282200D02*
X146160714Y-101329819D01*
X146160714Y-101329819D02*
X146351190Y-101329819D01*
X146351190Y-101329819D02*
X146446428Y-101282200D01*
X146446428Y-101282200D02*
X146494047Y-101234580D01*
X146494047Y-101234580D02*
X146541666Y-101139342D01*
X146541666Y-101139342D02*
X146541666Y-100901247D01*
X146541666Y-100901247D02*
X146494047Y-100806009D01*
X146494047Y-100806009D02*
X146446428Y-100758390D01*
X146446428Y-100758390D02*
X146351190Y-100710771D01*
X146351190Y-100710771D02*
X146160714Y-100710771D01*
X146160714Y-100710771D02*
X146065476Y-100758390D01*
X146065476Y-100758390D02*
X146017857Y-100806009D01*
X146017857Y-100806009D02*
X145970238Y-100901247D01*
X151154819Y-118738094D02*
X151154819Y-118166666D01*
X152154819Y-118452380D02*
X151154819Y-118452380D01*
X152154819Y-117833332D02*
X151154819Y-117833332D01*
X151154819Y-117833332D02*
X151154819Y-117452380D01*
X151154819Y-117452380D02*
X151202438Y-117357142D01*
X151202438Y-117357142D02*
X151250057Y-117309523D01*
X151250057Y-117309523D02*
X151345295Y-117261904D01*
X151345295Y-117261904D02*
X151488152Y-117261904D01*
X151488152Y-117261904D02*
X151583390Y-117309523D01*
X151583390Y-117309523D02*
X151631009Y-117357142D01*
X151631009Y-117357142D02*
X151678628Y-117452380D01*
X151678628Y-117452380D02*
X151678628Y-117833332D01*
X152154819Y-116309523D02*
X152154819Y-116880951D01*
X152154819Y-116595237D02*
X151154819Y-116595237D01*
X151154819Y-116595237D02*
X151297676Y-116690475D01*
X151297676Y-116690475D02*
X151392914Y-116785713D01*
X151392914Y-116785713D02*
X151440533Y-116880951D01*
X151488152Y-115452380D02*
X152154819Y-115452380D01*
X151107200Y-115690475D02*
X151821485Y-115928570D01*
X151821485Y-115928570D02*
X151821485Y-115309523D01*
X149954819Y-88988094D02*
X149954819Y-88416666D01*
X150954819Y-88702380D02*
X149954819Y-88702380D01*
X150954819Y-88083332D02*
X149954819Y-88083332D01*
X149954819Y-88083332D02*
X149954819Y-87702380D01*
X149954819Y-87702380D02*
X150002438Y-87607142D01*
X150002438Y-87607142D02*
X150050057Y-87559523D01*
X150050057Y-87559523D02*
X150145295Y-87511904D01*
X150145295Y-87511904D02*
X150288152Y-87511904D01*
X150288152Y-87511904D02*
X150383390Y-87559523D01*
X150383390Y-87559523D02*
X150431009Y-87607142D01*
X150431009Y-87607142D02*
X150478628Y-87702380D01*
X150478628Y-87702380D02*
X150478628Y-88083332D01*
X150050057Y-87130951D02*
X150002438Y-87083332D01*
X150002438Y-87083332D02*
X149954819Y-86988094D01*
X149954819Y-86988094D02*
X149954819Y-86749999D01*
X149954819Y-86749999D02*
X150002438Y-86654761D01*
X150002438Y-86654761D02*
X150050057Y-86607142D01*
X150050057Y-86607142D02*
X150145295Y-86559523D01*
X150145295Y-86559523D02*
X150240533Y-86559523D01*
X150240533Y-86559523D02*
X150383390Y-86607142D01*
X150383390Y-86607142D02*
X150954819Y-87178570D01*
X150954819Y-87178570D02*
X150954819Y-86559523D01*
X150954819Y-85607142D02*
X150954819Y-86178570D01*
X150954819Y-85892856D02*
X149954819Y-85892856D01*
X149954819Y-85892856D02*
X150097676Y-85988094D01*
X150097676Y-85988094D02*
X150192914Y-86083332D01*
X150192914Y-86083332D02*
X150240533Y-86178570D01*
X140338095Y-118054819D02*
X140909523Y-118054819D01*
X140623809Y-119054819D02*
X140623809Y-118054819D01*
X141242857Y-119054819D02*
X141242857Y-118054819D01*
X141242857Y-118054819D02*
X141623809Y-118054819D01*
X141623809Y-118054819D02*
X141719047Y-118102438D01*
X141719047Y-118102438D02*
X141766666Y-118150057D01*
X141766666Y-118150057D02*
X141814285Y-118245295D01*
X141814285Y-118245295D02*
X141814285Y-118388152D01*
X141814285Y-118388152D02*
X141766666Y-118483390D01*
X141766666Y-118483390D02*
X141719047Y-118531009D01*
X141719047Y-118531009D02*
X141623809Y-118578628D01*
X141623809Y-118578628D02*
X141242857Y-118578628D01*
X142147619Y-118054819D02*
X142766666Y-118054819D01*
X142766666Y-118054819D02*
X142433333Y-118435771D01*
X142433333Y-118435771D02*
X142576190Y-118435771D01*
X142576190Y-118435771D02*
X142671428Y-118483390D01*
X142671428Y-118483390D02*
X142719047Y-118531009D01*
X142719047Y-118531009D02*
X142766666Y-118626247D01*
X142766666Y-118626247D02*
X142766666Y-118864342D01*
X142766666Y-118864342D02*
X142719047Y-118959580D01*
X142719047Y-118959580D02*
X142671428Y-119007200D01*
X142671428Y-119007200D02*
X142576190Y-119054819D01*
X142576190Y-119054819D02*
X142290476Y-119054819D01*
X142290476Y-119054819D02*
X142195238Y-119007200D01*
X142195238Y-119007200D02*
X142147619Y-118959580D01*
X151757142Y-100354819D02*
X151423809Y-99878628D01*
X151185714Y-100354819D02*
X151185714Y-99354819D01*
X151185714Y-99354819D02*
X151566666Y-99354819D01*
X151566666Y-99354819D02*
X151661904Y-99402438D01*
X151661904Y-99402438D02*
X151709523Y-99450057D01*
X151709523Y-99450057D02*
X151757142Y-99545295D01*
X151757142Y-99545295D02*
X151757142Y-99688152D01*
X151757142Y-99688152D02*
X151709523Y-99783390D01*
X151709523Y-99783390D02*
X151661904Y-99831009D01*
X151661904Y-99831009D02*
X151566666Y-99878628D01*
X151566666Y-99878628D02*
X151185714Y-99878628D01*
X152709523Y-100354819D02*
X152138095Y-100354819D01*
X152423809Y-100354819D02*
X152423809Y-99354819D01*
X152423809Y-99354819D02*
X152328571Y-99497676D01*
X152328571Y-99497676D02*
X152233333Y-99592914D01*
X152233333Y-99592914D02*
X152138095Y-99640533D01*
X153614285Y-99354819D02*
X153138095Y-99354819D01*
X153138095Y-99354819D02*
X153090476Y-99831009D01*
X153090476Y-99831009D02*
X153138095Y-99783390D01*
X153138095Y-99783390D02*
X153233333Y-99735771D01*
X153233333Y-99735771D02*
X153471428Y-99735771D01*
X153471428Y-99735771D02*
X153566666Y-99783390D01*
X153566666Y-99783390D02*
X153614285Y-99831009D01*
X153614285Y-99831009D02*
X153661904Y-99926247D01*
X153661904Y-99926247D02*
X153661904Y-100164342D01*
X153661904Y-100164342D02*
X153614285Y-100259580D01*
X153614285Y-100259580D02*
X153566666Y-100307200D01*
X153566666Y-100307200D02*
X153471428Y-100354819D01*
X153471428Y-100354819D02*
X153233333Y-100354819D01*
X153233333Y-100354819D02*
X153138095Y-100307200D01*
X153138095Y-100307200D02*
X153090476Y-100259580D01*
X144938095Y-102254819D02*
X144938095Y-103064342D01*
X144938095Y-103064342D02*
X144985714Y-103159580D01*
X144985714Y-103159580D02*
X145033333Y-103207200D01*
X145033333Y-103207200D02*
X145128571Y-103254819D01*
X145128571Y-103254819D02*
X145319047Y-103254819D01*
X145319047Y-103254819D02*
X145414285Y-103207200D01*
X145414285Y-103207200D02*
X145461904Y-103159580D01*
X145461904Y-103159580D02*
X145509523Y-103064342D01*
X145509523Y-103064342D02*
X145509523Y-102254819D01*
X145890476Y-102254819D02*
X146509523Y-102254819D01*
X146509523Y-102254819D02*
X146176190Y-102635771D01*
X146176190Y-102635771D02*
X146319047Y-102635771D01*
X146319047Y-102635771D02*
X146414285Y-102683390D01*
X146414285Y-102683390D02*
X146461904Y-102731009D01*
X146461904Y-102731009D02*
X146509523Y-102826247D01*
X146509523Y-102826247D02*
X146509523Y-103064342D01*
X146509523Y-103064342D02*
X146461904Y-103159580D01*
X146461904Y-103159580D02*
X146414285Y-103207200D01*
X146414285Y-103207200D02*
X146319047Y-103254819D01*
X146319047Y-103254819D02*
X146033333Y-103254819D01*
X146033333Y-103254819D02*
X145938095Y-103207200D01*
X145938095Y-103207200D02*
X145890476Y-103159580D01*
X147457142Y-96559580D02*
X147409523Y-96607200D01*
X147409523Y-96607200D02*
X147266666Y-96654819D01*
X147266666Y-96654819D02*
X147171428Y-96654819D01*
X147171428Y-96654819D02*
X147028571Y-96607200D01*
X147028571Y-96607200D02*
X146933333Y-96511961D01*
X146933333Y-96511961D02*
X146885714Y-96416723D01*
X146885714Y-96416723D02*
X146838095Y-96226247D01*
X146838095Y-96226247D02*
X146838095Y-96083390D01*
X146838095Y-96083390D02*
X146885714Y-95892914D01*
X146885714Y-95892914D02*
X146933333Y-95797676D01*
X146933333Y-95797676D02*
X147028571Y-95702438D01*
X147028571Y-95702438D02*
X147171428Y-95654819D01*
X147171428Y-95654819D02*
X147266666Y-95654819D01*
X147266666Y-95654819D02*
X147409523Y-95702438D01*
X147409523Y-95702438D02*
X147457142Y-95750057D01*
X148361904Y-95654819D02*
X147885714Y-95654819D01*
X147885714Y-95654819D02*
X147838095Y-96131009D01*
X147838095Y-96131009D02*
X147885714Y-96083390D01*
X147885714Y-96083390D02*
X147980952Y-96035771D01*
X147980952Y-96035771D02*
X148219047Y-96035771D01*
X148219047Y-96035771D02*
X148314285Y-96083390D01*
X148314285Y-96083390D02*
X148361904Y-96131009D01*
X148361904Y-96131009D02*
X148409523Y-96226247D01*
X148409523Y-96226247D02*
X148409523Y-96464342D01*
X148409523Y-96464342D02*
X148361904Y-96559580D01*
X148361904Y-96559580D02*
X148314285Y-96607200D01*
X148314285Y-96607200D02*
X148219047Y-96654819D01*
X148219047Y-96654819D02*
X147980952Y-96654819D01*
X147980952Y-96654819D02*
X147885714Y-96607200D01*
X147885714Y-96607200D02*
X147838095Y-96559580D01*
X149361904Y-96654819D02*
X148790476Y-96654819D01*
X149076190Y-96654819D02*
X149076190Y-95654819D01*
X149076190Y-95654819D02*
X148980952Y-95797676D01*
X148980952Y-95797676D02*
X148885714Y-95892914D01*
X148885714Y-95892914D02*
X148790476Y-95940533D01*
X160609580Y-104657857D02*
X160657200Y-104705476D01*
X160657200Y-104705476D02*
X160704819Y-104848333D01*
X160704819Y-104848333D02*
X160704819Y-104943571D01*
X160704819Y-104943571D02*
X160657200Y-105086428D01*
X160657200Y-105086428D02*
X160561961Y-105181666D01*
X160561961Y-105181666D02*
X160466723Y-105229285D01*
X160466723Y-105229285D02*
X160276247Y-105276904D01*
X160276247Y-105276904D02*
X160133390Y-105276904D01*
X160133390Y-105276904D02*
X159942914Y-105229285D01*
X159942914Y-105229285D02*
X159847676Y-105181666D01*
X159847676Y-105181666D02*
X159752438Y-105086428D01*
X159752438Y-105086428D02*
X159704819Y-104943571D01*
X159704819Y-104943571D02*
X159704819Y-104848333D01*
X159704819Y-104848333D02*
X159752438Y-104705476D01*
X159752438Y-104705476D02*
X159800057Y-104657857D01*
X159704819Y-103800714D02*
X159704819Y-103991190D01*
X159704819Y-103991190D02*
X159752438Y-104086428D01*
X159752438Y-104086428D02*
X159800057Y-104134047D01*
X159800057Y-104134047D02*
X159942914Y-104229285D01*
X159942914Y-104229285D02*
X160133390Y-104276904D01*
X160133390Y-104276904D02*
X160514342Y-104276904D01*
X160514342Y-104276904D02*
X160609580Y-104229285D01*
X160609580Y-104229285D02*
X160657200Y-104181666D01*
X160657200Y-104181666D02*
X160704819Y-104086428D01*
X160704819Y-104086428D02*
X160704819Y-103895952D01*
X160704819Y-103895952D02*
X160657200Y-103800714D01*
X160657200Y-103800714D02*
X160609580Y-103753095D01*
X160609580Y-103753095D02*
X160514342Y-103705476D01*
X160514342Y-103705476D02*
X160276247Y-103705476D01*
X160276247Y-103705476D02*
X160181009Y-103753095D01*
X160181009Y-103753095D02*
X160133390Y-103800714D01*
X160133390Y-103800714D02*
X160085771Y-103895952D01*
X160085771Y-103895952D02*
X160085771Y-104086428D01*
X160085771Y-104086428D02*
X160133390Y-104181666D01*
X160133390Y-104181666D02*
X160181009Y-104229285D01*
X160181009Y-104229285D02*
X160276247Y-104276904D01*
X159704819Y-102800714D02*
X159704819Y-103276904D01*
X159704819Y-103276904D02*
X160181009Y-103324523D01*
X160181009Y-103324523D02*
X160133390Y-103276904D01*
X160133390Y-103276904D02*
X160085771Y-103181666D01*
X160085771Y-103181666D02*
X160085771Y-102943571D01*
X160085771Y-102943571D02*
X160133390Y-102848333D01*
X160133390Y-102848333D02*
X160181009Y-102800714D01*
X160181009Y-102800714D02*
X160276247Y-102753095D01*
X160276247Y-102753095D02*
X160514342Y-102753095D01*
X160514342Y-102753095D02*
X160609580Y-102800714D01*
X160609580Y-102800714D02*
X160657200Y-102848333D01*
X160657200Y-102848333D02*
X160704819Y-102943571D01*
X160704819Y-102943571D02*
X160704819Y-103181666D01*
X160704819Y-103181666D02*
X160657200Y-103276904D01*
X160657200Y-103276904D02*
X160609580Y-103324523D01*
X154172080Y-88342857D02*
X154219700Y-88390476D01*
X154219700Y-88390476D02*
X154267319Y-88533333D01*
X154267319Y-88533333D02*
X154267319Y-88628571D01*
X154267319Y-88628571D02*
X154219700Y-88771428D01*
X154219700Y-88771428D02*
X154124461Y-88866666D01*
X154124461Y-88866666D02*
X154029223Y-88914285D01*
X154029223Y-88914285D02*
X153838747Y-88961904D01*
X153838747Y-88961904D02*
X153695890Y-88961904D01*
X153695890Y-88961904D02*
X153505414Y-88914285D01*
X153505414Y-88914285D02*
X153410176Y-88866666D01*
X153410176Y-88866666D02*
X153314938Y-88771428D01*
X153314938Y-88771428D02*
X153267319Y-88628571D01*
X153267319Y-88628571D02*
X153267319Y-88533333D01*
X153267319Y-88533333D02*
X153314938Y-88390476D01*
X153314938Y-88390476D02*
X153362557Y-88342857D01*
X153267319Y-87438095D02*
X153267319Y-87914285D01*
X153267319Y-87914285D02*
X153743509Y-87961904D01*
X153743509Y-87961904D02*
X153695890Y-87914285D01*
X153695890Y-87914285D02*
X153648271Y-87819047D01*
X153648271Y-87819047D02*
X153648271Y-87580952D01*
X153648271Y-87580952D02*
X153695890Y-87485714D01*
X153695890Y-87485714D02*
X153743509Y-87438095D01*
X153743509Y-87438095D02*
X153838747Y-87390476D01*
X153838747Y-87390476D02*
X154076842Y-87390476D01*
X154076842Y-87390476D02*
X154172080Y-87438095D01*
X154172080Y-87438095D02*
X154219700Y-87485714D01*
X154219700Y-87485714D02*
X154267319Y-87580952D01*
X154267319Y-87580952D02*
X154267319Y-87819047D01*
X154267319Y-87819047D02*
X154219700Y-87914285D01*
X154219700Y-87914285D02*
X154172080Y-87961904D01*
X153267319Y-87057142D02*
X153267319Y-86438095D01*
X153267319Y-86438095D02*
X153648271Y-86771428D01*
X153648271Y-86771428D02*
X153648271Y-86628571D01*
X153648271Y-86628571D02*
X153695890Y-86533333D01*
X153695890Y-86533333D02*
X153743509Y-86485714D01*
X153743509Y-86485714D02*
X153838747Y-86438095D01*
X153838747Y-86438095D02*
X154076842Y-86438095D01*
X154076842Y-86438095D02*
X154172080Y-86485714D01*
X154172080Y-86485714D02*
X154219700Y-86533333D01*
X154219700Y-86533333D02*
X154267319Y-86628571D01*
X154267319Y-86628571D02*
X154267319Y-86914285D01*
X154267319Y-86914285D02*
X154219700Y-87009523D01*
X154219700Y-87009523D02*
X154172080Y-87057142D01*
X140038095Y-89754819D02*
X140609523Y-89754819D01*
X140323809Y-90754819D02*
X140323809Y-89754819D01*
X140942857Y-90754819D02*
X140942857Y-89754819D01*
X140942857Y-89754819D02*
X141323809Y-89754819D01*
X141323809Y-89754819D02*
X141419047Y-89802438D01*
X141419047Y-89802438D02*
X141466666Y-89850057D01*
X141466666Y-89850057D02*
X141514285Y-89945295D01*
X141514285Y-89945295D02*
X141514285Y-90088152D01*
X141514285Y-90088152D02*
X141466666Y-90183390D01*
X141466666Y-90183390D02*
X141419047Y-90231009D01*
X141419047Y-90231009D02*
X141323809Y-90278628D01*
X141323809Y-90278628D02*
X140942857Y-90278628D01*
X142419047Y-89754819D02*
X141942857Y-89754819D01*
X141942857Y-89754819D02*
X141895238Y-90231009D01*
X141895238Y-90231009D02*
X141942857Y-90183390D01*
X141942857Y-90183390D02*
X142038095Y-90135771D01*
X142038095Y-90135771D02*
X142276190Y-90135771D01*
X142276190Y-90135771D02*
X142371428Y-90183390D01*
X142371428Y-90183390D02*
X142419047Y-90231009D01*
X142419047Y-90231009D02*
X142466666Y-90326247D01*
X142466666Y-90326247D02*
X142466666Y-90564342D01*
X142466666Y-90564342D02*
X142419047Y-90659580D01*
X142419047Y-90659580D02*
X142371428Y-90707200D01*
X142371428Y-90707200D02*
X142276190Y-90754819D01*
X142276190Y-90754819D02*
X142038095Y-90754819D01*
X142038095Y-90754819D02*
X141942857Y-90707200D01*
X141942857Y-90707200D02*
X141895238Y-90659580D01*
X159357142Y-99859580D02*
X159309523Y-99907200D01*
X159309523Y-99907200D02*
X159166666Y-99954819D01*
X159166666Y-99954819D02*
X159071428Y-99954819D01*
X159071428Y-99954819D02*
X158928571Y-99907200D01*
X158928571Y-99907200D02*
X158833333Y-99811961D01*
X158833333Y-99811961D02*
X158785714Y-99716723D01*
X158785714Y-99716723D02*
X158738095Y-99526247D01*
X158738095Y-99526247D02*
X158738095Y-99383390D01*
X158738095Y-99383390D02*
X158785714Y-99192914D01*
X158785714Y-99192914D02*
X158833333Y-99097676D01*
X158833333Y-99097676D02*
X158928571Y-99002438D01*
X158928571Y-99002438D02*
X159071428Y-98954819D01*
X159071428Y-98954819D02*
X159166666Y-98954819D01*
X159166666Y-98954819D02*
X159309523Y-99002438D01*
X159309523Y-99002438D02*
X159357142Y-99050057D01*
X160261904Y-98954819D02*
X159785714Y-98954819D01*
X159785714Y-98954819D02*
X159738095Y-99431009D01*
X159738095Y-99431009D02*
X159785714Y-99383390D01*
X159785714Y-99383390D02*
X159880952Y-99335771D01*
X159880952Y-99335771D02*
X160119047Y-99335771D01*
X160119047Y-99335771D02*
X160214285Y-99383390D01*
X160214285Y-99383390D02*
X160261904Y-99431009D01*
X160261904Y-99431009D02*
X160309523Y-99526247D01*
X160309523Y-99526247D02*
X160309523Y-99764342D01*
X160309523Y-99764342D02*
X160261904Y-99859580D01*
X160261904Y-99859580D02*
X160214285Y-99907200D01*
X160214285Y-99907200D02*
X160119047Y-99954819D01*
X160119047Y-99954819D02*
X159880952Y-99954819D01*
X159880952Y-99954819D02*
X159785714Y-99907200D01*
X159785714Y-99907200D02*
X159738095Y-99859580D01*
X160642857Y-98954819D02*
X161309523Y-98954819D01*
X161309523Y-98954819D02*
X160880952Y-99954819D01*
X155561905Y-106154819D02*
X156133333Y-106154819D01*
X155847619Y-107154819D02*
X155847619Y-106154819D01*
X156466667Y-107154819D02*
X156466667Y-106154819D01*
X156466667Y-106154819D02*
X156847619Y-106154819D01*
X156847619Y-106154819D02*
X156942857Y-106202438D01*
X156942857Y-106202438D02*
X156990476Y-106250057D01*
X156990476Y-106250057D02*
X157038095Y-106345295D01*
X157038095Y-106345295D02*
X157038095Y-106488152D01*
X157038095Y-106488152D02*
X156990476Y-106583390D01*
X156990476Y-106583390D02*
X156942857Y-106631009D01*
X156942857Y-106631009D02*
X156847619Y-106678628D01*
X156847619Y-106678628D02*
X156466667Y-106678628D01*
X157990476Y-107154819D02*
X157419048Y-107154819D01*
X157704762Y-107154819D02*
X157704762Y-106154819D01*
X157704762Y-106154819D02*
X157609524Y-106297676D01*
X157609524Y-106297676D02*
X157514286Y-106392914D01*
X157514286Y-106392914D02*
X157419048Y-106440533D01*
X158323810Y-106154819D02*
X158942857Y-106154819D01*
X158942857Y-106154819D02*
X158609524Y-106535771D01*
X158609524Y-106535771D02*
X158752381Y-106535771D01*
X158752381Y-106535771D02*
X158847619Y-106583390D01*
X158847619Y-106583390D02*
X158895238Y-106631009D01*
X158895238Y-106631009D02*
X158942857Y-106726247D01*
X158942857Y-106726247D02*
X158942857Y-106964342D01*
X158942857Y-106964342D02*
X158895238Y-107059580D01*
X158895238Y-107059580D02*
X158847619Y-107107200D01*
X158847619Y-107107200D02*
X158752381Y-107154819D01*
X158752381Y-107154819D02*
X158466667Y-107154819D01*
X158466667Y-107154819D02*
X158371429Y-107107200D01*
X158371429Y-107107200D02*
X158323810Y-107059580D01*
X146982142Y-107359580D02*
X146934523Y-107407200D01*
X146934523Y-107407200D02*
X146791666Y-107454819D01*
X146791666Y-107454819D02*
X146696428Y-107454819D01*
X146696428Y-107454819D02*
X146553571Y-107407200D01*
X146553571Y-107407200D02*
X146458333Y-107311961D01*
X146458333Y-107311961D02*
X146410714Y-107216723D01*
X146410714Y-107216723D02*
X146363095Y-107026247D01*
X146363095Y-107026247D02*
X146363095Y-106883390D01*
X146363095Y-106883390D02*
X146410714Y-106692914D01*
X146410714Y-106692914D02*
X146458333Y-106597676D01*
X146458333Y-106597676D02*
X146553571Y-106502438D01*
X146553571Y-106502438D02*
X146696428Y-106454819D01*
X146696428Y-106454819D02*
X146791666Y-106454819D01*
X146791666Y-106454819D02*
X146934523Y-106502438D01*
X146934523Y-106502438D02*
X146982142Y-106550057D01*
X147934523Y-107454819D02*
X147363095Y-107454819D01*
X147648809Y-107454819D02*
X147648809Y-106454819D01*
X147648809Y-106454819D02*
X147553571Y-106597676D01*
X147553571Y-106597676D02*
X147458333Y-106692914D01*
X147458333Y-106692914D02*
X147363095Y-106740533D01*
X148505952Y-106883390D02*
X148410714Y-106835771D01*
X148410714Y-106835771D02*
X148363095Y-106788152D01*
X148363095Y-106788152D02*
X148315476Y-106692914D01*
X148315476Y-106692914D02*
X148315476Y-106645295D01*
X148315476Y-106645295D02*
X148363095Y-106550057D01*
X148363095Y-106550057D02*
X148410714Y-106502438D01*
X148410714Y-106502438D02*
X148505952Y-106454819D01*
X148505952Y-106454819D02*
X148696428Y-106454819D01*
X148696428Y-106454819D02*
X148791666Y-106502438D01*
X148791666Y-106502438D02*
X148839285Y-106550057D01*
X148839285Y-106550057D02*
X148886904Y-106645295D01*
X148886904Y-106645295D02*
X148886904Y-106692914D01*
X148886904Y-106692914D02*
X148839285Y-106788152D01*
X148839285Y-106788152D02*
X148791666Y-106835771D01*
X148791666Y-106835771D02*
X148696428Y-106883390D01*
X148696428Y-106883390D02*
X148505952Y-106883390D01*
X148505952Y-106883390D02*
X148410714Y-106931009D01*
X148410714Y-106931009D02*
X148363095Y-106978628D01*
X148363095Y-106978628D02*
X148315476Y-107073866D01*
X148315476Y-107073866D02*
X148315476Y-107264342D01*
X148315476Y-107264342D02*
X148363095Y-107359580D01*
X148363095Y-107359580D02*
X148410714Y-107407200D01*
X148410714Y-107407200D02*
X148505952Y-107454819D01*
X148505952Y-107454819D02*
X148696428Y-107454819D01*
X148696428Y-107454819D02*
X148791666Y-107407200D01*
X148791666Y-107407200D02*
X148839285Y-107359580D01*
X148839285Y-107359580D02*
X148886904Y-107264342D01*
X148886904Y-107264342D02*
X148886904Y-107073866D01*
X148886904Y-107073866D02*
X148839285Y-106978628D01*
X148839285Y-106978628D02*
X148791666Y-106931009D01*
X148791666Y-106931009D02*
X148696428Y-106883390D01*
X147607142Y-89109580D02*
X147559523Y-89157200D01*
X147559523Y-89157200D02*
X147416666Y-89204819D01*
X147416666Y-89204819D02*
X147321428Y-89204819D01*
X147321428Y-89204819D02*
X147178571Y-89157200D01*
X147178571Y-89157200D02*
X147083333Y-89061961D01*
X147083333Y-89061961D02*
X147035714Y-88966723D01*
X147035714Y-88966723D02*
X146988095Y-88776247D01*
X146988095Y-88776247D02*
X146988095Y-88633390D01*
X146988095Y-88633390D02*
X147035714Y-88442914D01*
X147035714Y-88442914D02*
X147083333Y-88347676D01*
X147083333Y-88347676D02*
X147178571Y-88252438D01*
X147178571Y-88252438D02*
X147321428Y-88204819D01*
X147321428Y-88204819D02*
X147416666Y-88204819D01*
X147416666Y-88204819D02*
X147559523Y-88252438D01*
X147559523Y-88252438D02*
X147607142Y-88300057D01*
X148464285Y-88204819D02*
X148273809Y-88204819D01*
X148273809Y-88204819D02*
X148178571Y-88252438D01*
X148178571Y-88252438D02*
X148130952Y-88300057D01*
X148130952Y-88300057D02*
X148035714Y-88442914D01*
X148035714Y-88442914D02*
X147988095Y-88633390D01*
X147988095Y-88633390D02*
X147988095Y-89014342D01*
X147988095Y-89014342D02*
X148035714Y-89109580D01*
X148035714Y-89109580D02*
X148083333Y-89157200D01*
X148083333Y-89157200D02*
X148178571Y-89204819D01*
X148178571Y-89204819D02*
X148369047Y-89204819D01*
X148369047Y-89204819D02*
X148464285Y-89157200D01*
X148464285Y-89157200D02*
X148511904Y-89109580D01*
X148511904Y-89109580D02*
X148559523Y-89014342D01*
X148559523Y-89014342D02*
X148559523Y-88776247D01*
X148559523Y-88776247D02*
X148511904Y-88681009D01*
X148511904Y-88681009D02*
X148464285Y-88633390D01*
X148464285Y-88633390D02*
X148369047Y-88585771D01*
X148369047Y-88585771D02*
X148178571Y-88585771D01*
X148178571Y-88585771D02*
X148083333Y-88633390D01*
X148083333Y-88633390D02*
X148035714Y-88681009D01*
X148035714Y-88681009D02*
X147988095Y-88776247D01*
X149416666Y-88538152D02*
X149416666Y-89204819D01*
X149178571Y-88157200D02*
X148940476Y-88871485D01*
X148940476Y-88871485D02*
X149559523Y-88871485D01*
X139732142Y-109609580D02*
X139684523Y-109657200D01*
X139684523Y-109657200D02*
X139541666Y-109704819D01*
X139541666Y-109704819D02*
X139446428Y-109704819D01*
X139446428Y-109704819D02*
X139303571Y-109657200D01*
X139303571Y-109657200D02*
X139208333Y-109561961D01*
X139208333Y-109561961D02*
X139160714Y-109466723D01*
X139160714Y-109466723D02*
X139113095Y-109276247D01*
X139113095Y-109276247D02*
X139113095Y-109133390D01*
X139113095Y-109133390D02*
X139160714Y-108942914D01*
X139160714Y-108942914D02*
X139208333Y-108847676D01*
X139208333Y-108847676D02*
X139303571Y-108752438D01*
X139303571Y-108752438D02*
X139446428Y-108704819D01*
X139446428Y-108704819D02*
X139541666Y-108704819D01*
X139541666Y-108704819D02*
X139684523Y-108752438D01*
X139684523Y-108752438D02*
X139732142Y-108800057D01*
X140684523Y-109704819D02*
X140113095Y-109704819D01*
X140398809Y-109704819D02*
X140398809Y-108704819D01*
X140398809Y-108704819D02*
X140303571Y-108847676D01*
X140303571Y-108847676D02*
X140208333Y-108942914D01*
X140208333Y-108942914D02*
X140113095Y-108990533D01*
X141541666Y-109038152D02*
X141541666Y-109704819D01*
X141303571Y-108657200D02*
X141065476Y-109371485D01*
X141065476Y-109371485D02*
X141684523Y-109371485D01*
X161617142Y-93634580D02*
X161569523Y-93682200D01*
X161569523Y-93682200D02*
X161426666Y-93729819D01*
X161426666Y-93729819D02*
X161331428Y-93729819D01*
X161331428Y-93729819D02*
X161188571Y-93682200D01*
X161188571Y-93682200D02*
X161093333Y-93586961D01*
X161093333Y-93586961D02*
X161045714Y-93491723D01*
X161045714Y-93491723D02*
X160998095Y-93301247D01*
X160998095Y-93301247D02*
X160998095Y-93158390D01*
X160998095Y-93158390D02*
X161045714Y-92967914D01*
X161045714Y-92967914D02*
X161093333Y-92872676D01*
X161093333Y-92872676D02*
X161188571Y-92777438D01*
X161188571Y-92777438D02*
X161331428Y-92729819D01*
X161331428Y-92729819D02*
X161426666Y-92729819D01*
X161426666Y-92729819D02*
X161569523Y-92777438D01*
X161569523Y-92777438D02*
X161617142Y-92825057D01*
X162521904Y-92729819D02*
X162045714Y-92729819D01*
X162045714Y-92729819D02*
X161998095Y-93206009D01*
X161998095Y-93206009D02*
X162045714Y-93158390D01*
X162045714Y-93158390D02*
X162140952Y-93110771D01*
X162140952Y-93110771D02*
X162379047Y-93110771D01*
X162379047Y-93110771D02*
X162474285Y-93158390D01*
X162474285Y-93158390D02*
X162521904Y-93206009D01*
X162521904Y-93206009D02*
X162569523Y-93301247D01*
X162569523Y-93301247D02*
X162569523Y-93539342D01*
X162569523Y-93539342D02*
X162521904Y-93634580D01*
X162521904Y-93634580D02*
X162474285Y-93682200D01*
X162474285Y-93682200D02*
X162379047Y-93729819D01*
X162379047Y-93729819D02*
X162140952Y-93729819D01*
X162140952Y-93729819D02*
X162045714Y-93682200D01*
X162045714Y-93682200D02*
X161998095Y-93634580D01*
X163426666Y-92729819D02*
X163236190Y-92729819D01*
X163236190Y-92729819D02*
X163140952Y-92777438D01*
X163140952Y-92777438D02*
X163093333Y-92825057D01*
X163093333Y-92825057D02*
X162998095Y-92967914D01*
X162998095Y-92967914D02*
X162950476Y-93158390D01*
X162950476Y-93158390D02*
X162950476Y-93539342D01*
X162950476Y-93539342D02*
X162998095Y-93634580D01*
X162998095Y-93634580D02*
X163045714Y-93682200D01*
X163045714Y-93682200D02*
X163140952Y-93729819D01*
X163140952Y-93729819D02*
X163331428Y-93729819D01*
X163331428Y-93729819D02*
X163426666Y-93682200D01*
X163426666Y-93682200D02*
X163474285Y-93634580D01*
X163474285Y-93634580D02*
X163521904Y-93539342D01*
X163521904Y-93539342D02*
X163521904Y-93301247D01*
X163521904Y-93301247D02*
X163474285Y-93206009D01*
X163474285Y-93206009D02*
X163426666Y-93158390D01*
X163426666Y-93158390D02*
X163331428Y-93110771D01*
X163331428Y-93110771D02*
X163140952Y-93110771D01*
X163140952Y-93110771D02*
X163045714Y-93158390D01*
X163045714Y-93158390D02*
X162998095Y-93206009D01*
X162998095Y-93206009D02*
X162950476Y-93301247D01*
X151982142Y-104109580D02*
X151934523Y-104157200D01*
X151934523Y-104157200D02*
X151791666Y-104204819D01*
X151791666Y-104204819D02*
X151696428Y-104204819D01*
X151696428Y-104204819D02*
X151553571Y-104157200D01*
X151553571Y-104157200D02*
X151458333Y-104061961D01*
X151458333Y-104061961D02*
X151410714Y-103966723D01*
X151410714Y-103966723D02*
X151363095Y-103776247D01*
X151363095Y-103776247D02*
X151363095Y-103633390D01*
X151363095Y-103633390D02*
X151410714Y-103442914D01*
X151410714Y-103442914D02*
X151458333Y-103347676D01*
X151458333Y-103347676D02*
X151553571Y-103252438D01*
X151553571Y-103252438D02*
X151696428Y-103204819D01*
X151696428Y-103204819D02*
X151791666Y-103204819D01*
X151791666Y-103204819D02*
X151934523Y-103252438D01*
X151934523Y-103252438D02*
X151982142Y-103300057D01*
X152839285Y-103204819D02*
X152648809Y-103204819D01*
X152648809Y-103204819D02*
X152553571Y-103252438D01*
X152553571Y-103252438D02*
X152505952Y-103300057D01*
X152505952Y-103300057D02*
X152410714Y-103442914D01*
X152410714Y-103442914D02*
X152363095Y-103633390D01*
X152363095Y-103633390D02*
X152363095Y-104014342D01*
X152363095Y-104014342D02*
X152410714Y-104109580D01*
X152410714Y-104109580D02*
X152458333Y-104157200D01*
X152458333Y-104157200D02*
X152553571Y-104204819D01*
X152553571Y-104204819D02*
X152744047Y-104204819D01*
X152744047Y-104204819D02*
X152839285Y-104157200D01*
X152839285Y-104157200D02*
X152886904Y-104109580D01*
X152886904Y-104109580D02*
X152934523Y-104014342D01*
X152934523Y-104014342D02*
X152934523Y-103776247D01*
X152934523Y-103776247D02*
X152886904Y-103681009D01*
X152886904Y-103681009D02*
X152839285Y-103633390D01*
X152839285Y-103633390D02*
X152744047Y-103585771D01*
X152744047Y-103585771D02*
X152553571Y-103585771D01*
X152553571Y-103585771D02*
X152458333Y-103633390D01*
X152458333Y-103633390D02*
X152410714Y-103681009D01*
X152410714Y-103681009D02*
X152363095Y-103776247D01*
X153315476Y-103300057D02*
X153363095Y-103252438D01*
X153363095Y-103252438D02*
X153458333Y-103204819D01*
X153458333Y-103204819D02*
X153696428Y-103204819D01*
X153696428Y-103204819D02*
X153791666Y-103252438D01*
X153791666Y-103252438D02*
X153839285Y-103300057D01*
X153839285Y-103300057D02*
X153886904Y-103395295D01*
X153886904Y-103395295D02*
X153886904Y-103490533D01*
X153886904Y-103490533D02*
X153839285Y-103633390D01*
X153839285Y-103633390D02*
X153267857Y-104204819D01*
X153267857Y-104204819D02*
X153886904Y-104204819D01*
X141484580Y-107892857D02*
X141532200Y-107940476D01*
X141532200Y-107940476D02*
X141579819Y-108083333D01*
X141579819Y-108083333D02*
X141579819Y-108178571D01*
X141579819Y-108178571D02*
X141532200Y-108321428D01*
X141532200Y-108321428D02*
X141436961Y-108416666D01*
X141436961Y-108416666D02*
X141341723Y-108464285D01*
X141341723Y-108464285D02*
X141151247Y-108511904D01*
X141151247Y-108511904D02*
X141008390Y-108511904D01*
X141008390Y-108511904D02*
X140817914Y-108464285D01*
X140817914Y-108464285D02*
X140722676Y-108416666D01*
X140722676Y-108416666D02*
X140627438Y-108321428D01*
X140627438Y-108321428D02*
X140579819Y-108178571D01*
X140579819Y-108178571D02*
X140579819Y-108083333D01*
X140579819Y-108083333D02*
X140627438Y-107940476D01*
X140627438Y-107940476D02*
X140675057Y-107892857D01*
X141579819Y-106940476D02*
X141579819Y-107511904D01*
X141579819Y-107226190D02*
X140579819Y-107226190D01*
X140579819Y-107226190D02*
X140722676Y-107321428D01*
X140722676Y-107321428D02*
X140817914Y-107416666D01*
X140817914Y-107416666D02*
X140865533Y-107511904D01*
X141579819Y-106464285D02*
X141579819Y-106273809D01*
X141579819Y-106273809D02*
X141532200Y-106178571D01*
X141532200Y-106178571D02*
X141484580Y-106130952D01*
X141484580Y-106130952D02*
X141341723Y-106035714D01*
X141341723Y-106035714D02*
X141151247Y-105988095D01*
X141151247Y-105988095D02*
X140770295Y-105988095D01*
X140770295Y-105988095D02*
X140675057Y-106035714D01*
X140675057Y-106035714D02*
X140627438Y-106083333D01*
X140627438Y-106083333D02*
X140579819Y-106178571D01*
X140579819Y-106178571D02*
X140579819Y-106369047D01*
X140579819Y-106369047D02*
X140627438Y-106464285D01*
X140627438Y-106464285D02*
X140675057Y-106511904D01*
X140675057Y-106511904D02*
X140770295Y-106559523D01*
X140770295Y-106559523D02*
X141008390Y-106559523D01*
X141008390Y-106559523D02*
X141103628Y-106511904D01*
X141103628Y-106511904D02*
X141151247Y-106464285D01*
X141151247Y-106464285D02*
X141198866Y-106369047D01*
X141198866Y-106369047D02*
X141198866Y-106178571D01*
X141198866Y-106178571D02*
X141151247Y-106083333D01*
X141151247Y-106083333D02*
X141103628Y-106035714D01*
X141103628Y-106035714D02*
X141008390Y-105988095D01*
X148157142Y-92109580D02*
X148109523Y-92157200D01*
X148109523Y-92157200D02*
X147966666Y-92204819D01*
X147966666Y-92204819D02*
X147871428Y-92204819D01*
X147871428Y-92204819D02*
X147728571Y-92157200D01*
X147728571Y-92157200D02*
X147633333Y-92061961D01*
X147633333Y-92061961D02*
X147585714Y-91966723D01*
X147585714Y-91966723D02*
X147538095Y-91776247D01*
X147538095Y-91776247D02*
X147538095Y-91633390D01*
X147538095Y-91633390D02*
X147585714Y-91442914D01*
X147585714Y-91442914D02*
X147633333Y-91347676D01*
X147633333Y-91347676D02*
X147728571Y-91252438D01*
X147728571Y-91252438D02*
X147871428Y-91204819D01*
X147871428Y-91204819D02*
X147966666Y-91204819D01*
X147966666Y-91204819D02*
X148109523Y-91252438D01*
X148109523Y-91252438D02*
X148157142Y-91300057D01*
X149061904Y-91204819D02*
X148585714Y-91204819D01*
X148585714Y-91204819D02*
X148538095Y-91681009D01*
X148538095Y-91681009D02*
X148585714Y-91633390D01*
X148585714Y-91633390D02*
X148680952Y-91585771D01*
X148680952Y-91585771D02*
X148919047Y-91585771D01*
X148919047Y-91585771D02*
X149014285Y-91633390D01*
X149014285Y-91633390D02*
X149061904Y-91681009D01*
X149061904Y-91681009D02*
X149109523Y-91776247D01*
X149109523Y-91776247D02*
X149109523Y-92014342D01*
X149109523Y-92014342D02*
X149061904Y-92109580D01*
X149061904Y-92109580D02*
X149014285Y-92157200D01*
X149014285Y-92157200D02*
X148919047Y-92204819D01*
X148919047Y-92204819D02*
X148680952Y-92204819D01*
X148680952Y-92204819D02*
X148585714Y-92157200D01*
X148585714Y-92157200D02*
X148538095Y-92109580D01*
X149490476Y-91300057D02*
X149538095Y-91252438D01*
X149538095Y-91252438D02*
X149633333Y-91204819D01*
X149633333Y-91204819D02*
X149871428Y-91204819D01*
X149871428Y-91204819D02*
X149966666Y-91252438D01*
X149966666Y-91252438D02*
X150014285Y-91300057D01*
X150014285Y-91300057D02*
X150061904Y-91395295D01*
X150061904Y-91395295D02*
X150061904Y-91490533D01*
X150061904Y-91490533D02*
X150014285Y-91633390D01*
X150014285Y-91633390D02*
X149442857Y-92204819D01*
X149442857Y-92204819D02*
X150061904Y-92204819D01*
X152704819Y-110038094D02*
X152704819Y-109466666D01*
X153704819Y-109752380D02*
X152704819Y-109752380D01*
X153704819Y-109133332D02*
X152704819Y-109133332D01*
X152704819Y-109133332D02*
X152704819Y-108752380D01*
X152704819Y-108752380D02*
X152752438Y-108657142D01*
X152752438Y-108657142D02*
X152800057Y-108609523D01*
X152800057Y-108609523D02*
X152895295Y-108561904D01*
X152895295Y-108561904D02*
X153038152Y-108561904D01*
X153038152Y-108561904D02*
X153133390Y-108609523D01*
X153133390Y-108609523D02*
X153181009Y-108657142D01*
X153181009Y-108657142D02*
X153228628Y-108752380D01*
X153228628Y-108752380D02*
X153228628Y-109133332D01*
X152800057Y-108180951D02*
X152752438Y-108133332D01*
X152752438Y-108133332D02*
X152704819Y-108038094D01*
X152704819Y-108038094D02*
X152704819Y-107799999D01*
X152704819Y-107799999D02*
X152752438Y-107704761D01*
X152752438Y-107704761D02*
X152800057Y-107657142D01*
X152800057Y-107657142D02*
X152895295Y-107609523D01*
X152895295Y-107609523D02*
X152990533Y-107609523D01*
X152990533Y-107609523D02*
X153133390Y-107657142D01*
X153133390Y-107657142D02*
X153704819Y-108228570D01*
X153704819Y-108228570D02*
X153704819Y-107609523D01*
X152800057Y-107228570D02*
X152752438Y-107180951D01*
X152752438Y-107180951D02*
X152704819Y-107085713D01*
X152704819Y-107085713D02*
X152704819Y-106847618D01*
X152704819Y-106847618D02*
X152752438Y-106752380D01*
X152752438Y-106752380D02*
X152800057Y-106704761D01*
X152800057Y-106704761D02*
X152895295Y-106657142D01*
X152895295Y-106657142D02*
X152990533Y-106657142D01*
X152990533Y-106657142D02*
X153133390Y-106704761D01*
X153133390Y-106704761D02*
X153704819Y-107276189D01*
X153704819Y-107276189D02*
X153704819Y-106657142D01*
X151204819Y-105642857D02*
X151204819Y-106119047D01*
X151204819Y-106119047D02*
X150204819Y-106119047D01*
X151204819Y-104785714D02*
X151204819Y-105357142D01*
X151204819Y-105071428D02*
X150204819Y-105071428D01*
X150204819Y-105071428D02*
X150347676Y-105166666D01*
X150347676Y-105166666D02*
X150442914Y-105261904D01*
X150442914Y-105261904D02*
X150490533Y-105357142D01*
X151204819Y-103833333D02*
X151204819Y-104404761D01*
X151204819Y-104119047D02*
X150204819Y-104119047D01*
X150204819Y-104119047D02*
X150347676Y-104214285D01*
X150347676Y-104214285D02*
X150442914Y-104309523D01*
X150442914Y-104309523D02*
X150490533Y-104404761D01*
X147607142Y-87859580D02*
X147559523Y-87907200D01*
X147559523Y-87907200D02*
X147416666Y-87954819D01*
X147416666Y-87954819D02*
X147321428Y-87954819D01*
X147321428Y-87954819D02*
X147178571Y-87907200D01*
X147178571Y-87907200D02*
X147083333Y-87811961D01*
X147083333Y-87811961D02*
X147035714Y-87716723D01*
X147035714Y-87716723D02*
X146988095Y-87526247D01*
X146988095Y-87526247D02*
X146988095Y-87383390D01*
X146988095Y-87383390D02*
X147035714Y-87192914D01*
X147035714Y-87192914D02*
X147083333Y-87097676D01*
X147083333Y-87097676D02*
X147178571Y-87002438D01*
X147178571Y-87002438D02*
X147321428Y-86954819D01*
X147321428Y-86954819D02*
X147416666Y-86954819D01*
X147416666Y-86954819D02*
X147559523Y-87002438D01*
X147559523Y-87002438D02*
X147607142Y-87050057D01*
X148464285Y-86954819D02*
X148273809Y-86954819D01*
X148273809Y-86954819D02*
X148178571Y-87002438D01*
X148178571Y-87002438D02*
X148130952Y-87050057D01*
X148130952Y-87050057D02*
X148035714Y-87192914D01*
X148035714Y-87192914D02*
X147988095Y-87383390D01*
X147988095Y-87383390D02*
X147988095Y-87764342D01*
X147988095Y-87764342D02*
X148035714Y-87859580D01*
X148035714Y-87859580D02*
X148083333Y-87907200D01*
X148083333Y-87907200D02*
X148178571Y-87954819D01*
X148178571Y-87954819D02*
X148369047Y-87954819D01*
X148369047Y-87954819D02*
X148464285Y-87907200D01*
X148464285Y-87907200D02*
X148511904Y-87859580D01*
X148511904Y-87859580D02*
X148559523Y-87764342D01*
X148559523Y-87764342D02*
X148559523Y-87526247D01*
X148559523Y-87526247D02*
X148511904Y-87431009D01*
X148511904Y-87431009D02*
X148464285Y-87383390D01*
X148464285Y-87383390D02*
X148369047Y-87335771D01*
X148369047Y-87335771D02*
X148178571Y-87335771D01*
X148178571Y-87335771D02*
X148083333Y-87383390D01*
X148083333Y-87383390D02*
X148035714Y-87431009D01*
X148035714Y-87431009D02*
X147988095Y-87526247D01*
X148892857Y-86954819D02*
X149511904Y-86954819D01*
X149511904Y-86954819D02*
X149178571Y-87335771D01*
X149178571Y-87335771D02*
X149321428Y-87335771D01*
X149321428Y-87335771D02*
X149416666Y-87383390D01*
X149416666Y-87383390D02*
X149464285Y-87431009D01*
X149464285Y-87431009D02*
X149511904Y-87526247D01*
X149511904Y-87526247D02*
X149511904Y-87764342D01*
X149511904Y-87764342D02*
X149464285Y-87859580D01*
X149464285Y-87859580D02*
X149416666Y-87907200D01*
X149416666Y-87907200D02*
X149321428Y-87954819D01*
X149321428Y-87954819D02*
X149035714Y-87954819D01*
X149035714Y-87954819D02*
X148940476Y-87907200D01*
X148940476Y-87907200D02*
X148892857Y-87859580D01*
X139738095Y-112354819D02*
X139738095Y-113164342D01*
X139738095Y-113164342D02*
X139785714Y-113259580D01*
X139785714Y-113259580D02*
X139833333Y-113307200D01*
X139833333Y-113307200D02*
X139928571Y-113354819D01*
X139928571Y-113354819D02*
X140119047Y-113354819D01*
X140119047Y-113354819D02*
X140214285Y-113307200D01*
X140214285Y-113307200D02*
X140261904Y-113259580D01*
X140261904Y-113259580D02*
X140309523Y-113164342D01*
X140309523Y-113164342D02*
X140309523Y-112354819D01*
X141214285Y-112688152D02*
X141214285Y-113354819D01*
X140976190Y-112307200D02*
X140738095Y-113021485D01*
X140738095Y-113021485D02*
X141357142Y-113021485D01*
X162954819Y-103738094D02*
X162954819Y-103166666D01*
X163954819Y-103452380D02*
X162954819Y-103452380D01*
X163954819Y-102833332D02*
X162954819Y-102833332D01*
X162954819Y-102833332D02*
X162954819Y-102452380D01*
X162954819Y-102452380D02*
X163002438Y-102357142D01*
X163002438Y-102357142D02*
X163050057Y-102309523D01*
X163050057Y-102309523D02*
X163145295Y-102261904D01*
X163145295Y-102261904D02*
X163288152Y-102261904D01*
X163288152Y-102261904D02*
X163383390Y-102309523D01*
X163383390Y-102309523D02*
X163431009Y-102357142D01*
X163431009Y-102357142D02*
X163478628Y-102452380D01*
X163478628Y-102452380D02*
X163478628Y-102833332D01*
X163954819Y-101309523D02*
X163954819Y-101880951D01*
X163954819Y-101595237D02*
X162954819Y-101595237D01*
X162954819Y-101595237D02*
X163097676Y-101690475D01*
X163097676Y-101690475D02*
X163192914Y-101785713D01*
X163192914Y-101785713D02*
X163240533Y-101880951D01*
X163954819Y-100357142D02*
X163954819Y-100928570D01*
X163954819Y-100642856D02*
X162954819Y-100642856D01*
X162954819Y-100642856D02*
X163097676Y-100738094D01*
X163097676Y-100738094D02*
X163192914Y-100833332D01*
X163192914Y-100833332D02*
X163240533Y-100928570D01*
X161607142Y-98694580D02*
X161559523Y-98742200D01*
X161559523Y-98742200D02*
X161416666Y-98789819D01*
X161416666Y-98789819D02*
X161321428Y-98789819D01*
X161321428Y-98789819D02*
X161178571Y-98742200D01*
X161178571Y-98742200D02*
X161083333Y-98646961D01*
X161083333Y-98646961D02*
X161035714Y-98551723D01*
X161035714Y-98551723D02*
X160988095Y-98361247D01*
X160988095Y-98361247D02*
X160988095Y-98218390D01*
X160988095Y-98218390D02*
X161035714Y-98027914D01*
X161035714Y-98027914D02*
X161083333Y-97932676D01*
X161083333Y-97932676D02*
X161178571Y-97837438D01*
X161178571Y-97837438D02*
X161321428Y-97789819D01*
X161321428Y-97789819D02*
X161416666Y-97789819D01*
X161416666Y-97789819D02*
X161559523Y-97837438D01*
X161559523Y-97837438D02*
X161607142Y-97885057D01*
X162511904Y-97789819D02*
X162035714Y-97789819D01*
X162035714Y-97789819D02*
X161988095Y-98266009D01*
X161988095Y-98266009D02*
X162035714Y-98218390D01*
X162035714Y-98218390D02*
X162130952Y-98170771D01*
X162130952Y-98170771D02*
X162369047Y-98170771D01*
X162369047Y-98170771D02*
X162464285Y-98218390D01*
X162464285Y-98218390D02*
X162511904Y-98266009D01*
X162511904Y-98266009D02*
X162559523Y-98361247D01*
X162559523Y-98361247D02*
X162559523Y-98599342D01*
X162559523Y-98599342D02*
X162511904Y-98694580D01*
X162511904Y-98694580D02*
X162464285Y-98742200D01*
X162464285Y-98742200D02*
X162369047Y-98789819D01*
X162369047Y-98789819D02*
X162130952Y-98789819D01*
X162130952Y-98789819D02*
X162035714Y-98742200D01*
X162035714Y-98742200D02*
X161988095Y-98694580D01*
X163178571Y-97789819D02*
X163273809Y-97789819D01*
X163273809Y-97789819D02*
X163369047Y-97837438D01*
X163369047Y-97837438D02*
X163416666Y-97885057D01*
X163416666Y-97885057D02*
X163464285Y-97980295D01*
X163464285Y-97980295D02*
X163511904Y-98170771D01*
X163511904Y-98170771D02*
X163511904Y-98408866D01*
X163511904Y-98408866D02*
X163464285Y-98599342D01*
X163464285Y-98599342D02*
X163416666Y-98694580D01*
X163416666Y-98694580D02*
X163369047Y-98742200D01*
X163369047Y-98742200D02*
X163273809Y-98789819D01*
X163273809Y-98789819D02*
X163178571Y-98789819D01*
X163178571Y-98789819D02*
X163083333Y-98742200D01*
X163083333Y-98742200D02*
X163035714Y-98694580D01*
X163035714Y-98694580D02*
X162988095Y-98599342D01*
X162988095Y-98599342D02*
X162940476Y-98408866D01*
X162940476Y-98408866D02*
X162940476Y-98170771D01*
X162940476Y-98170771D02*
X162988095Y-97980295D01*
X162988095Y-97980295D02*
X163035714Y-97885057D01*
X163035714Y-97885057D02*
X163083333Y-97837438D01*
X163083333Y-97837438D02*
X163178571Y-97789819D01*
X136257142Y-104954819D02*
X135780952Y-104954819D01*
X135780952Y-104954819D02*
X135780952Y-103954819D01*
X137114285Y-104954819D02*
X136542857Y-104954819D01*
X136828571Y-104954819D02*
X136828571Y-103954819D01*
X136828571Y-103954819D02*
X136733333Y-104097676D01*
X136733333Y-104097676D02*
X136638095Y-104192914D01*
X136638095Y-104192914D02*
X136542857Y-104240533D01*
X137733333Y-103954819D02*
X137828571Y-103954819D01*
X137828571Y-103954819D02*
X137923809Y-104002438D01*
X137923809Y-104002438D02*
X137971428Y-104050057D01*
X137971428Y-104050057D02*
X138019047Y-104145295D01*
X138019047Y-104145295D02*
X138066666Y-104335771D01*
X138066666Y-104335771D02*
X138066666Y-104573866D01*
X138066666Y-104573866D02*
X138019047Y-104764342D01*
X138019047Y-104764342D02*
X137971428Y-104859580D01*
X137971428Y-104859580D02*
X137923809Y-104907200D01*
X137923809Y-104907200D02*
X137828571Y-104954819D01*
X137828571Y-104954819D02*
X137733333Y-104954819D01*
X137733333Y-104954819D02*
X137638095Y-104907200D01*
X137638095Y-104907200D02*
X137590476Y-104859580D01*
X137590476Y-104859580D02*
X137542857Y-104764342D01*
X137542857Y-104764342D02*
X137495238Y-104573866D01*
X137495238Y-104573866D02*
X137495238Y-104335771D01*
X137495238Y-104335771D02*
X137542857Y-104145295D01*
X137542857Y-104145295D02*
X137590476Y-104050057D01*
X137590476Y-104050057D02*
X137638095Y-104002438D01*
X137638095Y-104002438D02*
X137733333Y-103954819D01*
X143363095Y-106329819D02*
X143934523Y-106329819D01*
X143648809Y-107329819D02*
X143648809Y-106329819D01*
X144267857Y-107329819D02*
X144267857Y-106329819D01*
X144267857Y-106329819D02*
X144648809Y-106329819D01*
X144648809Y-106329819D02*
X144744047Y-106377438D01*
X144744047Y-106377438D02*
X144791666Y-106425057D01*
X144791666Y-106425057D02*
X144839285Y-106520295D01*
X144839285Y-106520295D02*
X144839285Y-106663152D01*
X144839285Y-106663152D02*
X144791666Y-106758390D01*
X144791666Y-106758390D02*
X144744047Y-106806009D01*
X144744047Y-106806009D02*
X144648809Y-106853628D01*
X144648809Y-106853628D02*
X144267857Y-106853628D01*
X145791666Y-107329819D02*
X145220238Y-107329819D01*
X145505952Y-107329819D02*
X145505952Y-106329819D01*
X145505952Y-106329819D02*
X145410714Y-106472676D01*
X145410714Y-106472676D02*
X145315476Y-106567914D01*
X145315476Y-106567914D02*
X145220238Y-106615533D01*
X139877142Y-92474819D02*
X139400952Y-92474819D01*
X139400952Y-92474819D02*
X139400952Y-91474819D01*
X140734285Y-92474819D02*
X140162857Y-92474819D01*
X140448571Y-92474819D02*
X140448571Y-91474819D01*
X140448571Y-91474819D02*
X140353333Y-91617676D01*
X140353333Y-91617676D02*
X140258095Y-91712914D01*
X140258095Y-91712914D02*
X140162857Y-91760533D01*
X141591428Y-91474819D02*
X141400952Y-91474819D01*
X141400952Y-91474819D02*
X141305714Y-91522438D01*
X141305714Y-91522438D02*
X141258095Y-91570057D01*
X141258095Y-91570057D02*
X141162857Y-91712914D01*
X141162857Y-91712914D02*
X141115238Y-91903390D01*
X141115238Y-91903390D02*
X141115238Y-92284342D01*
X141115238Y-92284342D02*
X141162857Y-92379580D01*
X141162857Y-92379580D02*
X141210476Y-92427200D01*
X141210476Y-92427200D02*
X141305714Y-92474819D01*
X141305714Y-92474819D02*
X141496190Y-92474819D01*
X141496190Y-92474819D02*
X141591428Y-92427200D01*
X141591428Y-92427200D02*
X141639047Y-92379580D01*
X141639047Y-92379580D02*
X141686666Y-92284342D01*
X141686666Y-92284342D02*
X141686666Y-92046247D01*
X141686666Y-92046247D02*
X141639047Y-91951009D01*
X141639047Y-91951009D02*
X141591428Y-91903390D01*
X141591428Y-91903390D02*
X141496190Y-91855771D01*
X141496190Y-91855771D02*
X141305714Y-91855771D01*
X141305714Y-91855771D02*
X141210476Y-91903390D01*
X141210476Y-91903390D02*
X141162857Y-91951009D01*
X141162857Y-91951009D02*
X141115238Y-92046247D01*
X137754819Y-103142857D02*
X137278628Y-103476190D01*
X137754819Y-103714285D02*
X136754819Y-103714285D01*
X136754819Y-103714285D02*
X136754819Y-103333333D01*
X136754819Y-103333333D02*
X136802438Y-103238095D01*
X136802438Y-103238095D02*
X136850057Y-103190476D01*
X136850057Y-103190476D02*
X136945295Y-103142857D01*
X136945295Y-103142857D02*
X137088152Y-103142857D01*
X137088152Y-103142857D02*
X137183390Y-103190476D01*
X137183390Y-103190476D02*
X137231009Y-103238095D01*
X137231009Y-103238095D02*
X137278628Y-103333333D01*
X137278628Y-103333333D02*
X137278628Y-103714285D01*
X136850057Y-102761904D02*
X136802438Y-102714285D01*
X136802438Y-102714285D02*
X136754819Y-102619047D01*
X136754819Y-102619047D02*
X136754819Y-102380952D01*
X136754819Y-102380952D02*
X136802438Y-102285714D01*
X136802438Y-102285714D02*
X136850057Y-102238095D01*
X136850057Y-102238095D02*
X136945295Y-102190476D01*
X136945295Y-102190476D02*
X137040533Y-102190476D01*
X137040533Y-102190476D02*
X137183390Y-102238095D01*
X137183390Y-102238095D02*
X137754819Y-102809523D01*
X137754819Y-102809523D02*
X137754819Y-102190476D01*
X137088152Y-101333333D02*
X137754819Y-101333333D01*
X136707200Y-101571428D02*
X137421485Y-101809523D01*
X137421485Y-101809523D02*
X137421485Y-101190476D01*
X135793207Y-91119104D02*
X136269397Y-91119104D01*
X135697969Y-91404819D02*
X136031302Y-90404819D01*
X136031302Y-90404819D02*
X136364635Y-91404819D01*
X136697969Y-90881009D02*
X137031302Y-90881009D01*
X137174159Y-91404819D02*
X136697969Y-91404819D01*
X136697969Y-91404819D02*
X136697969Y-90404819D01*
X136697969Y-90404819D02*
X137174159Y-90404819D01*
X137555112Y-90500057D02*
X137602731Y-90452438D01*
X137602731Y-90452438D02*
X137697969Y-90404819D01*
X137697969Y-90404819D02*
X137936064Y-90404819D01*
X137936064Y-90404819D02*
X138031302Y-90452438D01*
X138031302Y-90452438D02*
X138078921Y-90500057D01*
X138078921Y-90500057D02*
X138126540Y-90595295D01*
X138126540Y-90595295D02*
X138126540Y-90690533D01*
X138126540Y-90690533D02*
X138078921Y-90833390D01*
X138078921Y-90833390D02*
X137507493Y-91404819D01*
X137507493Y-91404819D02*
X138126540Y-91404819D01*
X158738095Y-91454819D02*
X158738095Y-92264342D01*
X158738095Y-92264342D02*
X158785714Y-92359580D01*
X158785714Y-92359580D02*
X158833333Y-92407200D01*
X158833333Y-92407200D02*
X158928571Y-92454819D01*
X158928571Y-92454819D02*
X159119047Y-92454819D01*
X159119047Y-92454819D02*
X159214285Y-92407200D01*
X159214285Y-92407200D02*
X159261904Y-92359580D01*
X159261904Y-92359580D02*
X159309523Y-92264342D01*
X159309523Y-92264342D02*
X159309523Y-91454819D01*
X160261904Y-91454819D02*
X159785714Y-91454819D01*
X159785714Y-91454819D02*
X159738095Y-91931009D01*
X159738095Y-91931009D02*
X159785714Y-91883390D01*
X159785714Y-91883390D02*
X159880952Y-91835771D01*
X159880952Y-91835771D02*
X160119047Y-91835771D01*
X160119047Y-91835771D02*
X160214285Y-91883390D01*
X160214285Y-91883390D02*
X160261904Y-91931009D01*
X160261904Y-91931009D02*
X160309523Y-92026247D01*
X160309523Y-92026247D02*
X160309523Y-92264342D01*
X160309523Y-92264342D02*
X160261904Y-92359580D01*
X160261904Y-92359580D02*
X160214285Y-92407200D01*
X160214285Y-92407200D02*
X160119047Y-92454819D01*
X160119047Y-92454819D02*
X159880952Y-92454819D01*
X159880952Y-92454819D02*
X159785714Y-92407200D01*
X159785714Y-92407200D02*
X159738095Y-92359580D01*
X161597142Y-97444580D02*
X161549523Y-97492200D01*
X161549523Y-97492200D02*
X161406666Y-97539819D01*
X161406666Y-97539819D02*
X161311428Y-97539819D01*
X161311428Y-97539819D02*
X161168571Y-97492200D01*
X161168571Y-97492200D02*
X161073333Y-97396961D01*
X161073333Y-97396961D02*
X161025714Y-97301723D01*
X161025714Y-97301723D02*
X160978095Y-97111247D01*
X160978095Y-97111247D02*
X160978095Y-96968390D01*
X160978095Y-96968390D02*
X161025714Y-96777914D01*
X161025714Y-96777914D02*
X161073333Y-96682676D01*
X161073333Y-96682676D02*
X161168571Y-96587438D01*
X161168571Y-96587438D02*
X161311428Y-96539819D01*
X161311428Y-96539819D02*
X161406666Y-96539819D01*
X161406666Y-96539819D02*
X161549523Y-96587438D01*
X161549523Y-96587438D02*
X161597142Y-96635057D01*
X162501904Y-96539819D02*
X162025714Y-96539819D01*
X162025714Y-96539819D02*
X161978095Y-97016009D01*
X161978095Y-97016009D02*
X162025714Y-96968390D01*
X162025714Y-96968390D02*
X162120952Y-96920771D01*
X162120952Y-96920771D02*
X162359047Y-96920771D01*
X162359047Y-96920771D02*
X162454285Y-96968390D01*
X162454285Y-96968390D02*
X162501904Y-97016009D01*
X162501904Y-97016009D02*
X162549523Y-97111247D01*
X162549523Y-97111247D02*
X162549523Y-97349342D01*
X162549523Y-97349342D02*
X162501904Y-97444580D01*
X162501904Y-97444580D02*
X162454285Y-97492200D01*
X162454285Y-97492200D02*
X162359047Y-97539819D01*
X162359047Y-97539819D02*
X162120952Y-97539819D01*
X162120952Y-97539819D02*
X162025714Y-97492200D01*
X162025714Y-97492200D02*
X161978095Y-97444580D01*
X163454285Y-96539819D02*
X162978095Y-96539819D01*
X162978095Y-96539819D02*
X162930476Y-97016009D01*
X162930476Y-97016009D02*
X162978095Y-96968390D01*
X162978095Y-96968390D02*
X163073333Y-96920771D01*
X163073333Y-96920771D02*
X163311428Y-96920771D01*
X163311428Y-96920771D02*
X163406666Y-96968390D01*
X163406666Y-96968390D02*
X163454285Y-97016009D01*
X163454285Y-97016009D02*
X163501904Y-97111247D01*
X163501904Y-97111247D02*
X163501904Y-97349342D01*
X163501904Y-97349342D02*
X163454285Y-97444580D01*
X163454285Y-97444580D02*
X163406666Y-97492200D01*
X163406666Y-97492200D02*
X163311428Y-97539819D01*
X163311428Y-97539819D02*
X163073333Y-97539819D01*
X163073333Y-97539819D02*
X162978095Y-97492200D01*
X162978095Y-97492200D02*
X162930476Y-97444580D01*
X159357142Y-101109580D02*
X159309523Y-101157200D01*
X159309523Y-101157200D02*
X159166666Y-101204819D01*
X159166666Y-101204819D02*
X159071428Y-101204819D01*
X159071428Y-101204819D02*
X158928571Y-101157200D01*
X158928571Y-101157200D02*
X158833333Y-101061961D01*
X158833333Y-101061961D02*
X158785714Y-100966723D01*
X158785714Y-100966723D02*
X158738095Y-100776247D01*
X158738095Y-100776247D02*
X158738095Y-100633390D01*
X158738095Y-100633390D02*
X158785714Y-100442914D01*
X158785714Y-100442914D02*
X158833333Y-100347676D01*
X158833333Y-100347676D02*
X158928571Y-100252438D01*
X158928571Y-100252438D02*
X159071428Y-100204819D01*
X159071428Y-100204819D02*
X159166666Y-100204819D01*
X159166666Y-100204819D02*
X159309523Y-100252438D01*
X159309523Y-100252438D02*
X159357142Y-100300057D01*
X160214285Y-100538152D02*
X160214285Y-101204819D01*
X159976190Y-100157200D02*
X159738095Y-100871485D01*
X159738095Y-100871485D02*
X160357142Y-100871485D01*
X160880952Y-100633390D02*
X160785714Y-100585771D01*
X160785714Y-100585771D02*
X160738095Y-100538152D01*
X160738095Y-100538152D02*
X160690476Y-100442914D01*
X160690476Y-100442914D02*
X160690476Y-100395295D01*
X160690476Y-100395295D02*
X160738095Y-100300057D01*
X160738095Y-100300057D02*
X160785714Y-100252438D01*
X160785714Y-100252438D02*
X160880952Y-100204819D01*
X160880952Y-100204819D02*
X161071428Y-100204819D01*
X161071428Y-100204819D02*
X161166666Y-100252438D01*
X161166666Y-100252438D02*
X161214285Y-100300057D01*
X161214285Y-100300057D02*
X161261904Y-100395295D01*
X161261904Y-100395295D02*
X161261904Y-100442914D01*
X161261904Y-100442914D02*
X161214285Y-100538152D01*
X161214285Y-100538152D02*
X161166666Y-100585771D01*
X161166666Y-100585771D02*
X161071428Y-100633390D01*
X161071428Y-100633390D02*
X160880952Y-100633390D01*
X160880952Y-100633390D02*
X160785714Y-100681009D01*
X160785714Y-100681009D02*
X160738095Y-100728628D01*
X160738095Y-100728628D02*
X160690476Y-100823866D01*
X160690476Y-100823866D02*
X160690476Y-101014342D01*
X160690476Y-101014342D02*
X160738095Y-101109580D01*
X160738095Y-101109580D02*
X160785714Y-101157200D01*
X160785714Y-101157200D02*
X160880952Y-101204819D01*
X160880952Y-101204819D02*
X161071428Y-101204819D01*
X161071428Y-101204819D02*
X161166666Y-101157200D01*
X161166666Y-101157200D02*
X161214285Y-101109580D01*
X161214285Y-101109580D02*
X161261904Y-101014342D01*
X161261904Y-101014342D02*
X161261904Y-100823866D01*
X161261904Y-100823866D02*
X161214285Y-100728628D01*
X161214285Y-100728628D02*
X161166666Y-100681009D01*
X161166666Y-100681009D02*
X161071428Y-100633390D01*
D11*
%TO.C,C54*%
X155630000Y-99192836D02*
X155630000Y-98977164D01*
X156350000Y-99192836D02*
X156350000Y-98977164D01*
%TO.C,TP16*%
X150700000Y-110000000D02*
G75*
G02*
X149300000Y-110000000I-700000J0D01*
G01*
X149300000Y-110000000D02*
G75*
G02*
X150700000Y-110000000I700000J0D01*
G01*
%TO.C,C47*%
X159847836Y-94225000D02*
X159632164Y-94225000D01*
X159847836Y-94945000D02*
X159632164Y-94945000D01*
%TO.C,C45*%
X158207836Y-90340000D02*
X157992164Y-90340000D01*
X158207836Y-91060000D02*
X157992164Y-91060000D01*
%TO.C,TP7*%
X148200000Y-104000000D02*
G75*
G02*
X146800000Y-104000000I-700000J0D01*
G01*
X146800000Y-104000000D02*
G75*
G02*
X148200000Y-104000000I700000J0D01*
G01*
%TO.C,C49*%
X159847836Y-95475000D02*
X159632164Y-95475000D01*
X159847836Y-96195000D02*
X159632164Y-96195000D01*
%TO.C,C41*%
X142910000Y-97377836D02*
X142910000Y-97162164D01*
X143630000Y-97377836D02*
X143630000Y-97162164D01*
%TO.C,R12*%
X147620000Y-94596359D02*
X147620000Y-94903641D01*
X148380000Y-94596359D02*
X148380000Y-94903641D01*
%TO.C,C44*%
X149642164Y-93740000D02*
X149857836Y-93740000D01*
X149642164Y-94460000D02*
X149857836Y-94460000D01*
%TO.C,R29*%
X150520000Y-92753641D02*
X150520000Y-92446359D01*
X151280000Y-92753641D02*
X151280000Y-92446359D01*
%TO.C,TP8*%
X153600000Y-101099000D02*
G75*
G02*
X152200000Y-101099000I-700000J0D01*
G01*
X152200000Y-101099000D02*
G75*
G02*
X153600000Y-101099000I700000J0D01*
G01*
%TO.C,R16*%
X149120000Y-103153641D02*
X149120000Y-102846359D01*
X149880000Y-103153641D02*
X149880000Y-102846359D01*
%TO.C,TP10*%
X155600000Y-100900000D02*
G75*
G02*
X154200000Y-100900000I-700000J0D01*
G01*
X154200000Y-100900000D02*
G75*
G02*
X155600000Y-100900000I700000J0D01*
G01*
%TO.C,TP9*%
X146200000Y-90500000D02*
G75*
G02*
X144800000Y-90500000I-700000J0D01*
G01*
X144800000Y-90500000D02*
G75*
G02*
X146200000Y-90500000I700000J0D01*
G01*
%TO.C,C39*%
X140627836Y-99140000D02*
X140412164Y-99140000D01*
X140627836Y-99860000D02*
X140412164Y-99860000D01*
%TO.C,C37*%
X141377836Y-100390000D02*
X141162164Y-100390000D01*
X141377836Y-101110000D02*
X141162164Y-101110000D01*
%TO.C,C66*%
X150207836Y-98540000D02*
X149992164Y-98540000D01*
X150207836Y-99260000D02*
X149992164Y-99260000D01*
%TO.C,C60*%
X150340000Y-100792164D02*
X150340000Y-101007836D01*
X151060000Y-100792164D02*
X151060000Y-101007836D01*
%TO.C,TP17*%
X156950000Y-110250000D02*
G75*
G02*
X155550000Y-110250000I-700000J0D01*
G01*
X155550000Y-110250000D02*
G75*
G02*
X156950000Y-110250000I700000J0D01*
G01*
%TO.C,C17*%
X143990000Y-117859420D02*
X143990000Y-118140580D01*
X145010000Y-117859420D02*
X145010000Y-118140580D01*
%TO.C,TP2*%
X158700000Y-113400000D02*
G75*
G02*
X157300000Y-113400000I-700000J0D01*
G01*
X157300000Y-113400000D02*
G75*
G02*
X158700000Y-113400000I700000J0D01*
G01*
%TO.C,C43*%
X138390000Y-102392164D02*
X138390000Y-102607836D01*
X139110000Y-102392164D02*
X139110000Y-102607836D01*
%TO.C,C46*%
X154640000Y-89992164D02*
X154640000Y-90207836D01*
X155360000Y-89992164D02*
X155360000Y-90207836D01*
%TO.C,TP19*%
X149700000Y-113500000D02*
G75*
G02*
X148300000Y-113500000I-700000J0D01*
G01*
X148300000Y-113500000D02*
G75*
G02*
X149700000Y-113500000I700000J0D01*
G01*
%TO.C,C16*%
X147559420Y-116390000D02*
X147840580Y-116390000D01*
X147559420Y-117410000D02*
X147840580Y-117410000D01*
%TO.C,TP23*%
X152600000Y-115650000D02*
X156400000Y-115650000D01*
X156400000Y-117850000D01*
X152600000Y-117850000D01*
X152600000Y-115650000D01*
%TO.C,C38*%
X141660000Y-97377836D02*
X141660000Y-97162164D01*
X142380000Y-97377836D02*
X142380000Y-97162164D01*
%TO.C,C61*%
X150207836Y-97040000D02*
X149992164Y-97040000D01*
X150207836Y-97760000D02*
X149992164Y-97760000D01*
%TO.C,TP12*%
X152825000Y-89000000D02*
G75*
G02*
X151425000Y-89000000I-700000J0D01*
G01*
X151425000Y-89000000D02*
G75*
G02*
X152825000Y-89000000I700000J0D01*
G01*
D12*
%TO.C,U7*%
G36*
X143840500Y-86187900D02*
G01*
X143459500Y-86187900D01*
X143459500Y-85933900D01*
X143840500Y-85933900D01*
X143840500Y-86187900D01*
G37*
D11*
%TO.C,TP20*%
X152700000Y-111250000D02*
G75*
G02*
X151300000Y-111250000I-700000J0D01*
G01*
X151300000Y-111250000D02*
G75*
G02*
X152700000Y-111250000I700000J0D01*
G01*
%TO.C,C40*%
X140357836Y-97890000D02*
X140142164Y-97890000D01*
X140357836Y-98610000D02*
X140142164Y-98610000D01*
%TO.C,TP18*%
X156950000Y-108250000D02*
G75*
G02*
X155550000Y-108250000I-700000J0D01*
G01*
X155550000Y-108250000D02*
G75*
G02*
X156950000Y-108250000I700000J0D01*
G01*
%TO.C,C42*%
X142890000Y-93877836D02*
X142890000Y-93662164D01*
X143610000Y-93877836D02*
X143610000Y-93662164D01*
%TO.C,TP15*%
X152450000Y-113250000D02*
G75*
G02*
X151050000Y-113250000I-700000J0D01*
G01*
X151050000Y-113250000D02*
G75*
G02*
X152450000Y-113250000I700000J0D01*
G01*
%TO.C,TP6*%
X143970000Y-100500000D02*
G75*
G02*
X142570000Y-100500000I-700000J0D01*
G01*
X142570000Y-100500000D02*
G75*
G02*
X143970000Y-100500000I700000J0D01*
G01*
%TO.C,TP14*%
X151200000Y-115250000D02*
G75*
G02*
X149800000Y-115250000I-700000J0D01*
G01*
X149800000Y-115250000D02*
G75*
G02*
X151200000Y-115250000I700000J0D01*
G01*
%TO.C,TP21*%
X150950000Y-89850000D02*
G75*
G02*
X149550000Y-89850000I-700000J0D01*
G01*
X149550000Y-89850000D02*
G75*
G02*
X150950000Y-89850000I700000J0D01*
G01*
%TO.C,TP3*%
X142800000Y-117100000D02*
G75*
G02*
X141400000Y-117100000I-700000J0D01*
G01*
X141400000Y-117100000D02*
G75*
G02*
X142800000Y-117100000I700000J0D01*
G01*
%TO.C,R15*%
X152553641Y-98520000D02*
X152246359Y-98520000D01*
X152553641Y-99280000D02*
X152246359Y-99280000D01*
%TO.C,U3*%
X141160000Y-102102500D02*
X141635000Y-102102500D01*
X141160000Y-102577500D02*
X141160000Y-102102500D01*
X141160000Y-104847500D02*
X141160000Y-105022500D01*
X141635000Y-105322500D02*
X141400000Y-105322500D01*
X144380000Y-102102500D02*
X143905000Y-102102500D01*
X144380000Y-102577500D02*
X144380000Y-102102500D01*
X144380000Y-104847500D02*
X144380000Y-105322500D01*
X144380000Y-105322500D02*
X143905000Y-105322500D01*
X141160000Y-105322500D02*
X140830000Y-105562500D01*
X140830000Y-105082500D01*
X141160000Y-105322500D01*
G36*
X141160000Y-105322500D02*
G01*
X140830000Y-105562500D01*
X140830000Y-105082500D01*
X141160000Y-105322500D01*
G37*
%TO.C,C51*%
X149992164Y-95540000D02*
X150207836Y-95540000D01*
X149992164Y-96260000D02*
X150207836Y-96260000D01*
%TO.C,C65*%
X160357836Y-101655000D02*
X160142164Y-101655000D01*
X160357836Y-102375000D02*
X160142164Y-102375000D01*
%TO.C,C53*%
X153390000Y-89992164D02*
X153390000Y-90207836D01*
X154110000Y-89992164D02*
X154110000Y-90207836D01*
%TO.C,TP5*%
X143950000Y-90500000D02*
G75*
G02*
X142550000Y-90500000I-700000J0D01*
G01*
X142550000Y-90500000D02*
G75*
G02*
X143950000Y-90500000I700000J0D01*
G01*
%TO.C,C57*%
X157632164Y-98225000D02*
X157847836Y-98225000D01*
X157632164Y-98945000D02*
X157847836Y-98945000D01*
%TO.C,TP13*%
X155700000Y-106250000D02*
G75*
G02*
X154300000Y-106250000I-700000J0D01*
G01*
X154300000Y-106250000D02*
G75*
G02*
X155700000Y-106250000I700000J0D01*
G01*
%TO.C,C18*%
X148109420Y-107740000D02*
X148390580Y-107740000D01*
X148109420Y-108760000D02*
X148390580Y-108760000D01*
%TO.C,C64*%
X145892164Y-88390000D02*
X146107836Y-88390000D01*
X145892164Y-89110000D02*
X146107836Y-89110000D01*
%TO.C,C14*%
X137088748Y-105540000D02*
X138511252Y-105540000D01*
X137088748Y-108260000D02*
X138511252Y-108260000D01*
%TO.C,C56*%
X159847836Y-92975000D02*
X159632164Y-92975000D01*
X159847836Y-93695000D02*
X159632164Y-93695000D01*
%TO.C,C62*%
X152507836Y-102240000D02*
X152292164Y-102240000D01*
X152507836Y-102960000D02*
X152292164Y-102960000D01*
%TO.C,C19*%
X141990000Y-107765580D02*
X141990000Y-107484420D01*
X143010000Y-107765580D02*
X143010000Y-107484420D01*
%TO.C,C52*%
X149089664Y-92490000D02*
X149305336Y-92490000D01*
X149089664Y-93210000D02*
X149305336Y-93210000D01*
%TO.C,TP22*%
X153200000Y-106000000D02*
G75*
G02*
X151800000Y-106000000I-700000J0D01*
G01*
X151800000Y-106000000D02*
G75*
G02*
X153200000Y-106000000I700000J0D01*
G01*
%TO.C,C63*%
X145892164Y-87140000D02*
X146107836Y-87140000D01*
X145892164Y-87860000D02*
X146107836Y-87860000D01*
%TO.C,U4*%
X142090000Y-110127500D02*
X142965000Y-110127500D01*
X142090000Y-111002500D02*
X142090000Y-110127500D01*
X142090000Y-114472500D02*
X142090000Y-115347500D01*
X142090000Y-115347500D02*
X142965000Y-115347500D01*
X146435000Y-110127500D02*
X147070000Y-110127500D01*
X147310000Y-111002500D02*
X147310000Y-110427500D01*
X147310000Y-114472500D02*
X147310000Y-115347500D01*
X147310000Y-115347500D02*
X146435000Y-115347500D01*
X147640000Y-110367500D02*
X147310000Y-110127500D01*
X147640000Y-109887500D01*
X147640000Y-110367500D01*
G36*
X147640000Y-110367500D02*
G01*
X147310000Y-110127500D01*
X147640000Y-109887500D01*
X147640000Y-110367500D01*
G37*
%TO.C,TP11*%
X162950000Y-99750000D02*
G75*
G02*
X161550000Y-99750000I-700000J0D01*
G01*
X161550000Y-99750000D02*
G75*
G02*
X162950000Y-99750000I700000J0D01*
G01*
%TO.C,C50*%
X159857836Y-97975000D02*
X159642164Y-97975000D01*
X159857836Y-98695000D02*
X159642164Y-98695000D01*
%TO.C,TP1*%
X145075000Y-108125000D02*
G75*
G02*
X143675000Y-108125000I-700000J0D01*
G01*
X143675000Y-108125000D02*
G75*
G02*
X145075000Y-108125000I700000J0D01*
G01*
%TO.C,R24*%
X139495000Y-102221359D02*
X139495000Y-102528641D01*
X140255000Y-102221359D02*
X140255000Y-102528641D01*
%TO.C,AE2*%
X135049874Y-87130000D02*
X135049874Y-88370000D01*
X136299874Y-85880000D02*
X137539874Y-85880000D01*
X136299874Y-89620000D02*
X137539874Y-89620000D01*
X138789874Y-87130000D02*
X138789874Y-88370000D01*
%TO.C,U5*%
X152890000Y-91890000D02*
X153365000Y-91890000D01*
X152890000Y-92365000D02*
X152890000Y-91890000D01*
X152890000Y-96635000D02*
X152890000Y-97110000D01*
X152890000Y-97110000D02*
X153365000Y-97110000D01*
X157635000Y-91890000D02*
X157870000Y-91890000D01*
X158110000Y-92365000D02*
X158110000Y-92190000D01*
X158110000Y-96635000D02*
X158110000Y-97110000D01*
X158110000Y-97110000D02*
X157635000Y-97110000D01*
X158440000Y-92130000D02*
X158110000Y-91890000D01*
X158440000Y-91650000D01*
X158440000Y-92130000D01*
G36*
X158440000Y-92130000D02*
G01*
X158110000Y-91890000D01*
X158440000Y-91650000D01*
X158440000Y-92130000D01*
G37*
%TO.C,C55*%
X159847836Y-96725000D02*
X159632164Y-96725000D01*
X159847836Y-97445000D02*
X159632164Y-97445000D01*
%TO.C,C48*%
X157827836Y-99475000D02*
X157612164Y-99475000D01*
X157827836Y-100195000D02*
X157612164Y-100195000D01*
%TD*%
M02*
