%TF.GenerationSoftware,KiCad,Pcbnew,9.0.0*%
%TF.CreationDate,2025-08-17T15:42:20-06:00*%
%TF.ProjectId,OSS Radio Hardware Design,4f535320-5261-4646-996f-204861726477,rev?*%
%TF.SameCoordinates,Original*%
%TF.FileFunction,Drillmap*%
%TF.FilePolarity,Positive*%
%FSLAX45Y45*%
G04 Gerber Fmt 4.5, Leading zero omitted, Abs format (unit mm)*
G04 Created by KiCad (PCBNEW 9.0.0) date 2025-08-17 15:42:20*
%MOMM*%
%LPD*%
G01*
G04 APERTURE LIST*
%ADD10C,0.050000*%
%ADD11C,0.200000*%
%ADD12C,0.100000*%
%ADD13C,0.120000*%
%ADD14C,0.150000*%
%ADD15C,0.220000*%
G04 APERTURE END LIST*
D10*
X11100000Y-4600000D02*
G75*
G02*
X11450000Y-4950000I0J-350000D01*
G01*
X11100000Y-5950000D02*
G75*
G02*
X11100000Y-5350000I0J300000D01*
G01*
X11350000Y-8800000D02*
G75*
G02*
X11350000Y-8200000I0J300000D01*
G01*
X11450000Y-14300000D02*
G75*
G02*
X11100000Y-14650000I-350000J0D01*
G01*
X11450000Y-5250000D02*
G75*
G02*
X11350000Y-5350000I-100000J0D01*
G01*
X11450000Y-8100000D02*
G75*
G02*
X11350000Y-8200000I-100000J0D01*
G01*
X5950000Y-6125000D02*
G75*
G02*
X6050000Y-6025000I100000J0D01*
G01*
X11350000Y-5350000D02*
X11100000Y-5350000D01*
X11100000Y-5950000D02*
X11350000Y-5950000D01*
X11450000Y-8900000D02*
X11450000Y-14300000D01*
X11450000Y-8100000D02*
X11450000Y-6050000D01*
X6200000Y-4700000D02*
G75*
G02*
X6300000Y-4600000I100000J0D01*
G01*
X6050000Y-8200000D02*
G75*
G02*
X5950000Y-8100000I0J100000D01*
G01*
X5950000Y-8900000D02*
G75*
G02*
X6050000Y-8800000I100000J0D01*
G01*
X11100000Y-14650000D02*
X6300000Y-14650000D01*
X11350000Y-8800000D02*
G75*
G02*
X11450000Y-8900000I0J-100000D01*
G01*
X6200000Y-5875000D02*
X6200000Y-4700000D01*
X11350000Y-5950000D02*
G75*
G02*
X11450000Y-6050000I0J-100000D01*
G01*
X6050000Y-8200000D02*
G75*
G02*
X6050000Y-8800000I0J-300000D01*
G01*
X5950000Y-8100000D02*
X5950000Y-6125000D01*
X6300000Y-14650000D02*
G75*
G02*
X5950000Y-14300000I0J350000D01*
G01*
X5950000Y-14300000D02*
X5950000Y-8900000D01*
X6300000Y-4600000D02*
X11100000Y-4600000D01*
X11450000Y-5250000D02*
X11450000Y-4950000D01*
X6200000Y-5875000D02*
G75*
G02*
X6050000Y-6025000I-150000J0D01*
G01*
D11*
D12*
X7275000Y-14246000D02*
X7325000Y-14296000D01*
X7325000Y-14246000D02*
X7275000Y-14296000D01*
X10949500Y-10686000D02*
G75*
G02*
X10884500Y-10686000I-32500J0D01*
G01*
X10884500Y-10686000D02*
G75*
G02*
X10949500Y-10686000I32500J0D01*
G01*
X10949500Y-11264000D02*
G75*
G02*
X10884500Y-11264000I-32500J0D01*
G01*
X10884500Y-11264000D02*
G75*
G02*
X10949500Y-11264000I32500J0D01*
G01*
D13*
X10477500Y-7365000D02*
X10477500Y-7485000D01*
X10417500Y-7425000D02*
X10537500Y-7425000D01*
X10977500Y-6865000D02*
X10977500Y-6985000D01*
X10917500Y-6925000D02*
X11037500Y-6925000D01*
X10977500Y-7865000D02*
X10977500Y-7985000D01*
X10917500Y-7925000D02*
X11037500Y-7925000D01*
X11227500Y-6865000D02*
X11227500Y-6985000D01*
X11167500Y-6925000D02*
X11287500Y-6925000D01*
X11227500Y-7865000D02*
X11227500Y-7985000D01*
X11167500Y-7925000D02*
X11287500Y-7925000D01*
D14*
X11050534Y-6378033D02*
X11050534Y-6271966D01*
X10944467Y-6271966D01*
X10944467Y-6378033D01*
X11050534Y-6378033D01*
D15*
X6300000Y-14410000D02*
X6410000Y-14300000D01*
X6300000Y-14190000D01*
X6190000Y-14300000D01*
X6300000Y-14410000D01*
X6900000Y-6310000D02*
X7010000Y-6200000D01*
X6900000Y-6090000D01*
X6790000Y-6200000D01*
X6900000Y-6310000D01*
X7000000Y-9210000D02*
X7110000Y-9100000D01*
X7000000Y-8990000D01*
X6890000Y-9100000D01*
X7000000Y-9210000D01*
X7700000Y-5060000D02*
X7810000Y-4950000D01*
X7700000Y-4840000D01*
X7590000Y-4950000D01*
X7700000Y-5060000D01*
X9500000Y-9210000D02*
X9610000Y-9100000D01*
X9500000Y-8990000D01*
X9390000Y-9100000D01*
X9500000Y-9210000D01*
X9600000Y-6310000D02*
X9710000Y-6200000D01*
X9600000Y-6090000D01*
X9490000Y-6200000D01*
X9600000Y-6310000D01*
X11100000Y-5060000D02*
X11210000Y-4950000D01*
X11100000Y-4840000D01*
X10990000Y-4950000D01*
X11100000Y-5060000D01*
X11100000Y-14410000D02*
X11210000Y-14300000D01*
X11100000Y-14190000D01*
X10990000Y-14300000D01*
X11100000Y-14410000D01*
D11*
X6208277Y-14963984D02*
X6208277Y-14763984D01*
X6208277Y-14763984D02*
X6255896Y-14763984D01*
X6255896Y-14763984D02*
X6284467Y-14773508D01*
X6284467Y-14773508D02*
X6303515Y-14792555D01*
X6303515Y-14792555D02*
X6313039Y-14811603D01*
X6313039Y-14811603D02*
X6322562Y-14849698D01*
X6322562Y-14849698D02*
X6322562Y-14878269D01*
X6322562Y-14878269D02*
X6313039Y-14916365D01*
X6313039Y-14916365D02*
X6303515Y-14935412D01*
X6303515Y-14935412D02*
X6284467Y-14954460D01*
X6284467Y-14954460D02*
X6255896Y-14963984D01*
X6255896Y-14963984D02*
X6208277Y-14963984D01*
X6408277Y-14963984D02*
X6408277Y-14830650D01*
X6408277Y-14868746D02*
X6417801Y-14849698D01*
X6417801Y-14849698D02*
X6427324Y-14840174D01*
X6427324Y-14840174D02*
X6446372Y-14830650D01*
X6446372Y-14830650D02*
X6465420Y-14830650D01*
X6532086Y-14963984D02*
X6532086Y-14830650D01*
X6532086Y-14763984D02*
X6522562Y-14773508D01*
X6522562Y-14773508D02*
X6532086Y-14783031D01*
X6532086Y-14783031D02*
X6541610Y-14773508D01*
X6541610Y-14773508D02*
X6532086Y-14763984D01*
X6532086Y-14763984D02*
X6532086Y-14783031D01*
X6655896Y-14963984D02*
X6636848Y-14954460D01*
X6636848Y-14954460D02*
X6627324Y-14935412D01*
X6627324Y-14935412D02*
X6627324Y-14763984D01*
X6760658Y-14963984D02*
X6741610Y-14954460D01*
X6741610Y-14954460D02*
X6732086Y-14935412D01*
X6732086Y-14935412D02*
X6732086Y-14763984D01*
X6989229Y-14963984D02*
X6989229Y-14763984D01*
X6989229Y-14763984D02*
X7055896Y-14906841D01*
X7055896Y-14906841D02*
X7122562Y-14763984D01*
X7122562Y-14763984D02*
X7122562Y-14963984D01*
X7303515Y-14963984D02*
X7303515Y-14859222D01*
X7303515Y-14859222D02*
X7293991Y-14840174D01*
X7293991Y-14840174D02*
X7274943Y-14830650D01*
X7274943Y-14830650D02*
X7236848Y-14830650D01*
X7236848Y-14830650D02*
X7217801Y-14840174D01*
X7303515Y-14954460D02*
X7284467Y-14963984D01*
X7284467Y-14963984D02*
X7236848Y-14963984D01*
X7236848Y-14963984D02*
X7217801Y-14954460D01*
X7217801Y-14954460D02*
X7208277Y-14935412D01*
X7208277Y-14935412D02*
X7208277Y-14916365D01*
X7208277Y-14916365D02*
X7217801Y-14897317D01*
X7217801Y-14897317D02*
X7236848Y-14887793D01*
X7236848Y-14887793D02*
X7284467Y-14887793D01*
X7284467Y-14887793D02*
X7303515Y-14878269D01*
X7398753Y-14830650D02*
X7398753Y-15030650D01*
X7398753Y-14840174D02*
X7417801Y-14830650D01*
X7417801Y-14830650D02*
X7455896Y-14830650D01*
X7455896Y-14830650D02*
X7474943Y-14840174D01*
X7474943Y-14840174D02*
X7484467Y-14849698D01*
X7484467Y-14849698D02*
X7493991Y-14868746D01*
X7493991Y-14868746D02*
X7493991Y-14925888D01*
X7493991Y-14925888D02*
X7484467Y-14944936D01*
X7484467Y-14944936D02*
X7474943Y-14954460D01*
X7474943Y-14954460D02*
X7455896Y-14963984D01*
X7455896Y-14963984D02*
X7417801Y-14963984D01*
X7417801Y-14963984D02*
X7398753Y-14954460D01*
X7579705Y-14944936D02*
X7589229Y-14954460D01*
X7589229Y-14954460D02*
X7579705Y-14963984D01*
X7579705Y-14963984D02*
X7570182Y-14954460D01*
X7570182Y-14954460D02*
X7579705Y-14944936D01*
X7579705Y-14944936D02*
X7579705Y-14963984D01*
X7579705Y-14840174D02*
X7589229Y-14849698D01*
X7589229Y-14849698D02*
X7579705Y-14859222D01*
X7579705Y-14859222D02*
X7570182Y-14849698D01*
X7570182Y-14849698D02*
X7579705Y-14840174D01*
X7579705Y-14840174D02*
X7579705Y-14859222D01*
D12*
X5897500Y-15267500D02*
X5947500Y-15317500D01*
X5947500Y-15267500D02*
X5897500Y-15317500D01*
D11*
X6246372Y-15183984D02*
X6265420Y-15183984D01*
X6265420Y-15183984D02*
X6284467Y-15193508D01*
X6284467Y-15193508D02*
X6293991Y-15203031D01*
X6293991Y-15203031D02*
X6303515Y-15222079D01*
X6303515Y-15222079D02*
X6313039Y-15260174D01*
X6313039Y-15260174D02*
X6313039Y-15307793D01*
X6313039Y-15307793D02*
X6303515Y-15345888D01*
X6303515Y-15345888D02*
X6293991Y-15364936D01*
X6293991Y-15364936D02*
X6284467Y-15374460D01*
X6284467Y-15374460D02*
X6265420Y-15383984D01*
X6265420Y-15383984D02*
X6246372Y-15383984D01*
X6246372Y-15383984D02*
X6227324Y-15374460D01*
X6227324Y-15374460D02*
X6217801Y-15364936D01*
X6217801Y-15364936D02*
X6208277Y-15345888D01*
X6208277Y-15345888D02*
X6198753Y-15307793D01*
X6198753Y-15307793D02*
X6198753Y-15260174D01*
X6198753Y-15260174D02*
X6208277Y-15222079D01*
X6208277Y-15222079D02*
X6217801Y-15203031D01*
X6217801Y-15203031D02*
X6227324Y-15193508D01*
X6227324Y-15193508D02*
X6246372Y-15183984D01*
X6398753Y-15364936D02*
X6408277Y-15374460D01*
X6408277Y-15374460D02*
X6398753Y-15383984D01*
X6398753Y-15383984D02*
X6389229Y-15374460D01*
X6389229Y-15374460D02*
X6398753Y-15364936D01*
X6398753Y-15364936D02*
X6398753Y-15383984D01*
X6589229Y-15183984D02*
X6493991Y-15183984D01*
X6493991Y-15183984D02*
X6484467Y-15279222D01*
X6484467Y-15279222D02*
X6493991Y-15269698D01*
X6493991Y-15269698D02*
X6513039Y-15260174D01*
X6513039Y-15260174D02*
X6560658Y-15260174D01*
X6560658Y-15260174D02*
X6579705Y-15269698D01*
X6579705Y-15269698D02*
X6589229Y-15279222D01*
X6589229Y-15279222D02*
X6598753Y-15298269D01*
X6598753Y-15298269D02*
X6598753Y-15345888D01*
X6598753Y-15345888D02*
X6589229Y-15364936D01*
X6589229Y-15364936D02*
X6579705Y-15374460D01*
X6579705Y-15374460D02*
X6560658Y-15383984D01*
X6560658Y-15383984D02*
X6513039Y-15383984D01*
X6513039Y-15383984D02*
X6493991Y-15374460D01*
X6493991Y-15374460D02*
X6484467Y-15364936D01*
X6722562Y-15183984D02*
X6741610Y-15183984D01*
X6741610Y-15183984D02*
X6760658Y-15193508D01*
X6760658Y-15193508D02*
X6770182Y-15203031D01*
X6770182Y-15203031D02*
X6779705Y-15222079D01*
X6779705Y-15222079D02*
X6789229Y-15260174D01*
X6789229Y-15260174D02*
X6789229Y-15307793D01*
X6789229Y-15307793D02*
X6779705Y-15345888D01*
X6779705Y-15345888D02*
X6770182Y-15364936D01*
X6770182Y-15364936D02*
X6760658Y-15374460D01*
X6760658Y-15374460D02*
X6741610Y-15383984D01*
X6741610Y-15383984D02*
X6722562Y-15383984D01*
X6722562Y-15383984D02*
X6703515Y-15374460D01*
X6703515Y-15374460D02*
X6693991Y-15364936D01*
X6693991Y-15364936D02*
X6684467Y-15345888D01*
X6684467Y-15345888D02*
X6674943Y-15307793D01*
X6674943Y-15307793D02*
X6674943Y-15260174D01*
X6674943Y-15260174D02*
X6684467Y-15222079D01*
X6684467Y-15222079D02*
X6693991Y-15203031D01*
X6693991Y-15203031D02*
X6703515Y-15193508D01*
X6703515Y-15193508D02*
X6722562Y-15183984D01*
X6913039Y-15183984D02*
X6932086Y-15183984D01*
X6932086Y-15183984D02*
X6951134Y-15193508D01*
X6951134Y-15193508D02*
X6960658Y-15203031D01*
X6960658Y-15203031D02*
X6970182Y-15222079D01*
X6970182Y-15222079D02*
X6979705Y-15260174D01*
X6979705Y-15260174D02*
X6979705Y-15307793D01*
X6979705Y-15307793D02*
X6970182Y-15345888D01*
X6970182Y-15345888D02*
X6960658Y-15364936D01*
X6960658Y-15364936D02*
X6951134Y-15374460D01*
X6951134Y-15374460D02*
X6932086Y-15383984D01*
X6932086Y-15383984D02*
X6913039Y-15383984D01*
X6913039Y-15383984D02*
X6893991Y-15374460D01*
X6893991Y-15374460D02*
X6884467Y-15364936D01*
X6884467Y-15364936D02*
X6874943Y-15345888D01*
X6874943Y-15345888D02*
X6865420Y-15307793D01*
X6865420Y-15307793D02*
X6865420Y-15260174D01*
X6865420Y-15260174D02*
X6874943Y-15222079D01*
X6874943Y-15222079D02*
X6884467Y-15203031D01*
X6884467Y-15203031D02*
X6893991Y-15193508D01*
X6893991Y-15193508D02*
X6913039Y-15183984D01*
X7065420Y-15383984D02*
X7065420Y-15250650D01*
X7065420Y-15269698D02*
X7074943Y-15260174D01*
X7074943Y-15260174D02*
X7093991Y-15250650D01*
X7093991Y-15250650D02*
X7122563Y-15250650D01*
X7122563Y-15250650D02*
X7141610Y-15260174D01*
X7141610Y-15260174D02*
X7151134Y-15279222D01*
X7151134Y-15279222D02*
X7151134Y-15383984D01*
X7151134Y-15279222D02*
X7160658Y-15260174D01*
X7160658Y-15260174D02*
X7179705Y-15250650D01*
X7179705Y-15250650D02*
X7208277Y-15250650D01*
X7208277Y-15250650D02*
X7227324Y-15260174D01*
X7227324Y-15260174D02*
X7236848Y-15279222D01*
X7236848Y-15279222D02*
X7236848Y-15383984D01*
X7332086Y-15383984D02*
X7332086Y-15250650D01*
X7332086Y-15269698D02*
X7341610Y-15260174D01*
X7341610Y-15260174D02*
X7360658Y-15250650D01*
X7360658Y-15250650D02*
X7389229Y-15250650D01*
X7389229Y-15250650D02*
X7408277Y-15260174D01*
X7408277Y-15260174D02*
X7417801Y-15279222D01*
X7417801Y-15279222D02*
X7417801Y-15383984D01*
X7417801Y-15279222D02*
X7427324Y-15260174D01*
X7427324Y-15260174D02*
X7446372Y-15250650D01*
X7446372Y-15250650D02*
X7474943Y-15250650D01*
X7474943Y-15250650D02*
X7493991Y-15260174D01*
X7493991Y-15260174D02*
X7503515Y-15279222D01*
X7503515Y-15279222D02*
X7503515Y-15383984D01*
X7893991Y-15174460D02*
X7722563Y-15431603D01*
X8151134Y-15183984D02*
X8170182Y-15183984D01*
X8170182Y-15183984D02*
X8189229Y-15193508D01*
X8189229Y-15193508D02*
X8198753Y-15203031D01*
X8198753Y-15203031D02*
X8208277Y-15222079D01*
X8208277Y-15222079D02*
X8217801Y-15260174D01*
X8217801Y-15260174D02*
X8217801Y-15307793D01*
X8217801Y-15307793D02*
X8208277Y-15345888D01*
X8208277Y-15345888D02*
X8198753Y-15364936D01*
X8198753Y-15364936D02*
X8189229Y-15374460D01*
X8189229Y-15374460D02*
X8170182Y-15383984D01*
X8170182Y-15383984D02*
X8151134Y-15383984D01*
X8151134Y-15383984D02*
X8132086Y-15374460D01*
X8132086Y-15374460D02*
X8122563Y-15364936D01*
X8122563Y-15364936D02*
X8113039Y-15345888D01*
X8113039Y-15345888D02*
X8103515Y-15307793D01*
X8103515Y-15307793D02*
X8103515Y-15260174D01*
X8103515Y-15260174D02*
X8113039Y-15222079D01*
X8113039Y-15222079D02*
X8122563Y-15203031D01*
X8122563Y-15203031D02*
X8132086Y-15193508D01*
X8132086Y-15193508D02*
X8151134Y-15183984D01*
X8303515Y-15364936D02*
X8313039Y-15374460D01*
X8313039Y-15374460D02*
X8303515Y-15383984D01*
X8303515Y-15383984D02*
X8293991Y-15374460D01*
X8293991Y-15374460D02*
X8303515Y-15364936D01*
X8303515Y-15364936D02*
X8303515Y-15383984D01*
X8436848Y-15183984D02*
X8455896Y-15183984D01*
X8455896Y-15183984D02*
X8474944Y-15193508D01*
X8474944Y-15193508D02*
X8484468Y-15203031D01*
X8484468Y-15203031D02*
X8493991Y-15222079D01*
X8493991Y-15222079D02*
X8503515Y-15260174D01*
X8503515Y-15260174D02*
X8503515Y-15307793D01*
X8503515Y-15307793D02*
X8493991Y-15345888D01*
X8493991Y-15345888D02*
X8484468Y-15364936D01*
X8484468Y-15364936D02*
X8474944Y-15374460D01*
X8474944Y-15374460D02*
X8455896Y-15383984D01*
X8455896Y-15383984D02*
X8436848Y-15383984D01*
X8436848Y-15383984D02*
X8417801Y-15374460D01*
X8417801Y-15374460D02*
X8408277Y-15364936D01*
X8408277Y-15364936D02*
X8398753Y-15345888D01*
X8398753Y-15345888D02*
X8389229Y-15307793D01*
X8389229Y-15307793D02*
X8389229Y-15260174D01*
X8389229Y-15260174D02*
X8398753Y-15222079D01*
X8398753Y-15222079D02*
X8408277Y-15203031D01*
X8408277Y-15203031D02*
X8417801Y-15193508D01*
X8417801Y-15193508D02*
X8436848Y-15183984D01*
X8693991Y-15383984D02*
X8579706Y-15383984D01*
X8636848Y-15383984D02*
X8636848Y-15183984D01*
X8636848Y-15183984D02*
X8617801Y-15212555D01*
X8617801Y-15212555D02*
X8598753Y-15231603D01*
X8598753Y-15231603D02*
X8579706Y-15241127D01*
X8789229Y-15383984D02*
X8827325Y-15383984D01*
X8827325Y-15383984D02*
X8846372Y-15374460D01*
X8846372Y-15374460D02*
X8855896Y-15364936D01*
X8855896Y-15364936D02*
X8874944Y-15336365D01*
X8874944Y-15336365D02*
X8884468Y-15298269D01*
X8884468Y-15298269D02*
X8884468Y-15222079D01*
X8884468Y-15222079D02*
X8874944Y-15203031D01*
X8874944Y-15203031D02*
X8865420Y-15193508D01*
X8865420Y-15193508D02*
X8846372Y-15183984D01*
X8846372Y-15183984D02*
X8808277Y-15183984D01*
X8808277Y-15183984D02*
X8789229Y-15193508D01*
X8789229Y-15193508D02*
X8779706Y-15203031D01*
X8779706Y-15203031D02*
X8770182Y-15222079D01*
X8770182Y-15222079D02*
X8770182Y-15269698D01*
X8770182Y-15269698D02*
X8779706Y-15288746D01*
X8779706Y-15288746D02*
X8789229Y-15298269D01*
X8789229Y-15298269D02*
X8808277Y-15307793D01*
X8808277Y-15307793D02*
X8846372Y-15307793D01*
X8846372Y-15307793D02*
X8865420Y-15298269D01*
X8865420Y-15298269D02*
X8874944Y-15288746D01*
X8874944Y-15288746D02*
X8884468Y-15269698D01*
X8951134Y-15183984D02*
X9084468Y-15183984D01*
X9084468Y-15183984D02*
X8998753Y-15383984D01*
X9151134Y-15183984D02*
X9151134Y-15222079D01*
X9227325Y-15183984D02*
X9227325Y-15222079D01*
X9522563Y-15460174D02*
X9513039Y-15450650D01*
X9513039Y-15450650D02*
X9493991Y-15422079D01*
X9493991Y-15422079D02*
X9484468Y-15403031D01*
X9484468Y-15403031D02*
X9474944Y-15374460D01*
X9474944Y-15374460D02*
X9465420Y-15326841D01*
X9465420Y-15326841D02*
X9465420Y-15288746D01*
X9465420Y-15288746D02*
X9474944Y-15241127D01*
X9474944Y-15241127D02*
X9484468Y-15212555D01*
X9484468Y-15212555D02*
X9493991Y-15193508D01*
X9493991Y-15193508D02*
X9513039Y-15164936D01*
X9513039Y-15164936D02*
X9522563Y-15155412D01*
X9703515Y-15383984D02*
X9589230Y-15383984D01*
X9646372Y-15383984D02*
X9646372Y-15183984D01*
X9646372Y-15183984D02*
X9627325Y-15212555D01*
X9627325Y-15212555D02*
X9608277Y-15231603D01*
X9608277Y-15231603D02*
X9589230Y-15241127D01*
X9941611Y-15383984D02*
X9941611Y-15183984D01*
X10027325Y-15383984D02*
X10027325Y-15279222D01*
X10027325Y-15279222D02*
X10017801Y-15260174D01*
X10017801Y-15260174D02*
X9998753Y-15250650D01*
X9998753Y-15250650D02*
X9970182Y-15250650D01*
X9970182Y-15250650D02*
X9951134Y-15260174D01*
X9951134Y-15260174D02*
X9941611Y-15269698D01*
X10151134Y-15383984D02*
X10132087Y-15374460D01*
X10132087Y-15374460D02*
X10122563Y-15364936D01*
X10122563Y-15364936D02*
X10113039Y-15345888D01*
X10113039Y-15345888D02*
X10113039Y-15288746D01*
X10113039Y-15288746D02*
X10122563Y-15269698D01*
X10122563Y-15269698D02*
X10132087Y-15260174D01*
X10132087Y-15260174D02*
X10151134Y-15250650D01*
X10151134Y-15250650D02*
X10179706Y-15250650D01*
X10179706Y-15250650D02*
X10198753Y-15260174D01*
X10198753Y-15260174D02*
X10208277Y-15269698D01*
X10208277Y-15269698D02*
X10217801Y-15288746D01*
X10217801Y-15288746D02*
X10217801Y-15345888D01*
X10217801Y-15345888D02*
X10208277Y-15364936D01*
X10208277Y-15364936D02*
X10198753Y-15374460D01*
X10198753Y-15374460D02*
X10179706Y-15383984D01*
X10179706Y-15383984D02*
X10151134Y-15383984D01*
X10332087Y-15383984D02*
X10313039Y-15374460D01*
X10313039Y-15374460D02*
X10303515Y-15355412D01*
X10303515Y-15355412D02*
X10303515Y-15183984D01*
X10484468Y-15374460D02*
X10465420Y-15383984D01*
X10465420Y-15383984D02*
X10427325Y-15383984D01*
X10427325Y-15383984D02*
X10408277Y-15374460D01*
X10408277Y-15374460D02*
X10398753Y-15355412D01*
X10398753Y-15355412D02*
X10398753Y-15279222D01*
X10398753Y-15279222D02*
X10408277Y-15260174D01*
X10408277Y-15260174D02*
X10427325Y-15250650D01*
X10427325Y-15250650D02*
X10465420Y-15250650D01*
X10465420Y-15250650D02*
X10484468Y-15260174D01*
X10484468Y-15260174D02*
X10493992Y-15279222D01*
X10493992Y-15279222D02*
X10493992Y-15298269D01*
X10493992Y-15298269D02*
X10398753Y-15317317D01*
X10560658Y-15460174D02*
X10570182Y-15450650D01*
X10570182Y-15450650D02*
X10589230Y-15422079D01*
X10589230Y-15422079D02*
X10598753Y-15403031D01*
X10598753Y-15403031D02*
X10608277Y-15374460D01*
X10608277Y-15374460D02*
X10617801Y-15326841D01*
X10617801Y-15326841D02*
X10617801Y-15288746D01*
X10617801Y-15288746D02*
X10608277Y-15241127D01*
X10608277Y-15241127D02*
X10598753Y-15212555D01*
X10598753Y-15212555D02*
X10589230Y-15193508D01*
X10589230Y-15193508D02*
X10570182Y-15164936D01*
X10570182Y-15164936D02*
X10560658Y-15155412D01*
X10922563Y-15460174D02*
X10913039Y-15450650D01*
X10913039Y-15450650D02*
X10893992Y-15422079D01*
X10893992Y-15422079D02*
X10884468Y-15403031D01*
X10884468Y-15403031D02*
X10874944Y-15374460D01*
X10874944Y-15374460D02*
X10865420Y-15326841D01*
X10865420Y-15326841D02*
X10865420Y-15288746D01*
X10865420Y-15288746D02*
X10874944Y-15241127D01*
X10874944Y-15241127D02*
X10884468Y-15212555D01*
X10884468Y-15212555D02*
X10893992Y-15193508D01*
X10893992Y-15193508D02*
X10913039Y-15164936D01*
X10913039Y-15164936D02*
X10922563Y-15155412D01*
X10998753Y-15250650D02*
X10998753Y-15383984D01*
X10998753Y-15269698D02*
X11008277Y-15260174D01*
X11008277Y-15260174D02*
X11027325Y-15250650D01*
X11027325Y-15250650D02*
X11055896Y-15250650D01*
X11055896Y-15250650D02*
X11074944Y-15260174D01*
X11074944Y-15260174D02*
X11084468Y-15279222D01*
X11084468Y-15279222D02*
X11084468Y-15383984D01*
X11208277Y-15383984D02*
X11189230Y-15374460D01*
X11189230Y-15374460D02*
X11179706Y-15364936D01*
X11179706Y-15364936D02*
X11170182Y-15345888D01*
X11170182Y-15345888D02*
X11170182Y-15288746D01*
X11170182Y-15288746D02*
X11179706Y-15269698D01*
X11179706Y-15269698D02*
X11189230Y-15260174D01*
X11189230Y-15260174D02*
X11208277Y-15250650D01*
X11208277Y-15250650D02*
X11236849Y-15250650D01*
X11236849Y-15250650D02*
X11255896Y-15260174D01*
X11255896Y-15260174D02*
X11265420Y-15269698D01*
X11265420Y-15269698D02*
X11274944Y-15288746D01*
X11274944Y-15288746D02*
X11274944Y-15345888D01*
X11274944Y-15345888D02*
X11265420Y-15364936D01*
X11265420Y-15364936D02*
X11255896Y-15374460D01*
X11255896Y-15374460D02*
X11236849Y-15383984D01*
X11236849Y-15383984D02*
X11208277Y-15383984D01*
X11332087Y-15250650D02*
X11408277Y-15250650D01*
X11360658Y-15183984D02*
X11360658Y-15355412D01*
X11360658Y-15355412D02*
X11370182Y-15374460D01*
X11370182Y-15374460D02*
X11389230Y-15383984D01*
X11389230Y-15383984D02*
X11408277Y-15383984D01*
X11627325Y-15250650D02*
X11627325Y-15450650D01*
X11627325Y-15260174D02*
X11646372Y-15250650D01*
X11646372Y-15250650D02*
X11684468Y-15250650D01*
X11684468Y-15250650D02*
X11703515Y-15260174D01*
X11703515Y-15260174D02*
X11713039Y-15269698D01*
X11713039Y-15269698D02*
X11722563Y-15288746D01*
X11722563Y-15288746D02*
X11722563Y-15345888D01*
X11722563Y-15345888D02*
X11713039Y-15364936D01*
X11713039Y-15364936D02*
X11703515Y-15374460D01*
X11703515Y-15374460D02*
X11684468Y-15383984D01*
X11684468Y-15383984D02*
X11646372Y-15383984D01*
X11646372Y-15383984D02*
X11627325Y-15374460D01*
X11836849Y-15383984D02*
X11817801Y-15374460D01*
X11817801Y-15374460D02*
X11808277Y-15355412D01*
X11808277Y-15355412D02*
X11808277Y-15183984D01*
X11998753Y-15383984D02*
X11998753Y-15279222D01*
X11998753Y-15279222D02*
X11989230Y-15260174D01*
X11989230Y-15260174D02*
X11970182Y-15250650D01*
X11970182Y-15250650D02*
X11932087Y-15250650D01*
X11932087Y-15250650D02*
X11913039Y-15260174D01*
X11998753Y-15374460D02*
X11979706Y-15383984D01*
X11979706Y-15383984D02*
X11932087Y-15383984D01*
X11932087Y-15383984D02*
X11913039Y-15374460D01*
X11913039Y-15374460D02*
X11903515Y-15355412D01*
X11903515Y-15355412D02*
X11903515Y-15336365D01*
X11903515Y-15336365D02*
X11913039Y-15317317D01*
X11913039Y-15317317D02*
X11932087Y-15307793D01*
X11932087Y-15307793D02*
X11979706Y-15307793D01*
X11979706Y-15307793D02*
X11998753Y-15298269D01*
X12065420Y-15250650D02*
X12141611Y-15250650D01*
X12093992Y-15183984D02*
X12093992Y-15355412D01*
X12093992Y-15355412D02*
X12103515Y-15374460D01*
X12103515Y-15374460D02*
X12122563Y-15383984D01*
X12122563Y-15383984D02*
X12141611Y-15383984D01*
X12284468Y-15374460D02*
X12265420Y-15383984D01*
X12265420Y-15383984D02*
X12227325Y-15383984D01*
X12227325Y-15383984D02*
X12208277Y-15374460D01*
X12208277Y-15374460D02*
X12198753Y-15355412D01*
X12198753Y-15355412D02*
X12198753Y-15279222D01*
X12198753Y-15279222D02*
X12208277Y-15260174D01*
X12208277Y-15260174D02*
X12227325Y-15250650D01*
X12227325Y-15250650D02*
X12265420Y-15250650D01*
X12265420Y-15250650D02*
X12284468Y-15260174D01*
X12284468Y-15260174D02*
X12293992Y-15279222D01*
X12293992Y-15279222D02*
X12293992Y-15298269D01*
X12293992Y-15298269D02*
X12198753Y-15317317D01*
X12465420Y-15383984D02*
X12465420Y-15183984D01*
X12465420Y-15374460D02*
X12446373Y-15383984D01*
X12446373Y-15383984D02*
X12408277Y-15383984D01*
X12408277Y-15383984D02*
X12389230Y-15374460D01*
X12389230Y-15374460D02*
X12379706Y-15364936D01*
X12379706Y-15364936D02*
X12370182Y-15345888D01*
X12370182Y-15345888D02*
X12370182Y-15288746D01*
X12370182Y-15288746D02*
X12379706Y-15269698D01*
X12379706Y-15269698D02*
X12389230Y-15260174D01*
X12389230Y-15260174D02*
X12408277Y-15250650D01*
X12408277Y-15250650D02*
X12446373Y-15250650D01*
X12446373Y-15250650D02*
X12465420Y-15260174D01*
X12541611Y-15460174D02*
X12551134Y-15450650D01*
X12551134Y-15450650D02*
X12570182Y-15422079D01*
X12570182Y-15422079D02*
X12579706Y-15403031D01*
X12579706Y-15403031D02*
X12589230Y-15374460D01*
X12589230Y-15374460D02*
X12598753Y-15326841D01*
X12598753Y-15326841D02*
X12598753Y-15288746D01*
X12598753Y-15288746D02*
X12589230Y-15241127D01*
X12589230Y-15241127D02*
X12579706Y-15212555D01*
X12579706Y-15212555D02*
X12570182Y-15193508D01*
X12570182Y-15193508D02*
X12551134Y-15164936D01*
X12551134Y-15164936D02*
X12541611Y-15155412D01*
D12*
X5947500Y-15556500D02*
G75*
G02*
X5882500Y-15556500I-32500J0D01*
G01*
X5882500Y-15556500D02*
G75*
G02*
X5947500Y-15556500I32500J0D01*
G01*
D11*
X6246372Y-15447984D02*
X6265420Y-15447984D01*
X6265420Y-15447984D02*
X6284467Y-15457508D01*
X6284467Y-15457508D02*
X6293991Y-15467031D01*
X6293991Y-15467031D02*
X6303515Y-15486079D01*
X6303515Y-15486079D02*
X6313039Y-15524174D01*
X6313039Y-15524174D02*
X6313039Y-15571793D01*
X6313039Y-15571793D02*
X6303515Y-15609888D01*
X6303515Y-15609888D02*
X6293991Y-15628936D01*
X6293991Y-15628936D02*
X6284467Y-15638460D01*
X6284467Y-15638460D02*
X6265420Y-15647984D01*
X6265420Y-15647984D02*
X6246372Y-15647984D01*
X6246372Y-15647984D02*
X6227324Y-15638460D01*
X6227324Y-15638460D02*
X6217801Y-15628936D01*
X6217801Y-15628936D02*
X6208277Y-15609888D01*
X6208277Y-15609888D02*
X6198753Y-15571793D01*
X6198753Y-15571793D02*
X6198753Y-15524174D01*
X6198753Y-15524174D02*
X6208277Y-15486079D01*
X6208277Y-15486079D02*
X6217801Y-15467031D01*
X6217801Y-15467031D02*
X6227324Y-15457508D01*
X6227324Y-15457508D02*
X6246372Y-15447984D01*
X6398753Y-15628936D02*
X6408277Y-15638460D01*
X6408277Y-15638460D02*
X6398753Y-15647984D01*
X6398753Y-15647984D02*
X6389229Y-15638460D01*
X6389229Y-15638460D02*
X6398753Y-15628936D01*
X6398753Y-15628936D02*
X6398753Y-15647984D01*
X6579705Y-15447984D02*
X6541610Y-15447984D01*
X6541610Y-15447984D02*
X6522562Y-15457508D01*
X6522562Y-15457508D02*
X6513039Y-15467031D01*
X6513039Y-15467031D02*
X6493991Y-15495603D01*
X6493991Y-15495603D02*
X6484467Y-15533698D01*
X6484467Y-15533698D02*
X6484467Y-15609888D01*
X6484467Y-15609888D02*
X6493991Y-15628936D01*
X6493991Y-15628936D02*
X6503515Y-15638460D01*
X6503515Y-15638460D02*
X6522562Y-15647984D01*
X6522562Y-15647984D02*
X6560658Y-15647984D01*
X6560658Y-15647984D02*
X6579705Y-15638460D01*
X6579705Y-15638460D02*
X6589229Y-15628936D01*
X6589229Y-15628936D02*
X6598753Y-15609888D01*
X6598753Y-15609888D02*
X6598753Y-15562269D01*
X6598753Y-15562269D02*
X6589229Y-15543222D01*
X6589229Y-15543222D02*
X6579705Y-15533698D01*
X6579705Y-15533698D02*
X6560658Y-15524174D01*
X6560658Y-15524174D02*
X6522562Y-15524174D01*
X6522562Y-15524174D02*
X6503515Y-15533698D01*
X6503515Y-15533698D02*
X6493991Y-15543222D01*
X6493991Y-15543222D02*
X6484467Y-15562269D01*
X6779705Y-15447984D02*
X6684467Y-15447984D01*
X6684467Y-15447984D02*
X6674943Y-15543222D01*
X6674943Y-15543222D02*
X6684467Y-15533698D01*
X6684467Y-15533698D02*
X6703515Y-15524174D01*
X6703515Y-15524174D02*
X6751134Y-15524174D01*
X6751134Y-15524174D02*
X6770182Y-15533698D01*
X6770182Y-15533698D02*
X6779705Y-15543222D01*
X6779705Y-15543222D02*
X6789229Y-15562269D01*
X6789229Y-15562269D02*
X6789229Y-15609888D01*
X6789229Y-15609888D02*
X6779705Y-15628936D01*
X6779705Y-15628936D02*
X6770182Y-15638460D01*
X6770182Y-15638460D02*
X6751134Y-15647984D01*
X6751134Y-15647984D02*
X6703515Y-15647984D01*
X6703515Y-15647984D02*
X6684467Y-15638460D01*
X6684467Y-15638460D02*
X6674943Y-15628936D01*
X6913039Y-15447984D02*
X6932086Y-15447984D01*
X6932086Y-15447984D02*
X6951134Y-15457508D01*
X6951134Y-15457508D02*
X6960658Y-15467031D01*
X6960658Y-15467031D02*
X6970182Y-15486079D01*
X6970182Y-15486079D02*
X6979705Y-15524174D01*
X6979705Y-15524174D02*
X6979705Y-15571793D01*
X6979705Y-15571793D02*
X6970182Y-15609888D01*
X6970182Y-15609888D02*
X6960658Y-15628936D01*
X6960658Y-15628936D02*
X6951134Y-15638460D01*
X6951134Y-15638460D02*
X6932086Y-15647984D01*
X6932086Y-15647984D02*
X6913039Y-15647984D01*
X6913039Y-15647984D02*
X6893991Y-15638460D01*
X6893991Y-15638460D02*
X6884467Y-15628936D01*
X6884467Y-15628936D02*
X6874943Y-15609888D01*
X6874943Y-15609888D02*
X6865420Y-15571793D01*
X6865420Y-15571793D02*
X6865420Y-15524174D01*
X6865420Y-15524174D02*
X6874943Y-15486079D01*
X6874943Y-15486079D02*
X6884467Y-15467031D01*
X6884467Y-15467031D02*
X6893991Y-15457508D01*
X6893991Y-15457508D02*
X6913039Y-15447984D01*
X7065420Y-15647984D02*
X7065420Y-15514650D01*
X7065420Y-15533698D02*
X7074943Y-15524174D01*
X7074943Y-15524174D02*
X7093991Y-15514650D01*
X7093991Y-15514650D02*
X7122563Y-15514650D01*
X7122563Y-15514650D02*
X7141610Y-15524174D01*
X7141610Y-15524174D02*
X7151134Y-15543222D01*
X7151134Y-15543222D02*
X7151134Y-15647984D01*
X7151134Y-15543222D02*
X7160658Y-15524174D01*
X7160658Y-15524174D02*
X7179705Y-15514650D01*
X7179705Y-15514650D02*
X7208277Y-15514650D01*
X7208277Y-15514650D02*
X7227324Y-15524174D01*
X7227324Y-15524174D02*
X7236848Y-15543222D01*
X7236848Y-15543222D02*
X7236848Y-15647984D01*
X7332086Y-15647984D02*
X7332086Y-15514650D01*
X7332086Y-15533698D02*
X7341610Y-15524174D01*
X7341610Y-15524174D02*
X7360658Y-15514650D01*
X7360658Y-15514650D02*
X7389229Y-15514650D01*
X7389229Y-15514650D02*
X7408277Y-15524174D01*
X7408277Y-15524174D02*
X7417801Y-15543222D01*
X7417801Y-15543222D02*
X7417801Y-15647984D01*
X7417801Y-15543222D02*
X7427324Y-15524174D01*
X7427324Y-15524174D02*
X7446372Y-15514650D01*
X7446372Y-15514650D02*
X7474943Y-15514650D01*
X7474943Y-15514650D02*
X7493991Y-15524174D01*
X7493991Y-15524174D02*
X7503515Y-15543222D01*
X7503515Y-15543222D02*
X7503515Y-15647984D01*
X7893991Y-15438460D02*
X7722563Y-15695603D01*
X8151134Y-15447984D02*
X8170182Y-15447984D01*
X8170182Y-15447984D02*
X8189229Y-15457508D01*
X8189229Y-15457508D02*
X8198753Y-15467031D01*
X8198753Y-15467031D02*
X8208277Y-15486079D01*
X8208277Y-15486079D02*
X8217801Y-15524174D01*
X8217801Y-15524174D02*
X8217801Y-15571793D01*
X8217801Y-15571793D02*
X8208277Y-15609888D01*
X8208277Y-15609888D02*
X8198753Y-15628936D01*
X8198753Y-15628936D02*
X8189229Y-15638460D01*
X8189229Y-15638460D02*
X8170182Y-15647984D01*
X8170182Y-15647984D02*
X8151134Y-15647984D01*
X8151134Y-15647984D02*
X8132086Y-15638460D01*
X8132086Y-15638460D02*
X8122563Y-15628936D01*
X8122563Y-15628936D02*
X8113039Y-15609888D01*
X8113039Y-15609888D02*
X8103515Y-15571793D01*
X8103515Y-15571793D02*
X8103515Y-15524174D01*
X8103515Y-15524174D02*
X8113039Y-15486079D01*
X8113039Y-15486079D02*
X8122563Y-15467031D01*
X8122563Y-15467031D02*
X8132086Y-15457508D01*
X8132086Y-15457508D02*
X8151134Y-15447984D01*
X8303515Y-15628936D02*
X8313039Y-15638460D01*
X8313039Y-15638460D02*
X8303515Y-15647984D01*
X8303515Y-15647984D02*
X8293991Y-15638460D01*
X8293991Y-15638460D02*
X8303515Y-15628936D01*
X8303515Y-15628936D02*
X8303515Y-15647984D01*
X8436848Y-15447984D02*
X8455896Y-15447984D01*
X8455896Y-15447984D02*
X8474944Y-15457508D01*
X8474944Y-15457508D02*
X8484468Y-15467031D01*
X8484468Y-15467031D02*
X8493991Y-15486079D01*
X8493991Y-15486079D02*
X8503515Y-15524174D01*
X8503515Y-15524174D02*
X8503515Y-15571793D01*
X8503515Y-15571793D02*
X8493991Y-15609888D01*
X8493991Y-15609888D02*
X8484468Y-15628936D01*
X8484468Y-15628936D02*
X8474944Y-15638460D01*
X8474944Y-15638460D02*
X8455896Y-15647984D01*
X8455896Y-15647984D02*
X8436848Y-15647984D01*
X8436848Y-15647984D02*
X8417801Y-15638460D01*
X8417801Y-15638460D02*
X8408277Y-15628936D01*
X8408277Y-15628936D02*
X8398753Y-15609888D01*
X8398753Y-15609888D02*
X8389229Y-15571793D01*
X8389229Y-15571793D02*
X8389229Y-15524174D01*
X8389229Y-15524174D02*
X8398753Y-15486079D01*
X8398753Y-15486079D02*
X8408277Y-15467031D01*
X8408277Y-15467031D02*
X8417801Y-15457508D01*
X8417801Y-15457508D02*
X8436848Y-15447984D01*
X8579706Y-15467031D02*
X8589229Y-15457508D01*
X8589229Y-15457508D02*
X8608277Y-15447984D01*
X8608277Y-15447984D02*
X8655896Y-15447984D01*
X8655896Y-15447984D02*
X8674944Y-15457508D01*
X8674944Y-15457508D02*
X8684468Y-15467031D01*
X8684468Y-15467031D02*
X8693991Y-15486079D01*
X8693991Y-15486079D02*
X8693991Y-15505127D01*
X8693991Y-15505127D02*
X8684468Y-15533698D01*
X8684468Y-15533698D02*
X8570182Y-15647984D01*
X8570182Y-15647984D02*
X8693991Y-15647984D01*
X8874944Y-15447984D02*
X8779706Y-15447984D01*
X8779706Y-15447984D02*
X8770182Y-15543222D01*
X8770182Y-15543222D02*
X8779706Y-15533698D01*
X8779706Y-15533698D02*
X8798753Y-15524174D01*
X8798753Y-15524174D02*
X8846372Y-15524174D01*
X8846372Y-15524174D02*
X8865420Y-15533698D01*
X8865420Y-15533698D02*
X8874944Y-15543222D01*
X8874944Y-15543222D02*
X8884468Y-15562269D01*
X8884468Y-15562269D02*
X8884468Y-15609888D01*
X8884468Y-15609888D02*
X8874944Y-15628936D01*
X8874944Y-15628936D02*
X8865420Y-15638460D01*
X8865420Y-15638460D02*
X8846372Y-15647984D01*
X8846372Y-15647984D02*
X8798753Y-15647984D01*
X8798753Y-15647984D02*
X8779706Y-15638460D01*
X8779706Y-15638460D02*
X8770182Y-15628936D01*
X9055896Y-15447984D02*
X9017801Y-15447984D01*
X9017801Y-15447984D02*
X8998753Y-15457508D01*
X8998753Y-15457508D02*
X8989229Y-15467031D01*
X8989229Y-15467031D02*
X8970182Y-15495603D01*
X8970182Y-15495603D02*
X8960658Y-15533698D01*
X8960658Y-15533698D02*
X8960658Y-15609888D01*
X8960658Y-15609888D02*
X8970182Y-15628936D01*
X8970182Y-15628936D02*
X8979706Y-15638460D01*
X8979706Y-15638460D02*
X8998753Y-15647984D01*
X8998753Y-15647984D02*
X9036849Y-15647984D01*
X9036849Y-15647984D02*
X9055896Y-15638460D01*
X9055896Y-15638460D02*
X9065420Y-15628936D01*
X9065420Y-15628936D02*
X9074944Y-15609888D01*
X9074944Y-15609888D02*
X9074944Y-15562269D01*
X9074944Y-15562269D02*
X9065420Y-15543222D01*
X9065420Y-15543222D02*
X9055896Y-15533698D01*
X9055896Y-15533698D02*
X9036849Y-15524174D01*
X9036849Y-15524174D02*
X8998753Y-15524174D01*
X8998753Y-15524174D02*
X8979706Y-15533698D01*
X8979706Y-15533698D02*
X8970182Y-15543222D01*
X8970182Y-15543222D02*
X8960658Y-15562269D01*
X9151134Y-15447984D02*
X9151134Y-15486079D01*
X9227325Y-15447984D02*
X9227325Y-15486079D01*
X9522563Y-15724174D02*
X9513039Y-15714650D01*
X9513039Y-15714650D02*
X9493991Y-15686079D01*
X9493991Y-15686079D02*
X9484468Y-15667031D01*
X9484468Y-15667031D02*
X9474944Y-15638460D01*
X9474944Y-15638460D02*
X9465420Y-15590841D01*
X9465420Y-15590841D02*
X9465420Y-15552746D01*
X9465420Y-15552746D02*
X9474944Y-15505127D01*
X9474944Y-15505127D02*
X9484468Y-15476555D01*
X9484468Y-15476555D02*
X9493991Y-15457508D01*
X9493991Y-15457508D02*
X9513039Y-15428936D01*
X9513039Y-15428936D02*
X9522563Y-15419412D01*
X9589230Y-15467031D02*
X9598753Y-15457508D01*
X9598753Y-15457508D02*
X9617801Y-15447984D01*
X9617801Y-15447984D02*
X9665420Y-15447984D01*
X9665420Y-15447984D02*
X9684468Y-15457508D01*
X9684468Y-15457508D02*
X9693991Y-15467031D01*
X9693991Y-15467031D02*
X9703515Y-15486079D01*
X9703515Y-15486079D02*
X9703515Y-15505127D01*
X9703515Y-15505127D02*
X9693991Y-15533698D01*
X9693991Y-15533698D02*
X9579706Y-15647984D01*
X9579706Y-15647984D02*
X9703515Y-15647984D01*
X9941611Y-15647984D02*
X9941611Y-15447984D01*
X10027325Y-15647984D02*
X10027325Y-15543222D01*
X10027325Y-15543222D02*
X10017801Y-15524174D01*
X10017801Y-15524174D02*
X9998753Y-15514650D01*
X9998753Y-15514650D02*
X9970182Y-15514650D01*
X9970182Y-15514650D02*
X9951134Y-15524174D01*
X9951134Y-15524174D02*
X9941611Y-15533698D01*
X10151134Y-15647984D02*
X10132087Y-15638460D01*
X10132087Y-15638460D02*
X10122563Y-15628936D01*
X10122563Y-15628936D02*
X10113039Y-15609888D01*
X10113039Y-15609888D02*
X10113039Y-15552746D01*
X10113039Y-15552746D02*
X10122563Y-15533698D01*
X10122563Y-15533698D02*
X10132087Y-15524174D01*
X10132087Y-15524174D02*
X10151134Y-15514650D01*
X10151134Y-15514650D02*
X10179706Y-15514650D01*
X10179706Y-15514650D02*
X10198753Y-15524174D01*
X10198753Y-15524174D02*
X10208277Y-15533698D01*
X10208277Y-15533698D02*
X10217801Y-15552746D01*
X10217801Y-15552746D02*
X10217801Y-15609888D01*
X10217801Y-15609888D02*
X10208277Y-15628936D01*
X10208277Y-15628936D02*
X10198753Y-15638460D01*
X10198753Y-15638460D02*
X10179706Y-15647984D01*
X10179706Y-15647984D02*
X10151134Y-15647984D01*
X10332087Y-15647984D02*
X10313039Y-15638460D01*
X10313039Y-15638460D02*
X10303515Y-15619412D01*
X10303515Y-15619412D02*
X10303515Y-15447984D01*
X10484468Y-15638460D02*
X10465420Y-15647984D01*
X10465420Y-15647984D02*
X10427325Y-15647984D01*
X10427325Y-15647984D02*
X10408277Y-15638460D01*
X10408277Y-15638460D02*
X10398753Y-15619412D01*
X10398753Y-15619412D02*
X10398753Y-15543222D01*
X10398753Y-15543222D02*
X10408277Y-15524174D01*
X10408277Y-15524174D02*
X10427325Y-15514650D01*
X10427325Y-15514650D02*
X10465420Y-15514650D01*
X10465420Y-15514650D02*
X10484468Y-15524174D01*
X10484468Y-15524174D02*
X10493992Y-15543222D01*
X10493992Y-15543222D02*
X10493992Y-15562269D01*
X10493992Y-15562269D02*
X10398753Y-15581317D01*
X10570182Y-15638460D02*
X10589230Y-15647984D01*
X10589230Y-15647984D02*
X10627325Y-15647984D01*
X10627325Y-15647984D02*
X10646373Y-15638460D01*
X10646373Y-15638460D02*
X10655896Y-15619412D01*
X10655896Y-15619412D02*
X10655896Y-15609888D01*
X10655896Y-15609888D02*
X10646373Y-15590841D01*
X10646373Y-15590841D02*
X10627325Y-15581317D01*
X10627325Y-15581317D02*
X10598753Y-15581317D01*
X10598753Y-15581317D02*
X10579706Y-15571793D01*
X10579706Y-15571793D02*
X10570182Y-15552746D01*
X10570182Y-15552746D02*
X10570182Y-15543222D01*
X10570182Y-15543222D02*
X10579706Y-15524174D01*
X10579706Y-15524174D02*
X10598753Y-15514650D01*
X10598753Y-15514650D02*
X10627325Y-15514650D01*
X10627325Y-15514650D02*
X10646373Y-15524174D01*
X10722563Y-15724174D02*
X10732087Y-15714650D01*
X10732087Y-15714650D02*
X10751134Y-15686079D01*
X10751134Y-15686079D02*
X10760658Y-15667031D01*
X10760658Y-15667031D02*
X10770182Y-15638460D01*
X10770182Y-15638460D02*
X10779706Y-15590841D01*
X10779706Y-15590841D02*
X10779706Y-15552746D01*
X10779706Y-15552746D02*
X10770182Y-15505127D01*
X10770182Y-15505127D02*
X10760658Y-15476555D01*
X10760658Y-15476555D02*
X10751134Y-15457508D01*
X10751134Y-15457508D02*
X10732087Y-15428936D01*
X10732087Y-15428936D02*
X10722563Y-15419412D01*
X11084468Y-15724174D02*
X11074944Y-15714650D01*
X11074944Y-15714650D02*
X11055896Y-15686079D01*
X11055896Y-15686079D02*
X11046373Y-15667031D01*
X11046373Y-15667031D02*
X11036849Y-15638460D01*
X11036849Y-15638460D02*
X11027325Y-15590841D01*
X11027325Y-15590841D02*
X11027325Y-15552746D01*
X11027325Y-15552746D02*
X11036849Y-15505127D01*
X11036849Y-15505127D02*
X11046373Y-15476555D01*
X11046373Y-15476555D02*
X11055896Y-15457508D01*
X11055896Y-15457508D02*
X11074944Y-15428936D01*
X11074944Y-15428936D02*
X11084468Y-15419412D01*
X11160658Y-15514650D02*
X11160658Y-15647984D01*
X11160658Y-15533698D02*
X11170182Y-15524174D01*
X11170182Y-15524174D02*
X11189230Y-15514650D01*
X11189230Y-15514650D02*
X11217801Y-15514650D01*
X11217801Y-15514650D02*
X11236849Y-15524174D01*
X11236849Y-15524174D02*
X11246372Y-15543222D01*
X11246372Y-15543222D02*
X11246372Y-15647984D01*
X11370182Y-15647984D02*
X11351134Y-15638460D01*
X11351134Y-15638460D02*
X11341611Y-15628936D01*
X11341611Y-15628936D02*
X11332087Y-15609888D01*
X11332087Y-15609888D02*
X11332087Y-15552746D01*
X11332087Y-15552746D02*
X11341611Y-15533698D01*
X11341611Y-15533698D02*
X11351134Y-15524174D01*
X11351134Y-15524174D02*
X11370182Y-15514650D01*
X11370182Y-15514650D02*
X11398753Y-15514650D01*
X11398753Y-15514650D02*
X11417801Y-15524174D01*
X11417801Y-15524174D02*
X11427325Y-15533698D01*
X11427325Y-15533698D02*
X11436849Y-15552746D01*
X11436849Y-15552746D02*
X11436849Y-15609888D01*
X11436849Y-15609888D02*
X11427325Y-15628936D01*
X11427325Y-15628936D02*
X11417801Y-15638460D01*
X11417801Y-15638460D02*
X11398753Y-15647984D01*
X11398753Y-15647984D02*
X11370182Y-15647984D01*
X11493992Y-15514650D02*
X11570182Y-15514650D01*
X11522563Y-15447984D02*
X11522563Y-15619412D01*
X11522563Y-15619412D02*
X11532087Y-15638460D01*
X11532087Y-15638460D02*
X11551134Y-15647984D01*
X11551134Y-15647984D02*
X11570182Y-15647984D01*
X11789230Y-15514650D02*
X11789230Y-15714650D01*
X11789230Y-15524174D02*
X11808277Y-15514650D01*
X11808277Y-15514650D02*
X11846373Y-15514650D01*
X11846373Y-15514650D02*
X11865420Y-15524174D01*
X11865420Y-15524174D02*
X11874944Y-15533698D01*
X11874944Y-15533698D02*
X11884468Y-15552746D01*
X11884468Y-15552746D02*
X11884468Y-15609888D01*
X11884468Y-15609888D02*
X11874944Y-15628936D01*
X11874944Y-15628936D02*
X11865420Y-15638460D01*
X11865420Y-15638460D02*
X11846373Y-15647984D01*
X11846373Y-15647984D02*
X11808277Y-15647984D01*
X11808277Y-15647984D02*
X11789230Y-15638460D01*
X11998753Y-15647984D02*
X11979706Y-15638460D01*
X11979706Y-15638460D02*
X11970182Y-15619412D01*
X11970182Y-15619412D02*
X11970182Y-15447984D01*
X12160658Y-15647984D02*
X12160658Y-15543222D01*
X12160658Y-15543222D02*
X12151134Y-15524174D01*
X12151134Y-15524174D02*
X12132087Y-15514650D01*
X12132087Y-15514650D02*
X12093992Y-15514650D01*
X12093992Y-15514650D02*
X12074944Y-15524174D01*
X12160658Y-15638460D02*
X12141611Y-15647984D01*
X12141611Y-15647984D02*
X12093992Y-15647984D01*
X12093992Y-15647984D02*
X12074944Y-15638460D01*
X12074944Y-15638460D02*
X12065420Y-15619412D01*
X12065420Y-15619412D02*
X12065420Y-15600365D01*
X12065420Y-15600365D02*
X12074944Y-15581317D01*
X12074944Y-15581317D02*
X12093992Y-15571793D01*
X12093992Y-15571793D02*
X12141611Y-15571793D01*
X12141611Y-15571793D02*
X12160658Y-15562269D01*
X12227325Y-15514650D02*
X12303515Y-15514650D01*
X12255896Y-15447984D02*
X12255896Y-15619412D01*
X12255896Y-15619412D02*
X12265420Y-15638460D01*
X12265420Y-15638460D02*
X12284468Y-15647984D01*
X12284468Y-15647984D02*
X12303515Y-15647984D01*
X12446373Y-15638460D02*
X12427325Y-15647984D01*
X12427325Y-15647984D02*
X12389230Y-15647984D01*
X12389230Y-15647984D02*
X12370182Y-15638460D01*
X12370182Y-15638460D02*
X12360658Y-15619412D01*
X12360658Y-15619412D02*
X12360658Y-15543222D01*
X12360658Y-15543222D02*
X12370182Y-15524174D01*
X12370182Y-15524174D02*
X12389230Y-15514650D01*
X12389230Y-15514650D02*
X12427325Y-15514650D01*
X12427325Y-15514650D02*
X12446373Y-15524174D01*
X12446373Y-15524174D02*
X12455896Y-15543222D01*
X12455896Y-15543222D02*
X12455896Y-15562269D01*
X12455896Y-15562269D02*
X12360658Y-15581317D01*
X12627325Y-15647984D02*
X12627325Y-15447984D01*
X12627325Y-15638460D02*
X12608277Y-15647984D01*
X12608277Y-15647984D02*
X12570182Y-15647984D01*
X12570182Y-15647984D02*
X12551134Y-15638460D01*
X12551134Y-15638460D02*
X12541611Y-15628936D01*
X12541611Y-15628936D02*
X12532087Y-15609888D01*
X12532087Y-15609888D02*
X12532087Y-15552746D01*
X12532087Y-15552746D02*
X12541611Y-15533698D01*
X12541611Y-15533698D02*
X12551134Y-15524174D01*
X12551134Y-15524174D02*
X12570182Y-15514650D01*
X12570182Y-15514650D02*
X12608277Y-15514650D01*
X12608277Y-15514650D02*
X12627325Y-15524174D01*
X12703515Y-15724174D02*
X12713039Y-15714650D01*
X12713039Y-15714650D02*
X12732087Y-15686079D01*
X12732087Y-15686079D02*
X12741611Y-15667031D01*
X12741611Y-15667031D02*
X12751134Y-15638460D01*
X12751134Y-15638460D02*
X12760658Y-15590841D01*
X12760658Y-15590841D02*
X12760658Y-15552746D01*
X12760658Y-15552746D02*
X12751134Y-15505127D01*
X12751134Y-15505127D02*
X12741611Y-15476555D01*
X12741611Y-15476555D02*
X12732087Y-15457508D01*
X12732087Y-15457508D02*
X12713039Y-15428936D01*
X12713039Y-15428936D02*
X12703515Y-15419412D01*
D13*
X5887500Y-15760500D02*
X5887500Y-15880500D01*
X5827500Y-15820500D02*
X5947500Y-15820500D01*
D11*
X6313039Y-15911984D02*
X6198753Y-15911984D01*
X6255896Y-15911984D02*
X6255896Y-15711984D01*
X6255896Y-15711984D02*
X6236848Y-15740555D01*
X6236848Y-15740555D02*
X6217801Y-15759603D01*
X6217801Y-15759603D02*
X6198753Y-15769127D01*
X6398753Y-15892936D02*
X6408277Y-15902460D01*
X6408277Y-15902460D02*
X6398753Y-15911984D01*
X6398753Y-15911984D02*
X6389229Y-15902460D01*
X6389229Y-15902460D02*
X6398753Y-15892936D01*
X6398753Y-15892936D02*
X6398753Y-15911984D01*
X6484467Y-15731031D02*
X6493991Y-15721508D01*
X6493991Y-15721508D02*
X6513039Y-15711984D01*
X6513039Y-15711984D02*
X6560658Y-15711984D01*
X6560658Y-15711984D02*
X6579705Y-15721508D01*
X6579705Y-15721508D02*
X6589229Y-15731031D01*
X6589229Y-15731031D02*
X6598753Y-15750079D01*
X6598753Y-15750079D02*
X6598753Y-15769127D01*
X6598753Y-15769127D02*
X6589229Y-15797698D01*
X6589229Y-15797698D02*
X6474943Y-15911984D01*
X6474943Y-15911984D02*
X6598753Y-15911984D01*
X6722562Y-15711984D02*
X6741610Y-15711984D01*
X6741610Y-15711984D02*
X6760658Y-15721508D01*
X6760658Y-15721508D02*
X6770182Y-15731031D01*
X6770182Y-15731031D02*
X6779705Y-15750079D01*
X6779705Y-15750079D02*
X6789229Y-15788174D01*
X6789229Y-15788174D02*
X6789229Y-15835793D01*
X6789229Y-15835793D02*
X6779705Y-15873888D01*
X6779705Y-15873888D02*
X6770182Y-15892936D01*
X6770182Y-15892936D02*
X6760658Y-15902460D01*
X6760658Y-15902460D02*
X6741610Y-15911984D01*
X6741610Y-15911984D02*
X6722562Y-15911984D01*
X6722562Y-15911984D02*
X6703515Y-15902460D01*
X6703515Y-15902460D02*
X6693991Y-15892936D01*
X6693991Y-15892936D02*
X6684467Y-15873888D01*
X6684467Y-15873888D02*
X6674943Y-15835793D01*
X6674943Y-15835793D02*
X6674943Y-15788174D01*
X6674943Y-15788174D02*
X6684467Y-15750079D01*
X6684467Y-15750079D02*
X6693991Y-15731031D01*
X6693991Y-15731031D02*
X6703515Y-15721508D01*
X6703515Y-15721508D02*
X6722562Y-15711984D01*
X6913039Y-15711984D02*
X6932086Y-15711984D01*
X6932086Y-15711984D02*
X6951134Y-15721508D01*
X6951134Y-15721508D02*
X6960658Y-15731031D01*
X6960658Y-15731031D02*
X6970182Y-15750079D01*
X6970182Y-15750079D02*
X6979705Y-15788174D01*
X6979705Y-15788174D02*
X6979705Y-15835793D01*
X6979705Y-15835793D02*
X6970182Y-15873888D01*
X6970182Y-15873888D02*
X6960658Y-15892936D01*
X6960658Y-15892936D02*
X6951134Y-15902460D01*
X6951134Y-15902460D02*
X6932086Y-15911984D01*
X6932086Y-15911984D02*
X6913039Y-15911984D01*
X6913039Y-15911984D02*
X6893991Y-15902460D01*
X6893991Y-15902460D02*
X6884467Y-15892936D01*
X6884467Y-15892936D02*
X6874943Y-15873888D01*
X6874943Y-15873888D02*
X6865420Y-15835793D01*
X6865420Y-15835793D02*
X6865420Y-15788174D01*
X6865420Y-15788174D02*
X6874943Y-15750079D01*
X6874943Y-15750079D02*
X6884467Y-15731031D01*
X6884467Y-15731031D02*
X6893991Y-15721508D01*
X6893991Y-15721508D02*
X6913039Y-15711984D01*
X7065420Y-15911984D02*
X7065420Y-15778650D01*
X7065420Y-15797698D02*
X7074943Y-15788174D01*
X7074943Y-15788174D02*
X7093991Y-15778650D01*
X7093991Y-15778650D02*
X7122563Y-15778650D01*
X7122563Y-15778650D02*
X7141610Y-15788174D01*
X7141610Y-15788174D02*
X7151134Y-15807222D01*
X7151134Y-15807222D02*
X7151134Y-15911984D01*
X7151134Y-15807222D02*
X7160658Y-15788174D01*
X7160658Y-15788174D02*
X7179705Y-15778650D01*
X7179705Y-15778650D02*
X7208277Y-15778650D01*
X7208277Y-15778650D02*
X7227324Y-15788174D01*
X7227324Y-15788174D02*
X7236848Y-15807222D01*
X7236848Y-15807222D02*
X7236848Y-15911984D01*
X7332086Y-15911984D02*
X7332086Y-15778650D01*
X7332086Y-15797698D02*
X7341610Y-15788174D01*
X7341610Y-15788174D02*
X7360658Y-15778650D01*
X7360658Y-15778650D02*
X7389229Y-15778650D01*
X7389229Y-15778650D02*
X7408277Y-15788174D01*
X7408277Y-15788174D02*
X7417801Y-15807222D01*
X7417801Y-15807222D02*
X7417801Y-15911984D01*
X7417801Y-15807222D02*
X7427324Y-15788174D01*
X7427324Y-15788174D02*
X7446372Y-15778650D01*
X7446372Y-15778650D02*
X7474943Y-15778650D01*
X7474943Y-15778650D02*
X7493991Y-15788174D01*
X7493991Y-15788174D02*
X7503515Y-15807222D01*
X7503515Y-15807222D02*
X7503515Y-15911984D01*
X7893991Y-15702460D02*
X7722563Y-15959603D01*
X8151134Y-15711984D02*
X8170182Y-15711984D01*
X8170182Y-15711984D02*
X8189229Y-15721508D01*
X8189229Y-15721508D02*
X8198753Y-15731031D01*
X8198753Y-15731031D02*
X8208277Y-15750079D01*
X8208277Y-15750079D02*
X8217801Y-15788174D01*
X8217801Y-15788174D02*
X8217801Y-15835793D01*
X8217801Y-15835793D02*
X8208277Y-15873888D01*
X8208277Y-15873888D02*
X8198753Y-15892936D01*
X8198753Y-15892936D02*
X8189229Y-15902460D01*
X8189229Y-15902460D02*
X8170182Y-15911984D01*
X8170182Y-15911984D02*
X8151134Y-15911984D01*
X8151134Y-15911984D02*
X8132086Y-15902460D01*
X8132086Y-15902460D02*
X8122563Y-15892936D01*
X8122563Y-15892936D02*
X8113039Y-15873888D01*
X8113039Y-15873888D02*
X8103515Y-15835793D01*
X8103515Y-15835793D02*
X8103515Y-15788174D01*
X8103515Y-15788174D02*
X8113039Y-15750079D01*
X8113039Y-15750079D02*
X8122563Y-15731031D01*
X8122563Y-15731031D02*
X8132086Y-15721508D01*
X8132086Y-15721508D02*
X8151134Y-15711984D01*
X8303515Y-15892936D02*
X8313039Y-15902460D01*
X8313039Y-15902460D02*
X8303515Y-15911984D01*
X8303515Y-15911984D02*
X8293991Y-15902460D01*
X8293991Y-15902460D02*
X8303515Y-15892936D01*
X8303515Y-15892936D02*
X8303515Y-15911984D01*
X8436848Y-15711984D02*
X8455896Y-15711984D01*
X8455896Y-15711984D02*
X8474944Y-15721508D01*
X8474944Y-15721508D02*
X8484468Y-15731031D01*
X8484468Y-15731031D02*
X8493991Y-15750079D01*
X8493991Y-15750079D02*
X8503515Y-15788174D01*
X8503515Y-15788174D02*
X8503515Y-15835793D01*
X8503515Y-15835793D02*
X8493991Y-15873888D01*
X8493991Y-15873888D02*
X8484468Y-15892936D01*
X8484468Y-15892936D02*
X8474944Y-15902460D01*
X8474944Y-15902460D02*
X8455896Y-15911984D01*
X8455896Y-15911984D02*
X8436848Y-15911984D01*
X8436848Y-15911984D02*
X8417801Y-15902460D01*
X8417801Y-15902460D02*
X8408277Y-15892936D01*
X8408277Y-15892936D02*
X8398753Y-15873888D01*
X8398753Y-15873888D02*
X8389229Y-15835793D01*
X8389229Y-15835793D02*
X8389229Y-15788174D01*
X8389229Y-15788174D02*
X8398753Y-15750079D01*
X8398753Y-15750079D02*
X8408277Y-15731031D01*
X8408277Y-15731031D02*
X8417801Y-15721508D01*
X8417801Y-15721508D02*
X8436848Y-15711984D01*
X8674944Y-15778650D02*
X8674944Y-15911984D01*
X8627325Y-15702460D02*
X8579706Y-15845317D01*
X8579706Y-15845317D02*
X8703515Y-15845317D01*
X8760658Y-15711984D02*
X8893991Y-15711984D01*
X8893991Y-15711984D02*
X8808277Y-15911984D01*
X8960658Y-15731031D02*
X8970182Y-15721508D01*
X8970182Y-15721508D02*
X8989229Y-15711984D01*
X8989229Y-15711984D02*
X9036849Y-15711984D01*
X9036849Y-15711984D02*
X9055896Y-15721508D01*
X9055896Y-15721508D02*
X9065420Y-15731031D01*
X9065420Y-15731031D02*
X9074944Y-15750079D01*
X9074944Y-15750079D02*
X9074944Y-15769127D01*
X9074944Y-15769127D02*
X9065420Y-15797698D01*
X9065420Y-15797698D02*
X8951134Y-15911984D01*
X8951134Y-15911984D02*
X9074944Y-15911984D01*
X9151134Y-15711984D02*
X9151134Y-15750079D01*
X9227325Y-15711984D02*
X9227325Y-15750079D01*
X9522563Y-15988174D02*
X9513039Y-15978650D01*
X9513039Y-15978650D02*
X9493991Y-15950079D01*
X9493991Y-15950079D02*
X9484468Y-15931031D01*
X9484468Y-15931031D02*
X9474944Y-15902460D01*
X9474944Y-15902460D02*
X9465420Y-15854841D01*
X9465420Y-15854841D02*
X9465420Y-15816746D01*
X9465420Y-15816746D02*
X9474944Y-15769127D01*
X9474944Y-15769127D02*
X9484468Y-15740555D01*
X9484468Y-15740555D02*
X9493991Y-15721508D01*
X9493991Y-15721508D02*
X9513039Y-15692936D01*
X9513039Y-15692936D02*
X9522563Y-15683412D01*
X9693991Y-15711984D02*
X9598753Y-15711984D01*
X9598753Y-15711984D02*
X9589230Y-15807222D01*
X9589230Y-15807222D02*
X9598753Y-15797698D01*
X9598753Y-15797698D02*
X9617801Y-15788174D01*
X9617801Y-15788174D02*
X9665420Y-15788174D01*
X9665420Y-15788174D02*
X9684468Y-15797698D01*
X9684468Y-15797698D02*
X9693991Y-15807222D01*
X9693991Y-15807222D02*
X9703515Y-15826269D01*
X9703515Y-15826269D02*
X9703515Y-15873888D01*
X9703515Y-15873888D02*
X9693991Y-15892936D01*
X9693991Y-15892936D02*
X9684468Y-15902460D01*
X9684468Y-15902460D02*
X9665420Y-15911984D01*
X9665420Y-15911984D02*
X9617801Y-15911984D01*
X9617801Y-15911984D02*
X9598753Y-15902460D01*
X9598753Y-15902460D02*
X9589230Y-15892936D01*
X9941611Y-15911984D02*
X9941611Y-15711984D01*
X10027325Y-15911984D02*
X10027325Y-15807222D01*
X10027325Y-15807222D02*
X10017801Y-15788174D01*
X10017801Y-15788174D02*
X9998753Y-15778650D01*
X9998753Y-15778650D02*
X9970182Y-15778650D01*
X9970182Y-15778650D02*
X9951134Y-15788174D01*
X9951134Y-15788174D02*
X9941611Y-15797698D01*
X10151134Y-15911984D02*
X10132087Y-15902460D01*
X10132087Y-15902460D02*
X10122563Y-15892936D01*
X10122563Y-15892936D02*
X10113039Y-15873888D01*
X10113039Y-15873888D02*
X10113039Y-15816746D01*
X10113039Y-15816746D02*
X10122563Y-15797698D01*
X10122563Y-15797698D02*
X10132087Y-15788174D01*
X10132087Y-15788174D02*
X10151134Y-15778650D01*
X10151134Y-15778650D02*
X10179706Y-15778650D01*
X10179706Y-15778650D02*
X10198753Y-15788174D01*
X10198753Y-15788174D02*
X10208277Y-15797698D01*
X10208277Y-15797698D02*
X10217801Y-15816746D01*
X10217801Y-15816746D02*
X10217801Y-15873888D01*
X10217801Y-15873888D02*
X10208277Y-15892936D01*
X10208277Y-15892936D02*
X10198753Y-15902460D01*
X10198753Y-15902460D02*
X10179706Y-15911984D01*
X10179706Y-15911984D02*
X10151134Y-15911984D01*
X10332087Y-15911984D02*
X10313039Y-15902460D01*
X10313039Y-15902460D02*
X10303515Y-15883412D01*
X10303515Y-15883412D02*
X10303515Y-15711984D01*
X10484468Y-15902460D02*
X10465420Y-15911984D01*
X10465420Y-15911984D02*
X10427325Y-15911984D01*
X10427325Y-15911984D02*
X10408277Y-15902460D01*
X10408277Y-15902460D02*
X10398753Y-15883412D01*
X10398753Y-15883412D02*
X10398753Y-15807222D01*
X10398753Y-15807222D02*
X10408277Y-15788174D01*
X10408277Y-15788174D02*
X10427325Y-15778650D01*
X10427325Y-15778650D02*
X10465420Y-15778650D01*
X10465420Y-15778650D02*
X10484468Y-15788174D01*
X10484468Y-15788174D02*
X10493992Y-15807222D01*
X10493992Y-15807222D02*
X10493992Y-15826269D01*
X10493992Y-15826269D02*
X10398753Y-15845317D01*
X10570182Y-15902460D02*
X10589230Y-15911984D01*
X10589230Y-15911984D02*
X10627325Y-15911984D01*
X10627325Y-15911984D02*
X10646373Y-15902460D01*
X10646373Y-15902460D02*
X10655896Y-15883412D01*
X10655896Y-15883412D02*
X10655896Y-15873888D01*
X10655896Y-15873888D02*
X10646373Y-15854841D01*
X10646373Y-15854841D02*
X10627325Y-15845317D01*
X10627325Y-15845317D02*
X10598753Y-15845317D01*
X10598753Y-15845317D02*
X10579706Y-15835793D01*
X10579706Y-15835793D02*
X10570182Y-15816746D01*
X10570182Y-15816746D02*
X10570182Y-15807222D01*
X10570182Y-15807222D02*
X10579706Y-15788174D01*
X10579706Y-15788174D02*
X10598753Y-15778650D01*
X10598753Y-15778650D02*
X10627325Y-15778650D01*
X10627325Y-15778650D02*
X10646373Y-15788174D01*
X10722563Y-15988174D02*
X10732087Y-15978650D01*
X10732087Y-15978650D02*
X10751134Y-15950079D01*
X10751134Y-15950079D02*
X10760658Y-15931031D01*
X10760658Y-15931031D02*
X10770182Y-15902460D01*
X10770182Y-15902460D02*
X10779706Y-15854841D01*
X10779706Y-15854841D02*
X10779706Y-15816746D01*
X10779706Y-15816746D02*
X10770182Y-15769127D01*
X10770182Y-15769127D02*
X10760658Y-15740555D01*
X10760658Y-15740555D02*
X10751134Y-15721508D01*
X10751134Y-15721508D02*
X10732087Y-15692936D01*
X10732087Y-15692936D02*
X10722563Y-15683412D01*
X11084468Y-15988174D02*
X11074944Y-15978650D01*
X11074944Y-15978650D02*
X11055896Y-15950079D01*
X11055896Y-15950079D02*
X11046373Y-15931031D01*
X11046373Y-15931031D02*
X11036849Y-15902460D01*
X11036849Y-15902460D02*
X11027325Y-15854841D01*
X11027325Y-15854841D02*
X11027325Y-15816746D01*
X11027325Y-15816746D02*
X11036849Y-15769127D01*
X11036849Y-15769127D02*
X11046373Y-15740555D01*
X11046373Y-15740555D02*
X11055896Y-15721508D01*
X11055896Y-15721508D02*
X11074944Y-15692936D01*
X11074944Y-15692936D02*
X11084468Y-15683412D01*
X11160658Y-15778650D02*
X11160658Y-15911984D01*
X11160658Y-15797698D02*
X11170182Y-15788174D01*
X11170182Y-15788174D02*
X11189230Y-15778650D01*
X11189230Y-15778650D02*
X11217801Y-15778650D01*
X11217801Y-15778650D02*
X11236849Y-15788174D01*
X11236849Y-15788174D02*
X11246372Y-15807222D01*
X11246372Y-15807222D02*
X11246372Y-15911984D01*
X11370182Y-15911984D02*
X11351134Y-15902460D01*
X11351134Y-15902460D02*
X11341611Y-15892936D01*
X11341611Y-15892936D02*
X11332087Y-15873888D01*
X11332087Y-15873888D02*
X11332087Y-15816746D01*
X11332087Y-15816746D02*
X11341611Y-15797698D01*
X11341611Y-15797698D02*
X11351134Y-15788174D01*
X11351134Y-15788174D02*
X11370182Y-15778650D01*
X11370182Y-15778650D02*
X11398753Y-15778650D01*
X11398753Y-15778650D02*
X11417801Y-15788174D01*
X11417801Y-15788174D02*
X11427325Y-15797698D01*
X11427325Y-15797698D02*
X11436849Y-15816746D01*
X11436849Y-15816746D02*
X11436849Y-15873888D01*
X11436849Y-15873888D02*
X11427325Y-15892936D01*
X11427325Y-15892936D02*
X11417801Y-15902460D01*
X11417801Y-15902460D02*
X11398753Y-15911984D01*
X11398753Y-15911984D02*
X11370182Y-15911984D01*
X11493992Y-15778650D02*
X11570182Y-15778650D01*
X11522563Y-15711984D02*
X11522563Y-15883412D01*
X11522563Y-15883412D02*
X11532087Y-15902460D01*
X11532087Y-15902460D02*
X11551134Y-15911984D01*
X11551134Y-15911984D02*
X11570182Y-15911984D01*
X11789230Y-15778650D02*
X11789230Y-15978650D01*
X11789230Y-15788174D02*
X11808277Y-15778650D01*
X11808277Y-15778650D02*
X11846373Y-15778650D01*
X11846373Y-15778650D02*
X11865420Y-15788174D01*
X11865420Y-15788174D02*
X11874944Y-15797698D01*
X11874944Y-15797698D02*
X11884468Y-15816746D01*
X11884468Y-15816746D02*
X11884468Y-15873888D01*
X11884468Y-15873888D02*
X11874944Y-15892936D01*
X11874944Y-15892936D02*
X11865420Y-15902460D01*
X11865420Y-15902460D02*
X11846373Y-15911984D01*
X11846373Y-15911984D02*
X11808277Y-15911984D01*
X11808277Y-15911984D02*
X11789230Y-15902460D01*
X11998753Y-15911984D02*
X11979706Y-15902460D01*
X11979706Y-15902460D02*
X11970182Y-15883412D01*
X11970182Y-15883412D02*
X11970182Y-15711984D01*
X12160658Y-15911984D02*
X12160658Y-15807222D01*
X12160658Y-15807222D02*
X12151134Y-15788174D01*
X12151134Y-15788174D02*
X12132087Y-15778650D01*
X12132087Y-15778650D02*
X12093992Y-15778650D01*
X12093992Y-15778650D02*
X12074944Y-15788174D01*
X12160658Y-15902460D02*
X12141611Y-15911984D01*
X12141611Y-15911984D02*
X12093992Y-15911984D01*
X12093992Y-15911984D02*
X12074944Y-15902460D01*
X12074944Y-15902460D02*
X12065420Y-15883412D01*
X12065420Y-15883412D02*
X12065420Y-15864365D01*
X12065420Y-15864365D02*
X12074944Y-15845317D01*
X12074944Y-15845317D02*
X12093992Y-15835793D01*
X12093992Y-15835793D02*
X12141611Y-15835793D01*
X12141611Y-15835793D02*
X12160658Y-15826269D01*
X12227325Y-15778650D02*
X12303515Y-15778650D01*
X12255896Y-15711984D02*
X12255896Y-15883412D01*
X12255896Y-15883412D02*
X12265420Y-15902460D01*
X12265420Y-15902460D02*
X12284468Y-15911984D01*
X12284468Y-15911984D02*
X12303515Y-15911984D01*
X12446373Y-15902460D02*
X12427325Y-15911984D01*
X12427325Y-15911984D02*
X12389230Y-15911984D01*
X12389230Y-15911984D02*
X12370182Y-15902460D01*
X12370182Y-15902460D02*
X12360658Y-15883412D01*
X12360658Y-15883412D02*
X12360658Y-15807222D01*
X12360658Y-15807222D02*
X12370182Y-15788174D01*
X12370182Y-15788174D02*
X12389230Y-15778650D01*
X12389230Y-15778650D02*
X12427325Y-15778650D01*
X12427325Y-15778650D02*
X12446373Y-15788174D01*
X12446373Y-15788174D02*
X12455896Y-15807222D01*
X12455896Y-15807222D02*
X12455896Y-15826269D01*
X12455896Y-15826269D02*
X12360658Y-15845317D01*
X12627325Y-15911984D02*
X12627325Y-15711984D01*
X12627325Y-15902460D02*
X12608277Y-15911984D01*
X12608277Y-15911984D02*
X12570182Y-15911984D01*
X12570182Y-15911984D02*
X12551134Y-15902460D01*
X12551134Y-15902460D02*
X12541611Y-15892936D01*
X12541611Y-15892936D02*
X12532087Y-15873888D01*
X12532087Y-15873888D02*
X12532087Y-15816746D01*
X12532087Y-15816746D02*
X12541611Y-15797698D01*
X12541611Y-15797698D02*
X12551134Y-15788174D01*
X12551134Y-15788174D02*
X12570182Y-15778650D01*
X12570182Y-15778650D02*
X12608277Y-15778650D01*
X12608277Y-15778650D02*
X12627325Y-15788174D01*
X12703515Y-15988174D02*
X12713039Y-15978650D01*
X12713039Y-15978650D02*
X12732087Y-15950079D01*
X12732087Y-15950079D02*
X12741611Y-15931031D01*
X12741611Y-15931031D02*
X12751134Y-15902460D01*
X12751134Y-15902460D02*
X12760658Y-15854841D01*
X12760658Y-15854841D02*
X12760658Y-15816746D01*
X12760658Y-15816746D02*
X12751134Y-15769127D01*
X12751134Y-15769127D02*
X12741611Y-15740555D01*
X12741611Y-15740555D02*
X12732087Y-15721508D01*
X12732087Y-15721508D02*
X12713039Y-15692936D01*
X12713039Y-15692936D02*
X12703515Y-15683412D01*
D14*
X5925533Y-16137533D02*
X5925533Y-16031466D01*
X5819466Y-16031466D01*
X5819466Y-16137533D01*
X5925533Y-16137533D01*
D11*
X6313039Y-16175984D02*
X6198753Y-16175984D01*
X6255896Y-16175984D02*
X6255896Y-15975984D01*
X6255896Y-15975984D02*
X6236848Y-16004555D01*
X6236848Y-16004555D02*
X6217801Y-16023603D01*
X6217801Y-16023603D02*
X6198753Y-16033127D01*
X6398753Y-16156936D02*
X6408277Y-16166460D01*
X6408277Y-16166460D02*
X6398753Y-16175984D01*
X6398753Y-16175984D02*
X6389229Y-16166460D01*
X6389229Y-16166460D02*
X6398753Y-16156936D01*
X6398753Y-16156936D02*
X6398753Y-16175984D01*
X6589229Y-15975984D02*
X6493991Y-15975984D01*
X6493991Y-15975984D02*
X6484467Y-16071222D01*
X6484467Y-16071222D02*
X6493991Y-16061698D01*
X6493991Y-16061698D02*
X6513039Y-16052174D01*
X6513039Y-16052174D02*
X6560658Y-16052174D01*
X6560658Y-16052174D02*
X6579705Y-16061698D01*
X6579705Y-16061698D02*
X6589229Y-16071222D01*
X6589229Y-16071222D02*
X6598753Y-16090269D01*
X6598753Y-16090269D02*
X6598753Y-16137888D01*
X6598753Y-16137888D02*
X6589229Y-16156936D01*
X6589229Y-16156936D02*
X6579705Y-16166460D01*
X6579705Y-16166460D02*
X6560658Y-16175984D01*
X6560658Y-16175984D02*
X6513039Y-16175984D01*
X6513039Y-16175984D02*
X6493991Y-16166460D01*
X6493991Y-16166460D02*
X6484467Y-16156936D01*
X6722562Y-15975984D02*
X6741610Y-15975984D01*
X6741610Y-15975984D02*
X6760658Y-15985508D01*
X6760658Y-15985508D02*
X6770182Y-15995031D01*
X6770182Y-15995031D02*
X6779705Y-16014079D01*
X6779705Y-16014079D02*
X6789229Y-16052174D01*
X6789229Y-16052174D02*
X6789229Y-16099793D01*
X6789229Y-16099793D02*
X6779705Y-16137888D01*
X6779705Y-16137888D02*
X6770182Y-16156936D01*
X6770182Y-16156936D02*
X6760658Y-16166460D01*
X6760658Y-16166460D02*
X6741610Y-16175984D01*
X6741610Y-16175984D02*
X6722562Y-16175984D01*
X6722562Y-16175984D02*
X6703515Y-16166460D01*
X6703515Y-16166460D02*
X6693991Y-16156936D01*
X6693991Y-16156936D02*
X6684467Y-16137888D01*
X6684467Y-16137888D02*
X6674943Y-16099793D01*
X6674943Y-16099793D02*
X6674943Y-16052174D01*
X6674943Y-16052174D02*
X6684467Y-16014079D01*
X6684467Y-16014079D02*
X6693991Y-15995031D01*
X6693991Y-15995031D02*
X6703515Y-15985508D01*
X6703515Y-15985508D02*
X6722562Y-15975984D01*
X6913039Y-15975984D02*
X6932086Y-15975984D01*
X6932086Y-15975984D02*
X6951134Y-15985508D01*
X6951134Y-15985508D02*
X6960658Y-15995031D01*
X6960658Y-15995031D02*
X6970182Y-16014079D01*
X6970182Y-16014079D02*
X6979705Y-16052174D01*
X6979705Y-16052174D02*
X6979705Y-16099793D01*
X6979705Y-16099793D02*
X6970182Y-16137888D01*
X6970182Y-16137888D02*
X6960658Y-16156936D01*
X6960658Y-16156936D02*
X6951134Y-16166460D01*
X6951134Y-16166460D02*
X6932086Y-16175984D01*
X6932086Y-16175984D02*
X6913039Y-16175984D01*
X6913039Y-16175984D02*
X6893991Y-16166460D01*
X6893991Y-16166460D02*
X6884467Y-16156936D01*
X6884467Y-16156936D02*
X6874943Y-16137888D01*
X6874943Y-16137888D02*
X6865420Y-16099793D01*
X6865420Y-16099793D02*
X6865420Y-16052174D01*
X6865420Y-16052174D02*
X6874943Y-16014079D01*
X6874943Y-16014079D02*
X6884467Y-15995031D01*
X6884467Y-15995031D02*
X6893991Y-15985508D01*
X6893991Y-15985508D02*
X6913039Y-15975984D01*
X7065420Y-16175984D02*
X7065420Y-16042650D01*
X7065420Y-16061698D02*
X7074943Y-16052174D01*
X7074943Y-16052174D02*
X7093991Y-16042650D01*
X7093991Y-16042650D02*
X7122563Y-16042650D01*
X7122563Y-16042650D02*
X7141610Y-16052174D01*
X7141610Y-16052174D02*
X7151134Y-16071222D01*
X7151134Y-16071222D02*
X7151134Y-16175984D01*
X7151134Y-16071222D02*
X7160658Y-16052174D01*
X7160658Y-16052174D02*
X7179705Y-16042650D01*
X7179705Y-16042650D02*
X7208277Y-16042650D01*
X7208277Y-16042650D02*
X7227324Y-16052174D01*
X7227324Y-16052174D02*
X7236848Y-16071222D01*
X7236848Y-16071222D02*
X7236848Y-16175984D01*
X7332086Y-16175984D02*
X7332086Y-16042650D01*
X7332086Y-16061698D02*
X7341610Y-16052174D01*
X7341610Y-16052174D02*
X7360658Y-16042650D01*
X7360658Y-16042650D02*
X7389229Y-16042650D01*
X7389229Y-16042650D02*
X7408277Y-16052174D01*
X7408277Y-16052174D02*
X7417801Y-16071222D01*
X7417801Y-16071222D02*
X7417801Y-16175984D01*
X7417801Y-16071222D02*
X7427324Y-16052174D01*
X7427324Y-16052174D02*
X7446372Y-16042650D01*
X7446372Y-16042650D02*
X7474943Y-16042650D01*
X7474943Y-16042650D02*
X7493991Y-16052174D01*
X7493991Y-16052174D02*
X7503515Y-16071222D01*
X7503515Y-16071222D02*
X7503515Y-16175984D01*
X7893991Y-15966460D02*
X7722563Y-16223603D01*
X8151134Y-15975984D02*
X8170182Y-15975984D01*
X8170182Y-15975984D02*
X8189229Y-15985508D01*
X8189229Y-15985508D02*
X8198753Y-15995031D01*
X8198753Y-15995031D02*
X8208277Y-16014079D01*
X8208277Y-16014079D02*
X8217801Y-16052174D01*
X8217801Y-16052174D02*
X8217801Y-16099793D01*
X8217801Y-16099793D02*
X8208277Y-16137888D01*
X8208277Y-16137888D02*
X8198753Y-16156936D01*
X8198753Y-16156936D02*
X8189229Y-16166460D01*
X8189229Y-16166460D02*
X8170182Y-16175984D01*
X8170182Y-16175984D02*
X8151134Y-16175984D01*
X8151134Y-16175984D02*
X8132086Y-16166460D01*
X8132086Y-16166460D02*
X8122563Y-16156936D01*
X8122563Y-16156936D02*
X8113039Y-16137888D01*
X8113039Y-16137888D02*
X8103515Y-16099793D01*
X8103515Y-16099793D02*
X8103515Y-16052174D01*
X8103515Y-16052174D02*
X8113039Y-16014079D01*
X8113039Y-16014079D02*
X8122563Y-15995031D01*
X8122563Y-15995031D02*
X8132086Y-15985508D01*
X8132086Y-15985508D02*
X8151134Y-15975984D01*
X8303515Y-16156936D02*
X8313039Y-16166460D01*
X8313039Y-16166460D02*
X8303515Y-16175984D01*
X8303515Y-16175984D02*
X8293991Y-16166460D01*
X8293991Y-16166460D02*
X8303515Y-16156936D01*
X8303515Y-16156936D02*
X8303515Y-16175984D01*
X8436848Y-15975984D02*
X8455896Y-15975984D01*
X8455896Y-15975984D02*
X8474944Y-15985508D01*
X8474944Y-15985508D02*
X8484468Y-15995031D01*
X8484468Y-15995031D02*
X8493991Y-16014079D01*
X8493991Y-16014079D02*
X8503515Y-16052174D01*
X8503515Y-16052174D02*
X8503515Y-16099793D01*
X8503515Y-16099793D02*
X8493991Y-16137888D01*
X8493991Y-16137888D02*
X8484468Y-16156936D01*
X8484468Y-16156936D02*
X8474944Y-16166460D01*
X8474944Y-16166460D02*
X8455896Y-16175984D01*
X8455896Y-16175984D02*
X8436848Y-16175984D01*
X8436848Y-16175984D02*
X8417801Y-16166460D01*
X8417801Y-16166460D02*
X8408277Y-16156936D01*
X8408277Y-16156936D02*
X8398753Y-16137888D01*
X8398753Y-16137888D02*
X8389229Y-16099793D01*
X8389229Y-16099793D02*
X8389229Y-16052174D01*
X8389229Y-16052174D02*
X8398753Y-16014079D01*
X8398753Y-16014079D02*
X8408277Y-15995031D01*
X8408277Y-15995031D02*
X8417801Y-15985508D01*
X8417801Y-15985508D02*
X8436848Y-15975984D01*
X8684468Y-15975984D02*
X8589229Y-15975984D01*
X8589229Y-15975984D02*
X8579706Y-16071222D01*
X8579706Y-16071222D02*
X8589229Y-16061698D01*
X8589229Y-16061698D02*
X8608277Y-16052174D01*
X8608277Y-16052174D02*
X8655896Y-16052174D01*
X8655896Y-16052174D02*
X8674944Y-16061698D01*
X8674944Y-16061698D02*
X8684468Y-16071222D01*
X8684468Y-16071222D02*
X8693991Y-16090269D01*
X8693991Y-16090269D02*
X8693991Y-16137888D01*
X8693991Y-16137888D02*
X8684468Y-16156936D01*
X8684468Y-16156936D02*
X8674944Y-16166460D01*
X8674944Y-16166460D02*
X8655896Y-16175984D01*
X8655896Y-16175984D02*
X8608277Y-16175984D01*
X8608277Y-16175984D02*
X8589229Y-16166460D01*
X8589229Y-16166460D02*
X8579706Y-16156936D01*
X8789229Y-16175984D02*
X8827325Y-16175984D01*
X8827325Y-16175984D02*
X8846372Y-16166460D01*
X8846372Y-16166460D02*
X8855896Y-16156936D01*
X8855896Y-16156936D02*
X8874944Y-16128365D01*
X8874944Y-16128365D02*
X8884468Y-16090269D01*
X8884468Y-16090269D02*
X8884468Y-16014079D01*
X8884468Y-16014079D02*
X8874944Y-15995031D01*
X8874944Y-15995031D02*
X8865420Y-15985508D01*
X8865420Y-15985508D02*
X8846372Y-15975984D01*
X8846372Y-15975984D02*
X8808277Y-15975984D01*
X8808277Y-15975984D02*
X8789229Y-15985508D01*
X8789229Y-15985508D02*
X8779706Y-15995031D01*
X8779706Y-15995031D02*
X8770182Y-16014079D01*
X8770182Y-16014079D02*
X8770182Y-16061698D01*
X8770182Y-16061698D02*
X8779706Y-16080746D01*
X8779706Y-16080746D02*
X8789229Y-16090269D01*
X8789229Y-16090269D02*
X8808277Y-16099793D01*
X8808277Y-16099793D02*
X8846372Y-16099793D01*
X8846372Y-16099793D02*
X8865420Y-16090269D01*
X8865420Y-16090269D02*
X8874944Y-16080746D01*
X8874944Y-16080746D02*
X8884468Y-16061698D01*
X9074944Y-16175984D02*
X8960658Y-16175984D01*
X9017801Y-16175984D02*
X9017801Y-15975984D01*
X9017801Y-15975984D02*
X8998753Y-16004555D01*
X8998753Y-16004555D02*
X8979706Y-16023603D01*
X8979706Y-16023603D02*
X8960658Y-16033127D01*
X9151134Y-15975984D02*
X9151134Y-16014079D01*
X9227325Y-15975984D02*
X9227325Y-16014079D01*
X9522563Y-16252174D02*
X9513039Y-16242650D01*
X9513039Y-16242650D02*
X9493991Y-16214079D01*
X9493991Y-16214079D02*
X9484468Y-16195031D01*
X9484468Y-16195031D02*
X9474944Y-16166460D01*
X9474944Y-16166460D02*
X9465420Y-16118841D01*
X9465420Y-16118841D02*
X9465420Y-16080746D01*
X9465420Y-16080746D02*
X9474944Y-16033127D01*
X9474944Y-16033127D02*
X9484468Y-16004555D01*
X9484468Y-16004555D02*
X9493991Y-15985508D01*
X9493991Y-15985508D02*
X9513039Y-15956936D01*
X9513039Y-15956936D02*
X9522563Y-15947412D01*
X9703515Y-16175984D02*
X9589230Y-16175984D01*
X9646372Y-16175984D02*
X9646372Y-15975984D01*
X9646372Y-15975984D02*
X9627325Y-16004555D01*
X9627325Y-16004555D02*
X9608277Y-16023603D01*
X9608277Y-16023603D02*
X9589230Y-16033127D01*
X9941611Y-16175984D02*
X9941611Y-15975984D01*
X10027325Y-16175984D02*
X10027325Y-16071222D01*
X10027325Y-16071222D02*
X10017801Y-16052174D01*
X10017801Y-16052174D02*
X9998753Y-16042650D01*
X9998753Y-16042650D02*
X9970182Y-16042650D01*
X9970182Y-16042650D02*
X9951134Y-16052174D01*
X9951134Y-16052174D02*
X9941611Y-16061698D01*
X10151134Y-16175984D02*
X10132087Y-16166460D01*
X10132087Y-16166460D02*
X10122563Y-16156936D01*
X10122563Y-16156936D02*
X10113039Y-16137888D01*
X10113039Y-16137888D02*
X10113039Y-16080746D01*
X10113039Y-16080746D02*
X10122563Y-16061698D01*
X10122563Y-16061698D02*
X10132087Y-16052174D01*
X10132087Y-16052174D02*
X10151134Y-16042650D01*
X10151134Y-16042650D02*
X10179706Y-16042650D01*
X10179706Y-16042650D02*
X10198753Y-16052174D01*
X10198753Y-16052174D02*
X10208277Y-16061698D01*
X10208277Y-16061698D02*
X10217801Y-16080746D01*
X10217801Y-16080746D02*
X10217801Y-16137888D01*
X10217801Y-16137888D02*
X10208277Y-16156936D01*
X10208277Y-16156936D02*
X10198753Y-16166460D01*
X10198753Y-16166460D02*
X10179706Y-16175984D01*
X10179706Y-16175984D02*
X10151134Y-16175984D01*
X10332087Y-16175984D02*
X10313039Y-16166460D01*
X10313039Y-16166460D02*
X10303515Y-16147412D01*
X10303515Y-16147412D02*
X10303515Y-15975984D01*
X10484468Y-16166460D02*
X10465420Y-16175984D01*
X10465420Y-16175984D02*
X10427325Y-16175984D01*
X10427325Y-16175984D02*
X10408277Y-16166460D01*
X10408277Y-16166460D02*
X10398753Y-16147412D01*
X10398753Y-16147412D02*
X10398753Y-16071222D01*
X10398753Y-16071222D02*
X10408277Y-16052174D01*
X10408277Y-16052174D02*
X10427325Y-16042650D01*
X10427325Y-16042650D02*
X10465420Y-16042650D01*
X10465420Y-16042650D02*
X10484468Y-16052174D01*
X10484468Y-16052174D02*
X10493992Y-16071222D01*
X10493992Y-16071222D02*
X10493992Y-16090269D01*
X10493992Y-16090269D02*
X10398753Y-16109317D01*
X10560658Y-16252174D02*
X10570182Y-16242650D01*
X10570182Y-16242650D02*
X10589230Y-16214079D01*
X10589230Y-16214079D02*
X10598753Y-16195031D01*
X10598753Y-16195031D02*
X10608277Y-16166460D01*
X10608277Y-16166460D02*
X10617801Y-16118841D01*
X10617801Y-16118841D02*
X10617801Y-16080746D01*
X10617801Y-16080746D02*
X10608277Y-16033127D01*
X10608277Y-16033127D02*
X10598753Y-16004555D01*
X10598753Y-16004555D02*
X10589230Y-15985508D01*
X10589230Y-15985508D02*
X10570182Y-15956936D01*
X10570182Y-15956936D02*
X10560658Y-15947412D01*
X10922563Y-16252174D02*
X10913039Y-16242650D01*
X10913039Y-16242650D02*
X10893992Y-16214079D01*
X10893992Y-16214079D02*
X10884468Y-16195031D01*
X10884468Y-16195031D02*
X10874944Y-16166460D01*
X10874944Y-16166460D02*
X10865420Y-16118841D01*
X10865420Y-16118841D02*
X10865420Y-16080746D01*
X10865420Y-16080746D02*
X10874944Y-16033127D01*
X10874944Y-16033127D02*
X10884468Y-16004555D01*
X10884468Y-16004555D02*
X10893992Y-15985508D01*
X10893992Y-15985508D02*
X10913039Y-15956936D01*
X10913039Y-15956936D02*
X10922563Y-15947412D01*
X10998753Y-16042650D02*
X10998753Y-16175984D01*
X10998753Y-16061698D02*
X11008277Y-16052174D01*
X11008277Y-16052174D02*
X11027325Y-16042650D01*
X11027325Y-16042650D02*
X11055896Y-16042650D01*
X11055896Y-16042650D02*
X11074944Y-16052174D01*
X11074944Y-16052174D02*
X11084468Y-16071222D01*
X11084468Y-16071222D02*
X11084468Y-16175984D01*
X11208277Y-16175984D02*
X11189230Y-16166460D01*
X11189230Y-16166460D02*
X11179706Y-16156936D01*
X11179706Y-16156936D02*
X11170182Y-16137888D01*
X11170182Y-16137888D02*
X11170182Y-16080746D01*
X11170182Y-16080746D02*
X11179706Y-16061698D01*
X11179706Y-16061698D02*
X11189230Y-16052174D01*
X11189230Y-16052174D02*
X11208277Y-16042650D01*
X11208277Y-16042650D02*
X11236849Y-16042650D01*
X11236849Y-16042650D02*
X11255896Y-16052174D01*
X11255896Y-16052174D02*
X11265420Y-16061698D01*
X11265420Y-16061698D02*
X11274944Y-16080746D01*
X11274944Y-16080746D02*
X11274944Y-16137888D01*
X11274944Y-16137888D02*
X11265420Y-16156936D01*
X11265420Y-16156936D02*
X11255896Y-16166460D01*
X11255896Y-16166460D02*
X11236849Y-16175984D01*
X11236849Y-16175984D02*
X11208277Y-16175984D01*
X11332087Y-16042650D02*
X11408277Y-16042650D01*
X11360658Y-15975984D02*
X11360658Y-16147412D01*
X11360658Y-16147412D02*
X11370182Y-16166460D01*
X11370182Y-16166460D02*
X11389230Y-16175984D01*
X11389230Y-16175984D02*
X11408277Y-16175984D01*
X11627325Y-16042650D02*
X11627325Y-16242650D01*
X11627325Y-16052174D02*
X11646372Y-16042650D01*
X11646372Y-16042650D02*
X11684468Y-16042650D01*
X11684468Y-16042650D02*
X11703515Y-16052174D01*
X11703515Y-16052174D02*
X11713039Y-16061698D01*
X11713039Y-16061698D02*
X11722563Y-16080746D01*
X11722563Y-16080746D02*
X11722563Y-16137888D01*
X11722563Y-16137888D02*
X11713039Y-16156936D01*
X11713039Y-16156936D02*
X11703515Y-16166460D01*
X11703515Y-16166460D02*
X11684468Y-16175984D01*
X11684468Y-16175984D02*
X11646372Y-16175984D01*
X11646372Y-16175984D02*
X11627325Y-16166460D01*
X11836849Y-16175984D02*
X11817801Y-16166460D01*
X11817801Y-16166460D02*
X11808277Y-16147412D01*
X11808277Y-16147412D02*
X11808277Y-15975984D01*
X11998753Y-16175984D02*
X11998753Y-16071222D01*
X11998753Y-16071222D02*
X11989230Y-16052174D01*
X11989230Y-16052174D02*
X11970182Y-16042650D01*
X11970182Y-16042650D02*
X11932087Y-16042650D01*
X11932087Y-16042650D02*
X11913039Y-16052174D01*
X11998753Y-16166460D02*
X11979706Y-16175984D01*
X11979706Y-16175984D02*
X11932087Y-16175984D01*
X11932087Y-16175984D02*
X11913039Y-16166460D01*
X11913039Y-16166460D02*
X11903515Y-16147412D01*
X11903515Y-16147412D02*
X11903515Y-16128365D01*
X11903515Y-16128365D02*
X11913039Y-16109317D01*
X11913039Y-16109317D02*
X11932087Y-16099793D01*
X11932087Y-16099793D02*
X11979706Y-16099793D01*
X11979706Y-16099793D02*
X11998753Y-16090269D01*
X12065420Y-16042650D02*
X12141611Y-16042650D01*
X12093992Y-15975984D02*
X12093992Y-16147412D01*
X12093992Y-16147412D02*
X12103515Y-16166460D01*
X12103515Y-16166460D02*
X12122563Y-16175984D01*
X12122563Y-16175984D02*
X12141611Y-16175984D01*
X12284468Y-16166460D02*
X12265420Y-16175984D01*
X12265420Y-16175984D02*
X12227325Y-16175984D01*
X12227325Y-16175984D02*
X12208277Y-16166460D01*
X12208277Y-16166460D02*
X12198753Y-16147412D01*
X12198753Y-16147412D02*
X12198753Y-16071222D01*
X12198753Y-16071222D02*
X12208277Y-16052174D01*
X12208277Y-16052174D02*
X12227325Y-16042650D01*
X12227325Y-16042650D02*
X12265420Y-16042650D01*
X12265420Y-16042650D02*
X12284468Y-16052174D01*
X12284468Y-16052174D02*
X12293992Y-16071222D01*
X12293992Y-16071222D02*
X12293992Y-16090269D01*
X12293992Y-16090269D02*
X12198753Y-16109317D01*
X12465420Y-16175984D02*
X12465420Y-15975984D01*
X12465420Y-16166460D02*
X12446373Y-16175984D01*
X12446373Y-16175984D02*
X12408277Y-16175984D01*
X12408277Y-16175984D02*
X12389230Y-16166460D01*
X12389230Y-16166460D02*
X12379706Y-16156936D01*
X12379706Y-16156936D02*
X12370182Y-16137888D01*
X12370182Y-16137888D02*
X12370182Y-16080746D01*
X12370182Y-16080746D02*
X12379706Y-16061698D01*
X12379706Y-16061698D02*
X12389230Y-16052174D01*
X12389230Y-16052174D02*
X12408277Y-16042650D01*
X12408277Y-16042650D02*
X12446373Y-16042650D01*
X12446373Y-16042650D02*
X12465420Y-16052174D01*
X12541611Y-16252174D02*
X12551134Y-16242650D01*
X12551134Y-16242650D02*
X12570182Y-16214079D01*
X12570182Y-16214079D02*
X12579706Y-16195031D01*
X12579706Y-16195031D02*
X12589230Y-16166460D01*
X12589230Y-16166460D02*
X12598753Y-16118841D01*
X12598753Y-16118841D02*
X12598753Y-16080746D01*
X12598753Y-16080746D02*
X12589230Y-16033127D01*
X12589230Y-16033127D02*
X12579706Y-16004555D01*
X12579706Y-16004555D02*
X12570182Y-15985508D01*
X12570182Y-15985508D02*
X12551134Y-15956936D01*
X12551134Y-15956936D02*
X12541611Y-15947412D01*
X5847500Y-16454500D02*
X5947500Y-16354500D01*
X5847500Y-16254500D01*
X5747500Y-16354500D01*
X5847500Y-16454500D01*
X6198753Y-16265031D02*
X6208277Y-16255508D01*
X6208277Y-16255508D02*
X6227324Y-16245984D01*
X6227324Y-16245984D02*
X6274943Y-16245984D01*
X6274943Y-16245984D02*
X6293991Y-16255508D01*
X6293991Y-16255508D02*
X6303515Y-16265031D01*
X6303515Y-16265031D02*
X6313039Y-16284079D01*
X6313039Y-16284079D02*
X6313039Y-16303127D01*
X6313039Y-16303127D02*
X6303515Y-16331698D01*
X6303515Y-16331698D02*
X6189229Y-16445984D01*
X6189229Y-16445984D02*
X6313039Y-16445984D01*
X6398753Y-16426936D02*
X6408277Y-16436460D01*
X6408277Y-16436460D02*
X6398753Y-16445984D01*
X6398753Y-16445984D02*
X6389229Y-16436460D01*
X6389229Y-16436460D02*
X6398753Y-16426936D01*
X6398753Y-16426936D02*
X6398753Y-16445984D01*
X6484467Y-16265031D02*
X6493991Y-16255508D01*
X6493991Y-16255508D02*
X6513039Y-16245984D01*
X6513039Y-16245984D02*
X6560658Y-16245984D01*
X6560658Y-16245984D02*
X6579705Y-16255508D01*
X6579705Y-16255508D02*
X6589229Y-16265031D01*
X6589229Y-16265031D02*
X6598753Y-16284079D01*
X6598753Y-16284079D02*
X6598753Y-16303127D01*
X6598753Y-16303127D02*
X6589229Y-16331698D01*
X6589229Y-16331698D02*
X6474943Y-16445984D01*
X6474943Y-16445984D02*
X6598753Y-16445984D01*
X6722562Y-16245984D02*
X6741610Y-16245984D01*
X6741610Y-16245984D02*
X6760658Y-16255508D01*
X6760658Y-16255508D02*
X6770182Y-16265031D01*
X6770182Y-16265031D02*
X6779705Y-16284079D01*
X6779705Y-16284079D02*
X6789229Y-16322174D01*
X6789229Y-16322174D02*
X6789229Y-16369793D01*
X6789229Y-16369793D02*
X6779705Y-16407888D01*
X6779705Y-16407888D02*
X6770182Y-16426936D01*
X6770182Y-16426936D02*
X6760658Y-16436460D01*
X6760658Y-16436460D02*
X6741610Y-16445984D01*
X6741610Y-16445984D02*
X6722562Y-16445984D01*
X6722562Y-16445984D02*
X6703515Y-16436460D01*
X6703515Y-16436460D02*
X6693991Y-16426936D01*
X6693991Y-16426936D02*
X6684467Y-16407888D01*
X6684467Y-16407888D02*
X6674943Y-16369793D01*
X6674943Y-16369793D02*
X6674943Y-16322174D01*
X6674943Y-16322174D02*
X6684467Y-16284079D01*
X6684467Y-16284079D02*
X6693991Y-16265031D01*
X6693991Y-16265031D02*
X6703515Y-16255508D01*
X6703515Y-16255508D02*
X6722562Y-16245984D01*
X6913039Y-16245984D02*
X6932086Y-16245984D01*
X6932086Y-16245984D02*
X6951134Y-16255508D01*
X6951134Y-16255508D02*
X6960658Y-16265031D01*
X6960658Y-16265031D02*
X6970182Y-16284079D01*
X6970182Y-16284079D02*
X6979705Y-16322174D01*
X6979705Y-16322174D02*
X6979705Y-16369793D01*
X6979705Y-16369793D02*
X6970182Y-16407888D01*
X6970182Y-16407888D02*
X6960658Y-16426936D01*
X6960658Y-16426936D02*
X6951134Y-16436460D01*
X6951134Y-16436460D02*
X6932086Y-16445984D01*
X6932086Y-16445984D02*
X6913039Y-16445984D01*
X6913039Y-16445984D02*
X6893991Y-16436460D01*
X6893991Y-16436460D02*
X6884467Y-16426936D01*
X6884467Y-16426936D02*
X6874943Y-16407888D01*
X6874943Y-16407888D02*
X6865420Y-16369793D01*
X6865420Y-16369793D02*
X6865420Y-16322174D01*
X6865420Y-16322174D02*
X6874943Y-16284079D01*
X6874943Y-16284079D02*
X6884467Y-16265031D01*
X6884467Y-16265031D02*
X6893991Y-16255508D01*
X6893991Y-16255508D02*
X6913039Y-16245984D01*
X7065420Y-16445984D02*
X7065420Y-16312650D01*
X7065420Y-16331698D02*
X7074943Y-16322174D01*
X7074943Y-16322174D02*
X7093991Y-16312650D01*
X7093991Y-16312650D02*
X7122563Y-16312650D01*
X7122563Y-16312650D02*
X7141610Y-16322174D01*
X7141610Y-16322174D02*
X7151134Y-16341222D01*
X7151134Y-16341222D02*
X7151134Y-16445984D01*
X7151134Y-16341222D02*
X7160658Y-16322174D01*
X7160658Y-16322174D02*
X7179705Y-16312650D01*
X7179705Y-16312650D02*
X7208277Y-16312650D01*
X7208277Y-16312650D02*
X7227324Y-16322174D01*
X7227324Y-16322174D02*
X7236848Y-16341222D01*
X7236848Y-16341222D02*
X7236848Y-16445984D01*
X7332086Y-16445984D02*
X7332086Y-16312650D01*
X7332086Y-16331698D02*
X7341610Y-16322174D01*
X7341610Y-16322174D02*
X7360658Y-16312650D01*
X7360658Y-16312650D02*
X7389229Y-16312650D01*
X7389229Y-16312650D02*
X7408277Y-16322174D01*
X7408277Y-16322174D02*
X7417801Y-16341222D01*
X7417801Y-16341222D02*
X7417801Y-16445984D01*
X7417801Y-16341222D02*
X7427324Y-16322174D01*
X7427324Y-16322174D02*
X7446372Y-16312650D01*
X7446372Y-16312650D02*
X7474943Y-16312650D01*
X7474943Y-16312650D02*
X7493991Y-16322174D01*
X7493991Y-16322174D02*
X7503515Y-16341222D01*
X7503515Y-16341222D02*
X7503515Y-16445984D01*
X7893991Y-16236460D02*
X7722563Y-16493603D01*
X8151134Y-16245984D02*
X8170182Y-16245984D01*
X8170182Y-16245984D02*
X8189229Y-16255508D01*
X8189229Y-16255508D02*
X8198753Y-16265031D01*
X8198753Y-16265031D02*
X8208277Y-16284079D01*
X8208277Y-16284079D02*
X8217801Y-16322174D01*
X8217801Y-16322174D02*
X8217801Y-16369793D01*
X8217801Y-16369793D02*
X8208277Y-16407888D01*
X8208277Y-16407888D02*
X8198753Y-16426936D01*
X8198753Y-16426936D02*
X8189229Y-16436460D01*
X8189229Y-16436460D02*
X8170182Y-16445984D01*
X8170182Y-16445984D02*
X8151134Y-16445984D01*
X8151134Y-16445984D02*
X8132086Y-16436460D01*
X8132086Y-16436460D02*
X8122563Y-16426936D01*
X8122563Y-16426936D02*
X8113039Y-16407888D01*
X8113039Y-16407888D02*
X8103515Y-16369793D01*
X8103515Y-16369793D02*
X8103515Y-16322174D01*
X8103515Y-16322174D02*
X8113039Y-16284079D01*
X8113039Y-16284079D02*
X8122563Y-16265031D01*
X8122563Y-16265031D02*
X8132086Y-16255508D01*
X8132086Y-16255508D02*
X8151134Y-16245984D01*
X8303515Y-16426936D02*
X8313039Y-16436460D01*
X8313039Y-16436460D02*
X8303515Y-16445984D01*
X8303515Y-16445984D02*
X8293991Y-16436460D01*
X8293991Y-16436460D02*
X8303515Y-16426936D01*
X8303515Y-16426936D02*
X8303515Y-16445984D01*
X8436848Y-16245984D02*
X8455896Y-16245984D01*
X8455896Y-16245984D02*
X8474944Y-16255508D01*
X8474944Y-16255508D02*
X8484468Y-16265031D01*
X8484468Y-16265031D02*
X8493991Y-16284079D01*
X8493991Y-16284079D02*
X8503515Y-16322174D01*
X8503515Y-16322174D02*
X8503515Y-16369793D01*
X8503515Y-16369793D02*
X8493991Y-16407888D01*
X8493991Y-16407888D02*
X8484468Y-16426936D01*
X8484468Y-16426936D02*
X8474944Y-16436460D01*
X8474944Y-16436460D02*
X8455896Y-16445984D01*
X8455896Y-16445984D02*
X8436848Y-16445984D01*
X8436848Y-16445984D02*
X8417801Y-16436460D01*
X8417801Y-16436460D02*
X8408277Y-16426936D01*
X8408277Y-16426936D02*
X8398753Y-16407888D01*
X8398753Y-16407888D02*
X8389229Y-16369793D01*
X8389229Y-16369793D02*
X8389229Y-16322174D01*
X8389229Y-16322174D02*
X8398753Y-16284079D01*
X8398753Y-16284079D02*
X8408277Y-16265031D01*
X8408277Y-16265031D02*
X8417801Y-16255508D01*
X8417801Y-16255508D02*
X8436848Y-16245984D01*
X8617801Y-16331698D02*
X8598753Y-16322174D01*
X8598753Y-16322174D02*
X8589229Y-16312650D01*
X8589229Y-16312650D02*
X8579706Y-16293603D01*
X8579706Y-16293603D02*
X8579706Y-16284079D01*
X8579706Y-16284079D02*
X8589229Y-16265031D01*
X8589229Y-16265031D02*
X8598753Y-16255508D01*
X8598753Y-16255508D02*
X8617801Y-16245984D01*
X8617801Y-16245984D02*
X8655896Y-16245984D01*
X8655896Y-16245984D02*
X8674944Y-16255508D01*
X8674944Y-16255508D02*
X8684468Y-16265031D01*
X8684468Y-16265031D02*
X8693991Y-16284079D01*
X8693991Y-16284079D02*
X8693991Y-16293603D01*
X8693991Y-16293603D02*
X8684468Y-16312650D01*
X8684468Y-16312650D02*
X8674944Y-16322174D01*
X8674944Y-16322174D02*
X8655896Y-16331698D01*
X8655896Y-16331698D02*
X8617801Y-16331698D01*
X8617801Y-16331698D02*
X8598753Y-16341222D01*
X8598753Y-16341222D02*
X8589229Y-16350746D01*
X8589229Y-16350746D02*
X8579706Y-16369793D01*
X8579706Y-16369793D02*
X8579706Y-16407888D01*
X8579706Y-16407888D02*
X8589229Y-16426936D01*
X8589229Y-16426936D02*
X8598753Y-16436460D01*
X8598753Y-16436460D02*
X8617801Y-16445984D01*
X8617801Y-16445984D02*
X8655896Y-16445984D01*
X8655896Y-16445984D02*
X8674944Y-16436460D01*
X8674944Y-16436460D02*
X8684468Y-16426936D01*
X8684468Y-16426936D02*
X8693991Y-16407888D01*
X8693991Y-16407888D02*
X8693991Y-16369793D01*
X8693991Y-16369793D02*
X8684468Y-16350746D01*
X8684468Y-16350746D02*
X8674944Y-16341222D01*
X8674944Y-16341222D02*
X8655896Y-16331698D01*
X8865420Y-16245984D02*
X8827325Y-16245984D01*
X8827325Y-16245984D02*
X8808277Y-16255508D01*
X8808277Y-16255508D02*
X8798753Y-16265031D01*
X8798753Y-16265031D02*
X8779706Y-16293603D01*
X8779706Y-16293603D02*
X8770182Y-16331698D01*
X8770182Y-16331698D02*
X8770182Y-16407888D01*
X8770182Y-16407888D02*
X8779706Y-16426936D01*
X8779706Y-16426936D02*
X8789229Y-16436460D01*
X8789229Y-16436460D02*
X8808277Y-16445984D01*
X8808277Y-16445984D02*
X8846372Y-16445984D01*
X8846372Y-16445984D02*
X8865420Y-16436460D01*
X8865420Y-16436460D02*
X8874944Y-16426936D01*
X8874944Y-16426936D02*
X8884468Y-16407888D01*
X8884468Y-16407888D02*
X8884468Y-16360269D01*
X8884468Y-16360269D02*
X8874944Y-16341222D01*
X8874944Y-16341222D02*
X8865420Y-16331698D01*
X8865420Y-16331698D02*
X8846372Y-16322174D01*
X8846372Y-16322174D02*
X8808277Y-16322174D01*
X8808277Y-16322174D02*
X8789229Y-16331698D01*
X8789229Y-16331698D02*
X8779706Y-16341222D01*
X8779706Y-16341222D02*
X8770182Y-16360269D01*
X9055896Y-16245984D02*
X9017801Y-16245984D01*
X9017801Y-16245984D02*
X8998753Y-16255508D01*
X8998753Y-16255508D02*
X8989229Y-16265031D01*
X8989229Y-16265031D02*
X8970182Y-16293603D01*
X8970182Y-16293603D02*
X8960658Y-16331698D01*
X8960658Y-16331698D02*
X8960658Y-16407888D01*
X8960658Y-16407888D02*
X8970182Y-16426936D01*
X8970182Y-16426936D02*
X8979706Y-16436460D01*
X8979706Y-16436460D02*
X8998753Y-16445984D01*
X8998753Y-16445984D02*
X9036849Y-16445984D01*
X9036849Y-16445984D02*
X9055896Y-16436460D01*
X9055896Y-16436460D02*
X9065420Y-16426936D01*
X9065420Y-16426936D02*
X9074944Y-16407888D01*
X9074944Y-16407888D02*
X9074944Y-16360269D01*
X9074944Y-16360269D02*
X9065420Y-16341222D01*
X9065420Y-16341222D02*
X9055896Y-16331698D01*
X9055896Y-16331698D02*
X9036849Y-16322174D01*
X9036849Y-16322174D02*
X8998753Y-16322174D01*
X8998753Y-16322174D02*
X8979706Y-16331698D01*
X8979706Y-16331698D02*
X8970182Y-16341222D01*
X8970182Y-16341222D02*
X8960658Y-16360269D01*
X9151134Y-16245984D02*
X9151134Y-16284079D01*
X9227325Y-16245984D02*
X9227325Y-16284079D01*
X9522563Y-16522174D02*
X9513039Y-16512650D01*
X9513039Y-16512650D02*
X9493991Y-16484079D01*
X9493991Y-16484079D02*
X9484468Y-16465031D01*
X9484468Y-16465031D02*
X9474944Y-16436460D01*
X9474944Y-16436460D02*
X9465420Y-16388841D01*
X9465420Y-16388841D02*
X9465420Y-16350746D01*
X9465420Y-16350746D02*
X9474944Y-16303127D01*
X9474944Y-16303127D02*
X9484468Y-16274555D01*
X9484468Y-16274555D02*
X9493991Y-16255508D01*
X9493991Y-16255508D02*
X9513039Y-16226936D01*
X9513039Y-16226936D02*
X9522563Y-16217412D01*
X9627325Y-16331698D02*
X9608277Y-16322174D01*
X9608277Y-16322174D02*
X9598753Y-16312650D01*
X9598753Y-16312650D02*
X9589230Y-16293603D01*
X9589230Y-16293603D02*
X9589230Y-16284079D01*
X9589230Y-16284079D02*
X9598753Y-16265031D01*
X9598753Y-16265031D02*
X9608277Y-16255508D01*
X9608277Y-16255508D02*
X9627325Y-16245984D01*
X9627325Y-16245984D02*
X9665420Y-16245984D01*
X9665420Y-16245984D02*
X9684468Y-16255508D01*
X9684468Y-16255508D02*
X9693991Y-16265031D01*
X9693991Y-16265031D02*
X9703515Y-16284079D01*
X9703515Y-16284079D02*
X9703515Y-16293603D01*
X9703515Y-16293603D02*
X9693991Y-16312650D01*
X9693991Y-16312650D02*
X9684468Y-16322174D01*
X9684468Y-16322174D02*
X9665420Y-16331698D01*
X9665420Y-16331698D02*
X9627325Y-16331698D01*
X9627325Y-16331698D02*
X9608277Y-16341222D01*
X9608277Y-16341222D02*
X9598753Y-16350746D01*
X9598753Y-16350746D02*
X9589230Y-16369793D01*
X9589230Y-16369793D02*
X9589230Y-16407888D01*
X9589230Y-16407888D02*
X9598753Y-16426936D01*
X9598753Y-16426936D02*
X9608277Y-16436460D01*
X9608277Y-16436460D02*
X9627325Y-16445984D01*
X9627325Y-16445984D02*
X9665420Y-16445984D01*
X9665420Y-16445984D02*
X9684468Y-16436460D01*
X9684468Y-16436460D02*
X9693991Y-16426936D01*
X9693991Y-16426936D02*
X9703515Y-16407888D01*
X9703515Y-16407888D02*
X9703515Y-16369793D01*
X9703515Y-16369793D02*
X9693991Y-16350746D01*
X9693991Y-16350746D02*
X9684468Y-16341222D01*
X9684468Y-16341222D02*
X9665420Y-16331698D01*
X9941611Y-16445984D02*
X9941611Y-16245984D01*
X10027325Y-16445984D02*
X10027325Y-16341222D01*
X10027325Y-16341222D02*
X10017801Y-16322174D01*
X10017801Y-16322174D02*
X9998753Y-16312650D01*
X9998753Y-16312650D02*
X9970182Y-16312650D01*
X9970182Y-16312650D02*
X9951134Y-16322174D01*
X9951134Y-16322174D02*
X9941611Y-16331698D01*
X10151134Y-16445984D02*
X10132087Y-16436460D01*
X10132087Y-16436460D02*
X10122563Y-16426936D01*
X10122563Y-16426936D02*
X10113039Y-16407888D01*
X10113039Y-16407888D02*
X10113039Y-16350746D01*
X10113039Y-16350746D02*
X10122563Y-16331698D01*
X10122563Y-16331698D02*
X10132087Y-16322174D01*
X10132087Y-16322174D02*
X10151134Y-16312650D01*
X10151134Y-16312650D02*
X10179706Y-16312650D01*
X10179706Y-16312650D02*
X10198753Y-16322174D01*
X10198753Y-16322174D02*
X10208277Y-16331698D01*
X10208277Y-16331698D02*
X10217801Y-16350746D01*
X10217801Y-16350746D02*
X10217801Y-16407888D01*
X10217801Y-16407888D02*
X10208277Y-16426936D01*
X10208277Y-16426936D02*
X10198753Y-16436460D01*
X10198753Y-16436460D02*
X10179706Y-16445984D01*
X10179706Y-16445984D02*
X10151134Y-16445984D01*
X10332087Y-16445984D02*
X10313039Y-16436460D01*
X10313039Y-16436460D02*
X10303515Y-16417412D01*
X10303515Y-16417412D02*
X10303515Y-16245984D01*
X10484468Y-16436460D02*
X10465420Y-16445984D01*
X10465420Y-16445984D02*
X10427325Y-16445984D01*
X10427325Y-16445984D02*
X10408277Y-16436460D01*
X10408277Y-16436460D02*
X10398753Y-16417412D01*
X10398753Y-16417412D02*
X10398753Y-16341222D01*
X10398753Y-16341222D02*
X10408277Y-16322174D01*
X10408277Y-16322174D02*
X10427325Y-16312650D01*
X10427325Y-16312650D02*
X10465420Y-16312650D01*
X10465420Y-16312650D02*
X10484468Y-16322174D01*
X10484468Y-16322174D02*
X10493992Y-16341222D01*
X10493992Y-16341222D02*
X10493992Y-16360269D01*
X10493992Y-16360269D02*
X10398753Y-16379317D01*
X10570182Y-16436460D02*
X10589230Y-16445984D01*
X10589230Y-16445984D02*
X10627325Y-16445984D01*
X10627325Y-16445984D02*
X10646373Y-16436460D01*
X10646373Y-16436460D02*
X10655896Y-16417412D01*
X10655896Y-16417412D02*
X10655896Y-16407888D01*
X10655896Y-16407888D02*
X10646373Y-16388841D01*
X10646373Y-16388841D02*
X10627325Y-16379317D01*
X10627325Y-16379317D02*
X10598753Y-16379317D01*
X10598753Y-16379317D02*
X10579706Y-16369793D01*
X10579706Y-16369793D02*
X10570182Y-16350746D01*
X10570182Y-16350746D02*
X10570182Y-16341222D01*
X10570182Y-16341222D02*
X10579706Y-16322174D01*
X10579706Y-16322174D02*
X10598753Y-16312650D01*
X10598753Y-16312650D02*
X10627325Y-16312650D01*
X10627325Y-16312650D02*
X10646373Y-16322174D01*
X10722563Y-16522174D02*
X10732087Y-16512650D01*
X10732087Y-16512650D02*
X10751134Y-16484079D01*
X10751134Y-16484079D02*
X10760658Y-16465031D01*
X10760658Y-16465031D02*
X10770182Y-16436460D01*
X10770182Y-16436460D02*
X10779706Y-16388841D01*
X10779706Y-16388841D02*
X10779706Y-16350746D01*
X10779706Y-16350746D02*
X10770182Y-16303127D01*
X10770182Y-16303127D02*
X10760658Y-16274555D01*
X10760658Y-16274555D02*
X10751134Y-16255508D01*
X10751134Y-16255508D02*
X10732087Y-16226936D01*
X10732087Y-16226936D02*
X10722563Y-16217412D01*
X11084468Y-16522174D02*
X11074944Y-16512650D01*
X11074944Y-16512650D02*
X11055896Y-16484079D01*
X11055896Y-16484079D02*
X11046373Y-16465031D01*
X11046373Y-16465031D02*
X11036849Y-16436460D01*
X11036849Y-16436460D02*
X11027325Y-16388841D01*
X11027325Y-16388841D02*
X11027325Y-16350746D01*
X11027325Y-16350746D02*
X11036849Y-16303127D01*
X11036849Y-16303127D02*
X11046373Y-16274555D01*
X11046373Y-16274555D02*
X11055896Y-16255508D01*
X11055896Y-16255508D02*
X11074944Y-16226936D01*
X11074944Y-16226936D02*
X11084468Y-16217412D01*
X11160658Y-16312650D02*
X11160658Y-16445984D01*
X11160658Y-16331698D02*
X11170182Y-16322174D01*
X11170182Y-16322174D02*
X11189230Y-16312650D01*
X11189230Y-16312650D02*
X11217801Y-16312650D01*
X11217801Y-16312650D02*
X11236849Y-16322174D01*
X11236849Y-16322174D02*
X11246372Y-16341222D01*
X11246372Y-16341222D02*
X11246372Y-16445984D01*
X11370182Y-16445984D02*
X11351134Y-16436460D01*
X11351134Y-16436460D02*
X11341611Y-16426936D01*
X11341611Y-16426936D02*
X11332087Y-16407888D01*
X11332087Y-16407888D02*
X11332087Y-16350746D01*
X11332087Y-16350746D02*
X11341611Y-16331698D01*
X11341611Y-16331698D02*
X11351134Y-16322174D01*
X11351134Y-16322174D02*
X11370182Y-16312650D01*
X11370182Y-16312650D02*
X11398753Y-16312650D01*
X11398753Y-16312650D02*
X11417801Y-16322174D01*
X11417801Y-16322174D02*
X11427325Y-16331698D01*
X11427325Y-16331698D02*
X11436849Y-16350746D01*
X11436849Y-16350746D02*
X11436849Y-16407888D01*
X11436849Y-16407888D02*
X11427325Y-16426936D01*
X11427325Y-16426936D02*
X11417801Y-16436460D01*
X11417801Y-16436460D02*
X11398753Y-16445984D01*
X11398753Y-16445984D02*
X11370182Y-16445984D01*
X11493992Y-16312650D02*
X11570182Y-16312650D01*
X11522563Y-16245984D02*
X11522563Y-16417412D01*
X11522563Y-16417412D02*
X11532087Y-16436460D01*
X11532087Y-16436460D02*
X11551134Y-16445984D01*
X11551134Y-16445984D02*
X11570182Y-16445984D01*
X11789230Y-16312650D02*
X11789230Y-16512650D01*
X11789230Y-16322174D02*
X11808277Y-16312650D01*
X11808277Y-16312650D02*
X11846373Y-16312650D01*
X11846373Y-16312650D02*
X11865420Y-16322174D01*
X11865420Y-16322174D02*
X11874944Y-16331698D01*
X11874944Y-16331698D02*
X11884468Y-16350746D01*
X11884468Y-16350746D02*
X11884468Y-16407888D01*
X11884468Y-16407888D02*
X11874944Y-16426936D01*
X11874944Y-16426936D02*
X11865420Y-16436460D01*
X11865420Y-16436460D02*
X11846373Y-16445984D01*
X11846373Y-16445984D02*
X11808277Y-16445984D01*
X11808277Y-16445984D02*
X11789230Y-16436460D01*
X11998753Y-16445984D02*
X11979706Y-16436460D01*
X11979706Y-16436460D02*
X11970182Y-16417412D01*
X11970182Y-16417412D02*
X11970182Y-16245984D01*
X12160658Y-16445984D02*
X12160658Y-16341222D01*
X12160658Y-16341222D02*
X12151134Y-16322174D01*
X12151134Y-16322174D02*
X12132087Y-16312650D01*
X12132087Y-16312650D02*
X12093992Y-16312650D01*
X12093992Y-16312650D02*
X12074944Y-16322174D01*
X12160658Y-16436460D02*
X12141611Y-16445984D01*
X12141611Y-16445984D02*
X12093992Y-16445984D01*
X12093992Y-16445984D02*
X12074944Y-16436460D01*
X12074944Y-16436460D02*
X12065420Y-16417412D01*
X12065420Y-16417412D02*
X12065420Y-16398365D01*
X12065420Y-16398365D02*
X12074944Y-16379317D01*
X12074944Y-16379317D02*
X12093992Y-16369793D01*
X12093992Y-16369793D02*
X12141611Y-16369793D01*
X12141611Y-16369793D02*
X12160658Y-16360269D01*
X12227325Y-16312650D02*
X12303515Y-16312650D01*
X12255896Y-16245984D02*
X12255896Y-16417412D01*
X12255896Y-16417412D02*
X12265420Y-16436460D01*
X12265420Y-16436460D02*
X12284468Y-16445984D01*
X12284468Y-16445984D02*
X12303515Y-16445984D01*
X12446373Y-16436460D02*
X12427325Y-16445984D01*
X12427325Y-16445984D02*
X12389230Y-16445984D01*
X12389230Y-16445984D02*
X12370182Y-16436460D01*
X12370182Y-16436460D02*
X12360658Y-16417412D01*
X12360658Y-16417412D02*
X12360658Y-16341222D01*
X12360658Y-16341222D02*
X12370182Y-16322174D01*
X12370182Y-16322174D02*
X12389230Y-16312650D01*
X12389230Y-16312650D02*
X12427325Y-16312650D01*
X12427325Y-16312650D02*
X12446373Y-16322174D01*
X12446373Y-16322174D02*
X12455896Y-16341222D01*
X12455896Y-16341222D02*
X12455896Y-16360269D01*
X12455896Y-16360269D02*
X12360658Y-16379317D01*
X12627325Y-16445984D02*
X12627325Y-16245984D01*
X12627325Y-16436460D02*
X12608277Y-16445984D01*
X12608277Y-16445984D02*
X12570182Y-16445984D01*
X12570182Y-16445984D02*
X12551134Y-16436460D01*
X12551134Y-16436460D02*
X12541611Y-16426936D01*
X12541611Y-16426936D02*
X12532087Y-16407888D01*
X12532087Y-16407888D02*
X12532087Y-16350746D01*
X12532087Y-16350746D02*
X12541611Y-16331698D01*
X12541611Y-16331698D02*
X12551134Y-16322174D01*
X12551134Y-16322174D02*
X12570182Y-16312650D01*
X12570182Y-16312650D02*
X12608277Y-16312650D01*
X12608277Y-16312650D02*
X12627325Y-16322174D01*
X12703515Y-16522174D02*
X12713039Y-16512650D01*
X12713039Y-16512650D02*
X12732087Y-16484079D01*
X12732087Y-16484079D02*
X12741611Y-16465031D01*
X12741611Y-16465031D02*
X12751134Y-16436460D01*
X12751134Y-16436460D02*
X12760658Y-16388841D01*
X12760658Y-16388841D02*
X12760658Y-16350746D01*
X12760658Y-16350746D02*
X12751134Y-16303127D01*
X12751134Y-16303127D02*
X12741611Y-16274555D01*
X12741611Y-16274555D02*
X12732087Y-16255508D01*
X12732087Y-16255508D02*
X12713039Y-16226936D01*
X12713039Y-16226936D02*
X12703515Y-16217412D01*
M02*
