%TF.GenerationSoftware,KiCad,Pcbnew,9.0.0*%
%TF.CreationDate,2025-09-17T13:37:24-06:00*%
%TF.ProjectId,OSS Radio Hardware Design,4f535320-5261-4646-996f-204861726477,rev?*%
%TF.SameCoordinates,Original*%
%TF.FileFunction,Profile,NP*%
%FSLAX46Y46*%
G04 Gerber Fmt 4.6, Leading zero omitted, Abs format (unit mm)*
G04 Created by KiCad (PCBNEW 9.0.0) date 2025-09-17 13:37:24*
%MOMM*%
%LPD*%
G01*
G04 APERTURE LIST*
%TA.AperFunction,Profile*%
%ADD10C,0.050000*%
%TD*%
G04 APERTURE END LIST*
D10*
X111000000Y-46000000D02*
G75*
G02*
X114500000Y-49500000I0J-3500000D01*
G01*
X111000000Y-59500000D02*
G75*
G02*
X111000000Y-53500000I0J3000000D01*
G01*
X113500000Y-88000000D02*
G75*
G02*
X113500000Y-82000000I0J3000000D01*
G01*
X114500000Y-143000000D02*
G75*
G02*
X111000000Y-146500000I-3500000J0D01*
G01*
X114500000Y-52500000D02*
G75*
G02*
X113500000Y-53500000I-1000000J0D01*
G01*
X114500000Y-81000000D02*
G75*
G02*
X113500000Y-82000000I-1000000J0D01*
G01*
X59500000Y-61250000D02*
G75*
G02*
X60500000Y-60250000I1000000J0D01*
G01*
X113500000Y-53500000D02*
X111000000Y-53500000D01*
X111000000Y-59500000D02*
X113500000Y-59500000D01*
X114500000Y-89000000D02*
X114500000Y-143000000D01*
X114500000Y-81000000D02*
X114500000Y-60500000D01*
X62000000Y-47000000D02*
G75*
G02*
X63000000Y-46000000I1000000J0D01*
G01*
X60500000Y-82000000D02*
G75*
G02*
X59500000Y-81000000I0J1000000D01*
G01*
X59500000Y-89000000D02*
G75*
G02*
X60500000Y-88000000I1000000J0D01*
G01*
X111000000Y-146500000D02*
X63000000Y-146500000D01*
X113500000Y-88000000D02*
G75*
G02*
X114500000Y-89000000I0J-1000000D01*
G01*
X62000000Y-58750000D02*
X62000000Y-47000000D01*
X113500000Y-59500000D02*
G75*
G02*
X114500000Y-60500000I0J-1000000D01*
G01*
X60500000Y-82000000D02*
G75*
G02*
X60500000Y-88000000I0J-3000000D01*
G01*
X59500000Y-81000000D02*
X59500000Y-61250000D01*
X63000000Y-146500000D02*
G75*
G02*
X59500000Y-143000000I0J3500000D01*
G01*
X59500000Y-143000000D02*
X59500000Y-89000000D01*
X63000000Y-46000000D02*
X111000000Y-46000000D01*
X114500000Y-52500000D02*
X114500000Y-49500000D01*
X62000000Y-58750000D02*
G75*
G02*
X60500000Y-60250000I-1500000J0D01*
G01*
M02*
